<?xml version="1.0" encoding="utf-8"?>
<!-- Generator: Adobe Illustrator 23.1.1, SVG Export Plug-In . SVG Version: 6.00 Build 0)  -->
<svg version="1.1" id="Capa_1" xmlns="http://www.w3.org/2000/svg" xmlns:xlink="http://www.w3.org/1999/xlink" x="0px" y="0px"
	 viewBox="0 0 348.3 348.3" style="enable-background:new 0 0 348.3 348.3;" xml:space="preserve">
<style type="text/css">
	.st0{fill:url(#SVGID_1_);}
</style>
<g>
	<linearGradient id="SVGID_1_" gradientUnits="userSpaceOnUse" x1="2.499747e-02" y1="174.2125" x2="348.3625" y2="174.2125">
		<stop  offset="0" style="stop-color:#74B8AA"/>
		<stop  offset="0.509" style="stop-color:#3E6A80"/>
		<stop  offset="1" style="stop-color:#202F3C"/>
	</linearGradient>
	<path class="st0" d="M336.6,68.6L231,174.2l105.5,105.5c15.7,15.7,15.7,41.1,0,56.9c-7.8,7.8-18.1,11.8-28.4,11.8
		s-20.6-3.9-28.4-11.8L174.2,231L68.6,336.6c-7.8,7.8-18.1,11.8-28.4,11.8s-20.6-3.9-28.4-11.8c-15.7-15.7-15.7-41.1,0-56.9
		l105.5-105.5L11.8,68.6c-15.7-15.7-15.7-41.1,0-56.8s41.1-15.7,56.8,0l105.6,105.6L279.7,11.8c15.7-15.7,41.1-15.7,56.8,0
		C352.3,27.5,352.3,52.9,336.6,68.6z"/>
</g>
</svg>
