<?xml version="1.0" encoding="utf-8"?>
<!-- Generator: Adobe Illustrator 23.1.1, SVG Export Plug-In . SVG Version: 6.00 Build 0)  -->
<svg version="1.1" id="Capa_1" xmlns="http://www.w3.org/2000/svg" xmlns:xlink="http://www.w3.org/1999/xlink" x="0px" y="0px"
	 viewBox="0 0 124 124" style="enable-background:new 0 0 124 124;" xml:space="preserve">
<style type="text/css">
	.st0{fill:url(#SVGID_1_);}
	.st1{fill:url(#SVGID_2_);}
	.st2{fill:url(#SVGID_3_);}
</style>
<g>
	<linearGradient id="SVGID_1_" gradientUnits="userSpaceOnUse" x1="0" y1="18" x2="124" y2="18">
		<stop  offset="0" style="stop-color:#74B8AA"/>
		<stop  offset="0.509" style="stop-color:#3E6A80"/>
		<stop  offset="1" style="stop-color:#202F3C"/>
	</linearGradient>
	<path class="st0" d="M112,6H12C5.4,6,0,11.4,0,18s5.4,12,12,12h100c6.6,0,12-5.4,12-12S118.6,6,112,6z"/>
	<linearGradient id="SVGID_2_" gradientUnits="userSpaceOnUse" x1="0" y1="62" x2="124" y2="62">
		<stop  offset="0" style="stop-color:#74B8AA"/>
		<stop  offset="0.509" style="stop-color:#3E6A80"/>
		<stop  offset="1" style="stop-color:#202F3C"/>
	</linearGradient>
	<path class="st1" d="M112,50H12C5.4,50,0,55.4,0,62s5.4,12,12,12h100c6.6,0,12-5.4,12-12S118.6,50,112,50z"/>
	<linearGradient id="SVGID_3_" gradientUnits="userSpaceOnUse" x1="0" y1="106" x2="124" y2="106">
		<stop  offset="0" style="stop-color:#74B8AA"/>
		<stop  offset="0.509" style="stop-color:#3E6A80"/>
		<stop  offset="1" style="stop-color:#202F3C"/>
	</linearGradient>
	<path class="st2" d="M112,94H12c-6.6,0-12,5.4-12,12s5.4,12,12,12h100c6.6,0,12-5.4,12-12S118.6,94,112,94z"/>
</g>
</svg>
