<svg id="kv_txt2" xmlns="http://www.w3.org/2000/svg" width="445.585" height="36.863" viewBox="0 0 445.585 36.863">
  <path id="Path_26380" data-name="Path 26380" d="M746.841-426.687a2.013,2.013,0,0,1,.12.641,4.57,4.57,0,0,1-.641,2.04,5.221,5.221,0,0,1-1.241,1.561,9.235,9.235,0,0,1-1.52,1.641c1.92-.08,3.522-.118,4.883-.159a3.13,3.13,0,0,0,1.159-.761,2.246,2.246,0,0,1,1.161-.52c.72,0,1.481.561,2.363,1.641a8.471,8.471,0,0,1,1.481,4.524c.159,2.722.241,6,.241,9.806a7.725,7.725,0,0,1-2.322,5.283,7.117,7.117,0,0,1-4.524,2.2c-.559,0-.8-.559-.8-1.6a1.664,1.664,0,0,0-1.4-1.32,33.686,33.686,0,0,0-6.044.52c-.4.641-.759,1-1.04,1-.72,0-1.4-.641-2-1.922a13.034,13.034,0,0,1-.959-4.762c0-4.964.041-8.125.2-9.406a25.513,25.513,0,0,1,.6-3.8c.561-1.322,1.122-2,1.722-2,.4,0,.838.322,1.361.963.279-.682.6-1.443,1-2.242.322-.52.72-1.32,1.281-2.4.08-.161.161-.359.241-.52a5.457,5.457,0,0,1-.718.08c-1.563.28-3.242.682-5.005,1.161a8.867,8.867,0,0,1-3.281.761,2.526,2.526,0,0,1-2.122-1,3.93,3.93,0,0,1-1.441-2.8c0-.718.8-1.32,2.443-1.8,1.679-.241,3.6-.523,5.762-.761,2.281-.241,4.722-.441,7.323-.679,2.765-.161,5.564-.282,8.407-.4,1.681-.12,2.722-.2,3.16-.2a4.1,4.1,0,0,1,2.963,1.441,4.776,4.776,0,0,1,1.043,2.363c0,1.159-.843,1.72-2.522,1.72-2.883-.28-5.364-.439-7.525-.439C749.522-426.846,748.243-426.767,746.841-426.687Zm-1.2,13.29c.639.318.961.718.961,1.159,0,1.041-.682,1.8-2,2.281a41.269,41.269,0,0,1-4.765.52c0,1,.041,2,.081,3.042a8.286,8.286,0,0,0,.118,1.561c.641-.08,1.281-.2,2-.28,1.641-.12,4.081-.2,7.364-.2.159,0,.277-.72.277-2.163.043-5.442.084-8.564.084-9.4q0-1.38-.963-1.681a19.544,19.544,0,0,0-2.881.28,27.769,27.769,0,0,0-3.563.961c-.72.32-1.479.682-2.361,1.12a10.164,10.164,0,0,0-.2,1.881V-413a5.864,5.864,0,0,0,.879-.2,14.3,14.3,0,0,1,3.524-.6A3.262,3.262,0,0,1,745.641-413.4Z" transform="translate(-729.591 434.012)" fill="#987c4f"/>
  <path id="Path_26381" data-name="Path 26381" d="M755.4-428.153a3.261,3.261,0,0,1,1,2.043,19.878,19.878,0,0,1-.32,2.4q0,2.88-.12,5.642a31.082,31.082,0,0,1-1.081,7.646,18.846,18.846,0,0,1-3,6.323,8.83,8.83,0,0,1-1.483,1.8c-.559.882-.959,1.322-1.241,1.322a16.441,16.441,0,0,1,.441-3.563q.419-1.8,1.322-4.444a29.823,29.823,0,0,0,.961-4.924,31.862,31.862,0,0,0,.359-5.042c0-1.961-.041-4.083-.079-6.405a6.59,6.59,0,0,1,.6-2.64c.482-.561.92-.879,1.24-.879A2.075,2.075,0,0,1,755.4-428.153Zm9.445,1.243a3.659,3.659,0,0,1,.72,2.12,8.88,8.88,0,0,1-.159,1.081,6.88,6.88,0,0,0-.323,2.24q-.358,4.083-.359,6.485c0,2.24,0,4.242.041,6.085a8.494,8.494,0,0,1-.722,3.122,10.463,10.463,0,0,1-1.6,1.641c-.641-.041-1-.441-1.122-1.161a7.4,7.4,0,0,1-.4-2.2c-.08-2.242-.08-4.524-.08-6.923.039-1.922.08-3.763.08-5.444,0-2.442.039-3.962.039-4.6a3.866,3.866,0,0,1,.682-2.4,3.041,3.041,0,0,1,2-.761A1.9,1.9,0,0,1,764.846-426.911Zm9.727-4.083a2.6,2.6,0,0,1,1.2,2.561c0,.479-.038,1.161-.079,2a35.42,35.42,0,0,0-.241,3.563c0,.6.039,1.961.161,4.042.039,1.961.079,3.281.079,3.962,0,2.081.041,4.2.041,6.444a13.967,13.967,0,0,1-.6,4.8,6.524,6.524,0,0,1-1.761,2.922c-.4.559-.761,1.12-1.082,1.641-.238.8-.479,1.241-.8,1.241a6.559,6.559,0,0,1-.92-2.563q-.242-3.119-.361-7.082c-.08-3.883-.08-7.325-.08-10.327-.08-2.322-.12-4.724-.12-7.125.2-4.562.8-6.884,1.843-6.964A4.038,4.038,0,0,1,774.573-430.993Z" transform="translate(-707.091 434.077)" fill="#987c4f"/>
  <path id="Path_26382" data-name="Path 26382" d="M779.081-419.582a3.635,3.635,0,0,1-2.683,1.12,3.594,3.594,0,0,1-2.722-1.12,3.571,3.571,0,0,1-1.12-2.681,3.631,3.631,0,0,1,1.12-2.681,3.741,3.741,0,0,1,2.722-1.122,3.791,3.791,0,0,1,2.683,1.122,3.783,3.783,0,0,1,1.118,2.681A3.717,3.717,0,0,1,779.081-419.582Z" transform="translate(-680.18 440.756)" fill="#987c4f"/>
  <path id="Path_26383" data-name="Path 26383" d="M795.212-430.977a3.43,3.43,0,0,1,.641,1.881c0,.439-.041,1.079-.12,1.881a3.879,3.879,0,0,0-.08.559c.359-.559.72-1.082,1.038-1.52.963-1.2,1.684-1.8,2.242-1.8a1.675,1.675,0,0,1,1.843,1.922,2.042,2.042,0,0,1-.561,1.561,1.505,1.505,0,0,1-1.12.6,13.577,13.577,0,0,0-2.642,1.52,9.4,9.4,0,0,1-1,1.2,8.7,8.7,0,0,0-.039.961c.761-.32,1.279-.561,1.522-.682,1.479.161,2.24.841,2.24,2a1.87,1.87,0,0,1-.682,1.64,3.367,3.367,0,0,1-2.04,1.161,5.647,5.647,0,0,1-1.2.561c-.041,1-.082,1.881-.082,2.681h.241c2.683.361,4.044,1.281,4.044,2.761,0,1.241-.561,1.843-1.643,1.843a4.313,4.313,0,0,1-2.722-.8c0,3.281,0,6.323.08,9.045a6.977,6.977,0,0,1-.68,2.8,13.611,13.611,0,0,1-1.4,1.481,1.152,1.152,0,0,1-1.043-1.039,7.182,7.182,0,0,1-.359-2c-.039-3.522-.039-7.084-.039-10.767-.123.159-.2.32-.282.4a33.956,33.956,0,0,1-2.2,3.2A11.748,11.748,0,0,1,787.687-406c-.479.52-.841.92-1.079,1.161a3.265,3.265,0,0,1-1.722,1c-.08,0-.118-.241-.118-.679a17.776,17.776,0,0,1,.479-1.722q.419-1.08.841-2.04c.4-.841.8-1.72,1.281-2.642.88-1.561,1.679-2.922,2.481-4.122.159-.241.318-.479.439-.682a2.99,2.99,0,0,1-.439.161,4.793,4.793,0,0,1-1.722.52,2.306,2.306,0,0,1-1.681-.72,2.844,2.844,0,0,1-.959-1.961c0-.92.52-1.481,1.641-1.722a19.119,19.119,0,0,0,2.6-.6c.641-.161,1.281-.361,1.961-.6v-.482c0-4.083.041-6.644.041-7.684a3.507,3.507,0,0,1,.6-2.122,2.6,2.6,0,0,1,1.84-.72A1.765,1.765,0,0,1,795.212-430.977Zm-5.044,2.84a5.3,5.3,0,0,1,.561,2.4,12,12,0,0,1-.2,2.561c-.159.559-.361.841-.6.841-.561,0-1.241-.72-1.961-2.2a7.6,7.6,0,0,1-.961-2.4c0-1.32.679-2,2.081-2A1.173,1.173,0,0,1,790.168-428.137Zm10.047,13.33a2.836,2.836,0,0,1-2.84-2.281c0-.8.518-1.322,1.641-1.6,1.84-.4,3.8-.761,5.883-1.161a9.133,9.133,0,0,1,.079-1.122,5.272,5.272,0,0,1-1.32.161,2.851,2.851,0,0,1-2.081-.679q-.842-.661-.841-1.2c0-.641.4-1.12,1.281-1.361.879-.159,1.8-.359,2.84-.6a1.137,1.137,0,0,0,.361-.08,2.969,2.969,0,0,1,.041-.6,4.579,4.579,0,0,1-1,.118,3.173,3.173,0,0,1-2.24-.759c-.561-.482-.843-.882-.843-1.241,0-.72.441-1.2,1.324-1.481q1.2-.3,2.64-.72c.079,0,.12-.041.2-.08v-.761c.359-1.761,1.04-2.642,2-2.642a3.007,3.007,0,0,1,1.841,1.2,4.3,4.3,0,0,1,.441,1c.079,0,.12-.041.159-.041.482-.079.879-.118,1.2-.2a3.829,3.829,0,0,1,1.761.441,1.783,1.783,0,0,1,.721,1.361,1.527,1.527,0,0,1-1.443,1.641c-.918.2-1.679.4-2.32.561-.079.4-.118.8-.161,1.241a1.98,1.98,0,0,0,.482-.08,11.866,11.866,0,0,0,1.32-.2,3.491,3.491,0,0,1,1.642.439,1.718,1.718,0,0,1,.679,1.281,1.47,1.47,0,0,1-1.361,1.561c-1.281.2-2.281.4-3.081.561a1.066,1.066,0,0,1-.28.08c-.081.6-.163,1.122-.243,1.561,1.243-.159,2.4-.32,3.485-.561,2.079-.239,3.281-.4,3.56-.4a2.6,2.6,0,0,1,1.681.72,4.068,4.068,0,0,1,1.038,2.242c0,.6-.477.879-1.359.879-1.761,0-3.844.082-6.164.241a39.406,39.406,0,0,0-5.964,1.2,6.861,6.861,0,0,1-.879.359,1.259,1.259,0,0,1,.52.6,11.04,11.04,0,0,1,1.922-.439,18.182,18.182,0,0,1,2.72-.241,3.54,3.54,0,0,1,2-.682c.641,0,1.279.641,1.961,1.881a12.959,12.959,0,0,1,1.082,5.244c.118,1.84.2,4,.2,6.4a8.947,8.947,0,0,1-.6,3.724c-.079.561-.641,1.041-1.759,1.481a4.979,4.979,0,0,1-3.242,1.8,1.8,1.8,0,0,1-1.561-1.84,2.527,2.527,0,0,0-1-2,1.431,1.431,0,0,1-.6-.6,2.116,2.116,0,0,1,.041-.441,13.062,13.062,0,0,0,2.6.361c1.361,0,2.081-1.243,2.081-3.8,0-1.761-.159-4.242-.4-7.444,0-1.361-.28-2.043-.8-2.043-.8.241-1.761.561-2.963.961l-1.679.6c-.041.479-.079.918-.079,1.359a.73.73,0,0,0,.318-.08,7.544,7.544,0,0,1,2.483-.641,2.372,2.372,0,0,1,1,.28c.4.241.641.482.641.8,0,.72-.479,1.281-1.4,1.6a16.346,16.346,0,0,1-3.163.641c-.039.6-.039,1.2-.039,1.843.2-.041.441-.08.723-.161a10.567,10.567,0,0,1,2.681-.559,2.052,2.052,0,0,1,1.12.318c.479.4.761.722.761,1.043,0,.92-.523,1.359-1.484,1.359a15.616,15.616,0,0,0-1.92.2c-.8.2-1.441.32-1.922.4v1.961a10.857,10.857,0,0,1-.479,2.481c-.32.961-.722,1.481-1.279,1.481-.4,0-.843-.441-1.24-1.281a12.383,12.383,0,0,1-.361-3.081c0-1.843.039-3.763.2-5.764.122-1.641.282-3.042.441-4.2a9.174,9.174,0,0,1,.922-3A9.054,9.054,0,0,1,800.215-414.806Z" transform="translate(-666.136 432.899)" fill="#987c4f"/>
  <path id="Path_26384" data-name="Path 26384" d="M807.678-403.25a10.735,10.735,0,0,1-4.2,2.842,12.509,12.509,0,0,1,1.438-3.4,37.024,37.024,0,0,0,3.2-5.164,17.462,17.462,0,0,0,1.8-6.323,82.364,82.364,0,0,0,.639-11.088,7.4,7.4,0,0,1,.443-2.961c.479-.882.918-1.361,1.279-1.361.482,0,1,.361,1.64,1.041a3.8,3.8,0,0,1,.843,2.481c-.041,1.12-.082,2.2-.161,3.322,1.04-1.241,1.879-1.881,2.44-1.881a1.4,1.4,0,0,1,1.522,1.6,2.218,2.218,0,0,1-.52,1.681,2.242,2.242,0,0,1,.959.52,2.669,2.669,0,0,1,.482.479.677.677,0,0,0,.4-.12,28.9,28.9,0,0,0,3.963-.641c0-.6-.039-1.2-.039-1.8a15.837,15.837,0,0,1-2.6.239,2.706,2.706,0,0,1-2-.679,1.726,1.726,0,0,1-.641-1.4,1.71,1.71,0,0,1,1.4-1.763q1.322-.361,3.124-.72c.239-.039.439-.08.68-.12v-.08a16.209,16.209,0,0,1-.121-1.961c-.079-.241-.161-.6-.32-1.081a1.3,1.3,0,0,1,1.44-.92,2.885,2.885,0,0,1,2.363,1.281,19.258,19.258,0,0,1,.279,1.961,26.836,26.836,0,0,1,2.842-.32c.918,0,1.4.4,1.4,1.12a2.244,2.244,0,0,1-1.12,2.283,9.489,9.489,0,0,1-2.922,1.279v.08c0,.72.041,1.4.08,2.043.8-.08,1.481-.161,1.961-.161a10.8,10.8,0,0,1,2.24.161c.643-1,1.281-1.52,1.924-1.52.559,0,1.159.439,1.838,1.32a3.648,3.648,0,0,1,.641,2.081,9.486,9.486,0,0,1-.839,3.522c-.961,2.281-1.684,3.563-2.081,3.8-.361.522-2,1.041-4.964,1.561.4.361.841.8,1.361,1.361a26.724,26.724,0,0,0,3.842,3.563,20.573,20.573,0,0,0,2.563,1.84,24.1,24.1,0,0,1,2.561,1.761c.8.522,1.241.882,1.241,1.122a.79.79,0,0,1-.561.159c-.318-.041-.679-.08-1.079-.12-.4,0-.8-.039-1.241-.039a3.189,3.189,0,0,0-1.241.6,4.945,4.945,0,0,1-1.561.241,3.123,3.123,0,0,1-1.8-.8,8.306,8.306,0,0,1-1.881-1.759,10.767,10.767,0,0,1-2.161-3.083c-.159-.32-.32-.641-.441-.92v3a14.366,14.366,0,0,1-.479,4.4,1.937,1.937,0,0,1-1.443,1.52,6.493,6.493,0,0,0-1.44,1.361,2.047,2.047,0,0,1-1.441.8c-.8,0-1.279-.559-1.44-1.641,0-.559-.52-1.081-1.481-1.561a2.556,2.556,0,0,1-.72-.8c0-.2.12-.32.361-.32.52.08,1.082.12,1.72.159a.435.435,0,0,0,.282-.08c1.241-.241,1.881-1.8,1.881-4.6v-1.281c-.561.561-1.2,1.2-1.922,1.843a15.08,15.08,0,0,1-3.683,2.481,10.016,10.016,0,0,1-1.92,1.2,4.623,4.623,0,0,1-1.722.882c-.241,0-.32-.08-.32-.32a7.913,7.913,0,0,1,.92-1.6,27.325,27.325,0,0,1,2.763-3.442c.72-.72,1.561-1.679,2.563-2.8.679-.722,1.2-1.243,1.559-1.643-.559.161-1.081.28-1.559.4-.243.561-.561.8-.963.8-.48,0-1.32-1.52-2.44-4.6a29.47,29.47,0,0,1-1-5.723,3.9,3.9,0,0,1,.318-1.881,11.39,11.39,0,0,0-2.12,1.32c-.12,1.041-.239,2.043-.4,3.042a29.963,29.963,0,0,1-.959,5.723,5.335,5.335,0,0,1,2.363,1.281,3.408,3.408,0,0,1,.959,2.44c0,1.522-.561,2.242-1.641,2.242a1.706,1.706,0,0,1-1.443-.8,9.083,9.083,0,0,0-1.679-1.881A19.976,19.976,0,0,1,807.678-403.25Zm1.4-16.85v2.8c-.08,2.24-.52,3.363-1.24,3.363-1.082,0-1.881-1.32-2.443-4a27.31,27.31,0,0,1-.28-3.122,4.434,4.434,0,0,1,.682-2.2,2.517,2.517,0,0,1,1.679-.8C808.437-424.063,808.958-422.742,809.078-420.1Zm12.447,6.164h.2a6.047,6.047,0,0,1-.52-.882,4.541,4.541,0,0,1-.641-1.6c0-.8.441-1.243,1.32-1.243a.943.943,0,0,1,.841.482,2.882,2.882,0,0,1,.479,1.6,5.984,5.984,0,0,1-.159,1.52c.239-.041.52-.08.841-.159V-419.1a21.441,21.441,0,0,0-3.842,1.32,30.1,30.1,0,0,0,.318,3.8A10.674,10.674,0,0,0,821.525-413.936Zm6.323-4.4c.682-.882,1.2-1.32,1.6-1.32a1.131,1.131,0,0,1,1.241,1.281,1.85,1.85,0,0,1-.4,1.32,1.3,1.3,0,0,1-.839.479,11.554,11.554,0,0,0-1.522.961v.52a17.915,17.915,0,0,0,2.52-.841,10.323,10.323,0,0,0,1.281-5.362,4.939,4.939,0,0,1-2.161,1c-.559.12-1.161.241-1.8.359C827.768-419.3,827.809-418.739,827.848-418.339Z" transform="translate(-644.621 433.349)" fill="#987c4f"/>
  <path id="Path_26385" data-name="Path 26385" d="M834.925-419.582a3.627,3.627,0,0,1-2.683,1.12,3.589,3.589,0,0,1-2.72-1.12,3.565,3.565,0,0,1-1.122-2.681,3.625,3.625,0,0,1,1.122-2.681,3.736,3.736,0,0,1,2.72-1.122,3.783,3.783,0,0,1,2.683,1.122,3.785,3.785,0,0,1,1.12,2.681A3.719,3.719,0,0,1,834.925-419.582Z" transform="translate(-615.956 440.756)" fill="#987c4f"/>
  <path id="Path_26386" data-name="Path 26386" d="M870.782-426.593a9.583,9.583,0,0,1,1.6-.2,3.545,3.545,0,0,1,2.681,1.522,4.026,4.026,0,0,1,.922,2.681,1.974,1.974,0,0,1-2.163,2,11.065,11.065,0,0,1-3.36-.722c-1.679-.2-3.322-.32-5-.359a78.783,78.783,0,0,0-9.966,1.081,38.867,38.867,0,0,0-6.444,1.72,13.528,13.528,0,0,1-4.005.881,5.258,5.258,0,0,1-3-1.122,3.973,3.973,0,0,1-1.563-2.72,1.92,1.92,0,0,1,.922-1.643c.8-.2,1.679-.4,2.681-.6,3.4-.52,7.684-1.041,12.808-1.6,4.2-.361,8.207-.6,12.008-.682A18.131,18.131,0,0,0,870.782-426.593Z" transform="translate(-602.062 439.921)" fill="#987c4f"/>
  <path id="Path_26387" data-name="Path 26387" d="M879.364-427.727c0,.72-.082,1.8-.161,3.281a30.737,30.737,0,0,1,4.6-.559,2.928,2.928,0,0,1,1.761.6,2.522,2.522,0,0,1,.843,1.561,2.3,2.3,0,0,1-.884,1.961A23.382,23.382,0,0,1,881-419.722c-.761.2-1.441.361-2.081.52-.039,1.081-.039,2.081-.039,3.042v1.041a33.168,33.168,0,0,1,3.921-.4,2.739,2.739,0,0,1,1.722.6,2.631,2.631,0,0,1,.879,1.561,2.233,2.233,0,0,1-.92,1.961A25.5,25.5,0,0,1,880-410.315c-.4.08-.8.159-1.12.241v5.683c.959-.039,1.92-.08,2.84-.161,1.681-.039,3.2-.118,4.562-.28a13.866,13.866,0,0,1,1.6-.12,4,4,0,0,1,2.6,1.161,3.109,3.109,0,0,1,.959,2.363c0,1.359-1,2.04-2.92,2.04a13.577,13.577,0,0,1-2.481-.241,12.287,12.287,0,0,0-2.122-.2c-4.442.241-8.925.561-13.487.961a57.837,57.837,0,0,0-6.885.92,2.656,2.656,0,0,1-2.283-.879,3.768,3.768,0,0,1-.759-1.843c.039-1.12,1.2-2,3.522-2.6,1.159-.12,4.444-.4,9.806-.8v-5.083a30.247,30.247,0,0,1-4.562.4,2.726,2.726,0,0,1-2-.72,1.753,1.753,0,0,1-.641-1.443,2.332,2.332,0,0,1,.561-1.759c1.12-.32,3.322-.841,6.644-1.522v-4.042a21.984,21.984,0,0,1-3.642.32,2.6,2.6,0,0,1-1.72-.52c-1.081,1.12-2.242,2.322-3.483,3.522a5.052,5.052,0,0,1-1.4,1.12,3.979,3.979,0,0,1-1.641.761c-.32,0-.48-.08-.48-.32a9.965,9.965,0,0,1,.28-2.081,21.377,21.377,0,0,1,.879-2.761,20.271,20.271,0,0,1,2-3.963c2.161-2.922,3.681-4.4,4.562-4.4.641,0,1.279.6,1.881,1.8a4.484,4.484,0,0,1,.6,1.92c.641-.159,1.4-.32,2.2-.52,0-.879.041-1.8.041-2.761a14.191,14.191,0,0,1,.6-4.765c.482-1.038,1.123-1.6,1.922-1.6C878.362-432.489,879.364-430.889,879.364-427.727Z" transform="translate(-579.025 433.37)" fill="#987c4f"/>
  <path id="Path_26388" data-name="Path 26388" d="M890.771-419.582a3.627,3.627,0,0,1-2.683,1.12,3.586,3.586,0,0,1-2.72-1.12,3.565,3.565,0,0,1-1.122-2.681,3.625,3.625,0,0,1,1.122-2.681,3.732,3.732,0,0,1,2.72-1.122,3.783,3.783,0,0,1,2.683,1.122,3.784,3.784,0,0,1,1.12,2.681A3.718,3.718,0,0,1,890.771-419.582Z" transform="translate(-551.73 440.756)" fill="#987c4f"/>
  <path id="Path_26389" data-name="Path 26389" d="M932.827-426.593a9.579,9.579,0,0,1,1.6-.2,3.548,3.548,0,0,1,2.681,1.522,4.025,4.025,0,0,1,.922,2.681,1.973,1.973,0,0,1-2.163,2,11.065,11.065,0,0,1-3.361-.722c-1.681-.2-3.322-.32-5-.359a78.783,78.783,0,0,0-9.966,1.081,38.872,38.872,0,0,0-6.444,1.72,13.527,13.527,0,0,1-4.006.881,5.258,5.258,0,0,1-3-1.122,3.973,3.973,0,0,1-1.563-2.72,1.92,1.92,0,0,1,.922-1.643c.8-.2,1.679-.4,2.681-.6,3.4-.52,7.684-1.041,12.808-1.6,4.2-.361,8.207-.6,12.008-.682A18.143,18.143,0,0,0,932.827-426.593Z" transform="translate(-530.707 439.921)" fill="#987c4f"/>
  <path id="Path_26390" data-name="Path 26390" d="M948.52-428.926a2.831,2.831,0,0,1,1.881,1.241c1.2,1.6,1.842,2.84,1.881,3.8-.039,1.041-.839,1.522-2.359,1.522a16.312,16.312,0,0,1-3.083-.52,5.115,5.115,0,0,0-1.64.559,8.484,8.484,0,0,1-1.079.32.424.424,0,0,1-.482-.479,16.977,16.977,0,0,0,2.64-3.2c-.961,0-2.079.041-3.36.12-1.563.12-3.122.28-4.644.441a2.344,2.344,0,0,1-1.561.561,1.67,1.67,0,0,1-1.082-.282,5.323,5.323,0,0,1-.759.082,36.709,36.709,0,0,0-5.083,1.12,6.541,6.541,0,0,1-2.6,1.041,2.145,2.145,0,0,0-.12.641,29.534,29.534,0,0,0-.239,3.481,2.874,2.874,0,0,1-.763,1.843c-1,1.2-1.72,1.8-2.2,1.8-.963,0-1.44-1.32-1.44-4.042a25.374,25.374,0,0,1,.6-5.564c.72-2.52,1.361-3.8,1.922-3.8a3.921,3.921,0,0,1,1.559.8,8.247,8.247,0,0,1,1.043,1.082q2.577-.481,5.4-.961,1.08-.119,2.163-.241a2.27,2.27,0,0,0-1-1.4,3.493,3.493,0,0,1-1.12-2.04,1.446,1.446,0,0,1,1.161-1.481,6.886,6.886,0,0,1,3.563,1.041q2.161,1.68,2.161,3.24v.2H940q3.66-.119,6.964-.12A3.134,3.134,0,0,1,948.52-428.926Zm-9.163,5.762a4.169,4.169,0,0,1,1.32.682,3.626,3.626,0,0,1,.922,2.681c0,1.6-1.281,2.681-3.8,3.242a4.727,4.727,0,0,1-.282,1.32,10.9,10.9,0,0,0-.318,1.32c.359-.08.72-.2,1.079-.318,1.761-.561,2.922-.922,3.4-1.041,1.72.159,2.6.959,2.64,2.361a2.183,2.183,0,0,1-.8,1.92,3.9,3.9,0,0,1-2.4,1.361,40.6,40.6,0,0,1-4.721,1.481,15.1,15.1,0,0,0-.161,2.04,8.633,8.633,0,0,0,.241,2.363c.239.479.48.761.8.841a17.676,17.676,0,0,0,4.924.4,16.124,16.124,0,0,0,3.922-.561,5.117,5.117,0,0,0,2.96-1.4c.52-.082.922-1.241,1.2-3.563.2-.682.4-1.041.6-1.041s.32.2.4.52c.118,1.922.4,3,.8,3.2a1.368,1.368,0,0,1,1.32,1.361,2.458,2.458,0,0,1-.441,1.443,3.207,3.207,0,0,0-.359,1.441,4.069,4.069,0,0,1-2.283,1.679,12.419,12.419,0,0,1-3.881,1.122,19.649,19.649,0,0,1-3.163.241,32.75,32.75,0,0,1-5.323-.4,8.016,8.016,0,0,1-2.881-1.041,6.19,6.19,0,0,1-2.2-2.081,8.424,8.424,0,0,1-.759-2.761v-2a4.887,4.887,0,0,1,.079-.8c-.241.082-.482.123-.641.161a8.043,8.043,0,0,1-2.522.559,2.757,2.757,0,0,1-2.081-.879,3.547,3.547,0,0,1-1.2-2.481q0-1.742,2.04-2.161c1.361-.161,2.6-.32,3.683-.561a13.607,13.607,0,0,0,1.361-.279v-.041a30.613,30.613,0,0,1,.72-3.281h-1c-2.083,0-3.083-.843-3.083-2.6a1.645,1.645,0,0,1,.879-1.6,16.053,16.053,0,0,0,3.8-.961c.641-.279,1.361-.641,2.081-1.04a6.194,6.194,0,0,1,1.8-1.041A5.682,5.682,0,0,1,939.357-423.164Z" transform="translate(-507.82 433.37)" fill="#987c4f"/>
</svg>
