<svg xmlns="http://www.w3.org/2000/svg" width="331.595" height="41.425" viewBox="0 0 331.595 41.425">
  <g id="kv_txt4" transform="translate(-974.551 -730.249)">
    <g id="Group_1224" data-name="Group 1224" transform="translate(1004.513 737.763)">
      <g id="Group_1223" data-name="Group 1223">
        <path id="Path_26409" data-name="Path 26409" d="M770.931-352.464a7.543,7.543,0,0,1,2.178-4.887,6.787,6.787,0,0,1,4.9-1.793,6.744,6.744,0,0,1,4.868,1.755,6.3,6.3,0,0,1,1.832,4.773,5.412,5.412,0,0,1-2.215,4.848q2.977,1.3,2.978,5.648a6.979,6.979,0,0,1-2.156,5.364,7.841,7.841,0,0,1-5.554,2,7.668,7.668,0,0,1-5.42-2.1,6.809,6.809,0,0,1-2.253-5.19h3.932a3.92,3.92,0,0,0,1.105,2.825,3.74,3.74,0,0,0,2.806,1.144,3.294,3.294,0,0,0,2.711-1.26,4.728,4.728,0,0,0,1.013-3.053,4.19,4.19,0,0,0-1.088-2.767,3.187,3.187,0,0,0-2.464-1.279,1.218,1.218,0,0,0-.3.039l-.841.075v-2.634h.5a3.477,3.477,0,0,0,2.5-1.01,3.341,3.341,0,0,0,1.049-2.5q0-3.551-3.188-3.55t-3.186,3.55Z" transform="translate(-770.092 359.144)" fill="#595757"/>
        <path id="Path_26410" data-name="Path 26410" d="M779.27-352.541a6.256,6.256,0,0,1,1.946-4.771,6.805,6.805,0,0,1,4.848-1.832,6.805,6.805,0,0,1,4.848,1.832,6.256,6.256,0,0,1,1.946,4.771,5.283,5.283,0,0,1-3.053,5.115q3.738,1.374,3.739,5.88a6.151,6.151,0,0,1-2.193,4.924,7.938,7.938,0,0,1-5.326,1.87,7.8,7.8,0,0,1-5.3-1.89,6.19,6.19,0,0,1-2.178-4.9q0-4.428,3.741-5.88A5.34,5.34,0,0,1,779.27-352.541Zm3.206,10.5a4.3,4.3,0,0,0,1.032,3.053,3.435,3.435,0,0,0,2.632,1.107,3.08,3.08,0,0,0,2.539-1.165,4.631,4.631,0,0,0,.935-3,3.917,3.917,0,0,0-.993-2.711,3.276,3.276,0,0,0-2.556-1.107,3.385,3.385,0,0,0-2.5,1.127A3.74,3.74,0,0,0,782.475-342.042Zm.305-10.5a3.538,3.538,0,0,0,.955,2.559,3.126,3.126,0,0,0,2.348.993,3.164,3.164,0,0,0,2.329-.935,3.539,3.539,0,0,0,.933-2.617,4.2,4.2,0,0,0-.9-2.767A2.894,2.894,0,0,0,786.1-356.4a3.1,3.1,0,0,0-2.387,1.013A4.031,4.031,0,0,0,782.781-352.541Z" transform="translate(-760.373 359.144)" fill="#595757"/>
        <path id="Path_26411" data-name="Path 26411" d="M804.277-347.668a2.752,2.752,0,0,1-.783,1.967,2.558,2.558,0,0,1-1.926.821,2.653,2.653,0,0,1-1.948-.8,2.629,2.629,0,0,1-.8-1.929,2.62,2.62,0,0,1,.8-1.926,2.622,2.622,0,0,1,1.929-.8,2.692,2.692,0,0,1,1.926.763A2.521,2.521,0,0,1,804.277-347.668Z" transform="translate(-737.056 369.271)" fill="#595757"/>
        <path id="Path_26412" data-name="Path 26412" d="M830.961-342.872v3.017h-2.748v4.39h-3.627v-4.39H814.051v-1.718l10.344-17.482h3.818v16.183Zm-6.375-10.686-5.953,10.686h5.953Z" transform="translate(-719.537 359.246)" fill="#595757"/>
        <path id="Path_26413" data-name="Path 26413" d="M823.637-352.541a6.256,6.256,0,0,1,1.946-4.771,6.805,6.805,0,0,1,4.848-1.832,6.8,6.8,0,0,1,4.848,1.832,6.249,6.249,0,0,1,1.946,4.771,5.28,5.28,0,0,1-3.053,5.115q3.741,1.374,3.741,5.88a6.153,6.153,0,0,1-2.2,4.924,7.936,7.936,0,0,1-5.324,1.87,7.811,7.811,0,0,1-5.306-1.89,6.19,6.19,0,0,1-2.178-4.9q0-4.428,3.741-5.88A5.34,5.34,0,0,1,823.637-352.541Zm3.206,10.5a4.3,4.3,0,0,0,1.032,3.053,3.435,3.435,0,0,0,2.632,1.107,3.08,3.08,0,0,0,2.539-1.165,4.632,4.632,0,0,0,.937-3,3.928,3.928,0,0,0-.993-2.711,3.281,3.281,0,0,0-2.559-1.107,3.388,3.388,0,0,0-2.5,1.127A3.74,3.74,0,0,0,826.842-342.042Zm.305-10.5a3.538,3.538,0,0,0,.955,2.559,3.125,3.125,0,0,0,2.348.993,3.161,3.161,0,0,0,2.329-.935,3.539,3.539,0,0,0,.935-2.617,4.212,4.212,0,0,0-.9-2.767,2.9,2.9,0,0,0-2.348-1.088,3.105,3.105,0,0,0-2.387,1.013A4.031,4.031,0,0,0,827.148-352.541Z" transform="translate(-709.349 359.144)" fill="#595757"/>
        <path id="Path_26414" data-name="Path 26414" d="M848.646-347.668a2.754,2.754,0,0,1-.785,1.967,2.558,2.558,0,0,1-1.926.821,2.648,2.648,0,0,1-1.946-.8,2.631,2.631,0,0,1-.8-1.929,2.622,2.622,0,0,1,.8-1.926,2.617,2.617,0,0,1,1.926-.8,2.7,2.7,0,0,1,1.929.763A2.521,2.521,0,0,1,848.646-347.668Z" transform="translate(-686.031 369.271)" fill="#595757"/>
        <path id="Path_26415" data-name="Path 26415" d="M865.79-355.538l-.916,4.16,1.8-.077a6.877,6.877,0,0,1,5.4,2.348,8.3,8.3,0,0,1,2.081,5.706,8.088,8.088,0,0,1-2.329,6.031,8.332,8.332,0,0,1-6.108,2.292,8.7,8.7,0,0,1-6.87-3.055l1.144-3.358a6.507,6.507,0,0,0,5.42,3.092,4.605,4.605,0,0,0,3.38-1.393,5.113,5.113,0,0,0,1.391-3.778,4.8,4.8,0,0,0-1.451-3.722,5.187,5.187,0,0,0-3.664-1.337,4.717,4.717,0,0,0-3.625,1.527h-.727l2.406-11.756h10.075v3.322Z" transform="translate(-668.021 359.471)" fill="#595757"/>
        <path id="Path_26416" data-name="Path 26416" d="M868-352.541a6.256,6.256,0,0,1,1.946-4.771,6.805,6.805,0,0,1,4.848-1.832,6.8,6.8,0,0,1,4.849,1.832,6.249,6.249,0,0,1,1.946,4.771,5.281,5.281,0,0,1-3.051,5.115q3.738,1.374,3.739,5.88a6.153,6.153,0,0,1-2.2,4.924,7.932,7.932,0,0,1-5.324,1.87,7.811,7.811,0,0,1-5.306-1.89,6.19,6.19,0,0,1-2.178-4.9q0-4.428,3.743-5.88A5.339,5.339,0,0,1,868-352.541Zm3.206,10.5a4.313,4.313,0,0,0,1.032,3.053,3.435,3.435,0,0,0,2.632,1.107,3.077,3.077,0,0,0,2.539-1.165,4.632,4.632,0,0,0,.938-3,3.928,3.928,0,0,0-.993-2.711,3.281,3.281,0,0,0-2.559-1.107,3.388,3.388,0,0,0-2.5,1.127A3.74,3.74,0,0,0,871.21-342.042Zm.305-10.5a3.538,3.538,0,0,0,.955,2.559,3.129,3.129,0,0,0,2.348.993,3.161,3.161,0,0,0,2.328-.935,3.539,3.539,0,0,0,.935-2.617,4.212,4.212,0,0,0-.9-2.767,2.9,2.9,0,0,0-2.348-1.088,3.1,3.1,0,0,0-2.385,1.013A4.032,4.032,0,0,0,871.515-352.541Z" transform="translate(-658.324 359.144)" fill="#595757"/>
      </g>
    </g>
    <g id="Group_1226" data-name="Group 1226" transform="translate(1248.2 738.017)">
      <g id="Group_1225" data-name="Group 1225">
        <path id="Path_26417" data-name="Path 26417" d="M890.454-338.4l1.664-.563a10.565,10.565,0,0,0,1.221-.5c.062-.019.146-.052.252-.092v2.945a82.319,82.319,0,0,1-8.748,2.95c-.23.062-.523.144-.877.249l-.533-3.1,2.258-.5a15.487,15.487,0,0,0,1.911-.533v-9.907h-3.855v-2.728H887.6v-8.841h2.853v8.841h3.292v2.728h-3.292Zm13.61-4.076h8.215v2.7h-8.215v9.594h-2.948v-9.594h-7.525v-2.7h7.525v-12.509H893.81v-2.7h17.936v2.7h-7.682Zm-7.714-2.068-1.034-4.139a22.007,22.007,0,0,0-1.221-3.668l2.664-.722a26.333,26.333,0,0,1,1.348,3.638l1.191,4.171Zm15.02-8.026a51.591,51.591,0,0,1-2.666,8.245l-2.759-1.253a36.576,36.576,0,0,0,2.6-6.9c.043-.189.105-.43.189-.722Z" transform="translate(-883.432 359.026)" fill="#595757"/>
      </g>
    </g>
    <rect id="Rectangle_10" data-name="Rectangle 10" width="331.095" height="40.925" transform="translate(974.801 730.499)" fill="none" stroke="#000" stroke-miterlimit="10" stroke-width="0.5"/>
  </g>
</svg>
