<svg id="kv_txt3" xmlns="http://www.w3.org/2000/svg" width="387.068" height="30.64" viewBox="0 0 387.068 30.64">
  <path id="Path_26395" data-name="Path 26395" d="M769.03-378.669v3.586h-25.5v-3.586Z" transform="translate(-743.535 391.232)" fill="#595757"/>
  <path id="Path_26396" data-name="Path 26396" d="M764.294-381.409V-383.8h3.461v2.391h6.59V-383.8h3.462v2.391h5.883v3.249h-5.883v2.266h6.955v3.249h-5.395a21.5,21.5,0,0,0,5.977,3.584l-2.023,3.586A28.655,28.655,0,0,1,779-368.631v6.16H765.855v1.316c0,.705.307,1.1.98,1.165a45.572,45.572,0,0,0,5.67.153c1.961,0,3.309-.03,3.984-.092a9.006,9.006,0,0,0,2.146-.335c.52-.277.858-1.165.98-2.7l3.462,1.683c-.46,2.086-1.1,3.434-1.9,4.077a6.573,6.573,0,0,1-1.989.52c-1.993.123-4.229.183-6.682.183-3.737,0-6.1-.09-7.078-.213-2.053-.123-3.064-1.38-3.064-3.739v-6.71a24.419,24.419,0,0,1-3.339,1.931l-1.808-3.249a22.064,22.064,0,0,0,4.749-2.544,17.036,17.036,0,0,0,2.083-1.623h-6.465v-3.249h6.71v-2.266h-5.517v-3.249Zm1.561,13.911v1.778h9.806V-367.5Zm10.912-3.247a24.557,24.557,0,0,1-1.716-1.9h-7.08c-.49.673-.98,1.318-1.471,1.9Zm-2.421-5.149v-2.266h-6.59v2.266Z" transform="translate(-727.801 385.331)" fill="#595757"/>
  <path id="Path_26397" data-name="Path 26397" d="M779.119-382.877v-.98h3.369v.98h5.852v-.98h3.371v.98h7.416v2.728h-7.416v.858h-3.371v-.858h-5.852v1.1H780.8v.46h4.567v2.051H780.8v.583h5.515v2.053h-3.582c0,.553.181.828.58.828.492,0,.766-.03.828-.123a5.645,5.645,0,0,0,.123-.583l2.051.583c-.06.368-.088.675-.153.918-.028.368-.305.645-.8.8a6.833,6.833,0,0,1-2.053.215,9.175,9.175,0,0,1-1.348-.123,1.539,1.539,0,0,1-1.408-.675v1.133h4.319v2.053H780.56v.583c1.746-.03,3.339-.06,4.81-.123l.215,1.808c-3.924.307-8.243.52-13.023.705l-.368-2.268c1.868,0,3.616-.03,5.27-.06v-.645H772.9v-2.053h.553l-1.256-1.776a11.675,11.675,0,0,0,2.543-.92,1.165,1.165,0,0,0,.46-.275h-3.373v-2.053h5.762v-.583H772.9v-2.051h4.689v-.828h1.533v-.735h-7.538v-2.728Zm20.131,20.471v2.511h-3.462c.8.46,1.531.95,2.266,1.441L796-355.941a19.082,19.082,0,0,0-1.713-1.288c-5.915.613-12.718.98-20.411,1.163l-.613-2.511c1.288,0,2.546-.03,3.8-.03.52-.43,1.011-.858,1.5-1.288h-6.986v-2.511Zm-21.786-9.959H780.4a2.292,2.292,0,0,1-.183-.95v-.583h-1.871a6.6,6.6,0,0,1-1.408,1.5,10.317,10.317,0,0,1-2.666,1.468h3.186Zm18.172,6.71v2.389H775.073v-2.389Zm-5.149,6.1.337-.338H782.4a17.379,17.379,0,0,1-1.408,1.225c3.494-.122,6.925-.245,10.264-.458C790.977-359.282,790.731-359.435,790.487-359.557Zm-1.1-17.835c0-.458.03-.948.03-1.438h3c0,.55-.028,1.011-.028,1.438h4.229c.06,1.778.12,3.311.12,4.567a26.45,26.45,0,0,0,.125,3.249c.028.305.09.46.213.46.062,0,.09-.092.123-.338a12.48,12.48,0,0,0,.122-1.593l2.266.98a5.566,5.566,0,0,1-1.008,3.124,2.172,2.172,0,0,1-1.5.583,2.483,2.483,0,0,1-2.113-.95q-1.106-1.193-1.105-5.515c0-.55-.028-1.133-.028-1.808h-1.565a24.453,24.453,0,0,1-.428,3c.705.55,1.38,1.1,2.021,1.684l-1.929,2.391c-.46-.43-.888-.858-1.318-1.226a11.355,11.355,0,0,1-2.511,2.759l-2.146-2.391a7.454,7.454,0,0,0,2.146-2.328c-.585-.428-1.135-.8-1.656-1.133l1.9-2.023c.245.153.49.307.737.43.06-.368.09-.738.153-1.165h-2.206v-2.759Z" transform="translate(-711.281 385.265)" fill="#595757"/>
  <path id="Path_26398" data-name="Path 26398" d="M802.2-380.674c-1.473.305-2.974.553-4.535.8,0,1.9.06,3.647.121,5.18h4.289v3.371H798c.06,1.348.185,2.574.338,3.616a25.311,25.311,0,0,0,.98,5.24c.183.888.428,1.316.7,1.316,0,0,.032-.09.092-.305a22.934,22.934,0,0,0,.155-2.451l2.634.98V-383.31H813.69l-3,10.236a13.9,13.9,0,0,1,1.931,3.492,11.507,11.507,0,0,1,.828,4.107q-.094,5.515-3.952,5.515a13.908,13.908,0,0,1-2.513-.245l-.735-3.279v7.233H802.9v-4.659a5.662,5.662,0,0,1-1.073,2.881,2.371,2.371,0,0,1-1.808.705,2.781,2.781,0,0,1-2.419-1.471c-.8-1.2-1.471-3.464-1.991-6.773a48.766,48.766,0,0,1-.675-5.76h-4.349v6.678c1.531-.273,2.941-.581,4.289-.948l.488,3a72.086,72.086,0,0,1-8.4,2.266l-1.2-3.462c.432-.062.89-.122,1.32-.215v-17.742c1.653-.123,3.737-.4,6.25-.8a50.287,50.287,0,0,0,5.73-1.258Zm-5.394,20.714v3.339h-9.712v-3.339Zm-2.236-19.488c-1.378.185-2.7.338-3.982.428v4.322h4.134C794.66-376.2,794.6-377.793,794.57-379.448Zm14.924,16.117c.368,0,.58-.7.58-2.144a9.529,9.529,0,0,0-.553-3.1,13.464,13.464,0,0,0-2.081-3.614l1.9-7.783h-3.094V-364A9.578,9.578,0,0,0,809.494-363.332Z" transform="translate(-694.958 385.331)" fill="#595757"/>
  <path id="Path_26399" data-name="Path 26399" d="M805.6-353.872v-30.64h3.861v30.64Z" transform="translate(-672.159 384.512)" fill="#595757"/>
  <path id="Path_26400" data-name="Path 26400" d="M828.855-361.025a9.858,9.858,0,0,1-5.928,1.8q-8.169,0-8.325-8.011h4.509a4.55,4.55,0,0,0,.938,3.085,3.726,3.726,0,0,0,2.879.937,4.536,4.536,0,0,0,2.842-.869,3.055,3.055,0,0,0,1.286-2.531,2.563,2.563,0,0,0-1.425-2.359,6.178,6.178,0,0,0-2.945-.658,19.064,19.064,0,0,0-1.942.209v-4.3a19.155,19.155,0,0,0,2.253.138,4.427,4.427,0,0,0,2.6-.692,2.531,2.531,0,0,0,1.178-2.184,2.36,2.36,0,0,0-1.178-2.081,5.305,5.305,0,0,0-2.567-.589,3.633,3.633,0,0,0-2.808.9,4.673,4.673,0,0,0-.869,2.774h-4.4q.152-7.6,7.8-7.594a10.345,10.345,0,0,1,5.79,1.527,5.81,5.81,0,0,1,2.634,5.1,5.628,5.628,0,0,1-2.5,4.749,6.3,6.3,0,0,1,2.845,5.306A6.312,6.312,0,0,1,828.855-361.025Z" transform="translate(-661.804 386.198)" fill="#595757"/>
  <path id="Path_26401" data-name="Path 26401" d="M831.065-373.678a4.691,4.691,0,0,1-2.462-1.11A6.711,6.711,0,0,0,826.7-375.9c-.624,0-1.63.66-2.948,1.941v-3.849a3.894,3.894,0,0,1,2.984-1.352,5.494,5.494,0,0,1,2.5,1.109A7.518,7.518,0,0,0,831.1-376.9c.761,0,1.733-.66,2.945-1.978V-375A3.9,3.9,0,0,1,831.065-373.678Z" transform="translate(-651.286 390.668)" fill="#595757"/>
  <path id="Path_26402" data-name="Path 26402" d="M843.818-364.7v4.752h-4.229V-364.7h-9.953v-2.879l10.473-15.293h3.709v14.358h3.5v3.814Zm-4.229-10.264-4.474,6.45h4.474Z" transform="translate(-644.514 386.402)" fill="#595757"/>
  <path id="Path_26403" data-name="Path 26403" d="M845.914-370.124a25.1,25.1,0,0,1-1.1,7.413,28.448,28.448,0,0,1-3.066,6.59l-2.421-2.268A27.31,27.31,0,0,0,841.685-364a24.512,24.512,0,0,0,.765-6.128v-11.982a133.587,133.587,0,0,0,21.541-1.808l1.931,3a131.325,131.325,0,0,1-20.008,1.868v.643H865.8v7.3h-7.906v1.684h9.1v3.249H853.818c-.06.52-.12.98-.183,1.41h11.43c0,4.382-.368,6.893-1.043,7.628-.52.735-1.806,1.133-3.859,1.133a42.665,42.665,0,0,1-4.412-.243l-.738-3.371a47.688,47.688,0,0,0,5.149.368c.49,0,.8-.062.918-.245a3.835,3.835,0,0,0,.4-2.268h-8.826a11.506,11.506,0,0,1-2.146,2.789A17.963,17.963,0,0,1,846.527-356l-1.933-2.879a15.073,15.073,0,0,0,3.219-2.391,9.048,9.048,0,0,0,2.023-2.759,7.248,7.248,0,0,0,.58-2.143h-4.134v-3.249h8.028V-371.1h-8.4Zm0-4.076h16.515v-1.071H845.914Z" transform="translate(-633.373 385.2)" fill="#595757"/>
  <path id="Path_26404" data-name="Path 26404" d="M859.147-353.872v-30.64h3.862v30.64Z" transform="translate(-610.575 384.512)" fill="#595757"/>
  <path id="Path_26405" data-name="Path 26405" d="M891.807-363.855h3.371v2.971h-6.373c2.174.673,4.257,1.38,6.25,2.176l-1.44,3.216a56.555,56.555,0,0,0-9.224-3.462l1.013-1.931h-8.428l1.2.98a32.308,32.308,0,0,1-8.366,4.167L868-358.83a29.633,29.633,0,0,0,5.607-2.053H868v-2.971h3v-14.5h7.693a4.412,4.412,0,0,0,.275-.7H868v-3h12.045c.183-.643.365-1.286.52-1.9l3.584.826c-.123.368-.215.737-.307,1.073h11.339v3h-12.5c-.122.245-.213.49-.338.7h9.469Zm-3.339-10.787v-.828H874.34v.828Zm0,3.586v-.828H874.34v.828Zm0,3.614v-.858H874.34v.858Zm0,3.586v-.858H874.34v.858Z" transform="translate(-600.397 385.151)" fill="#595757"/>
  <path id="Path_26406" data-name="Path 26406" d="M908.111-382.845v3.464H897.569v17.22h11.737v3.494H882.248v-3.494H893.86v-17.22H883.446v-3.464Z" transform="translate(-584.008 386.429)" fill="#595757"/>
  <path id="Path_26407" data-name="Path 26407" d="M903.924-382.877v-.98h3.369v.98h5.853v-.98h3.371v.98h7.413v2.728h-7.413v.858h-3.371v-.858h-5.853v1.1h-1.686v.46h4.567v2.051h-4.567v.583h5.515v2.053h-3.584c0,.553.183.828.583.828.49,0,.765-.03.826-.123a4.91,4.91,0,0,0,.125-.583l2.051.583c-.06.368-.09.675-.153.918-.03.368-.307.645-.8.8a6.842,6.842,0,0,1-2.053.215,9.152,9.152,0,0,1-1.348-.123,1.545,1.545,0,0,1-1.41-.675v1.133h4.32v2.053h-4.32v.583c1.748-.03,3.339-.06,4.812-.123l.213,1.808c-3.922.307-8.243.52-13.021.705L897-368.168c1.868,0,3.614-.03,5.27-.06v-.645H897.7v-2.053h.553L897-372.7a11.653,11.653,0,0,0,2.541-.92,1.151,1.151,0,0,0,.46-.275h-3.371v-2.053h5.762v-.583H897.7v-2.051h4.689v-.828h1.533v-.735h-7.538v-2.728Zm20.131,20.471v2.511h-3.464c.8.46,1.531.95,2.268,1.441l-2.053,2.513a18.777,18.777,0,0,0-1.716-1.288c-5.915.613-12.717.98-20.408,1.163l-.613-2.511c1.288,0,2.543-.03,3.8-.03.523-.43,1.013-.858,1.5-1.288h-6.986v-2.511Zm-21.786-9.959h2.941a2.293,2.293,0,0,1-.185-.95v-.583h-1.868a6.592,6.592,0,0,1-1.408,1.5,10.314,10.314,0,0,1-2.666,1.468h3.186Zm18.17,6.71v2.389H899.878v-2.389Zm-5.147,6.1.338-.338H907.2a17.773,17.773,0,0,1-1.408,1.225c3.494-.122,6.923-.245,10.264-.458C915.782-359.282,915.537-359.435,915.292-359.557Zm-1.1-17.835c0-.458.03-.948.03-1.438h3c0,.55-.03,1.011-.03,1.438h4.229c.062,1.778.123,3.311.123,4.567a26.409,26.409,0,0,0,.125,3.249c.028.305.088.46.213.46.06,0,.09-.092.122-.338a12.187,12.187,0,0,0,.12-1.593l2.268.98a5.546,5.546,0,0,1-1.011,3.124,2.161,2.161,0,0,1-1.5.583,2.478,2.478,0,0,1-2.113-.95q-1.106-1.193-1.105-5.515c0-.55-.03-1.133-.03-1.808h-1.563a24.926,24.926,0,0,1-.428,3c.705.55,1.378,1.1,2.021,1.684l-1.929,2.391c-.46-.43-.89-.858-1.32-1.226a11.262,11.262,0,0,1-2.511,2.759l-2.146-2.391a7.454,7.454,0,0,0,2.146-2.328c-.583-.428-1.133-.8-1.654-1.133l1.9-2.023c.245.153.49.307.735.43.062-.368.09-.738.155-1.165h-2.208v-2.759Z" transform="translate(-567.748 385.265)" fill="#595757"/>
  <path id="Path_26408" data-name="Path 26408" d="M913.943-378.9v-4.9h3.219v4.9h2.511v3.124h-2.511v1.838c1.071,1.1,2.021,2.146,2.879,3.126v-2.819h6.22v9.591h-3.586v1.441H920.04v-7.3l-1.808,2.483c-.368-.705-.7-1.348-1.071-1.961v13.236h-3.219v-10.847a35.6,35.6,0,0,1-1.441,3.769l-2.023-2.511a35.8,35.8,0,0,0,2.055-5.21,40.716,40.716,0,0,0,1.346-4.842h-2.819V-378.9ZM938.12-359.96v3.219H918.97v-3.219Zm-.368-23.227v3.219H927.241l-.643,1.929h3.616v14.281a11.089,11.089,0,0,0,2.6-3.952c-.766-1.228-1.561-2.421-2.361-3.616l2.636-1.808c.337.49.673.95,1.013,1.408q.277-1.332.553-2.849H930.7v-3.094h7.048v2.389a57.625,57.625,0,0,1-1.533,6.865c.8,1.346,1.593,2.786,2.389,4.257l-2.421,2.391c-.488-.95-1.008-1.9-1.529-2.849a11.691,11.691,0,0,1-3.616,4.412l-1.073-2.113a2.934,2.934,0,0,1-3.1,2.113,7.879,7.879,0,0,1-1.931-.245l-.7-3.339a5.644,5.644,0,0,0,2.144.458c.552,0,.828-.7.828-2.144v-9.806h-1.563l-.335.95-3.586-.49,1.9-5.147H919.8v-3.219Zm-14.126,16.149v-3.584h-.952v3.584Z" transform="translate(-551.541 385.331)" fill="#595757"/>
</svg>
