<svg id="section1_title4" xmlns="http://www.w3.org/2000/svg" width="422.761" height="100" viewBox="0 0 422.761 100">
  <path id="Path_384" data-name="Path 384" d="M109.421,40.225a2.777,2.777,0,0,1,2.029,2.454c0,1.067-1.6,1.709-4.591,2.134-2.239,2.882-4.374,5.338-6.4,7.473h25.079a62.566,62.566,0,0,0,4.271-14.515l9.6,2.562c1.6.427,2.454,1.175,2.454,2.027q0,1.762-4.484,2.882-3.359,3.2-7.683,7.045h25.187l6.191-7.045,8.217,6.083a3.285,3.285,0,0,1,1.387,2.242,1.522,1.522,0,0,1-1.707,1.707H132.366V65.2h16.222l5.871-6.19,7.47,5.443a2.741,2.741,0,0,1,1.282,2.027,1.524,1.524,0,0,1-1.709,1.707H132.366V78.54h16.222l5.871-6.19,7.47,5.443a2.741,2.741,0,0,1,1.282,2.027,1.524,1.524,0,0,1-1.709,1.707H132.366V92.306h25.829l6.188-7.043,8.325,6.08a3.094,3.094,0,0,1,1.282,2.242c0,1.175-.535,1.707-1.6,1.707h-73v1.6a3.185,3.185,0,0,1-2.027,2.882,9.006,9.006,0,0,1-3.844.855,2.548,2.548,0,0,1-2.882-2.882l.427-11.206V61.036a110.637,110.637,0,0,1-16.22,10.886l-2.134-1.28A102.258,102.258,0,0,0,87.97,55.38,116.088,116.088,0,0,0,99.389,36.916Zm-8.325,66.7h50.054l4.908-5.016,6.19,5.016c1.175.855,1.814,1.495,1.814,2.134a1.7,1.7,0,0,1-1.172,1.6l-2.669,1.28v11.634l.427,9.177a2.908,2.908,0,0,1-1.387,2.242,5.252,5.252,0,0,1-3.2,1.067c-2.774,0-4.161-.747-4.161-2.027v-3.309H101.1v1.6a2.754,2.754,0,0,1-1.814,2.669,9.186,9.186,0,0,1-4.054,1.067,2.546,2.546,0,0,1-2.882-2.882l.427-10.459V109.38c0-3.629-.322-5.976-.855-7.043Zm22.948-51.653H99.389V65.2h24.655Zm0,12.913H99.389V78.54h24.655Zm0,13.341H99.389V92.306h24.655Zm27.853,46.21V109.807H101.1v17.929Z" transform="translate(-72.71 -36.916)" fill="#666464"/>
  <path id="Path_385" data-name="Path 385" d="M143.338,40.559c1.28.64,1.922,1.28,1.922,2.027,0,1.067-1.6,1.922-4.591,2.562a95.688,95.688,0,0,1-10.459,12.274,79.617,79.617,0,0,1-13.658,10.244l-2.134-1.707a80.777,80.777,0,0,0,10.352-12.166,86.7,86.7,0,0,0,8.857-16.542ZM148.353,61.9c1.28.535,1.922,1.175,1.922,2.029,0,1.067-1.6,1.814-4.591,2.454a120.315,120.315,0,0,1-12.378,16.65l-.215.212,3.736,1.495c1.175.532,1.814,1.067,1.814,1.707s-.64,1.172-1.707,1.492l-1.709.962v43.756a2.979,2.979,0,0,1-2.134,2.989,10.462,10.462,0,0,1-3.629.747c-1.919,0-2.879-.962-2.986-2.882,0-2.134.107-5.978.427-11.314V89.116c-2.986,2.562-6.4,5.123-10.029,7.685l-2.029-1.6A115.788,115.788,0,0,0,127.65,79.726a120.268,120.268,0,0,0,10.991-21.238Zm49.734-12.271c1.172.425,1.814,1.067,1.814,1.707,0,1.067-1.6,1.814-4.591,2.134C188.7,60.088,180.156,67.665,169.7,76.417c6.188-.212,12.378-.532,18.357-.96,4.908-.215,9.389-.535,13.233-.747-2.454-3.2-5.123-6.4-8.112-9.6l2.134-1.6a116.319,116.319,0,0,1,14.2,9.392c3.309,2.774,5.016,5.443,5.016,8.11,0,3.416-1.495,5.016-4.269,5.016-1.282,0-2.349-1.067-3.416-3.2-1.067-1.814-2.239-3.521-3.414-5.228Q197.98,78.87,191.9,79.834c-4.056.852-8.86,1.6-14.408,2.454a77.269,77.269,0,0,1-5.551,9.5h22.52l5.016-5.016,8,6.083q1.6.96,1.6,1.919c0,.855-.64,1.495-1.707,1.709l-3.309,1.172a105.457,105.457,0,0,1-11.206,12.916c-1.707,1.492-3.2,2.882-4.7,4.161a61.459,61.459,0,0,0,6.4,3.309,95.833,95.833,0,0,0,19.531,6.723l-.855,2.882a12.8,12.8,0,0,0-4.481.535c-1.495.212-3.309,2.027-5.551,5.336a64.256,64.256,0,0,1-15.9-8.86,52.175,52.175,0,0,1-5.763-4.7,1.276,1.276,0,0,0-.32.215,97.429,97.429,0,0,1-18.891,9.392,127.168,127.168,0,0,1-20.383,5.656l-1.282-2.989A79.738,79.738,0,0,0,153.8,128.07a131.97,131.97,0,0,0,17.394-8.965,51.3,51.3,0,0,0,5.338-4.164,31.538,31.538,0,0,1-2.989-3.629,54.284,54.284,0,0,1-7.15-12.7,51.16,51.16,0,0,1-6.191,5.656,97.058,97.058,0,0,1-17.4,11.739l-1.28-1.707a106.837,106.837,0,0,0,10.032-8.43,66.689,66.689,0,0,0,8.857-10.459,107.3,107.3,0,0,0,6.618-11.739c-4.589.64-8.752,1.067-12.593,1.495l-1.175,2.879c-.64,1.495-1.28,2.134-2.134,2.134-.64-.1-1.172-.747-1.494-1.919l-2.667-10.991q7.524-.161,18.249-.642c5.123-5.763,9.072-10.244,11.846-13.661a143.662,143.662,0,0,0,11.526-17.394Zm-17.932-8.325c1.175.427,1.814,1.067,1.814,1.707,0,1.067-1.6,1.814-4.589,2.134a172.844,172.844,0,0,1-12.913,11.526,25.175,25.175,0,0,0,2.669,1.6c2.882,1.919,4.376,3.841,4.376,5.656,0,3.309-1.39,4.908-4.164,4.908-1.067,0-2.134-.747-3.094-2.242A81.186,81.186,0,0,0,152.41,53.472l2.027-1.707c2.669,1.28,5.016,2.347,7.043,3.306,1.814-2.986,3.2-5.336,4.271-7.15a103.243,103.243,0,0,0,4.908-10.672Zm-1.812,66.273a38.173,38.173,0,0,0,3.306,2.774c.642-.64,1.175-1.175,1.814-1.814,3.2-3.629,6.725-8.217,10.779-13.768H169.7c-.535.642-.962,1.175-1.282,1.6A64.918,64.918,0,0,0,178.344,107.58Z" transform="translate(-7.684 -36.395)" fill="#666464"/>
  <path id="Path_386" data-name="Path 386" d="M170.7,42.725h15.048l3.844-4.588,6.723,4.8a2.585,2.585,0,0,1,1.28,1.922,1.694,1.694,0,0,1-1.172,1.6l-2.562,1.709v75.023q0,4.806-4.8,8a15.315,15.315,0,0,1-7.363,2.454c0-2.562-.322-4.161-.855-5.016-.64-.852-3.736-1.814-9.18-2.882v-2.134H183.4c1.6,0,2.454-.64,2.454-2.134v-25.4H170.376a101.846,101.846,0,0,1-2.986,16.65A71.3,71.3,0,0,1,158,134.505l-1.707-1.707a110.545,110.545,0,0,0,4.588-18.464c1.282-8.537,2.029-21.131,2.029-37.778V45.711q0-4.8-.32-8ZM185.851,93.2V69.831H171.336v6.725q0,9.282-.64,16.647Zm0-26.254V45.711H171.336V66.949Zm25.507-23.372h27.961l4.056-3.734,7.47,4.8a3.516,3.516,0,0,1,1.282,2.242c0,.962-.322,1.495-.855,1.707l-2.882,1.282a80.215,80.215,0,0,1-3.2,13.553c-1.387,4.484-3.1,7.578-5.016,9.18q-3.044,2.238-9.285,2.239c-.32-3.626-1.282-5.656-2.777-6.3l-6.83-2.027.427-2.989L232.6,65.243a4.671,4.671,0,0,0,3.094-.96c.747-.855,1.6-3.629,2.562-8.112a76.039,76.039,0,0,0,1.282-9.712H211.358V81.892h31.377l4.481-4.164,7.578,5.123a2.728,2.728,0,0,1,1.175,2.027c0,.96-1.282,2.027-3.841,3.309-2.989,8.325-5.658,14.3-8.22,17.929a56.973,56.973,0,0,1-7.15,10.139,18.346,18.346,0,0,0,3.416,2.454,63.831,63.831,0,0,0,14.088,6.191l-.427,2.454a8.9,8.9,0,0,0-4.8,1.067c-1.495.532-2.882,2.242-3.949,5.228a59.9,59.9,0,0,1-11.1-7.79c-1.28-1.28-2.562-2.454-3.629-3.736-1.28,1.067-2.562,2.029-3.949,2.989-4.376,2.774-8.325,5.123-11.739,7.258l-2.134-1.707c6.51-5.123,11.419-9.18,14.62-12.593a19.643,19.643,0,0,1-2.242-3.524A67.42,67.42,0,0,1,218.3,98.752a84.352,84.352,0,0,1-2.669-13.873h-4.269v47.065c0,.855-.747,1.6-2.027,2.027a15.777,15.777,0,0,1-3.844.535,2.265,2.265,0,0,1-2.562-2.562l.427-16.65V46.034a28.994,28.994,0,0,0-.747-6.618Zm9.6,51.653a66.1,66.1,0,0,0,7.793,13.341,21.142,21.142,0,0,0,3.306,3.629,53.852,53.852,0,0,0,5.443-10.459,80.558,80.558,0,0,0,5.336-16.862H217.976A67.279,67.279,0,0,0,220.962,95.23Z" transform="translate(57.603 -35.68)" fill="#666464"/>
  <path id="Path_387" data-name="Path 387" d="M213.047,73.108h23.585L240.9,68.84l6.3,4.908a2.294,2.294,0,0,1,1.282,2.242c0,.64-.64,1.175-1.814,1.387l-2.349.642a97.507,97.507,0,0,1-10.459,11.736l-2.134-.852a85.4,85.4,0,0,0,4.8-12.913h-9.392v48.772c0,3.2-1.707,5.871-4.908,8a15.706,15.706,0,0,1-7.578,2.454c0-2.774-.32-4.7-.96-5.551q-1.121-1.44-10.244-3.2v-2.134l12.911.855c1.922,0,2.882-.64,2.882-2.134V92.744a64.233,64.233,0,0,1-10.242,13.768,65.352,65.352,0,0,1-9.712,8.645L198,113.128a42.318,42.318,0,0,0,6.51-8,97.176,97.176,0,0,0,7.9-14.728A152.107,152.107,0,0,0,217.42,75.99h-4.374a85.413,85.413,0,0,0-11.739.855l-2.027-5.016A73.52,73.52,0,0,0,213.047,73.108Zm1.6-29.668h17.929l4.161-4.164,6.83,6.51c.962.855,1.495,1.6,1.495,2.242q0,1.282-1.919,1.28h-3.416A100.994,100.994,0,0,1,225.21,61.69c2.669,1.707,4.056,3.416,4.056,5.123,0,3.414-1.387,5.016-4.161,5.016-1.282,0-2.349-.747-3.309-2.349a82.315,82.315,0,0,0-12.911-13.126l2.027-1.6c4.481,1.922,8.11,3.629,11.1,5.123a95.342,95.342,0,0,0,9.072-13.448H214.646a106.976,106.976,0,0,0-11.631.747l-2.134-5.016A75.039,75.039,0,0,0,214.646,43.44ZM252.211,96.8h5.338a82.811,82.811,0,0,0,1.28-10.779l10.244,1.495c1.495.32,2.242.96,2.242,1.814q0,1.6-4.161,2.882c-.427,1.707-.747,3.2-1.067,4.589h16.542l4.589-4.589,7.79,6.083a2.376,2.376,0,0,1,.962,1.814q0,.96-4.164,2.559A57,57,0,0,1,290.1,115.05a52.152,52.152,0,0,1-4.161,13.553,9.671,9.671,0,0,1-4.271,4.7c-1.919.855-5.121,1.495-9.5,1.922-.535-3.949-1.707-6.191-3.416-6.723l-9.07-2.457.425-2.559,13.341,1.28a5.606,5.606,0,0,0,3.417-.855,5.423,5.423,0,0,0,2.242-2.559,45.3,45.3,0,0,0,3.2-10.779c.64-3.844,1.172-7.365,1.492-10.779H265.34a50.911,50.911,0,0,1-5.656,12.806A53.719,53.719,0,0,1,248.05,125.4a141.663,141.663,0,0,1-16.33,10.139l-1.6-2.027c7.258-5.016,12.273-8.752,14.94-11.526a39.551,39.551,0,0,0,9.5-15.263,58.841,58.841,0,0,0,2.347-6.935h-4.7a107.137,107.137,0,0,0-11.739.745l-2.027-5.016A73.306,73.306,0,0,0,252.211,96.8Zm14.2-56.242a2.774,2.774,0,0,1,2.027,2.454c0,.96-1.6,1.707-4.588,2.134-1.28,2.027-2.454,3.841-3.629,5.443h23.692l5.763-6.723,7.9,5.763a3.1,3.1,0,0,1,1.282,2.134c0,1.172-.535,1.707-1.6,1.707H287.005a58,58,0,0,1-7.045,13.873,42.206,42.206,0,0,1-4.269,5.336,54.369,54.369,0,0,0,7.47,3.2,102.082,102.082,0,0,0,16.97,4.269l-.427,2.454a8.857,8.857,0,0,0-4.8,1.175c-1.495.532-2.882,2.239-3.949,5.121a79.091,79.091,0,0,1-13.876-5.763,43.45,43.45,0,0,1-7.47-5.016,1.759,1.759,0,0,1-.427.32,64.609,64.609,0,0,1-12.7,7.365,95.585,95.585,0,0,1-18.034,5.121l-.855-2.027a70.8,70.8,0,0,0,13.768-5.228,80.381,80.381,0,0,0,11.846-8.112c.64-.532,1.175-1.067,1.707-1.6a42.7,42.7,0,0,1-7.578-10.886,33.2,33.2,0,0,1-2.242-6.083,20.375,20.375,0,0,1-1.387,1.495,80.914,80.914,0,0,1-10.672,9.177l-2.134-1.28a76.029,76.029,0,0,0,8.75-13.233,120.76,120.76,0,0,0,6.725-15.9Zm-6.4,19.1A48.021,48.021,0,0,0,269.4,68.84c.852-1.175,1.6-2.347,2.239-3.414a37.35,37.35,0,0,0,5.443-11.954h-19.1a9.811,9.811,0,0,1-.747.96A26.687,26.687,0,0,0,260,59.663Z" transform="translate(122.63 -36.395)" fill="#666464"/>
</svg>
