<svg id="section5_title1" xmlns="http://www.w3.org/2000/svg" width="419.641" height="100" viewBox="0 0 419.641 100">
  <g id="Group_535" data-name="Group 535" transform="translate(0 0)">
    <path id="Path_1843" data-name="Path 1843" d="M93.177,45.657H166.16l4.307-5.06,7.1,5.381a3.321,3.321,0,0,1,1.4,2.261c0,.431-.541.967-1.4,1.4l-2.906,1.505v84.07a3.443,3.443,0,0,1-1.83,3.013,6.477,6.477,0,0,1-3.123.863c-2.368,0-3.442-.756-3.442-2.154V133.6H93.177v2.906c0,.857-.753,1.612-2.044,2.044a14.73,14.73,0,0,1-3.876.538c-1.722,0-2.475-.863-2.475-2.582l.324-16.793V48.239a29.454,29.454,0,0,0-.756-6.78Zm73.093,84.93V48.671H93.177v81.916ZM109.538,108.3h30.575a39.554,39.554,0,0,0-.756-6.672l9.475,1.184a1.743,1.743,0,0,1,.643,3.231l-1.72,1.508v.75h3.873l5.06-5.381,6.782,4.846a2.786,2.786,0,0,1,1.181,1.83c0,1.184-.428,1.719-1.291,1.719H147.755v8.829c0,2.8-1.508,5.167-4.522,6.89a14.882,14.882,0,0,1-6.782,1.937c0-2.585-.428-4.3-1.184-5.167-.428-.538-2.692-1.181-6.782-2.044l.431-2.478,9.686.863q1.615,0,1.618-2.582v-6.247H109.538a85.147,85.147,0,0,0-11.73.863l-2.157-5.06A75.527,75.527,0,0,0,109.538,108.3Zm.863-51.237h15.07V55.343a25.582,25.582,0,0,0-.756-5.488l8.936,1.505c1.508.217,2.371.863,2.371,1.937a1.736,1.736,0,0,1-1.077,1.508l-1.4.97v1.291h14.639l5.488-5.92,7.217,5.167a2.951,2.951,0,0,1,1.181,2.044,1.427,1.427,0,0,1-1.615,1.615h-26.91v6.351h14.318l4.2-4.2,5.6,4.522c.97.643,1.508,1.291,1.508,1.719a1.487,1.487,0,0,1-1.074,1.4l-2.261,1.184v7.966l.428,8.395a2.318,2.318,0,0,1-1.291,2.044,4.243,4.243,0,0,1-2.906.863c-2.585,0-3.876-.643-3.876-2.044v-.863H133.545v7h1.077c4.415-.107,8.4-.214,11.84-.428-1.184-1.077-2.368-2.154-3.656-3.231l1.612-1.615c4.415,1.722,7.856,3.231,10.441,4.525,2.261,1.4,3.445,2.686,3.445,3.873q0,4.195-4.2,4.2a3.96,3.96,0,0,1-3.662-2.475c-.643-.97-1.291-1.939-1.937-2.909-3.231.648-6.672,1.294-10.441,1.94q-7.429,1.294-19.378,2.906c-4.733.646-9.043,1.077-12.914,1.4l-1.08,2.368c-.538,1.291-1.184,1.829-1.827,1.829-.648-.107-1.187-.646-1.4-1.722l-2.475-9.689c4.736,0,10.653-.107,17.652-.321,3.013,0,6.027-.11,8.826-.324V87.313h-15.5v1.722a2.338,2.338,0,0,1-1.615,2.371,6.433,6.433,0,0,1-3.445.967,2.175,2.175,0,0,1-2.478-2.475V68.8c0-3.448-.321-5.6-.86-6.675l8.4,4.2h15.5V59.972H110.4a85.911,85.911,0,0,0-11.842.863l-2.044-5.06A73.936,73.936,0,0,0,110.4,57.065Zm9.475,59.742c1.719,1.291,2.689,2.582,2.689,3.769,0,3.121-1.612,4.629-4.629,4.629-1.181,0-2.044-.753-2.689-2.475a28.071,28.071,0,0,0-5.709-8.5l2.154-1.722C115.137,114.226,117.829,115.627,119.876,116.808Zm5.6-41.659v-5.92h-15.5v5.92Zm0,9.26V77.627h-15.5v6.782Zm8.074-9.26h14.639v-5.92H133.545Zm0,9.26h14.639V77.627H133.545Z" transform="translate(-84.351 -39.413)" fill="#666464"/>
    <path id="Path_1844" data-name="Path 1844" d="M129.478,137.285c0,.857-.648,1.612-1.94,2.044a16.1,16.1,0,0,1-3.876.538,2.283,2.283,0,0,1-2.582-2.582l.431-16.793V48.583a24.085,24.085,0,0,0-.863-6.782l8.829,4.2H142.5l4.2-4.626,7.428,5.488a3.372,3.372,0,0,1,1.4,2.154,1.6,1.6,0,0,1-1.4,1.508l-3.231.967c-3.442,6.782-7.966,14.963-13.779,24.435a34.725,34.725,0,0,1,11.3,11.411c2.475,4.629,3.769,8.936,3.769,12.919a15.539,15.539,0,0,1-5.277,12.271,14.068,14.068,0,0,1-9.04,3.335c-.324-3.549-1.077-5.489-2.368-5.92l-5.167-1.612.431-3.016,6.672.86a5.9,5.9,0,0,0,4.739-2.044c1.291-1.505,2.044-3.983,2.044-7.214a25.188,25.188,0,0,0-2.692-10.763,29.505,29.505,0,0,0-7.856-9.8,216.871,216.871,0,0,0,8.612-27.341H129.478ZM205.9,43.091c1.508.434,2.261,1.08,2.261,2.157s-1.612,1.827-4.629,2.475a109.632,109.632,0,0,1-9.8,10.766q-2.584,2.419-5.488,4.843h15.284l5.488-5.92,7.107,5.164a2.609,2.609,0,0,1,1.291,1.939,1.536,1.536,0,0,1-1.722,1.722H184.592a61.934,61.934,0,0,1-7.107,8.936A63.022,63.022,0,0,1,188.9,92.609a2.461,2.461,0,0,0,.431,1.077,65.027,65.027,0,0,0,7.211-7.211,77.849,77.849,0,0,0,7.428-10.12l8.826,5.923a3.507,3.507,0,0,1,1.615,2.475q0,1.29-5.813,1.291c-3.876,3.231-9.475,6.78-16.793,10.763a44.337,44.337,0,0,0,3.662,4.09,51.508,51.508,0,0,0,10.439,8.615,62.235,62.235,0,0,0,14.428,6.78l-.863,2.906a16.742,16.742,0,0,0-3.555.324c-1.074.321-2.365,2.151-3.983,5.6a50.6,50.6,0,0,1-11.194-9.15,58.011,58.011,0,0,1-8.288-10.331,68.367,68.367,0,0,1,.97,11.515c0,6.461-1.615,11.411-4.629,14.856q-5.007,6.135-13.886,6.134c-.324-3.549-1.184-5.7-2.582-6.348l-7.538-2.475.863-2.906,12.6,2.044q2.9,0,4.843-3.876,1.937-3.713,1.937-10.01c0-1.615-.107-3.121-.107-4.522a33.251,33.251,0,0,1-2.8,1.937,82.476,82.476,0,0,1-9.043,4.846,119.986,119.986,0,0,1-11.73,4.522,100.091,100.091,0,0,1-13.779,3.338l-.863-1.725q7.108-2.9,12.919-5.488c3.873-1.937,7.211-3.766,9.9-5.274a62.174,62.174,0,0,0,8.719-7,36.949,36.949,0,0,0,5.6-5.274c-.428-2.368-.97-4.522-1.505-6.565a6.835,6.835,0,0,1-.431-1.4,33.9,33.9,0,0,1-3.552,3.445,42.887,42.887,0,0,1-6.354,4.415,64.782,64.782,0,0,1-8.178,4.2,66.532,66.532,0,0,1-9.472,3.013l-.863-1.722c3.121-1.722,6.027-3.445,8.609-5.167,2.585-1.83,4.846-3.445,6.675-4.95a43.455,43.455,0,0,0,5.813-6.461,47.841,47.841,0,0,0,3.769-5.057c-1.077-2.047-2.154-4.09-3.338-6.137a50.23,50.23,0,0,1-9.793,7.535,91.811,91.811,0,0,1-11.735,5.92l-1.291-1.612a75.482,75.482,0,0,0,8.933-7.321,63.47,63.47,0,0,0,7.321-7.966,77.891,77.891,0,0,0,4.843-7.856H161.017a85.971,85.971,0,0,0-11.732.86l-2.157-5.06a75.7,75.7,0,0,0,13.889,1.294h23.251a52.789,52.789,0,0,0,5.92-9.475,93.22,93.22,0,0,0,5.384-13.669ZM172.963,50.2c2.692,2.689,4.09,4.953,4.09,6.78,0,3.662-1.612,5.491-4.626,5.491-2.371,0-3.983-1.291-4.632-3.98a60.957,60.957,0,0,0-8.395-15.4l2.475-1.291A80.291,80.291,0,0,1,172.963,50.2Z" transform="translate(-15.574 -40.188)" fill="#666464"/>
    <path id="Path_1845" data-name="Path 1845" d="M170.427,76.977h4.2V53.943c0-6.03-.434-10.444-1.294-13.458l10.334,1.4c1.722.214,2.689.863,2.689,1.937a1.9,1.9,0,0,1-1.612,2.047l-2.154.86V76.977H185.6l5.379-5.813,7.214,5.167a2.759,2.759,0,0,1,1.184,1.937c0,1.184-.538,1.725-1.615,1.725H182.588v6.241a107.7,107.7,0,0,1,11.3,7.1c3.121,2.478,4.736,4.846,4.736,7.211,0,3.448-1.4,5.06-4.2,5.06-1.294,0-2.371-.86-3.338-2.8a88.245,88.245,0,0,0-8.5-11.625V137.15a1.766,1.766,0,0,1-1.074,1.615,9.721,9.721,0,0,1-4.417.86q-2.744,0-2.906-1.612l.434-17.224V98.829a68.941,68.941,0,0,1-8.181,12.592,56.923,56.923,0,0,1-8.615,8.936l-1.291-2.154a39.659,39.659,0,0,0,5.489-8.074,117.777,117.777,0,0,0,6.568-15.392,143.312,143.312,0,0,0,4.3-14.746h-2.472a84.814,84.814,0,0,0-11.735.86l-2.154-5.06A73.932,73.932,0,0,0,170.427,76.977Zm-1.618-18.3a17.6,17.6,0,0,1,2.475,7.856c0,3.445-1.4,5.06-4.2,5.06-1.291,0-2.151-1.4-2.582-4.415a101.783,101.783,0,0,0-4.629-17.114l2.151-1.184A72.832,72.832,0,0,1,168.809,58.679ZM199.381,51.9c1.077.428,1.722.97,1.722,1.612,0,1.08-1.612,1.725-4.629,2.047q-3.713,7.1-9.689,16.793L184.31,71.6q2.1-7.1,3.231-11.3c.97-4.2,1.827-8.288,2.689-12.271Zm15.609-.107h7.1v-5.06c0-.967-.107-3.013-.321-6.244l10.01,1.294c1.939.321,3.013.97,3.013,2.044,0,1.291-1.4,2.475-4.2,3.338v4.629h11.3l5.923-6.354,7.532,5.491a3.137,3.137,0,0,1,1.294,2.154,1.506,1.506,0,0,1-1.722,1.615H230.6v8.826h9.579l5.491-5.813,7.211,5.167a2.743,2.743,0,0,1,1.184,1.939c0,1.181-.536,1.719-1.615,1.719H230.6v9.689h14.639l5.92-6.351,7.538,5.488a2.967,2.967,0,0,1,1.291,2.047,1.539,1.539,0,0,1-1.725,1.722H214.127a85.55,85.55,0,0,0-11.733.863l-2.154-5.06a75.939,75.939,0,0,0,13.886,1.291h7.966V66.535h-6.241a86.826,86.826,0,0,0-11.843.86l-2.047-5.057a74.2,74.2,0,0,0,13.889,1.184h6.241V54.7h-7.1a84.816,84.816,0,0,0-11.735.86L201.1,50.5A75.642,75.642,0,0,0,214.989,51.789Zm-2.154,36.6h29.388l4.307-5.06,7.1,5.384a2.758,2.758,0,0,1,1.291,2.151c0,.646-.428,1.184-1.291,1.508l-2.906,1.508v34.445c0,3.552-1.615,6.458-4.739,8.826a15.45,15.45,0,0,1-7.425,2.475q0-3.873-.97-5.167c-.646-.97-3.873-2.044-9.582-3.228v-2.475l12.164.428c1.4,0,2.154-.86,2.154-2.585V116.16H212.836v20.99c0,.863-.645,1.615-1.937,2.047a23.846,23.846,0,0,1-3.876.428c-1.722,0-2.582-.86-2.582-2.475l.431-16.793V90.863a23.915,23.915,0,0,0-.863-6.672Zm29.495,12.161V91.294H212.836v9.255Zm0,12.6v-9.582H212.836v9.582Z" transform="translate(52.427 -39.625)" fill="#666464"/>
    <path id="Path_1846" data-name="Path 1846" d="M207.187,104.32c1.4.217,2.154.863,2.154,1.939s-1.187,1.722-3.448,2.044a87.169,87.169,0,0,1-4.3,13.993,85.339,85.339,0,0,1-5.381,10.873l-2.478-1.291c1.511-6.027,2.8-11.84,3.769-17.435.538-3.555.97-7.645,1.291-12.381Zm13.776-59.525c1.184.428,1.832,1.077,1.832,1.722,0,1.077-1.615,1.829-4.632,2.154-3.549,3.876-8.073,8.181-13.455,13.024a20.542,20.542,0,0,0,2.585,1.939c2.368,1.937,3.659,3.769,3.659,5.6,0,3.445-1.4,5.06-4.2,5.06-.863,0-1.722-.753-2.368-2.368a79.2,79.2,0,0,0-9.367-13.241l2.047-1.615c1.722,1.077,3.445,2.047,4.953,2.906,1.937-3.228,3.338-5.813,4.415-7.966a102.242,102.242,0,0,0,4.95-11.408Zm10.12,16.361c1.074.431,1.722,1.077,1.722,1.83,0,1.077-1.615,1.725-4.629,2.047-5.06,6.027-11.518,12.916-19.271,20.562,4.739-.107,9.582-.434,14.535-.863-.863-2.371-1.722-4.736-2.8-7.1l2.154-1.184a68.537,68.537,0,0,1,7.318,8.074c1.722,2.582,2.692,4.733,2.692,6.565,0,3.445-1.4,5.057-4.2,5.057-1.508,0-2.368-1.181-2.8-3.766-.431-1.722-.97-3.552-1.505-5.274-1.94.753-3.769,1.4-5.706,2.044v46.073a3.163,3.163,0,0,1-2.154,2.906,8.536,8.536,0,0,1-3.769.97q-2.423,0-2.585-2.582l.434-10.873V91.62c-3.123.863-6.244,1.719-9.258,2.475l-1.077,2.044c-.646.863-1.08,1.294-1.4,1.294-.646,0-1.184-.538-1.612-1.829l-2.157-9.582c3.016,0,6.137,0,9.367-.214,3.552-4.953,6.244-8.829,8.074-11.843a131.138,131.138,0,0,0,9.043-16.9Zm.538,47.471c1.615,2.368,2.475,4.415,2.475,6.03,0,3.656-1.612,5.489-4.629,5.489-1.291,0-2.151-1.184-2.475-3.659a96.313,96.313,0,0,0-4.629-13.993l2.475-1.294A68.616,68.616,0,0,1,231.622,108.627Zm13.886-53.715h13.455v-.86c0-6.03-.428-10.441-1.291-13.455L268,42.1c1.725.214,2.692.863,2.692,1.939a1.987,1.987,0,0,1-1.722,2.044l-2.044.863v7.964h13.455l6.244-7.1,8.288,6.137a3.306,3.306,0,0,1,1.4,2.258c0,1.187-.538,1.725-1.615,1.725H266.929V68.8H282l4.629-4.632,6.241,4.846c1.184.753,1.832,1.4,1.832,1.937a1.711,1.711,0,0,1-1.184,1.615l-2.692,1.291V89.9l.431,9.15a2.318,2.318,0,0,1-1.4,2.044,5.227,5.227,0,0,1-3.228.97c-2.585,0-3.769-.646-3.769-2.154V97H268.437a80.865,80.865,0,0,0,7.318,9.689,43.3,43.3,0,0,0,8.826,7.966,47.887,47.887,0,0,0,12.164,6.348l-.86,2.909a15.033,15.033,0,0,0-3.445.321c-1.077.324-2.478,2.151-4.09,5.6a44.138,44.138,0,0,1-9.04-8.612,59.349,59.349,0,0,1-8.615-13.348,50.652,50.652,0,0,1-3.766-7.318v36.382a1.764,1.764,0,0,1-1.077,1.615,9.7,9.7,0,0,1-4.412.86q-2.909,0-2.906-1.612l.428-17.224V105.4a50.56,50.56,0,0,1-4.519,6.14,68.458,68.458,0,0,1-13.672,12.592,86.493,86.493,0,0,1-13.027,7.749l-1.184-2.044a48.841,48.841,0,0,0,9.365-7.1A80.249,80.249,0,0,0,247.12,109.6,87.433,87.433,0,0,0,254.227,97h-10.01v1.722a2.394,2.394,0,0,1-1.83,2.368,8.828,8.828,0,0,1-4.09.97,2.253,2.253,0,0,1-2.478-2.582l.431-10.01V71.383c0-3.445-.324-5.706-.86-6.78l8.826,4.2h14.746V57.928H245.508a107.428,107.428,0,0,0-11.843.753l-2.044-4.95A74.144,74.144,0,0,0,245.508,54.912ZM258.963,94.1V71.814H244.217V94.1Zm-5.381-13.348c1.505,1.94,2.368,3.552,2.368,4.846,0,3.121-1.291,4.626-3.769,4.626-1.291,0-2.154-.97-2.475-2.906a61.266,61.266,0,0,0-4.629-11.3l2.044-1.291A50.934,50.934,0,0,1,253.581,80.748ZM266.929,94.1h15.93V80.64a7.749,7.749,0,0,1-3.769,1.184c-2.151,2.475-4.95,5.381-8.395,8.826l-2.151-.753c1.077-3.013,1.937-5.488,2.582-7.318a76.871,76.871,0,0,0,2.044-7.859l8.5,3.549a3.958,3.958,0,0,1,1.184.648v-7.1h-15.93Z" transform="translate(122.896 -39.413)" fill="#666464"/>
  </g>
</svg>
