<svg id="section4_title1" xmlns="http://www.w3.org/2000/svg" width="418.779" height="100" viewBox="0 0 418.779 100">
  <g id="Group_247" data-name="Group 247" transform="translate(0 0)">
    <path id="Path_880" data-name="Path 880" d="M100.765,48.673h11.958l5.4-5.822,7.092,5.08a2.906,2.906,0,0,1,1.164,2.012,1.483,1.483,0,0,1-1.693,1.588H109.547c-2.114,4.232-4.021,7.721-5.714,10.686a70.041,70.041,0,0,1-3.916,6.244c3.176,0,6.349-.105,9.417-.319a60.163,60.163,0,0,0,6.457-.316c-.848-2.328-1.9-4.764-3.068-7.2l2.114-1.266a67.273,67.273,0,0,1,6.668,7.4c1.585,2.328,2.433,4.232,2.433,5.82,0,3.071-1.269,4.553-3.811,4.553-1.374,0-2.22-1.059-2.538-3.284-.211-.845-.529-1.8-.74-2.752-1.48.532-2.857,1.061-4.337,1.483-2.752.848-6.246,1.8-10.478,2.752a55.025,55.025,0,0,1-7.089,1.375l-1.164,2.965c-.532,1.377-1.272,2.009-2.12,2.009-.632-.105-1.164-.743-1.48-1.9l-2.647-10.9c2.331,0,4.974-.108,8.15-.213.953-3.068,1.8-6.03,2.433-8.887q1.272-4.6,1.9-8.253c-3.7.105-7.3.421-10.9.842L87.114,47.4A72.879,72.879,0,0,0,100.765,48.673Zm.421,46.244V85.391c0-1.693-.211-3.6-.421-5.714l9.417,1.377q2.54.474,2.541,1.9c0,.845-.532,1.374-1.377,1.8l-1.9,1.059v9.1h1.269l4.869-5.293,6.773,4.761a2.76,2.76,0,0,1,1.164,1.8c0,1.164-.427,1.693-1.269,1.693H109.442v18.731q7.935-2.224,15.239-4.764l.421,2.117a308.968,308.968,0,0,1-30.157,14.92l-.953,3.492c-.211.848-.637,1.375-1.483,1.375s-1.48-.635-1.69-1.8l-3.705-9.735c4.866-1.059,9.525-2.117,14.072-3.386V97.879a96.394,96.394,0,0,0-11.215.74L87.959,93.75A69.751,69.751,0,0,0,101.186,94.916Zm54.075,1.059v8.887h12.911l5.714-6.244,7.513,5.4a3.315,3.315,0,0,1,1.164,2.117,1.4,1.4,0,0,1-1.588,1.588H155.794a4.357,4.357,0,0,1-.532.635v4.129a103.83,103.83,0,0,1,19.579,6.346c5.077,2.541,7.723,5.29,7.723,8.361,0,2.752-1.588,4.129-4.55,4.129-1.059,0-2.328-.743-3.81-2.117a138.816,138.816,0,0,0-18.941-12.911v17.886a3.152,3.152,0,0,1-2.009,2.854,8.382,8.382,0,0,1-3.705.953c-1.907,0-2.857-1.059-2.962-2.965l.424-11.11v-6.878a3.906,3.906,0,0,0-.635.529,67.274,67.274,0,0,1-13.97,9.63c-4.55,2.223-9.314,4.34-14.286,6.244l-1.269-1.693a89.882,89.882,0,0,0,11.744-7.621,83.891,83.891,0,0,0,9.738-8.358c2.325-2.752,4.442-5.4,6.346-8.042H139.6a82.939,82.939,0,0,0-11.537.848l-2.117-4.977a74.415,74.415,0,0,0,13.654,1.272h7.408V96.82q-5.08.316-12.382.635l-.848-2.965a75.507,75.507,0,0,0,14.289-2.641,29.979,29.979,0,0,0,7.51-2.965,21.6,21.6,0,0,0,5.083-3.492l7.723,5.5a4.175,4.175,0,0,1,.953,2.433c0,.845-.529,1.161-1.588,1.161l-3.386-.421A53.027,53.027,0,0,1,155.261,95.975ZM141.294,52.8h4.337c.743-3.6,1.483-7.41,2.225-11.642l10.262,2.752c1.374.635,2.117,1.375,2.117,2.223,0,1.059-1.585,1.9-4.55,2.541-.424,1.48-.845,2.857-1.164,4.126h12.8l5.714-6.244,7.516,5.4a3.315,3.315,0,0,1,1.164,2.117,1.407,1.407,0,0,1-1.591,1.588H153.676c-1.061,3.173-2.015,6.135-2.857,8.677h14.815l5.4-5.714,7.089,4.974a3.1,3.1,0,0,1,1.167,2.009,1.512,1.512,0,0,1-1.693,1.693H160.66a54.74,54.74,0,0,0,6.983,8.253,17.908,17.908,0,0,0,2.538,2.433h4.55l5.4-5.817,7.094,5.08a3.112,3.112,0,0,1,1.164,2.009,1.481,1.481,0,0,1-1.7,1.585H173.676a25.83,25.83,0,0,0,2.43,1.7,49.556,49.556,0,0,0,11.853,5.4l-.845,2.854a14.756,14.756,0,0,0-3.386.319c-1.059.421-2.433,2.223-4.021,5.5a42.686,42.686,0,0,1-8.782-7.723,43.19,43.19,0,0,1-6.033-8.045H142.882a58.978,58.978,0,0,1-3.916,5.612,70.631,70.631,0,0,1-8.782,9.63c-2.541,2.325-4.974,4.442-7.516,6.346l-1.693-1.69a58.314,58.314,0,0,0,7.407-8.361A91,91,0,0,0,136,80.838c-3.6.105-7.092.427-10.478.848l-2.009-4.974a72.641,72.641,0,0,0,13.651,1.269h.421A72.353,72.353,0,0,0,141.821,67.3c-3.489.105-6.984.319-10.475.74l-2.114-4.869a73.835,73.835,0,0,0,13.543,1.167c.74-2.752,1.483-5.609,2.225-8.677h-3.705a84.9,84.9,0,0,0-11.642.845l-2.009-4.972A73.139,73.139,0,0,0,141.294,52.8Zm21.377,24.123A52.865,52.865,0,0,1,157.7,67.3h-8.045c-.635,1.48-1.164,2.857-1.69,4.021a48.76,48.76,0,0,1-3.389,6.665H163.3A8.887,8.887,0,0,1,162.672,76.923Z" transform="translate(-87.114 -39.993)" fill="#666464"/>
    <path id="Path_881" data-name="Path 881" d="M137.955,115.139h71.537l6.135-7.089,8.147,6.03a3.674,3.674,0,0,1,1.377,2.331A1.479,1.479,0,0,1,223.459,118H170.972a100.7,100.7,0,0,1-9.1,10.268c2.962,0,6.033,0,9.311-.105,9.738,0,17.991-.105,24.869-.105-2.752-2.225-5.714-4.448-8.89-6.773l1.164-2.012q11.116,2.86,17.777,6.665c4.129,2.541,6.246,5.188,6.246,8.256,0,2.752-1.588,4.126-4.553,4.126-.845,0-1.8-.74-2.962-2.114a72.868,72.868,0,0,0-5.82-5.609c-6.984,1.056-15.236,2.114-24.761,3.278-10.265,1.272-19.474,2.12-27.621,2.752l-.74,2.541c-.424,1.059-.953,1.585-1.8,1.585-.737,0-1.269-.632-1.585-1.69l-2.541-10.689c4.658,0,10.267,0,16.827-.105L161.236,118H137.955a84.9,84.9,0,0,0-11.642.848L124.3,113.87A72.663,72.663,0,0,0,137.955,115.139Zm.424-65.711h16.827l.105-.427V47.731a31.679,31.679,0,0,0-.848-6.983l9.525,1.48c1.269.213,2.012.743,2.012,1.8,0,.95-1.167,1.8-3.284,2.433v2.965h21.061V48.156a39.334,39.334,0,0,0-.743-6.984l9.525,1.483c1.269.211,2.012.74,2.012,1.8,0,.953-1.164,1.8-3.284,2.433v2.541h17.778l6.141-7.094,8.147,6.036a3.643,3.643,0,0,1,1.374,2.328,1.4,1.4,0,0,1-1.585,1.588H191.287v3.278a2.683,2.683,0,0,1-.737,1.907l8.674,1.056c1.483.213,2.331.743,2.331,1.591,0,1.056-1.377,2.009-4.126,2.962-.108,1.69-.213,3.173-.319,4.548h10.051l3.495-4.126,7.194,5.4a1.913,1.913,0,0,1,.74,1.588q0,1.114-4.126,2.857c0,4.445.105,7.937.319,10.265a21.833,21.833,0,0,0,1.377,6.352c0,.316.105.421.316.421a1.548,1.548,0,0,0,1.375-.848l4.445-7.089,1.585.424L220.6,96.092a5.5,5.5,0,0,0,.74,3.068,7.937,7.937,0,0,1,.529,2.752c0,1.907-1.059,2.857-2.962,2.857a5.408,5.408,0,0,1-3.386-1.374A16.453,16.453,0,0,1,211.4,98.1a33.559,33.559,0,0,1-2.962-9.206c-.743-3.705-1.059-9.841-1.059-18.415H196.791c-.421,3.916-.845,7.41-1.483,10.478a4.653,4.653,0,0,0-.211.848q1.43.632,2.857,1.266c4.34,2.117,6.562,4.55,6.562,7.3S203.14,94.5,200.391,94.5c-.848,0-1.9-.635-3.176-2.012-1.48-1.269-3.071-2.644-4.656-3.913-.635,1.059-1.167,2.012-1.693,2.857a26.792,26.792,0,0,1-8.147,8.045,48.976,48.976,0,0,1-10.054,4.442l-1.269-2.012a37.317,37.317,0,0,0,8.677-5.925,26.97,26.97,0,0,0,5.609-7.3,35.041,35.041,0,0,0,1.69-4.024c-2.962-1.9-6.03-3.916-9.311-5.928l1.164-1.585c3.389.848,6.562,1.585,9.419,2.433.105-.635.211-1.164.319-1.8.421-2.328.635-4.761.845-7.3H189.6a82.939,82.939,0,0,0-11.537.848l-2.114-4.974A74.335,74.335,0,0,0,189.6,67.626h.316c0-1.059.105-2.223.105-3.384a44.358,44.358,0,0,0-.635-6.033,5.393,5.393,0,0,1-1.8.316c-2.965,0-4.553-.635-4.553-2.114l.532-4.126H162.716V54.4c-.211,1.907-1.375,2.857-3.7,2.857-2.962,0-4.55-.635-4.55-2.117l.421-2.854H138.379a85.279,85.279,0,0,0-11.639.842l-2.012-4.972A72.9,72.9,0,0,0,138.379,49.428Zm5.4,13.224h1.588V60.537a45.369,45.369,0,0,0-.424-4.974l8.466,1.269c1.48.211,2.328.848,2.328,1.693,0,.637-.421,1.164-1.269,1.48l-1.693.953v1.693h8.361l4.548-4.972,6.352,4.445a2.968,2.968,0,0,1,1.059,1.8c0,1.059-.424,1.591-1.269,1.591H152.77v6.241h10.794l4.55-4.548,5.714,4.126a2.6,2.6,0,0,1,.953,1.588c0,1.164-.424,1.69-1.272,1.69H160.283v3.284c0,1.164.743,1.69,2.433,1.69h4.553c1.48,0,2.325-.211,2.644-.74l1.907-3.386h1.269v2.436c0,.95.316,1.585,1.164,1.8a2.324,2.324,0,0,1,.845,1.9,2.216,2.216,0,0,1-1.164,2.12c-1.693.632-4.656.845-8.677.845-4.974,0-8.042-.424-9.314-1.269-1.059-.637-1.48-1.907-1.48-3.705V74.61h-8.677a14.136,14.136,0,0,1-1.907,4.448,14.2,14.2,0,0,1-3.384,4.018,19.421,19.421,0,0,1-5.293,3.071,40.374,40.374,0,0,1-9.627,2.962l-.848-2.117a36.689,36.689,0,0,0,5.925-2.538,14.241,14.241,0,0,0,3.81-2.965A17.561,17.561,0,0,0,137,77.894a19.747,19.747,0,0,0,1.059-3.284,77.918,77.918,0,0,0-11.32.848l-2.012-4.974a72.662,72.662,0,0,0,13.651,1.269h6.984V65.512h-1.588a84.83,84.83,0,0,0-11.639.845l-2.012-4.974A72.685,72.685,0,0,0,143.775,62.652Zm.743,27.726V85.4a44.031,44.031,0,0,0-.427-4.972l8.574,1.161c1.483.216,2.22.848,2.22,1.7,0,.635-.421,1.164-1.269,1.588l-1.588.953v4.548h6.141l4.548-4.974,6.352,4.445c.74.635,1.164,1.164,1.164,1.693,0,1.167-.424,1.693-1.269,1.693H152.027V98.42c7.621-.316,13.546-.635,17.78-1.059l.424,1.693c-3.916,1.059-10.054,2.541-18.415,4.232-7.618,1.7-13.122,2.752-16.719,3.179l-1.164,2.962c-.316.845-.743,1.164-1.374,1.164-.848,0-1.377-.637-1.483-2.012l-2.647-9.206c5.4,0,10.794-.213,16.087-.529V93.235a84.6,84.6,0,0,0-11.537.848l-2.114-4.974A74.334,74.334,0,0,0,144.517,90.378Zm16.19,15.66h28.042l5.822-6.665,7.829,5.714a3.062,3.062,0,0,1,1.269,2.223,1.481,1.481,0,0,1-1.693,1.588H160.707a84.905,84.905,0,0,0-11.642.845l-2.009-4.974A72.685,72.685,0,0,0,160.707,106.038Z" transform="translate(-18.47 -40.748)" fill="#666464"/>
    <path id="Path_882" data-name="Path 882" d="M175,76.917h4.126V54.273c0-5.928-.424-10.265-1.269-13.227l10.156,1.374c1.693.211,2.647.848,2.647,1.9a1.867,1.867,0,0,1-1.588,2.012l-2.117.845V76.917h2.965l5.29-5.714,7.092,5.083a2.7,2.7,0,0,1,1.164,1.9c0,1.167-.529,1.7-1.591,1.7h-14.92v6.135A105.148,105.148,0,0,1,198.07,93c3.068,2.433,4.653,4.761,4.653,7.089,0,3.386-1.375,4.974-4.126,4.974-1.269,0-2.328-.848-3.278-2.752a86.778,86.778,0,0,0-8.364-11.429v45.185a1.728,1.728,0,0,1-1.056,1.588,9.54,9.54,0,0,1-4.34.848c-1.8,0-2.752-.532-2.857-1.588l.424-16.932V98.4a67.6,67.6,0,0,1-8.042,12.382,56.328,56.328,0,0,1-8.466,8.785l-1.272-2.12a38.787,38.787,0,0,0,5.4-7.937A115.984,115.984,0,0,0,173.2,94.378a140.667,140.667,0,0,0,4.235-14.5H175a83.378,83.378,0,0,0-11.537.845l-2.117-4.974A72.7,72.7,0,0,0,175,76.917Zm-1.588-17.988a17.347,17.347,0,0,1,2.433,7.726c0,3.384-1.375,4.972-4.126,4.972-1.269,0-2.114-1.377-2.541-4.34a100.043,100.043,0,0,0-4.548-16.824l2.114-1.164A72.047,72.047,0,0,1,173.411,58.929Zm30.054-6.668c1.056.424,1.693.953,1.693,1.588,0,1.059-1.588,1.693-4.553,2.012q-3.645,6.983-9.522,16.508l-2.433-.743q2.062-6.983,3.173-11.11c.953-4.129,1.8-8.15,2.647-12.066Zm15.344-.105h6.984V47.181c0-.95-.105-2.962-.319-6.135l9.841,1.269c1.9.316,2.962.953,2.962,2.009,0,1.269-1.375,2.436-4.126,3.281v4.55h11.113l5.82-6.244,7.407,5.4a3.083,3.083,0,0,1,1.269,2.117,1.479,1.479,0,0,1-1.69,1.588H234.151v8.68h9.419l5.4-5.717,7.092,5.08a2.712,2.712,0,0,1,1.164,1.907c0,1.161-.529,1.693-1.588,1.693H234.151v9.522h14.394l5.82-6.244,7.408,5.4a2.912,2.912,0,0,1,1.272,2.012,1.51,1.51,0,0,1-1.7,1.69H217.961a84.554,84.554,0,0,0-11.534.848l-2.117-4.974a74.63,74.63,0,0,0,13.651,1.269h7.832V66.655h-6.135a84.9,84.9,0,0,0-11.642.845L206,62.529a73.161,73.161,0,0,0,13.654,1.164h6.135v-8.68h-6.984a82.94,82.94,0,0,0-11.537.848l-2.114-4.974A74.336,74.336,0,0,0,218.809,52.156Zm-2.117,35.982h28.89l4.232-4.974,6.983,5.29a2.719,2.719,0,0,1,1.272,2.114c0,.637-.424,1.164-1.272,1.485l-2.857,1.48v33.862c0,3.492-1.585,6.349-4.656,8.677a15.205,15.205,0,0,1-7.3,2.436q0-3.812-.953-5.08c-.632-.953-3.81-2.009-9.417-3.176v-2.433l11.958.421c1.374,0,2.117-.845,2.117-2.538V115.437h-29v20.635c0,.848-.635,1.588-1.9,2.012a23.171,23.171,0,0,1-3.811.424,2.216,2.216,0,0,1-2.541-2.436l.427-16.505v-29a23.615,23.615,0,0,0-.848-6.559Zm29,11.955v-9.1h-29v9.1Zm0,12.382v-9.417h-29v9.417Z" transform="translate(49.899 -40.198)" fill="#666464"/>
    <path id="Path_883" data-name="Path 883" d="M227.6,42.906c1.48.424,2.22,1.059,2.22,2.117s-1.374,1.8-4.126,2.433a1.414,1.414,0,0,0-.316.743q5.238,3.492,8.569,6.03c2.752,2.328,4.129,4.659,4.129,6.878,0,3.071-1.377,4.55-4.129,4.55-1.056,0-2.009-.845-2.854-2.749A80.274,80.274,0,0,0,223.681,51.9a86.269,86.269,0,0,1-9.206,14.71,50.5,50.5,0,0,1-4.656,4.866,62.783,62.783,0,0,0,10.9.848h2.541l5.287-5.822,7.092,5.08a2.717,2.717,0,0,1,1.164,1.907c0,1.164-.529,1.693-1.588,1.693h-10.37v14.5h2.541l5.287-5.822,7.092,5.08a2.707,2.707,0,0,1,1.164,1.9c0,1.164-.529,1.7-1.588,1.7h-14.5v28.253a27.569,27.569,0,0,0,2.857-.424,114.264,114.264,0,0,0,12.063-2.22l.424,2.536a93.343,93.343,0,0,1-9.1,3.916,125.337,125.337,0,0,1-13.865,4.553c-3.384.845-6.56,1.588-9.311,2.22l-1.164,2.857c-.635,1.377-1.272,2.117-2.114,2.117a2.223,2.223,0,0,1-1.483-1.9l-2.647-10.9c3.6-.213,8.045-.529,13.44-1.164a29.967,29.967,0,0,0,3.068-.424V92.539h-4.548a83.377,83.377,0,0,0-11.537.845l-2.117-4.972a73.17,73.17,0,0,0,13.654,1.269h4.548V75.288c-2.752.211-5.29.424-7.832.74l-1.164-2.857c-2.541,2.117-5.185,4.232-7.937,6.138l-1.693-2.117a57.775,57.775,0,0,0,11.218-14.5c3.176-5.606,6.033-12.911,8.677-21.8ZM211.4,107.775a16.2,16.2,0,0,1,2.331,7.089c0,3.389-1.38,4.977-4.129,4.977-1.269,0-2.009-1.272-2.328-4.024a111.064,111.064,0,0,0-4.337-15.45l2.114-1.269A68.478,68.478,0,0,1,211.4,107.775Zm29.525-5.82a2.325,2.325,0,0,1,1.693,2.114c0,.848-1.374,1.377-4.126,1.693q-2.062,3.334-3.81,5.717a32.714,32.714,0,0,1-5.714,5.82l-1.585-1.588c.632-1.585,1.161-3.176,1.69-4.656.635-2.009,1.272-4.129,1.8-6.244.532-2.328.953-4.656,1.377-6.878ZM253.84,55.709h10.265V54.548a57.579,57.579,0,0,0-1.164-13.227L273.1,42.7c1.7.211,2.647.848,2.647,1.9a1.954,1.954,0,0,1-1.693,2.012l-2.117.845v8.253H284l6.141-6.983,8.147,6.033a3.244,3.244,0,0,1,1.375,2.223c0,1.164-.527,1.693-1.585,1.693H271.934V70.208h13.335l4.445-4.55,6.241,4.761c1.059.743,1.693,1.377,1.693,1.907a1.679,1.679,0,0,1-1.161,1.588l-2.647,1.269v15.66l.424,9.1a2.409,2.409,0,0,1-1.377,2.012,5.143,5.143,0,0,1-3.173.95c-2.541,0-3.705-.632-3.705-2.114V97.935H273.84a74.613,74.613,0,0,0,6.878,9.735,45.18,45.18,0,0,0,8.358,7.937,41.715,41.715,0,0,0,11.431,6.244l-.848,2.965a18.689,18.689,0,0,0-3.705.316c-1.059.316-2.433,2.22-4.126,5.82a44.176,44.176,0,0,1-8.463-8.677,56.975,56.975,0,0,1-7.937-13.335,47.133,47.133,0,0,1-3.495-7.3v34.71a1.638,1.638,0,0,1-.95,1.588,9.535,9.535,0,0,1-4.337.848c-1.907,0-2.86-.532-2.965-1.588l.424-16.932V107.249a60.115,60.115,0,0,1-3.916,5.182,63.9,63.9,0,0,1-13.227,12.49,84.335,84.335,0,0,1-12.592,7.723l-1.269-2.117a48.947,48.947,0,0,0,9.1-6.983,79.037,79.037,0,0,0,10.791-13.122,93.725,93.725,0,0,0,6.986-12.487H251.3V99.1a2.2,2.2,0,0,1-1.8,2.328,7.6,7.6,0,0,1-4.021,1.059,2.215,2.215,0,0,1-2.433-2.541l.421-9.841V72.644c0-3.281-.316-5.5-.845-6.562l8.677,4.126h12.806V58.674H253.84a106.213,106.213,0,0,0-11.639.74l-2.012-4.866A72.89,72.89,0,0,0,253.84,55.709Zm10.265,39.26v-21.9H251.3v21.9Zm-4.021-13.014c1.269,1.9,2.009,3.492,2.009,4.761,0,3.071-1.269,4.55-3.705,4.55-1.056,0-1.8-.95-2.114-2.854a66.207,66.207,0,0,0-3.705-11.221l2.012-1.164A46.3,46.3,0,0,1,260.084,81.956Zm11.85,13.014h14.075V81.85a6.187,6.187,0,0,1-2.012.316c-2.325,2.857-5.4,6.138-9.1,9.946l-2.117-.845c1.269-3.176,2.328-5.606,2.962-7.513.953-2.752,1.8-5.5,2.433-8.147l7.832,3.281V73.065H271.934Z" transform="translate(118.271 -40.473)" fill="#666464"/>
  </g>
</svg>
