<svg id="section1_title3" xmlns="http://www.w3.org/2000/svg" width="418.847" height="100" viewBox="0 0 418.847 100">
  <path id="Path_362" data-name="Path 362" d="M-300.931,44.688h5.42l5.42-4.569,5.527,5.313a4.066,4.066,0,0,1,1.486,2.551c0,.637-.637,1.063-1.911,1.381l-3.083,1.17c-3.825,8.82-7.545,16.791-11.37,24.018h8.4l3.825-4.146,7.653,5.1a2.942,2.942,0,0,1,1.063,1.914c0,.849-1.277,1.911-3.72,2.974-2.551,10.1-4.783,17.428-6.908,21.892a111.038,111.038,0,0,1-4.995,10.626,17.634,17.634,0,0,0,3.295,3.081c3.4,3.083,7.971,5.209,13.71,6.483a58.611,58.611,0,0,0,14.24,1.488c8.182,0,24.125-.1,47.928-.426l-.851,2.869c-1.807.214-2.974.64-3.611,1.384-.958.742-1.6,2.337-1.807,4.888-31.245,0-50.056-.851-56.643-2.551-7.015-1.914-12.54-4.995-16.472-9.138A16.855,16.855,0,0,1-297.1,117.7a101.82,101.82,0,0,1-6.8,7.757q-5.42,4.942-9.882,8.927l-2.018-1.7c7.01-8.183,11.794-14.454,14.344-19.13a11.5,11.5,0,0,0,.849-1.593,29.188,29.188,0,0,1-2.23-4.465c-1.807-4.144-2.658-9.138-2.658-15.091a106.079,106.079,0,0,1-3.718,12.436l.423,2.125q0,2.867-1.593,2.869c-.849,0-1.593-.533-2.123-1.807l-4.572-7.334q6.7-6.055,9.245-11.159a3.456,3.456,0,0,1,2.762-1.7q1.273,0,1.593,2.232a47.415,47.415,0,0,0,4.039,15.3,5.786,5.786,0,0,0,1.063,1.807A85.478,85.478,0,0,0-295.4,97.93a133.113,133.113,0,0,0,4.462-20.509h-9.989c-.744,1.381-1.381,2.655-2.018,3.825-.637,1.063-1.807,1.6-3.72,1.6-3.081,0-4.567-1.063-4.567-3.295,0-.637.956-2.339,2.974-5.1a196.326,196.326,0,0,0,13.707-26.887h-6.376a84.667,84.667,0,0,0-11.579.851l-2.125-4.995A74.872,74.872,0,0,0-300.931,44.688Zm38.257,4.146h3.72A88.4,88.4,0,0,0-259.8,37.25l10.629,1.381c1.7.214,2.655.851,2.655,1.914a2.209,2.209,0,0,1-1.807,2.337l-2.337.958v4.995H-237.8l4.569-4.572,6.164,4.783c1.063.744,1.7,1.381,1.7,1.807a1.78,1.78,0,0,1-1.063,1.7l-2.655,1.277v9.138h.849l4.995-5.42,6.7,4.783a2.756,2.756,0,0,1,1.167,1.807c0,1.17-.426,1.7-1.274,1.7H-229.09v6.271l.423,9.138a2.149,2.149,0,0,1-1.381,1.914,5.161,5.161,0,0,1-3.188.956c-2.551,0-3.718-.637-3.718-2.125V79.972h-13.71V91.129h10.84l5.736-6.162,7.546,5.418a2.9,2.9,0,0,1,1.17,2.018c0,1.17-.53,1.7-1.593,1.7h-23.7v12.008h17.853l5.846-6.587,7.757,5.632a3.262,3.262,0,0,1,1.381,2.232,1.486,1.486,0,0,1-1.7,1.593h-31.138v10.84a1.544,1.544,0,0,1-1.063,1.593,8.34,8.34,0,0,1-4.358.851c-2.125,0-3.188-.533-3.295-1.6l.319-11.689h-11.159a84.737,84.737,0,0,0-11.582.851l-2.021-4.995a72.962,72.962,0,0,0,13.6,1.274h11.159l.107-3.295V94.1H-264.8a85.138,85.138,0,0,0-11.582.849l-2.125-4.995a74.548,74.548,0,0,0,13.707,1.17h5.846V79.972h-3.72a85.456,85.456,0,0,0-11.689.849l-2.018-4.995A73,73,0,0,0-262.673,77.1h3.72V65.837h-10.415a84.8,84.8,0,0,0-11.585.851l-2.125-4.995a74.968,74.968,0,0,0,13.71,1.274h10.415V51.7h-3.72a85.455,85.455,0,0,0-11.689.849l-2.018-4.995A73,73,0,0,0-262.673,48.835Zm12.01,14.133h13.71V51.7h-13.71Zm0,14.135h13.71V65.837h-13.71Z" transform="translate(317.082 -37.25)" fill="#666464"/>
  <path id="Path_363" data-name="Path 363" d="M-251.559,39.268c1.7.426,2.658,1.063,2.658,2.125,0,.851-.637,1.277-1.807,1.384l-3.613,1.063a37.969,37.969,0,0,1-2.655,3.718h15.94l5.846-6.164,7.438,5.316a3.078,3.078,0,0,1,1.274,2.125,1.517,1.517,0,0,1-1.7,1.7H-246.35c1.807,1.17,3.295,2.125,4.462,2.976,1.7,1.486,2.551,2.762,2.551,4.036,0,3.083-1.593,4.572-4.569,4.572-1.17,0-2.125-.958-2.762-2.869a35.141,35.141,0,0,0-4.358-8.715h-8.4q-1.751,2.072-3.506,3.825a105.4,105.4,0,0,1-10.517,9.034l-1.6-2.125a77.726,77.726,0,0,0,8.183-12.01,72.329,72.329,0,0,0,5.525-12.008Zm-8.183,64.4h29.97c-.107-5.632-.426-8.927-.851-9.989l9.457,1.381q2.553.478,2.551,1.914a1.907,1.907,0,0,1-1.274,1.807l-1.6,1.063v3.825h29.863l6.269-7.12,8.185,6.057a3.5,3.5,0,0,1,1.274,2.232c0,1.167-.533,1.7-1.6,1.7H-218.4a81.276,81.276,0,0,0,10.415,5.525,83.114,83.114,0,0,0,13.389,5.1,138.285,138.285,0,0,0,18.7,3.932l-.744,2.869a18.017,18.017,0,0,0-3.72.319c-1.063.319-2.548,2.339-4.251,5.953a96.554,96.554,0,0,1-15.088-6.376,64.813,64.813,0,0,1-14.454-9.671,41.215,41.215,0,0,1-7.334-6.59v23.381a3.174,3.174,0,0,1-2.018,2.869,9.215,9.215,0,0,1-3.825.956c-1.914,0-2.869-1.063-2.869-2.976l.426-11.159v-9.138a52.143,52.143,0,0,1-6.271,4.358,86.472,86.472,0,0,1-18.065,9.138c-5.739,2.125-11.9,4.146-18.49,5.953l-1.17-2.021a154.673,154.673,0,0,0,16.151-7.227,113.607,113.607,0,0,0,13.391-7.864,77.183,77.183,0,0,0,8.608-7.331h-24.125a84.7,84.7,0,0,0-11.579.851l-2.125-5A74.674,74.674,0,0,0-259.741,103.669Zm3.827-36.132h13.6l4.995-5.418,6.8,4.781a2.752,2.752,0,0,1,1.167,1.807c0,1.17-.423,1.7-1.274,1.7h-15.835v13.18q9.885-.8,16.261-1.6l.426,2.125c-4.89,1.7-10.84,3.506-17.96,5.313-6.483,1.7-12.222,2.974-17.321,3.825L-265.9,95.8c-.319,1.063-.849,1.593-1.7,1.593s-1.381-.53-1.593-1.7l-2.551-10.731c4.462,0,10.305-.214,17.425-.851V70.406h-1.593a85.051,85.051,0,0,0-11.689.851l-2.018-4.995A73,73,0,0,0-255.914,67.536Zm65.568-1.167a2.9,2.9,0,0,1,1.17,2.018,1.745,1.745,0,0,1-1.063,1.6l-2.658,1.7V84.116c0,1.17.426,1.7,1.488,1.7h4.89a3.848,3.848,0,0,0,1.911-.319c.64-.319,1.914-3.718,3.828-10.1l2.444.426v7.438a3.47,3.47,0,0,0,2.018,3.295,3.871,3.871,0,0,1,.851,2.551c0,1.274-.744,2.125-2.125,2.762a24.483,24.483,0,0,1-6.8.956h-9.141c-2.551,0-4.358-.637-5.632-1.911-1.063-1.277-1.6-3.509-1.6-6.8V69.132h-11.582a41.572,41.572,0,0,1-1.381,8.927v.107q1.594.478,2.869.956c3.932,1.488,5.95,3.188,5.95,4.995,0,3.081-1.7,4.569-4.995,4.569a4.194,4.194,0,0,1-2.762-1.488c-1.277-.956-2.658-1.911-4.146-2.974l-.1.212a23.219,23.219,0,0,1-5.846,4.462,45.282,45.282,0,0,1-12.01,4.783l-.849-2.551a30.3,30.3,0,0,0,7.331-4.039,17.022,17.022,0,0,0,4.783-4.781,5.684,5.684,0,0,0,.851-1.593c-2.125-1.17-4.358-2.339-6.7-3.613l1.6-2.125c2.337.423,4.462.849,6.483,1.274a49.736,49.736,0,0,0,.637-6.908q-3.505.321-6.694.64l-2.021-4.995a72.963,72.963,0,0,0,13.6,1.274h14.879l3.825-4.569Zm-18.065-27.1c1.7.426,2.655,1.063,2.655,2.125,0,.851-.637,1.277-1.807,1.384l-3.611,1.063a38.228,38.228,0,0,1-3.083,3.718h24.336l5.739-6.587,7.864,5.632a3.49,3.49,0,0,1,1.277,2.232c0,1.167-.533,1.7-1.6,1.7h-26.25c1.488.956,2.658,1.807,3.72,2.444,1.381,1.381,2.125,2.658,2.125,3.72,0,3.081-1.593,4.569-4.569,4.569-.956,0-1.7-.851-2.232-2.762a45.106,45.106,0,0,0-3.72-7.971h-9.564a8.323,8.323,0,0,1-1.381,1.381,104.253,104.253,0,0,1-8.82,6.908l-1.7-2.125a62.091,62.091,0,0,0,6.483-9.778,52.041,52.041,0,0,0,4.358-9.671Z" transform="translate(382.174 -37.25)" fill="#666464"/>
  <path id="Path_364" data-name="Path 364" d="M-217.517,60.223h1.7V48.215a51.528,51.528,0,0,0-1.274-10.84l10.2,1.381c1.7.319,2.655.958,2.655,2.021,0,.849-1.274,1.593-3.718,2.444v17h3.292l5.42-5.739,7.12,4.995a3.119,3.119,0,0,1,1.17,2.021c0,1.167-.533,1.7-1.6,1.7h-15.407V73.933c0,2.658-.214,5.313-.426,7.864h5.42l5.843-6.164,7.438,5.42a2.729,2.729,0,0,1,1.277,2.018,1.518,1.518,0,0,1-1.7,1.7h-18.6c-.321,2.548-.744,5.1-1.277,7.543a128.544,128.544,0,0,1,13.073,8.5c3.4,2.765,5.206,5.42,5.206,7.971,0,3.4-1.381,4.995-4.144,4.995-1.381,0-2.658-.956-3.72-3.081A90.815,90.815,0,0,0-210.82,95.93a72.646,72.646,0,0,1-7.12,15.835,69.643,69.643,0,0,1-13.6,15.3l-2.125-1.6c4.995-5.1,8.608-9.989,10.733-14.558a77.136,77.136,0,0,0,4.995-14.451,110.865,110.865,0,0,0,1.7-11.689h-2.869a85.514,85.514,0,0,0-11.689.849l-2.018-4.995A73.018,73.018,0,0,0-219.11,81.8h3.081c.107-2.551.212-5.1.212-7.864V63.2h-1.7a105.8,105.8,0,0,0-11.579.744l-2.125-4.888A74.758,74.758,0,0,0-217.517,60.223Zm38.683-16.577h28.482l4.251-4.995,7.013,5.313a2.755,2.755,0,0,1,1.277,2.23c0,.426-.426.851-1.277,1.384l-2.869,1.486v51.009a3.284,3.284,0,0,1-1.807,2.976,6.4,6.4,0,0,1-3.188.744c-2.232,0-3.295-.637-3.295-2.018V98.055h-3.718v23.274q0,2.871,3.825,2.869h6.8c2.125,0,3.506-.956,3.932-2.869l2.869-12.54,2.125.426v12.859a2.625,2.625,0,0,0,1.6,2.658,3.035,3.035,0,0,1,1.274,2.762,3.449,3.449,0,0,1-1.914,3.295c-2.444.849-6.694,1.274-12.859,1.274-7.224,0-11.8-.744-13.707-2.018-1.488-1.17-2.232-3.083-2.232-5.846V98.055h-5.527a34.678,34.678,0,0,1-2.125,9.352,36.074,36.074,0,0,1-8.076,12.222c-3.613,3.825-8.715,7.12-15.091,10.2-4.888,1.7-10.2,3.295-15.728,4.783l-.744-2.125a68.25,68.25,0,0,0,13.814-5.632A53.693,53.693,0,0,0-185.21,119.2a35.921,35.921,0,0,0,6.376-9.882,30.774,30.774,0,0,0,2.762-11.266h-2.762V100.5c0,.958-.744,1.6-2.018,2.021a11.168,11.168,0,0,1-3.825.53c-1.7,0-2.446-.851-2.446-2.551l.319-16.577V46.195a29.293,29.293,0,0,0-.742-6.694Zm28.587,16.577V46.516h-28.587V60.223Zm0,17.43V63.2h-28.587V77.653Zm0,17.425V80.627h-28.587V95.078Z" transform="translate(446.231 -37.056)" fill="#666464"/>
  <path id="Path_365" data-name="Path 365" d="M-171.331,46.709h7.545V42.563a19.766,19.766,0,0,0-.849-5.313l8.82,1.381c1.488.319,2.337.956,2.337,1.914a1.709,1.709,0,0,1-1.063,1.488l-1.381.956v3.721h12.01l4.144-4.146,5.527,4.465c1.063.744,1.593,1.381,1.593,1.807a1.469,1.469,0,0,1-1.063,1.381l-2.337,1.063v4.569h1.7l4.569-4.995,6.376,4.569c.64.637,1.063,1.17,1.063,1.7,0,1.17-.423,1.7-1.274,1.7h-12.433v.426l.426,8.287A2.043,2.043,0,0,1-136.9,69.45a4.255,4.255,0,0,1-2.869.956c-2.551,0-3.721-.637-3.721-2.018v-.426h-12.433V75.4h12.859l4.572-4.569,5.739,4.251a2.39,2.39,0,0,1,.849,1.6c0,1.063-.426,1.593-1.17,1.593h-22.848v6.7h16.579l5.42-5.846,7.12,5.1a2.9,2.9,0,0,1,1.17,2.018,1.487,1.487,0,0,1-1.7,1.593h-50.158a85.052,85.052,0,0,0-11.689.851L-191.2,83.69a73.017,73.017,0,0,0,13.707,1.277h13.707v-6.7H-172.5a85.485,85.485,0,0,0-11.689.851l-2.018-4.995A73,73,0,0,0-172.5,75.4h8.713V67.962h-7.12a104.157,104.157,0,0,0-11.582.744l-2.125-4.888a74.789,74.789,0,0,0,13.707,1.17h7.12V58.824h-14.13a85.519,85.519,0,0,0-11.692.849l-2.018-4.995a73.03,73.03,0,0,0,13.71,1.17h14.13V49.683h-7.545a84.7,84.7,0,0,0-11.579.851l-2.125-4.995A74.742,74.742,0,0,0-171.331,46.709Zm45.7,77.257c-4.783,1.063-10.1,2.021-16.049,2.976-6.269,1.063-14.451,2.232-24.441,3.506-5.953.744-11.37,1.381-16.365,1.807l-1.167,2.869c-.64,1.381-1.277,2.125-2.125,2.125a2.509,2.509,0,0,1-1.6-1.914l-2.655-10.945q8.925-.161,21.994-.637c7.653-.214,15.091-.637,22.422-1.063,7.652-.426,14.242-.744,19.556-1.17Zm-51.116-30.286h33.686l4.146-4.146L-133.392,94c.958.637,1.488,1.274,1.488,1.7a1.6,1.6,0,0,1-.956,1.488l-2.339,1.063v10.733l.426,8.29a2.186,2.186,0,0,1-1.274,2.018,4.248,4.248,0,0,1-2.869.958c-2.551,0-3.721-.64-3.721-2.125V117.7h-34.111v.426a2.347,2.347,0,0,1-1.486,2.337,5.841,5.841,0,0,1-3.4,1.063q-2.389,0-2.551-2.551V96.123c0-3.4-.319-5.527-.849-6.59Zm13.707,10.308V96.549h-13.707v7.438Zm0,10.84v-7.864h-13.707v7.864Zm7.12-58.98h12.433V49.683h-12.433Zm0,9.141h12.433V58.824h-12.433Zm.426,39h12.859V96.549H-155.5Zm12.859,10.84v-7.864H-155.5v7.864Zm30.712-66.633c1.6.214,2.446.851,2.446,1.914a1.665,1.665,0,0,1-1.17,1.488l-1.7.956v52.286a3.173,3.173,0,0,1-2.021,2.869,8.951,8.951,0,0,1-3.825.849,2.145,2.145,0,0,1-2.444-2.444l.423-10.84V58.4c0-6.59-.319-10.522-.849-11.689Zm16.9-8.713q2.55.317,2.551,1.911a1.88,1.88,0,0,1-1.6,2.021l-2.125.849v80.554c0,3.188-1.7,5.846-4.888,7.971a16.583,16.583,0,0,1-7.546,2.337q0-4.144-.956-5.42c-.637-.956-3.72-2.018-9.459-3.295v-2.018l12.115.851c1.914,0,2.869-.744,2.869-2.125V51.278c0-5.953-.423-10.308-1.274-13.284Z" transform="translate(511.324 -37.25)" fill="#666464"/>
</svg>
