<svg id="section2_title1" xmlns="http://www.w3.org/2000/svg" width="419.714" height="100" viewBox="0 0 419.714 100">
  <g id="Group_451" data-name="Group 451" transform="translate(0 0)">
    <path id="Path_1690" data-name="Path 1690" d="M-1053.825,101.332c0,15.73-1.38,28.693-3.932,38.684a79.613,79.613,0,0,1-9.777,23.169l-1.595-1.7a112.37,112.37,0,0,0,4.784-19.765c1.486-9.034,2.232-22.532,2.232-40.385V76.36a75.421,75.421,0,0,0-.429-7.865l8.079,5h68.332l6.271-7.013,8.182,5.95a3.47,3.47,0,0,1,1.278,2.338A1.411,1.411,0,0,1-972,76.36h-81.83Zm47.289,25.4c1.915.212,2.978.957,2.978,2.018,0,1.275-1.38,2.443-4.144,3.3v7.865h11.583l6.271-7.016,8.182,5.953a3.691,3.691,0,0,1,1.383,2.338,1.489,1.489,0,0,1-1.7,1.595H-1007.7v14.558h20.722l6.7-7.439,8.5,6.27a3.65,3.65,0,0,1,1.383,2.444c0,1.063-.746,1.595-2.017,1.595h-71.842a70.043,70.043,0,0,0-11.586.852l-2.124-5a74.9,74.9,0,0,0,13.709,1.275h5.419V137.467c0-1.063-.211-3.084-.426-6.273l9.886,1.383c1.912.211,2.975.852,2.975,1.915,0,1.272-1.38,2.441-4.144,3.4v19.448h14.558V131.619c0-1.06-.214-3.081-.426-6.267Zm-23.592-39.744v9.351h4.57l5-5.419,6.7,4.887a2.84,2.84,0,0,0,.637.532h13.389v-8.4c-3.612.426-8.288.743-14.132.957l-.852-2.126c5.953-1.063,10.52-2.021,13.924-2.978a49.564,49.564,0,0,0,12.646-5.736l7.436,5a2.2,2.2,0,0,1,.958,2.018c0,.852-.317,1.275-.852,1.275l-3.718-.423a62.758,62.758,0,0,1-7.971,1.169v9.245h7.545l5.742-6.27,7.542,5.419a3.317,3.317,0,0,1,1.172,2.123,1.41,1.41,0,0,1-1.595,1.6h-19.022a37.843,37.843,0,0,0,5.207,4.993,35.122,35.122,0,0,0,6.8,4.678,37.417,37.417,0,0,0,9.459,3.612l-.429,2.549a27.543,27.543,0,0,0-3.4.211c-1.063.429-2.446,2.126-4.038,5.1a30.267,30.267,0,0,1-6.7-5.63,38.573,38.573,0,0,1-6.379-8.819,26.623,26.623,0,0,1-1.912-3.084v20.508a3,3,0,0,1-1.7,2.552,7.632,7.632,0,0,1-3.192.746c-1.909,0-2.866-.746-2.975-2.446l.425-9.988v-6.164a42.369,42.369,0,0,1-9.137,7.865,54.648,54.648,0,0,1-8.716,4.887l-1.275-2.018a26.631,26.631,0,0,0,5.524-4.358,58.013,58.013,0,0,0,6.485-8.076,74.79,74.79,0,0,0,3.932-7.119h-27.1v2.658c3.933,1.912,7.119,3.609,9.46,4.887,2.549,1.7,3.827,3.4,3.827,4.89,0,2.869-1.383,4.25-4.147,4.25-1.806,0-3.189-.957-4.144-2.975a32.732,32.732,0,0,0-5-6.8v16.79a2.761,2.761,0,0,1-1.7,2.552,7.811,7.811,0,0,1-3.3.74c-1.912,0-2.869-.74-2.869-2.441l.429-9.991v-3.932a45.078,45.078,0,0,1-6.8,6.059,55.293,55.293,0,0,1-8.182,4.887l-1.277-2.018a25.328,25.328,0,0,0,5.1-4.358,54.038,54.038,0,0,0,5.953-8.076,55.187,55.187,0,0,0,3.612-7.119h-.106a83.692,83.692,0,0,0-11.583.849l-2.126-4.993a74.949,74.949,0,0,0,13.709,1.275h1.7v-8.5c-3.192.426-7.442.849-12.86,1.063l-.849-2.126c5.1-1.063,9.137-2.021,12.112-2.978a41.692,41.692,0,0,0,11.054-5.736l7.439,5a2.211,2.211,0,0,1,.957,2.018c0,.852-.32,1.275-.852,1.275l-3.721-.423A52.387,52.387,0,0,1-1030.128,86.988Z" transform="translate(1069.129 -65.625)" fill="#666464"/>
    <path id="Path_1691" data-name="Path 1691" d="M-998.379,69.794c1.386.529,2.126,1.38,2.126,2.546,0,1.063-1.592,1.7-4.567,2.126-1.489,2.764-2.763,5.316-4.038,7.439h50.9l6.7-7.439,8.5,6.379a3.464,3.464,0,0,1,1.486,2.335c0,1.169-.743,1.7-2.123,1.7h-33.16v20.3H-958.1l5.845-6.59,7.865,5.633a3.065,3.065,0,0,1,1.275,2.232,1.484,1.484,0,0,1-1.7,1.592h-27.741V132.6h25.718l6.59-7.439,8.611,6.27a3.656,3.656,0,0,1,1.38,2.446c0,1.06-.743,1.592-2.126,1.592h-40.173v27.418a3.028,3.028,0,0,1-1.486,2.658,18.574,18.574,0,0,1-4.781.634c-1.915,0-2.869-.74-2.869-2.018l.426-18.7v-9.988h-37.407a84.175,84.175,0,0,0-11.586.849l-2.126-4.993a73.243,73.243,0,0,0,13.712,1.275h5.845V107.624a28.824,28.824,0,0,0-.852-7.013l9.139,4.573h23.275v-20.3h-25.4a94.635,94.635,0,0,1-6.907,9.988,97.368,97.368,0,0,1-13.392,14.026l-2.546-1.275a110.186,110.186,0,0,0,11.9-18.808,157.037,157.037,0,0,0,8.928-22.637Zm17.113,38.256h-23.275V132.6h23.275Z" transform="translate(1137.395 -66.179)" fill="#666464"/>
    <path id="Path_1692" data-name="Path 1692" d="M-950.751,67.9c1.912.317,2.869.957,2.869,2.018s-1.38,2.021-4.144,2.869V87.773h10.84V73.215c0-1.063-.212-3.084-.429-6.27l9.568,1.38c1.912.317,2.869.957,2.869,2.021s-1.38,2.018-4.144,2.869V87.773h5.63c1.806-3.4,3.189-5.95,4.041-7.862a94.483,94.483,0,0,0,4.038-9.991l9.457,4.038c1.06.426,1.7,1.063,1.7,1.809,0,1.06-1.6,1.7-4.57,2.018-2.764,2.869-6.27,6.164-10.52,9.988h13.069l5.742-6.7,7.862,5.741a3.07,3.07,0,0,1,1.275,2.229,1.411,1.411,0,0,1-1.595,1.6h-30.391l5.736,2.441c1.172.429,1.806,1.063,1.806,1.7,0,1.06-1.592,1.806-4.567,2.123-2.446,1.915-5.527,4.144-9.143,6.59H-915.9l6.273-7.013,8.182,5.95a3.453,3.453,0,0,1,1.275,2.338c0,1.169-.529,1.7-1.592,1.7h-40.7v9.883h19.128l5.739-6.587,7.865,5.739a3.081,3.081,0,0,1,1.275,2.123c0,1.169-.535,1.7-1.6,1.7h-32.411V128.9H-912.6l6.267-7.122,8.182,6.059a3.263,3.263,0,0,1,1.383,2.232,1.517,1.517,0,0,1-1.7,1.7h-41.762a78.758,78.758,0,0,0,11.263,6.27,84.042,84.042,0,0,0,14.241,5.524,136.181,136.181,0,0,0,19.98,4.361l-.852,2.975a19.853,19.853,0,0,0-3.824.317c-1.169.423-2.658,2.443-4.464,6.27a95.256,95.256,0,0,1-16.05-6.8,65.118,65.118,0,0,1-15.407-10.626,53.812,53.812,0,0,1-7.119-6.379v27.953a2.683,2.683,0,0,1-1.172,2.335,18.525,18.525,0,0,1-4.25.532c-2.126,0-3.3-.532-3.3-1.592l.426-17.853v-6.8a43.781,43.781,0,0,1-5.419,3.93,87.571,87.571,0,0,1-18.493,9.991c-5.95,2.335-12.22,4.57-18.916,6.59l-1.169-2.129a168.36,168.36,0,0,0,16.364-7.862,118.15,118.15,0,0,0,13.5-8.714,96,96,0,0,0,8.823-8.291H-979.87a85.405,85.405,0,0,0-11.583.849l-2.126-4.993A74.923,74.923,0,0,0-979.87,128.9h29.119v-9.562h-18.7a104.74,104.74,0,0,0-11.583.74l-2.126-4.884a75.041,75.041,0,0,0,13.709,1.166h18.7v-9.883h-23.7a104.091,104.091,0,0,0-11.583.743l-2.126-4.887a74.813,74.813,0,0,0,13.709,1.169h36.24c1.486-2.658,2.658-4.784,3.507-6.485,1.06-2.229,2.018-4.355,2.763-6.373h-48.673a85.262,85.262,0,0,0-11.692.849l-2.018-5a73.212,73.212,0,0,0,13.709,1.275h20.722V72.789c0-.955-.211-2.975-.426-6.164Zm-20.3,8.819c2.124,1.915,3.292,3.612,3.292,5.207,0,3.081-1.595,4.57-4.57,4.57-1.486,0-2.549-.955-3.4-3.084a35.854,35.854,0,0,0-7.013-11.051l2.126-1.592C-976.575,73.11-973.388,75.021-971.048,76.722Zm12.432,18.385c1.595,1.063,2.446,2.123,2.446,2.975,0,3.081-1.595,4.57-4.572,4.57a2.623,2.623,0,0,1-2.441-2.018,24.881,24.881,0,0,0-5-7.119l2.018-2.021A73.856,73.856,0,0,1-958.616,95.107Z" transform="translate(1207.32 -65.35)" fill="#666464"/>
    <path id="Path_1693" data-name="Path 1693" d="M-944.291,130.13c1.275.214,2.018.852,2.018,1.915s-1.172,1.7-3.295,2.018a77.423,77.423,0,0,1-4.464,13.815,83.691,83.691,0,0,1-5.527,10.734L-958,157.337c1.7-5.95,2.978-11.689,4.038-17.216.532-3.507.958-7.545,1.38-12.22Zm13.175-59.615c1.169.423,1.809,1.06,1.809,1.7,0,1.063-1.6,1.806-4.573,2.123-2.658,4.358-6.056,9.457-10.306,15.2a6.622,6.622,0,0,0,1.169.746c2.441,1.806,3.718,3.509,3.718,5.207,0,3.4-1.383,5-4.147,5q-1.432,0-2.549-2.232a66.72,66.72,0,0,0-9.565-12.326l2.126-1.595c2.446,1.275,4.57,2.335,6.379,3.4,1.272-3.609,2.335-6.482,3.081-8.711,1.275-4.358,2.443-8.5,3.4-12.54Zm10.84,14.452c1.063.532,1.7,1.169,1.7,1.806,0,1.063-1.595,1.806-4.57,2.126-4.676,6.693-10.628,14.452-17.853,23.166,5.1-.211,10.2-.529,15.41-1.169-.849-2.018-1.7-3.932-2.552-5.844l2.126-1.275a63.7,63.7,0,0,1,7.548,7.759c1.806,2.549,2.764,4.673,2.764,6.373,0,3.4-1.383,5-4.147,5-1.489,0-2.443-1.169-2.872-3.615-.529-2.018-1.166-4.038-1.909-6.162q-3.987,1.436-7.653,2.552v45.377a3.17,3.17,0,0,1-2.018,2.869,9.9,9.9,0,0,1-3.721.849,2.317,2.317,0,0,1-2.552-2.443l.429-10.84V118.016c-3.084.852-6.164,1.7-9.14,2.338l-1.066,2.129c-.634.846-1.063,1.275-1.38,1.275-.637,0-1.169-.534-1.595-1.809l-2.232-9.457c3.4,0,6.907,0,10.523-.214,3.4-5.739,6.056-10.306,7.759-13.709,2.975-6.162,5.419-12.009,7.542-17.639Zm.106,53.454c1.915,3.4,2.869,6.164,2.869,8.5,0,3.4-1.38,4.993-4.144,4.993-1.489,0-2.552-1.486-2.975-4.673a100.541,100.541,0,0,0-5.316-18.067l2.02-1.275A67.371,67.371,0,0,1-920.171,138.421Zm28.056,13.495a3.315,3.315,0,0,1,1.383,2.129c0,.957-1.7,1.486-5,1.7a109.567,109.567,0,0,1-14.773,5.1c-3.081.852-7.862,1.912-14.241,3.189l-1.275-2.123c5.739-2.446,10.417-4.573,14.027-6.485a91.388,91.388,0,0,0,12.117-8.5Zm-13.178-75.134h11.266V72.639a56.533,56.533,0,0,0-.426-5.739l9.459,1.383c1.7.317,2.549.957,2.549,1.912,0,.852-.529,1.38-1.38,1.809l-1.912,1.06v3.718h13.709l5.313-5.736,7.119,5a2.919,2.919,0,0,1,1.277,2.018,1.516,1.516,0,0,1-1.7,1.7h-25.718v7.865h8.714l5-5.419,6.7,4.89c.74.634,1.166,1.169,1.166,1.806,0,1.063-.426,1.592-1.275,1.592h-20.3v7.865h16.15l5.421-5.739,7.122,5.1a2.708,2.708,0,0,1,1.169,1.912,1.517,1.517,0,0,1-1.7,1.7h-51.008a83.736,83.736,0,0,0-11.586.852l-2.123-5a72.937,72.937,0,0,0,13.709,1.169h14.558V90.492h-5.418a85.26,85.26,0,0,0-11.692.852l-2.021-5a73.021,73.021,0,0,0,13.712,1.275h5.418V79.758h-11.266a104.777,104.777,0,0,0-11.583.746L-919,75.614A74.547,74.547,0,0,0-905.293,76.783Zm.429,32.414h30.711l4.567-4.567,6.164,4.778c1.066.746,1.7,1.383,1.7,1.915a1.74,1.74,0,0,1-1.063,1.595l-2.655,1.275V135.34l.426,9.14A2.421,2.421,0,0,1-866.4,146.5a5.1,5.1,0,0,1-3.19.852c-2.546,0-3.718-.637-3.718-2.018v-1.7h-31.559v1.7a2.366,2.366,0,0,1-1.809,2.335,8.68,8.68,0,0,1-4.038.957,2.148,2.148,0,0,1-2.446-2.443l.429-9.991V111.643c0-3.3-.32-5.527-.852-6.59Zm31.559,9.988v-7.119h-31.559v7.119Zm0,10.734v-7.865h-31.559v7.865Zm0,10.84v-7.865h-31.559v7.865ZM-863,152.874c4.464,1.806,6.7,3.827,6.7,6.167,0,2.975-1.595,4.567-4.57,4.567-.852,0-1.915-.637-3.186-1.7A128.648,128.648,0,0,0-883.718,149.9l1.275-2.126A109.463,109.463,0,0,1-863,152.874Z" transform="translate(1275.588 -65.625)" fill="#666464"/>
  </g>
</svg>
