<?xml version="1.0" encoding="utf-8"?>
<!-- Generator: Adobe Illustrator 22.1.0, SVG Export Plug-In . SVG Version: 6.00 Build 0)  -->
<svg version="1.1" id="圖層_1" xmlns="http://www.w3.org/2000/svg" xmlns:xlink="http://www.w3.org/1999/xlink" x="0px" y="0px"
	 viewBox="0 0 800 150" style="enable-background:new 0 0 800 150;" xml:space="preserve">
<style type="text/css">
	.st0{fill:#231815;}
</style>
<g id="section5_txt1" transform="translate(-215.891 -9271.545)">
	<g id="Group_527" transform="translate(388.272 9271.545)">
		<g id="Group_526" transform="translate(0 0)">
			<path id="Path_1790" d="M70.4,34.6c-1.6,4-4.6,7.3-8.3,9.3c-4.4,2.3-9.2,3.8-14.2,4.5l-2.2-4.9c4.3-0.3,8.5-1.3,12.5-2.9
				c2.9-1.2,5.3-3.3,6.8-6H47v-4.5h19.7c0-0.1,0-0.2,0.1-0.3c0.2-0.6,0.3-1.3,0.3-2l0.2-1.8H45.7v-4.5h21.6v-3.7H50.7v-4.2h16.6
				v-3.4H48.6V5.9h11.6l-1.4-1.6l-2.1-2.4L61.4,0c1.6,1.8,3.1,3.8,4.3,5.9h8.9L75,5.5c1.5-1.4,2.7-3.1,3.7-4.9
				c0-0.2,0.1-0.3,0.3-0.6l4.9,2l-1.7,2.3L80.6,6h11.1v4.4H72.2v3.4h17.2V18H72.2v3.7h22v4.5H72.1L72,28c0.1,0.7,0,1.5-0.3,2.2H93
				v4.5H76.1c2.6,4.6,8.6,7.6,18.2,9L92,48.4c-10.9-1.7-18-6.2-21.3-13.8L70.4,34.6z"/>
			<path id="Path_1791" d="M137,28v3.8c-3.6,1.8-7.3,3.3-11.2,4.5h21.4v4.2h-21.4v3.2c0,2.9-1.6,4.4-4.7,4.4h-7.6l-1.2-4.2l7.1,0.2
				c0.7,0.1,1.4-0.4,1.5-1.1c0-0.1,0-0.3,0-0.4v-2.1H98.6v-4.2H121v-2.2c1.3-0.2,2.7-0.5,4-0.9l5.1-1.3h-21.7V28H137z M141.5,25.8
				h-37.2v7.6h-4.6V21.7h2.6L101.8,2c3.8-0.1,7.6-0.6,11.3-1.5l2.3,3.8c-3,0.9-6,1.3-9.1,1.4l0.1,2.6h8.1v3.5h-7.9l0.1,2.9h7.9v3.6
				h-7.8l0.1,3.4H139l0.1-3.4h-7.2v-3.6h7.4l0.1-2.9H132V8.3h7.5l0.1-2.8h-8.2V1.4H144l-0.5,20.4h2.7v11.7h-4.6L141.5,25.8z
				 M123.7,7.3c-0.9,0.6-1.8,1.1-2.8,1.5l-3.3,1.6L115,7l3.3-1c0.9-0.2,1.7-0.6,2.4-1.1L119,3.6l-1.7-1.1l2.7-2.4l1.7,1.1l2.3,1.7
				l1.8-1.4c0.5-0.4,1-0.9,1.4-1.4l2.6,2.3c-0.5,0.6-1,1.1-1.5,1.5l-1.5,1.3l1.3,1.2l1.5,1.5l-3.2,2.3l-1.3-1.6L123.7,7.3z
				 M123.9,17.8c-1.7,1.2-3.5,2.1-5.5,2.7c-0.2,0.1-0.4,0.1-0.5,0.2l-2.2-3.5c0.5-0.1,0.8-0.2,1.1-0.2c1.4-0.3,2.7-0.8,4-1.5
				l0.3-0.2l-1.8-1.3l-1.7-1.2l2.7-2.3l1.8,1.2c0.8,0.4,1.5,1,2.2,1.6c0.7-0.4,1.3-0.9,1.8-1.5l1.7-1.7l2.7,2.3l-1.8,1.7l-1.6,1.4
				l1.5,1.3l1.5,1.4l-3.3,2.5l-1.5-1.8L123.9,17.8z"/>
			<path id="Path_1792" d="M162.2,35.7l2.3-1.1l3.1-1.6v5c-5,2.8-10.3,5.1-15.7,7l-0.6-5.2l3.6-1.1c0.9-0.3,1.8-0.6,2.7-1V18.3h-5.8
				v-4.5h5.8V0h4.6v13.8h4.7v4.5h-4.7L162.2,35.7L162.2,35.7z M198.3,24.7c0,3.4-0.5,5.7-1.5,6.7S193.9,33,191,33h-1
				c-0.1,0-0.2,0-0.4-0.1l-1.5-5l3,0.2c0.7,0.1,1.4-0.1,1.9-0.4c0.4-0.5,0.5-1.1,0.4-1.8l0.3-11.2l-7.5,2.7v20h-4.6V19.2l-6.4,2.5
				v18.6c0,1,0.2,1.6,0.6,1.9c0.5,0.3,1.1,0.4,1.7,0.4h14.4c1.1,0,1.8-0.3,2.1-0.8s0.5-2.7,0.8-6.5l5,1.7c-0.6,5-1.4,7.9-2.2,8.9
				s-2.5,1.4-5.1,1.5h-15.9c-2.3,0-3.9-0.5-4.8-1.4s-1.3-2.7-1.3-5.4V23.4l-4.1,1.5l-0.4-4.5l4.4-1.6V5.2h4.9v11.7l6.4-2.4V0h4.6
				v12.8l12.2-4.6L198.3,24.7z"/>
			<path id="Path_1793" d="M215.3,16.3l3.3,3.8c0.7,0.8,1.7,2.2,3.1,4.1l-2.5,4c-0.9-2.1-2.1-4-3.4-5.9c-0.1-0.1-0.2-0.3-0.4-0.5
				v26.7h-4.6V24.1c-0.3,0.8-0.5,1.5-0.6,2c-0.9,3.2-2.3,6.4-4,9.3L204,30c2.9-4.8,5.1-10,6.6-15.5h-6.1v-4.3h6.2V0h4.6v10.2h4.3
				v4.3h-4.3V16.3z M217.1,43.1c3.3-2,6.3-4.6,8.7-7.6l3.6,2.2c-2.5,3.3-5.4,6.3-8.8,8.7L217.1,43.1z M252.5,30.6v4h-14.2v9.1
				c0,2.9-1.6,4.4-4.7,4.4h-4.4l-1.2-4.5l4.1,0.2c1.1,0,1.6-0.5,1.6-1.5v-7.7h-14.2v-4L252.5,30.6z M219.6,1h32.5v3.9h-10V9h8.6
				v13.1H221V9h8.5V4.9h-10V1H219.6z M221.9,24.4h28v3.8h-28V24.4z M229.6,18.4v-5.7h-4.1v5.7H229.6z M233.8,4.9V9h4.2V4.9H233.8z
				 M233.8,12.7v5.7h4.2v-5.7H233.8z M248.9,46.5c-2.4-3.1-5-5.9-7.9-8.5l3.4-2.3l4.1,3.6c1.2,1.1,2.5,2.4,4.1,4.1L248.9,46.5z
				 M246.4,12.7h-4.2v5.7h4.2V12.7z"/>
			<path id="Path_1794" d="M282.7,30.9v17.6h-4.9V30.9h-3.5v-4.2h3.5v-2.6h4.9v2.6h12.9v-4.1h-17.2v-13h17.2V6.5
				c-2.2,0.1-5.2,0.2-8.8,0.2l-9.4,0.1l-1.7-4.4c1.6,0,5.3,0,10.9-0.1c5.7-0.1,10-0.1,13.1-0.1c5.4,0,10.8-0.4,16.1-1.4l2.5-0.5
				l2.2,3.9c-0.7,0.1-1.3,0.2-1.7,0.3c-4.1,0.7-10.3,1.4-18.4,2.1v3.2h18.4v13h-18.4v4.1h20.7v15.8c0,3.7-1.6,5.5-4.7,5.5h-6.7
				l-0.9-4.4l5.5,0.3c0.5,0,1-0.1,1.5-0.3c0.3-0.2,0.5-1.1,0.5-2.7v-10h-15.9v5.8l3.6-0.3l3-0.4l-0.6-1.3c-0.2-0.5-0.5-0.9-0.8-1.4
				l3.8-1.3l2.5,4.5c0.5,0.9,1.1,2.1,1.7,3.6c0.1,0.2,0.2,0.5,0.4,0.8l-4.3,1.6l-0.6-1.6l-0.6-1.3c-0.8,0.1-1.4,0.2-2,0.3
				c-4,0.6-7.1,1-9.3,1.2l-10.9,1l-1.3-4.5c0.9-0.1,2.5-0.1,4.9-0.1c1.8,0.1,3.7,0,5.5-0.3v-6.2L282.7,30.9z M283.2,18.5h12.4v-4.7
				h-12.4V18.5z M314,13.8h-13.6v4.7H314V13.8z"/>
			<path id="Path_1795" d="M328.2,26l0.5-0.8c2-3,3.9-6.1,5.4-9.3h-6.6v-4.2H339v3.5c-1.5,3.5-3.3,6.9-5.5,10.1h5.6v3l-0.6,4
				c-0.2,1.4-0.6,2.8-1.2,4.2c1.3,2.8,3.9,4.8,7,5.5c3.2,0.7,8.7,1.1,16.5,1.1c4.2,0,8.3-0.1,12.1-0.3c0.8,0,1.7-0.1,2.5-0.2
				l-0.8,4.8h-12.7c-9.9,0-16.3-0.4-19.4-1.2c-3-0.8-5.6-2.7-7-5.5c-1.1,2.6-2.7,5.1-4.7,7.1l-0.5,0.5l-3.3-3.7
				c4-3.6,6.5-8.7,7.5-15.2h-6.4L328.2,26z M335.1,10.4L332,6.7c-1.1-1.2-2.2-2.4-3.4-3.5l3.1-2.5c0.5,0.4,0.9,0.8,1.2,1
				c2,1.7,3.9,3.6,5.7,5.5L335.1,10.4z M355.4,29.4h-12.7V10.8h12.7V8h-14.1V3.9h14.1V0h4.6v3.9h14.7V8H360v2.8h13v18.6h-13v3.2
				h15.1v4.1H360v5h-4.6v-5h-14.9v-4.1h14.9V29.4z M355.4,18.1v-3.5h-8.2v3.5H355.4z M355.4,25.7v-3.9h-8.2v3.9H355.4z M368.6,18.1
				v-3.5H360v3.5H368.6z M368.6,25.7v-3.9H360v3.9H368.6z"/>
			<path id="Path_1796" d="M380.5,27.6h18.8v3.5c-3.3,6.9-9,12.4-15.9,15.6l-3.7-4c3.1-1.2,6.1-2.9,8.8-4.9c2-1.7,3.8-3.8,5.3-6
				h-13.2L380.5,27.6L380.5,27.6z M407.2,23.8v2c1.8,2.6,3.9,4.9,6.2,7c3.2-2,6.1-4.3,8.7-7.1l4,3.3c-2.7,2.7-5.8,5-9.1,7
				c3.2,2.4,6.6,4.3,10.2,5.9c0.3,0.1,0.7,0.3,1.2,0.5l-3.1,4.4c-3.2-1.7-6.2-3.6-9.1-5.7c-3.5-2.8-6.6-5.9-9.3-9.4v10.8
				c0.1,1.4-0.2,2.9-1,4.1c-0.6,0.8-2,1.3-4,1.3h-6.2l-1.2-4.9l5.8,0.3c1.2,0,1.8-0.5,1.8-1.6V23.8h-18.3V4.7H400
				c0.3-0.8,0.5-1.6,0.6-2.4l0.5-2.4l5.6,0.9c-0.1,0.7-0.3,1.4-0.5,2.1l-0.5,1.8h18.4v19.1H407.2z M419.3,9h-30.6v3.4h30.6V9z
				 M388.7,19.7h30.6v-3.5h-30.6V19.7z"/>
		</g>
	</g>
	<g id="Group_534" transform="translate(355.606 9347.375)">
		<path id="Path_1818" class="st0" d="M74.7,12.7v2.9h-29v-2.9C45.7,12.7,74.7,12.7,74.7,12.7z"/>
		<path id="Path_1819" class="st0" d="M88.3,1.8v26.4h-2.6v-2.4h-4v3H79v-27H88.3z M85.7,8.8V4.3h-4v4.5H85.7z M85.7,16v-4.7h-4V16
			H85.7z M85.7,23.3v-4.8h-4v4.8H85.7z M104.5,1.8v14h-6.2c0.3,1.5,0.8,2.9,1.5,4.2c1.3-0.8,2.6-1.7,3.8-2.7l2,2
			c0.1,0.1,0.2,0.3,0.2,0.5s-0.3,0.3-0.9,0.3c-1.2,0.7-2.5,1.4-3.8,2c1.6,2.2,3.5,4.1,5.8,5.5l-2.9,2.3c-1.5-1.4-2.8-2.9-4.1-4.4
			c-1.1-1.4-2-3-2.7-4.7c-0.7-1.6-1.2-3.3-1.6-5H93V26c1.8-0.3,3.6-0.7,5.4-1.1v2.4c-1.7,0.5-4.5,1.2-8.2,2.1
			c-0.2,0.3-0.4,0.5-0.6,0.5s-0.4-0.2-0.4-0.5l-0.7-2.8c0.5-0.1,1.1-0.1,1.6-0.2V1.8H104.5z M101.8,7.7V4.3h-8.7v3.4
			C93.1,7.7,101.8,7.7,101.8,7.7z M101.8,13.2V10h-8.7v3.2H101.8z"/>
		<path id="Path_1820" class="st0" d="M116.5,4.4V1.5h11.3c-0.1,3.8,0.2,7.7,0.9,11.4c0.5,2.1,1.4,4.1,2.7,5.8
			c2.2,3.3,4.9,6.1,8.1,8.4l-3.2,2.4c-3.9-3.7-6.5-6.8-7.9-9.2c-1.3-2-2.2-4.2-2.8-6.4c-0.1,0.6-0.3,1.2-0.4,1.6
			c-0.8,3.1-2.3,5.9-4.4,8.3c-2.2,2.4-4.9,4.3-7.8,5.6l-2.6-2.6c2.8-0.8,5.5-2.3,7.6-4.3c1.7-1.6,3-3.5,3.7-5.7
			c1.1-2.7,1.7-6.9,1.9-12.4L116.5,4.4z"/>
		<path id="Path_1821" class="st0" d="M153.8,9.6v2.5h-4.6c-0.7,2.4-1.6,5-2.6,7.8c1.5-0.2,3.1-0.5,4.5-0.9
			c-0.4-1.2-0.8-2.3-1.3-3.4L152,15c1.2,2.1,2.1,4.4,2.6,6.8l-2.6,0.6c-0.1-0.4-0.2-0.8-0.3-1.3c-2,0.5-4.9,1.2-8.5,1.9
			c-0.2,0.3-0.5,0.5-0.6,0.5s-0.3-0.1-0.3-0.4l-0.6-2.6c0.8-0.1,1.6-0.2,2.4-0.3c0.5-1.4,1-2.7,1.3-3.9c0.5-1.4,0.8-2.9,1.2-4.3
			h-4.1V9.6H153.8z M152.6,3.6V6h-9V3.6H152.6z M159.4,18.1c0.1,0.1,0.2,0.2,0.2,0.3c0,0.2-0.2,0.4-0.6,0.5
			c-0.6,2.3-1.7,4.5-3.1,6.5c-1.4,1.7-3.2,3.1-5.1,4.1l-2.1-2.1c2.1-0.7,4-2,5.4-3.8c1.4-1.9,2.4-4,2.9-6.3L159.4,18.1z M164.6,1.2
			c0.3,0.2,0.5,0.4,0.5,0.5c0,0.3-0.2,0.5-0.6,0.6l-0.8,1.1h6v12.5h-6.8v10c0,0.8,0.3,1.1,0.9,1.1h3.4c0.5,0,1-0.1,1.4-0.3
			c0.3-0.2,0.6-0.7,0.8-1.7l2.6,0.8c0,2-1.7,3.7-3.8,3.7c-0.1,0-0.3,0-0.4,0H163c-1.9,0-2.9-0.7-2.9-2.1V15.9h-5.7V3.4h5.8l2-3.4
			L164.6,1.2z M160.7,8.5V5.7h-3.4v2.9h3.4V8.5z M160.7,10.8h-3.4v2.8h3.4V10.8z M167.5,17.9c0.3,0.1,0.5,0.2,0.5,0.4
			s-0.2,0.3-0.6,0.5c-0.3,1-0.6,2-1,3.1c0.8-0.1,1.5-0.2,2.2-0.4c-0.2-0.5-0.4-0.9-0.6-1.4l2-0.5c0.8,1.4,1.4,3,1.9,4.5l-2.3,0.5
			c-0.1-0.5-0.2-0.9-0.4-1.4c-1.2,0.3-2.9,0.7-4.9,1.2c-0.2,0.3-0.4,0.4-0.5,0.4s-0.2-0.1-0.3-0.4l-0.5-2.2c0.3,0,0.6,0,0.9-0.1
			c0.2-0.7,0.4-1.3,0.5-1.9c0.3-1.1,0.5-2.2,0.7-3.3L167.5,17.9z M163.2,8.5h3.6V5.7h-3.6V8.5z M166.8,10.8h-3.6v2.8h3.6V10.8z"/>
		<path id="Path_1822" class="st0" d="M184.2,1.9c0.3,0.1,0.4,0.2,0.4,0.4s-0.2,0.5-0.5,0.6l-1.7,2.6h5.3v23.1h-2.8v-2h-6.8v2.1
			h-2.8V5.5h4.2l2.3-4.3L184.2,1.9z M184.9,14.3V8.1h-6.8v6.3h6.8V14.3z M184.9,24v-7.2h-6.8V24H184.9z M195.3,1.6
			c0.3,0.1,0.5,0.2,0.5,0.4s-0.1,0.3-0.3,0.4c-0.3,0.1-0.7,1-1.3,2.8c-0.1,0.2-0.1,0.3-0.2,0.4h9c0,9.4-0.3,15.3-0.8,17.8
			c-0.3,2.4-1,4-2,4.9c-1.1,0.9-3,1.4-5.6,1.4l-1.4-2.9c2.9,0,4.6-0.3,5.1-0.8c0.5-0.4,0.9-1.5,1.2-3.1c0.4-1.8,0.6-6.7,0.7-14.7
			H193c-0.7,1.6-1.6,3.2-2.5,4.8l-2.8-1.5c2.2-3.3,3.8-6.8,4.9-10.6L195.3,1.6z M197.8,19.1l-2.3,2c-1.5-1.9-3.3-3.6-5.2-5l2-1.9
			C194.4,15.7,196.2,17.3,197.8,19.1L197.8,19.1z"/>
		<path id="Path_1823" class="st0" d="M213.2,11.8c0.3,0.1,0.5,0.3,0.5,0.5c0,0.1-0.4,0.3-1,0.5c-0.3,2.5-0.8,5-1.4,7.5
			c-0.5,1.8-1,3.6-1.7,5.4l-2.9-1.9c0.8-1.8,1.5-3.7,2-5.6c0.6-2.4,1.1-4.9,1.4-7.4L213.2,11.8z M218.3,9c0.4,0.1,0.6,0.2,0.6,0.6
			c-0.1,0.4-0.3,0.7-0.6,0.9c-0.4,0.2-0.6,0.7-0.5,1.1v12c-0.1,0.7,0.1,1.5,0.4,2.2c0.3,0.4,0.9,0.6,1.9,0.6h5.2
			c1.1,0.1,2.3-0.2,3.2-0.9c0.8-0.5,1.4-2.3,1.9-5.1l2.9,1.3c-0.7,3.3-1.6,5.4-2.6,6.3c-0.9,0.8-2.1,1.3-3.3,1.2H219
			c-1.2,0.1-2.4-0.4-3.2-1.3c-0.7-1-1-2.2-1-3.5V8.5L218.3,9z M226.3,9.6l-1.9,2c-2.6-2.9-5.5-5.5-8.7-7.8l2-2
			C220.9,4,223.8,6.6,226.3,9.6L226.3,9.6z M236.2,19.4l-2,2.2c-2.1-3.4-4.4-6.5-7.1-9.4l2.2-2C232,12.9,234.3,16,236.2,19.4
			L236.2,19.4z"/>
		<path id="Path_1824" class="st0" d="M252.4,3.5c-1.1,0.3-2.3,0.5-3.5,0.6V6h6.7v2.4h-6.7v1.5h6v9.8h-6v1.6h5.8v2.4h-5.8v1.8
			c2.1-0.2,4.2-0.4,6.3-0.7v1.5c0.8-1.2,1.4-2.6,1.9-3.9c0.7-2.2,1.2-4.4,1.4-6.7c0.2-1.4,0.3-3.5,0.4-6.3h-2.5V6.8h2.6
			c0-1.8,0-3.7,0-5.9l2.6,0.1c0.4,0,0.7,0.1,0.7,0.3c-0.1,0.2-0.3,0.4-0.5,0.6c0,1.8,0,3.5,0,4.9h5.7c0,8.9-0.2,14.5-0.5,16.8
			s-0.7,3.8-1.5,4.6c-0.8,0.9-2.2,1.4-4.1,1.4l-1.4-2.9c1.9,0,3.1-0.3,3.4-0.8c0.5-0.9,0.8-1.9,0.8-3c0.3-1.7,0.4-6.2,0.5-13.5h-3
			c-0.1,3.3-0.3,5.8-0.6,7.8c-0.3,2.3-0.8,4.5-1.5,6.6c-0.6,2.1-1.6,4.1-2.8,5.9l-2.8-1.6c0.2-0.3,0.3-0.5,0.5-0.6
			c-3.2,0.4-7.8,1-13.9,1.6c-0.2,0.3-0.4,0.5-0.6,0.5c-0.2,0-0.4-0.2-0.4-0.5l-0.7-2.8c2.5-0.1,4.9-0.3,7.3-0.5v-2h-6.1v-2.4h6.1
			v-1.6H240V9.9h6.2V8.4h-7.1V6h7.1V4.4c-1.7,0.1-3.6,0.2-5.6,0.2l-1.2-2.4h3.5c3.4,0,6.7-0.5,10-1.5l2.1,2.1
			c0.1,0.1,0.2,0.3,0.2,0.5s-0.1,0.3-0.1,0.3c-0.2,0-0.5-0.1-0.6-0.2c-0.2-0.1-0.5-0.1-0.7-0.2C253.3,3.3,252.8,3.4,252.4,3.5z
			 M246.3,13.9v-1.6h-3.5v1.6H246.3z M246.3,15.9h-3.5v1.6h3.5V15.9z M248.9,13.9h3.4v-1.6h-3.4V13.9z M252.3,15.9h-3.4v1.6h3.4
			V15.9z"/>
		<path id="Path_1825" class="st0" d="M285.2,19.5l-1.1-1.4c1-0.7,1.7-1.8,1.9-3h-2.2V11h4.1v3.5C287.9,16.6,286.9,18.4,285.2,19.5z
			"/>
		<path id="Path_1826" class="st0" d="M313.7,5.3c0.5-1.3,1-2.8,1.5-4.5l3,0.5c0.3,0.1,0.5,0.3,0.5,0.5c0,0.3-0.3,0.5-0.9,0.7
			c-0.3,1-0.7,1.9-1,2.8h15.1v2.6h-16.2c-0.7,1.5-1.4,2.9-2.3,4.3c-0.5,0.7-1,1.4-1.5,2.1v15.4H309V17.5c-1.2,1.2-2.5,2.3-3.8,3.4
			l-2.4-2c3.2-2.3,6.1-5.1,8.3-8.4c0.6-0.8,1-1.6,1.5-2.5h-8V5.3H313.7z M321.6,15.7V9.6l2.6,0.2c0.5,0,0.7,0.2,0.7,0.4
			s-0.2,0.4-0.5,0.8v4.8h5.9v2.6h-5.9V26h7.8v2.6h-19V26h8.3v-7.6h-6.8v-2.6L321.6,15.7z"/>
		<path id="Path_1827" class="st0" d="M345.9,3.4V25h-2.8v-1.6h-3.6v3h-2.8v-23H345.9z M343.1,12.5V5.9h-3.6v6.6H343.1z M343.1,20.9
			v-6.2h-3.6v6.2H343.1z M354.1,4.6V0.5l2.5,0.2c0.5,0.1,0.7,0.2,0.7,0.4c0,0.1-0.2,0.4-0.5,0.6v2.9h7.8v2.5h-7.8v4h7v2.6h-3.5V17
			h4.5v2.6h-4.5v6.5c0.1,0.9-0.4,1.9-1.2,2.4c-0.7,0.5-2.4,0.8-5.1,0.8l-1.1-2.8h3c1,0,1.6-0.3,1.7-0.9v-6.1h-10.4v-2.6h10.4v-3.3
			h-9.7V11h6.2V7h-6.9V4.6H354.1z M354.1,24l-2.2,1.9c-1-1.1-2.2-2.1-3.4-3l2-1.9C351.8,21.9,353,22.9,354.1,24L354.1,24z"/>
		<path id="Path_1828" class="st0" d="M384.1,0.8c0.5,0.1,0.8,0.2,0.8,0.4s-0.2,0.4-0.6,0.7v10.7h12.2v2.8h-8.8v9.7
			c0,0.8,0.3,1.3,1,1.3h2.9c0.7,0.1,1.4-0.1,1.9-0.6c0.4-0.3,0.7-1.4,1.1-3.4l3,0.9c-0.4,2.4-1,3.9-1.8,4.6
			c-0.9,0.8-2.1,1.2-3.4,1.2H388c-2.3,0-3.4-0.8-3.4-2.4V15.5h-4.1c-0.2,2.2-0.6,4.3-1.4,6.3c-0.7,1.7-1.8,3.2-3.1,4.6
			c-1.5,1.3-3.1,2.4-4.9,3.2l-2.9-2.3c1.8-0.6,3.5-1.5,5-2.7c1.3-1,2.3-2.4,2.9-3.8c0.7-1.7,1.2-3.5,1.3-5.3h-9v-2.8h12.7V0.6
			L384.1,0.8z M377.9,9.8l-2.4,1.4c-1.4-2.3-2.9-4.5-4.5-6.8l2.6-1.3C375.1,5.3,376.6,7.5,377.9,9.8L377.9,9.8z M394,4.4
			c0.4,0.1,0.5,0.3,0.5,0.4c0,0.2-0.2,0.4-0.5,0.5c-1.1,2.2-2.5,4.2-4.2,6l-2.5-1.5c1.8-2,3.3-4.2,4.4-6.6L394,4.4z"/>
		<path id="Path_1829" class="st0" d="M407.6,19.4c-1.4,2.9-2.9,5.8-4.5,8.6c0,0.6-0.2,1-0.6,1l-2.4-2c2.2-3,4.2-6.3,5.8-9.7
			L407.6,19.4z M407.5,12.5l-1.9,2c-1.7-1.3-3.4-2.4-5.3-3.4l2-2C404.2,10,405.9,11.2,407.5,12.5L407.5,12.5z M408,4.4l-1.9,2
			c-1.5-1.1-3-2.1-4.7-3l2-2C405.1,2.2,406.6,3.3,408,4.4L408,4.4z M416,8.1c0.3,0.1,0.4,0.3,0.4,0.5c0,0.1-0.4,0.3-1,0.4
			c-0.2,0.7-0.4,1.4-0.6,2c1.1,1.2,2.5,2.2,4,2.9l-2,2.1c-1.1-0.8-2-1.7-2.9-2.8c-0.2,0.4-0.4,0.7-0.5,1c-0.7,1.3-1.5,2.6-2.5,3.8
			l-2.5-1.6c1.1-1.2,2-2.5,2.8-4c0.8-1.7,1.5-3.4,2-5.2L416,8.1z M417.5,19.9v-2.8l2.6,0.2c0.5,0,0.8,0.2,0.8,0.4
			c0,0.2-0.2,0.4-0.5,0.7v1.4h8.8v2.6h-8.8v7.2h-2.9v-7.2h-8.8v-2.6L417.5,19.9z M420.2,0.8c0.5,0.1,0.8,0.2,0.8,0.4
			s-0.2,0.4-0.5,0.7v1.8h8.3v2.5h-19.5V3.8h8.3V0.6L420.2,0.8z M426.1,8.1c0.3,0.1,0.4,0.3,0.4,0.5c0,0.1-0.4,0.3-1,0.4
			c-0.2,0.8-0.4,1.5-0.6,2.2c1.2,1.7,2.7,3.1,4.5,4.1l-2,2.1c-1.3-1.1-2.4-2.4-3.4-3.9c-0.5,1.1-1.1,2.2-1.8,3.2l-2.5-1.6
			c0.9-1,1.6-2.2,2.1-3.4c0.7-1.4,1.2-3,1.5-4.5L426.1,8.1z"/>
		<path id="Path_1830" class="st0" d="M441,1.6c0.3,0.1,0.4,0.3,0.4,0.4c0,0.3-0.3,0.5-0.8,0.6c0,0,0,0,0,0.1c1.4,1.8,3.1,3.3,5,4.6
			l-2,1.8c-1.6-1.3-3-2.8-4.3-4.4c-0.7,1-1.4,1.9-2.2,2.7c-0.6,0.7-1.3,1.4-2,2.1h8.3v2.4h-3V15h4.2v2.5h-4.2v8.1
			c1.6-0.2,3.1-0.5,4.7-0.7v1.8c1.2-0.9,2.3-2.1,3.2-3.4c1-1.5,1.8-3.1,2.5-4.7h-5V8.4h6.4V6.3h-6.9V3.9h6.9V0.7l2.4,0.2
			c0.4,0,0.7,0.1,0.7,0.3c0,0.1-0.2,0.4-0.5,0.6v2h6.8v2.4h-6.8v2.2h6.4v10.2h-5.1c0.6,1.6,1.4,3.1,2.3,4.5c1,1.4,2.1,2.6,3.4,3.7
			l-2.2,2.3c-1.2-1.4-2.3-2.9-3.1-4.5c-0.7-1.3-1.3-2.7-1.8-4.1v9.3h-2.5v-9c-0.6,1.4-1.2,2.7-1.9,4c-0.9,1.7-2.1,3.2-3.5,4.6
			l-1.9-2.1c-2.3,0.5-5.9,1.1-10.6,1.8c-0.2,0.3-0.4,0.5-0.6,0.5s-0.4-0.2-0.4-0.5l-0.7-2.7c1.7-0.1,3.5-0.3,5.2-0.5v-8.5h-4.9V15
			h4.9v-3.2h-3.1V9.9c-0.4,0.4-0.8,0.8-1.3,1.2l-1.9-1.9c3-2.4,5.5-5.3,7.3-8.7L441,1.6z M436.8,24.2l-2.1,0.6
			c-0.4-1.7-1.1-3.4-1.9-5l2.4-0.4C435.8,20.9,436.4,22.5,436.8,24.2L436.8,24.2z M444.3,20.2c0.3,0.1,0.4,0.2,0.4,0.4
			c0,0.1-0.2,0.3-0.5,0.5c-0.4,1-0.8,2.2-1.4,3.4L441,24c0.3-0.7,0.5-1.4,0.6-2c0.3-0.8,0.5-1.7,0.6-2.6L444.3,20.2z M452.1,10.6
			h-4.2v5.9h4.2V10.6z M451.5,15.6l-1.8,0.5c-0.3-1.3-0.7-2.6-1.3-3.8l2-0.4C450.9,13.1,451.2,14.3,451.5,15.6L451.5,15.6z
			 M458.7,10.6h-4.2v5.9h4.2V10.6z M458.1,12.4c0.3,0.1,0.4,0.2,0.4,0.3s-0.2,0.3-0.5,0.5c-0.4,0.9-0.8,1.9-1.3,2.8l-1.6-0.5
			c0.2-0.6,0.4-1.1,0.5-1.6c0.2-0.7,0.4-1.5,0.6-2.2L458.1,12.4z"/>
		<path id="Path_1831" class="st0" d="M493.5,2.9v2.9h-13.3v4.6c3.6,2.1,6.9,4.6,10.1,7.3l-2.4,2.1c-2.4-2.2-5-4.3-7.7-6.1v16H477
			V5.8h-12V2.9H493.5z"/>
		<path id="Path_1832" class="st0" d="M97.7,63.5c0.2,0,0.4,0.2,0.4,0.4l0,0c0,0.3-0.2,0.6-0.5,0.7c-0.4,2.4-0.9,4.8-1.6,7.2
			l-2.6-0.9c0.4-1,0.8-2.1,1-3.2c0.4-1.6,0.7-3.3,0.8-5L97.7,63.5z M102.1,45.7c0.3,0.2,0.5,0.3,0.5,0.4c0,0.3-0.2,0.5-0.5,0.6
			l-3.5,5c0.7,0.5,1.3,1.1,1.9,1.5l3.8-5l2.1,1.4c0.2,0.1,0.3,0.3,0.3,0.5s-0.2,0.3-0.6,0.4l-6.7,8.1c1.4-0.1,2.7-0.3,4.1-0.5
			c-0.3-0.8-0.6-1.5-0.9-2.3l2.5-0.5c0.7,1.6,1.2,3.2,1.7,4.9c1.6-0.3,3.2-0.7,4.7-1.3c0.7-0.3,1.5-0.7,2.2-1.1
			c-0.3-0.3-0.6-0.6-0.8-1c-1-1.2-1.7-2.6-2.2-4c-0.1-0.2-0.1-0.4-0.2-0.5c-0.7,1.1-1.5,2.2-2.4,3.2l-2.4-1.5c1.2-1.2,2.2-2.5,3-3.9
			c0.9-1.7,1.7-3.4,2.2-5.3l2.6,0.9c0.3,0.1,0.4,0.2,0.4,0.4c0,0.1-0.3,0.3-0.9,0.4c-0.2,0.6-0.4,1.3-0.6,1.8h7.4
			c0.3-0.2,0.5-0.4,0.8-0.5c0.2,0,0.4,0.1,0.6,0.3l1.5,1.4c0.2,0.1,0.3,0.3,0.3,0.5s-0.3,0.5-0.9,0.8c-0.9,2.6-2.3,5-4.2,7.1
			c0.3,0.2,0.6,0.4,0.9,0.5c1.5,0.7,3.1,1.2,4.7,1.4l-2.4,2.6c-1.7-0.5-3.3-1.3-4.8-2.3c-0.2-0.1-0.4-0.3-0.6-0.5
			c-2.3,1.4-4.8,2.5-7.3,3.1l-1.5-1.9c0.1,0.3,0.2,0.6,0.2,0.9l-2.5,0.5c-0.2-0.6-0.3-1.3-0.5-1.9c-0.6,0.1-1.2,0.2-1.9,0.3v13h-2.6
			V61c-1.2,0.2-2.5,0.4-3.9,0.6c-0.2,0.3-0.4,0.5-0.6,0.5s-0.3-0.1-0.3-0.4l-0.6-2.6c0.7,0,1.4-0.1,2.1-0.2l2.8-3.6
			c-1.5-1.3-3.2-2.5-5-3.8l1.6-2c0.4,0.3,0.7,0.5,1.1,0.8l3.4-5.7L102.1,45.7z M107.4,70.3l-2.5,0.5c-0.5-2.4-1.2-4.8-2-7.1l2.5-0.5
			C106.3,65.5,107,67.9,107.4,70.3L107.4,70.3z M120.7,71.7l-1.9,2c-3.6-2-7.4-3.8-11.2-5.3l2-2C113.4,67.8,117.1,69.5,120.7,71.7
			L120.7,71.7z M120,65.6l-1.8,1.9c-2.4-1.4-4.9-2.6-7.4-3.6l1.9-1.8C115.2,63,117.7,64.2,120,65.6L120,65.6z M112.8,52.3
			c0.5,1.1,1.2,2.2,2,3.1c0.2,0.2,0.4,0.5,0.6,0.7c0.1-0.1,0.3-0.3,0.4-0.5c1.3-1.6,2.3-3.4,2.9-5.3H112
			C112.3,51.1,112.5,51.7,112.8,52.3L112.8,52.3z"/>
		<path id="Path_1833" class="st0" d="M130.1,46.6c0.5,0,0.7,0.2,0.7,0.4c0,0.1-0.2,0.4-0.5,0.6v6.5h3.4v-9.6l2.6,0.2
			c0.5,0.1,0.7,0.2,0.7,0.4c-0.1,0.3-0.2,0.6-0.5,0.7v27.9h-2.9V62.5H131v2c0,1.7-0.2,3.3-0.6,5c-0.4,1.5-1,2.9-1.9,4.2l-2.6-1.4
			c0.8-1,1.5-2.2,1.9-3.4c0.4-1.4,0.6-2.9,0.6-4.4v-2h-2.2V60h7.4v-3.3h-6.2V46.3L130.1,46.6z M146.4,45.1c0.3,0.1,0.4,0.3,0.4,0.4
			c0,0.2-0.2,0.3-0.5,0.4c-0.3,0.5-0.6,0.9-0.9,1.3h7.3l0.3-0.4c0.1,0,0.3,0.1,0.4,0.2l1.9,1.5c0.3,0.1,0.4,0.3,0.4,0.5
			c0,0.3-0.4,0.6-1,0.8c-3,3.4-5.5,5.7-7.6,6.8c-2.8,1.6-5.9,2.5-9.1,2.9l-0.9-2.6c1.5-0.1,3-0.4,4.5-0.9c-0.6-0.6-1.2-1.2-1.9-1.8
			l1.8-1.6c1,0.7,1.9,1.6,2.7,2.5c0.6-0.2,1.1-0.5,1.6-0.8c-0.8-0.9-1.6-1.7-2.5-2.4l1.7-1.6c1,0.8,2,1.7,2.9,2.6
			c1.1-0.9,2.1-2,3-3.1h-7.6c-1.2,1.3-2.6,2.4-4,3.4l-2-2.3c2.8-1.5,5.1-3.7,6.8-6.4L146.4,45.1z M149.5,60.5v-4.7l3.1,0.4
			c0.3,0.1,0.5,0.2,0.5,0.4c0,0.3-0.3,0.6-0.7,0.9v3h2.9v2.6h-2.9v6.8c0.1,1.1-0.4,2.2-1.4,2.8c-0.7,0.6-2.6,1-5.6,1l-1.1-2.9h3.3
			c1.2,0,1.8-0.5,1.9-1.4v-6.3h-11.6v-2.6L149.5,60.5z M146.6,68l-2.1,1.9c-1.2-1.6-2.5-3.1-4-4.4l2-1.9
			C143.9,64.9,145.3,66.4,146.6,68L146.6,68z"/>
		<path id="Path_1834" class="st0" d="M169.3,46.1c0.3,0.1,0.5,0.3,0.5,0.5c0,0.3-0.3,0.6-0.9,0.7c-0.8,1.8-1.6,3.5-2.3,4.9v21.4h-3
			V57.4c-0.9,1.4-1.9,2.8-3,4.3l-2.3-2.3c1.7-2.1,3.3-4.4,4.6-6.8c1.4-2.5,2.6-5.1,3.5-7.8L169.3,46.1z M176.4,45.7
			c0.5,0.1,0.7,0.2,0.7,0.5s-0.2,0.6-0.6,0.9c-0.4,0.3-0.6,0.7-0.5,1.1v8.4c1.2-0.5,2.3-0.9,3.2-1.4c2.2-1.1,4.2-2.5,6.1-4l2.3,2.4
			c0.1,0.1,0.2,0.3,0.3,0.5c-0.1,0.2-0.2,0.3-0.3,0.3l-0.8-0.1c-0.3,0-0.6,0.2-0.8,0.3c-3,2.3-6.3,4.1-9.9,5.3v7.8
			c-0.1,0.7,0.1,1.4,0.5,2.1c0.3,0.4,0.9,0.6,1.9,0.6h3.4c0.7,0.1,1.4-0.2,2-0.6c0.5-0.4,0.8-1.6,1.2-3.6l2.9,1.3
			c-0.5,2.6-1.1,4.2-1.8,4.9c-0.6,0.6-1.4,1-2.2,1h-6.7c-1.2,0.1-2.4-0.4-3.2-1.3c-0.7-1-1-2.2-0.9-3.5V45.2L176.4,45.7z"/>
		<path id="Path_1835" class="st0" d="M199.7,47.2l-1.5,1.4h2.1c0.3-1.3,0.6-2.7,0.9-4.2l3.2,0.4c0.4,0.1,0.6,0.2,0.6,0.5
			c0,0.2-0.3,0.5-0.8,0.9c-0.2,0.8-0.4,1.6-0.6,2.4h11.5l-1.3,6.2h3.6l-1.5,5.7h3.7c0,5.2-0.2,8.5-0.6,9.8c-0.1,1.1-0.8,2.1-1.7,2.7
			c-1.5,0.6-3.2,0.9-4.8,0.8l-1.3-2.8c2.4,0,3.7-0.2,4.2-0.4c0.5-0.4,0.9-0.9,1-1.6c0.3-0.8,0.5-2.8,0.6-6.1h-19.8
			c-1.3,1.8-2.6,3.4-4.1,5l-2.8-1.1c2.4-2.3,4.5-5,6.2-7.9c1.4-2.5,2.5-5.2,3.3-8H193v-2.4h4.5c-0.9-0.8-1.8-1.6-2.8-2.3l1.8-1.6
			C197.6,45.4,198.7,46.3,199.7,47.2z M199.9,65.5c-0.7,2.4-1.7,4.8-2.9,7.1l-2.8-0.9c1.3-2.1,2.4-4.3,3.1-6.7L199.9,65.5z
			 M213.1,60.5l0.8-3.3h-13.5c-0.3,0.7-0.6,1.4-0.9,2c-0.3,0.5-0.5,0.9-0.8,1.3H213.1z M205.1,71.4l-2.6,0.6c-0.3-2-0.6-4.1-1.2-6.1
			l2.2-0.6C204.2,67.3,204.8,69.3,205.1,71.4L205.1,71.4z M211,54.8l0.8-3.8h-8.9c-0.5,1.4-0.9,2.6-1.4,3.8H211z M210.6,70.1
			l-2.6,0.6c-0.4-1.9-1.1-3.7-2-5.4l2.1-0.6C209.1,66.4,210,68.2,210.6,70.1L210.6,70.1z M215.6,68.4L213,69
			c-0.5-1.6-1.3-3.2-2.4-4.5l2.1-0.6C213.9,65.2,214.9,66.7,215.6,68.4L215.6,68.4z"/>
		<path id="Path_1836" class="st0" d="M252,56.7v2.9h-29v-2.9H252z"/>
		<path id="Path_1837" class="st0" d="M264.6,46.5c0.3,0.1,0.4,0.3,0.4,0.5c0,0.1-0.4,0.3-1,0.5c-0.4,1.3-0.8,2.6-1.3,3.9h6.8v-6.8
			l2.6,0.2c0.5,0.1,0.7,0.2,0.7,0.4s-0.2,0.4-0.5,0.7v5.4h9.7V54h-9.7v6.3h8.4V63h-8.4v6.5h11.3v2.6H256v-2.6h13.3V63h-8.8v-2.6h8.8
			V54h-8c-0.1,0.2-0.1,0.3-0.2,0.4c-0.9,1.8-2,3.5-3.3,5l-2.9-1.9c1.5-1.6,2.7-3.3,3.7-5.2c1.1-2.2,2-4.5,2.6-6.9L264.6,46.5z"/>
		<path id="Path_1838" class="st0" d="M293.8,48.4v-2.9h11.3c-0.1,3.8,0.2,7.7,0.9,11.4c0.5,2.1,1.4,4.1,2.7,5.8
			c2.2,3.3,4.9,6.1,8.1,8.4l-3.2,2.4c-3.9-3.7-6.5-6.8-7.9-9.2c-1.3-2-2.2-4.2-2.8-6.4c-0.1,0.6-0.3,1.2-0.4,1.6
			c-0.8,3.1-2.3,5.9-4.4,8.3c-2.2,2.4-4.9,4.3-7.8,5.6l-2.6-2.6c2.8-0.8,5.5-2.3,7.6-4.3c1.7-1.6,3-3.5,3.7-5.7
			c1.1-2.7,1.7-6.9,1.9-12.4H293.8z"/>
		<path id="Path_1839" class="st0" d="M326.1,55.8c0.3,0.1,0.5,0.3,0.5,0.5c0,0.1-0.4,0.3-1,0.5c-0.3,2.5-0.8,5-1.4,7.5
			c-0.5,1.8-1,3.6-1.7,5.4l-2.9-1.9c0.8-1.8,1.5-3.7,2-5.6c0.6-2.4,1.1-4.9,1.4-7.4L326.1,55.8z M331.2,53c0.4,0.1,0.6,0.2,0.6,0.6
			c-0.1,0.4-0.3,0.7-0.6,0.9c-0.4,0.2-0.6,0.7-0.5,1.1v12c-0.1,0.7,0.1,1.5,0.4,2.2c0.3,0.4,0.9,0.6,1.9,0.6h5.2
			c1.1,0.1,2.3-0.2,3.2-0.9c0.8-0.5,1.4-2.3,1.9-5.1l2.9,1.3c-0.7,3.3-1.6,5.4-2.6,6.3c-0.9,0.8-2.1,1.3-3.3,1.3h-8.4
			c-1.2,0.1-2.4-0.4-3.2-1.3c-0.7-1-1-2.2-1-3.5v-16L331.2,53z M339.1,53.5l-1.9,2c-2.6-2.9-5.5-5.5-8.7-7.8l2-2
			C333.7,48,336.6,50.6,339.1,53.5L339.1,53.5z M349,63.3l-2,2.2c-2.1-3.4-4.4-6.5-7.1-9.4l2.2-2C344.8,56.9,347.1,60,349,63.3
			L349,63.3z"/>
		<path id="Path_1840" class="st0" d="M361.5,45.9c0.3,0.1,0.4,0.2,0.4,0.4s-0.2,0.5-0.5,0.6l-1.7,2.6h5.3v23.1h-2.8v-2h-6.8v2.1
			h-2.8V49.5h4.2l2.3-4.3L361.5,45.9z M362.2,58.3V52h-6.8v6.3H362.2z M362.2,68v-7.2h-6.8V68H362.2z M372.6,45.6
			c0.3,0.1,0.5,0.2,0.5,0.4s-0.1,0.3-0.3,0.4c-0.3,0.1-0.7,1-1.3,2.8c-0.1,0.2-0.1,0.3-0.2,0.4h9c0,9.4-0.3,15.3-0.8,17.8
			c-0.3,2.4-1,4-2,4.9c-1.1,0.9-3,1.4-5.6,1.4l-1.4-2.9c2.9,0,4.6-0.3,5.1-0.8c0.5-0.4,0.9-1.5,1.2-3.1c0.4-1.8,0.6-6.7,0.7-14.7
			h-7.2c-0.7,1.6-1.6,3.2-2.5,4.8l-2.8-1.5c2.2-3.3,3.8-6.8,4.9-10.6L372.6,45.6z M375.1,63.1l-2.3,2c-1.5-1.9-3.3-3.6-5.2-5l2-1.9
			C371.7,59.6,373.5,61.3,375.1,63.1L375.1,63.1z"/>
		<path id="Path_1841" class="st0" d="M389.3,60.5c0,2.4-0.2,4.8-0.7,7.2c-0.6,2.1-1.3,4.1-2.1,6l-2.8-1.4c0.9-1.7,1.6-3.5,2.1-5.3
			c0.5-2.1,0.8-4.3,0.8-6.5V47.9h15.3c0-1.2,0-2.4,0-3.6l2.6,0.5c0.3,0.1,0.5,0.2,0.5,0.4c0,0.3-0.2,0.6-0.4,0.9V48h4.5
			c-0.8-0.9-1.8-1.8-2.8-2.5l1.8-1.5c1.2,0.8,2.3,1.7,3.3,2.8l-1.4,1.3h2.7v2.4h-7.9c0.1,3.1,0.4,6.1,0.9,9.2c0,0,0.1-0.1,0.1-0.2
			c1.2-2.3,2.2-4.8,2.7-7.4l2.6,0.6c0.4,0.1,0.6,0.2,0.6,0.4s-0.2,0.5-0.6,0.6c-0.8,2.8-2,5.4-3.4,7.9c-0.4,0.6-0.8,1.2-1.2,1.7
			c0.5,2,1.3,3.9,2.4,5.6c0.5,0.8,1,1.2,1.4,1.2c0.3,0,0.8-1.1,1.5-3.3l2.3,1.9c-1.4,3.4-2.6,5-3.6,5c-0.9,0-2-0.9-3.3-2.5
			c-1.2-1.7-2.2-3.5-2.8-5.5c-0.4,0.4-0.8,0.7-1.2,1l-0.1-0.1c0.5,0.5,0.9,1,1.4,1.5l-2,1.4c-0.7-1-1.5-1.9-2.4-2.8l1.4-1.1
			l-0.8-0.5c1-0.7,2-1.5,2.8-2.4c-0.1-0.4-0.2-0.7-0.3-1.1c-0.7-3.7-1-7.4-1.1-11.1h-12.6v10H389.3z M392.3,65.8
			c0.3,0.1,0.5,0.2,0.5,0.3c0,0.2-0.2,0.4-0.5,0.5c-0.4,1.8-1,3.6-1.7,5.3l-2.2-1.4c0.9-1.8,1.5-3.7,2-5.7L392.3,65.8z M400.3,52.1
			v2.1h-10.2v-2.1H400.3z M399.7,56v6.8h-1.4c0.6,0.6,1.2,1.3,1.7,2l-2,1.4c-0.7-1.1-1.5-2.1-2.4-3l0.5-0.4h-5.6V56H399.7z
			 M397.2,58H393v2.8h4.2V58z M395.9,64.7c0.3,0.1,0.5,0.2,0.5,0.4c0,0.2-0.2,0.4-0.5,0.7c-0.3,0.2-0.4,0.5-0.4,0.8v2.5
			c0,0.5,0.1,1,0.3,1.4c0.2,0.3,0.7,0.4,1.5,0.4c0.6,0,1.1-0.1,1.6-0.4c0.5-0.6,0.9-1.3,0.9-2.1l2.1,1c-0.2,1.2-0.6,2.3-1.3,3.2
			c-0.4,0.4-1,0.7-1.6,0.7h-2.8c-0.9,0.1-1.7-0.3-2.3-1c-0.5-0.7-0.8-1.6-0.7-2.5v-5.4L395.9,64.7z"/>
		<path id="Path_1842" class="st0" d="M429.7,47.5c-1.1,0.3-2.3,0.5-3.5,0.6V50h6.7v2.4h-6.7v1.5h6v9.8h-6v1.6h5.8v2.4h-5.8v1.8
			c2.1-0.2,4.2-0.4,6.3-0.7v1.5c0.8-1.2,1.4-2.6,1.9-3.9c0.7-2.2,1.2-4.4,1.4-6.7c0.2-1.4,0.3-3.5,0.4-6.3h-2.5v-2.6h2.6
			c0-1.8,0-3.7,0-5.9l2.6,0.1c0.4,0,0.7,0.1,0.7,0.3c-0.1,0.2-0.3,0.4-0.5,0.6c0,1.8,0,3.5,0,4.9h5.7c0,8.9-0.2,14.5-0.5,16.8
			s-0.7,3.8-1.5,4.6c-0.8,0.9-2.2,1.4-4.1,1.4l-1.4-2.9c1.9,0,3.1-0.3,3.4-0.8c0.5-0.9,0.8-1.9,0.8-3c0.3-1.7,0.4-6.2,0.5-13.5h-3
			c-0.1,3.3-0.3,5.8-0.6,7.8c-0.3,2.3-0.8,4.5-1.5,6.6c-0.6,2.1-1.6,4.1-2.8,5.9l-2.8-1.6c0.2-0.3,0.3-0.5,0.5-0.6
			c-3.2,0.4-7.8,1-13.9,1.6c-0.2,0.3-0.4,0.5-0.6,0.5s-0.4-0.2-0.4-0.5l-0.7-2.8c2.5-0.1,4.9-0.3,7.3-0.5v-2h-6.1v-2.4h6.1v-1.6
			h-6.2V54h6.2v-1.5h-7.1V50h7.1v-1.6c-1.7,0.1-3.6,0.2-5.6,0.2l-1.2-2.4h3.5c3.4,0,6.7-0.5,10-1.5l2.1,2.1c0.1,0.1,0.2,0.3,0.2,0.5
			s-0.1,0.3-0.1,0.3c-0.2,0-0.5-0.1-0.6-0.2c-0.2-0.1-0.5-0.1-0.7-0.2C430.6,47.3,430.1,47.3,429.7,47.5z M423.6,57.8v-1.6h-3.5v1.6
			H423.6z M423.6,59.8h-3.5v1.6h3.5V59.8z M426.2,57.8h3.4v-1.6h-3.4V57.8z M429.6,59.8h-3.4v1.6h3.4V59.8z"/>
	</g>
</g>
</svg>
