<svg id="section1_title1" xmlns="http://www.w3.org/2000/svg" width="415.127" height="100" viewBox="0 0 415.127 100">
  <path id="Path_589" data-name="Path 589" d="M-1051.716,89.674h21.893l4.676-4.569,6.164,4.781c1.063.64,1.7,1.277,1.7,1.807a1.742,1.742,0,0,1-1.063,1.6L-1021,94.561v24.976l.426,9.138a2.412,2.412,0,0,1-1.381,1.914,5.171,5.171,0,0,1-3.188.956c-2.551,0-3.72-.744-3.72-2.018v-4.572h-22.848v4.89a2.364,2.364,0,0,1-1.807,2.337,8.762,8.762,0,0,1-4.036,1.063,2.223,2.223,0,0,1-2.446-2.551l.425-9.882V92.118c0-3.4-.318-5.525-.849-6.587Zm22.848,32.307V92.543h-22.848v29.438Zm-3.718-79.277h34l4.994-4.995,6.164,5.1c1.063.744,1.7,1.384,1.7,2.021a1.686,1.686,0,0,1-1.17,1.593l-2.551,1.277V67.251l.426,9.141a2.889,2.889,0,0,1-1.381,2.23,4.634,4.634,0,0,1-3.188,1.063c-2.762,0-4.146-.637-4.146-2.125V72.99h-34.853v2.551a2.654,2.654,0,0,1-1.807,2.658,7.663,7.663,0,0,1-4.039,1.063,2.537,2.537,0,0,1-2.869-2.869l.426-10.415V45.254c0-3.613-.318-6.057-.851-7.12Zm34.853,27.417V45.677h-34.853V70.121Zm-3.718,19.553h21.467l5.1-4.995,6.162,4.995c1.062.851,1.7,1.488,1.7,2.018a1.69,1.69,0,0,1-1.17,1.6l-2.551,1.274V121.13l.426,9.141a2.775,2.775,0,0,1-1.489,2.23,4.435,4.435,0,0,1-3.081,1.17c-2.765,0-4.146-.744-4.146-2.125v-6.59h-22.422v4.572a2.453,2.453,0,0,1-1.807,2.337,8.714,8.714,0,0,1-4.039.958,2.224,2.224,0,0,1-2.444-2.551l.318-9.885V92.118a20.111,20.111,0,0,0-.744-6.587Zm22.422,32.307V92.543h-22.422v29.438Z" transform="translate(1060.428 -35.265)" fill="#666464"/>
  <path id="Path_590" data-name="Path 590" d="M-1004.891,40.226c1.7.212,2.655.849,2.655,1.911,0,.851-1.274,1.7-3.718,2.551V69.132h8.29V45.54c0-.956-.214-2.869-.426-5.846l8.927,1.17c1.7.212,2.655.851,2.655,1.7,0,1.17-1.274,2.125-3.718,2.976V67.432l2.974-3.295,6.378,4.569c.637.637,1.063,1.17,1.063,1.7,0,1.17-.426,1.7-1.277,1.7h-24.866V77.1c0,4.251-.214,8.606-.533,12.856h8.822l4.569-4.569,6.164,4.783c1.063.637,1.7,1.274,1.7,1.807a1.686,1.686,0,0,1-1.17,1.593l-2.551,1.381V121.84l.426,9.141A2.425,2.425,0,0,1-989.908,133a5.171,5.171,0,0,1-3.188.956c-2.551,0-3.721-.744-3.721-2.125v-39h-9.882c-.214,2.444-.532,4.783-.744,7.12a112.711,112.711,0,0,1-3.825,17.216,93.4,93.4,0,0,1-7.123,16.368l-2.125-1.7a107.094,107.094,0,0,0,4.039-15.41c.744-4.888,1.381-9.989,1.807-15.41.533-6.8.851-14.77.851-23.908V49.683a51.525,51.525,0,0,0-1.277-10.838Zm55.79-.426c1.593.426,2.444,1.17,2.444,2.018,0,1.17-1.6,2.125-4.569,2.869-1.7,1.914-3.613,4.039-5.739,6.164h23.592l4.569-4.465,6.164,4.676c1.17.744,1.807,1.384,1.807,1.914a1.692,1.692,0,0,1-1.17,1.6l-2.655,1.274V79.972l.423,9.138a2.149,2.149,0,0,1-1.381,1.911,5.161,5.161,0,0,1-3.188.958c-2.551,0-3.718-.64-3.718-2.021V87.834h-19.342c-.64,1.063-1.277,2.021-1.7,2.658l8.927,1.274q2.553.478,2.551,1.914a1.969,1.969,0,0,1-1.167,1.807l-1.7,1.063v9.989H-933.8l5.846-6.694,7.864,5.739a3.081,3.081,0,0,1,1.274,2.23,1.487,1.487,0,0,1-1.7,1.6h-24.443v21.574a3.174,3.174,0,0,1-2.018,2.869,9.214,9.214,0,0,1-3.825.956c-1.914,0-2.869-1.063-2.869-2.976l.423-11.159V109.407h-18.274a83.515,83.515,0,0,0-11.585.851l-2.125-5a74.708,74.708,0,0,0,13.71,1.277h18.274v-3.721c0-6.694-.211-10.626-.637-11.9a22.575,22.575,0,0,1-5.1,4.995c-3.188,2.762-8.817,5.525-16.681,8.5l-1.274-2.021a51.265,51.265,0,0,0,10.731-6.376,30.927,30.927,0,0,0,5.739-6.162,11.3,11.3,0,0,0,1.274-2.021h-11.475V89.11a2.366,2.366,0,0,1-1.807,2.337,8.705,8.705,0,0,1-4.039.956,2.146,2.146,0,0,1-2.444-2.444l.426-9.987V53.4c0-3.4-.319-5.632-.851-6.694l8.715,4.144h9.775a120.45,120.45,0,0,0,2.232-13.6ZM-955.8,67.113V53.829h-14.877V67.113Zm-2.125,17.853c.212-.64.423-1.381.637-2.021A56.588,56.588,0,0,0-955.8,69.983h-14.877V84.967Zm7.543,0h17.856V69.983h-15.305Q-948.145,79.547-950.378,84.967Zm2.551-17.853h15.305V53.829h-15.305Z" transform="translate(1122.225 -35.976)" fill="#666464"/>
  <path id="Path_591" data-name="Path 591" d="M-949.688,40.468a2.765,2.765,0,0,1,2.018,2.444c0,1.063-1.593,1.7-4.569,2.125a201.41,201.41,0,0,1-8.289,18.919l3.614,1.381c1.17.53,1.807,1.063,1.807,1.7q0,1.116-1.593,1.593l-1.807.851v62.7a3.189,3.189,0,0,1-2.125,3.083,10.345,10.345,0,0,1-3.613.637c-1.914,0-2.869-.956-2.977-2.869,0-2.125.107-5.846.426-11.159V75.007a121.183,121.183,0,0,1-9.885,13.175l-2.125-1.167a164.287,164.287,0,0,0,10.84-22.636,227.425,227.425,0,0,0,8.29-27.206Zm30.923,84.272a2.729,2.729,0,0,1,1.381,2.125c0,.851-1.7,1.381-4.992,1.6-4.89,1.7-10.1,3.188-15.41,4.462-3.188.64-8.078,1.6-14.879,2.658l-1.274-2.125a157.318,157.318,0,0,0,14.772-6.057,97.558,97.558,0,0,0,12.645-7.652Zm-14.344-80.977h39l6.268-7.013,8.183,5.95a3.465,3.465,0,0,1,1.277,2.337c0,1.17-.532,1.7-1.6,1.7h-22v8.713h11.582l4.572-4.569,6.162,4.783c1.063.637,1.7,1.274,1.7,1.807a1.739,1.739,0,0,1-1.063,1.593l-2.658,1.381v4.146l.426,9.138a2.153,2.153,0,0,1-1.381,1.914,5.171,5.171,0,0,1-3.188.956c-2.551,0-3.721-.637-3.721-2.125v-.426h-51.114a2.147,2.147,0,0,1-1.807,1.914,7.555,7.555,0,0,1-3.932,1.063q-2.393,0-2.551-2.551l.425-9.882V57.9c0-3.4-.319-5.525-.851-6.587l8.715,4.144h11.689V46.739h-4.143a106.138,106.138,0,0,0-11.692.744l-2.018-4.89A73.03,73.03,0,0,0-933.109,43.763Zm-.851,37.406h36.981l4.569-4.569,6.164,4.783c1.063.744,1.7,1.381,1.7,1.807a1.515,1.515,0,0,1-1.17,1.593l-2.551,1.381v22.422l.425,9.141a2.1,2.1,0,0,1-1.488,1.911,4.835,4.835,0,0,1-3.081.958c-2.551,0-3.825-.637-3.825-2.125v-.426h-37.725a2.209,2.209,0,0,1-1.807,2.337,7.656,7.656,0,0,1-4.039,1.063,2.222,2.222,0,0,1-2.444-2.548l.425-9.885v-25.4c0-3.4-.318-5.527-.851-6.59Zm4.995-9.989V58.321h-11.689V71.18Zm32.73,20.723V84.039h-37.725V91.9Zm0,11.689V94.879h-37.725v8.713Zm0,11.585v-8.715h-37.725v8.715Zm-13.71-68.437H-921.1v8.713h11.156Zm0,24.441V58.321H-921.1V71.18Zm24.336,54.093c4.783,1.488,7.227,3.295,7.227,5.313,0,2.976-1.7,4.569-4.995,4.569a6.3,6.3,0,0,1-3.4-1.593A148.106,148.106,0,0,0-907.82,123.04l1.7-2.018A140.687,140.687,0,0,1-885.609,125.273Zm-3.932-54.093V58.321h-12.433V71.18Z" transform="translate(1186.799 -36.75)" fill="#666464"/>
  <path id="Path_592" data-name="Path 592" d="M-906.221,40.378c1.384.53,2.125,1.381,2.125,2.444s-1.593,1.7-4.569,2.125A215.235,215.235,0,0,1-919.4,67.795l4.357,1.6c1.17.53,1.807,1.063,1.807,1.7,0,.744-.637,1.277-1.7,1.6l-1.7.849v58.98a2.967,2.967,0,0,1-2.125,2.976,10.418,10.418,0,0,1-3.611.744c-1.914,0-2.869-.958-2.976-2.869,0-2.125.107-5.953.426-11.266V76.722a147.084,147.084,0,0,1-9.989,12.647l-2.021-1.277a159.22,159.22,0,0,0,11.8-23.167,227.5,227.5,0,0,0,8.927-27.843Zm13.284,10.415h12.859V44.1c0-1.063-.211-3.083-.423-6.271l9.88,1.381c1.914.319,2.977.958,2.977,2.021,0,1.274-1.384,2.444-4.146,3.292v6.271h19.555l6.162-7.12,8.289,6.057a3.49,3.49,0,0,1,1.277,2.232c0,1.167-.533,1.7-1.6,1.7h-33.688V64.821h12.433l3.827-4.572,6.587,4.783a2.572,2.572,0,0,1,1.277,1.914,1.932,1.932,0,0,1-1.17,1.7l-2.551,1.6V126.35l5.739-6.694,7.864,5.739a2.733,2.733,0,0,1,1.277,2.125,1.487,1.487,0,0,1-1.6,1.7H-897.08a70.062,70.062,0,0,0-11.585.851l-2.125-4.995a107.033,107.033,0,0,0,11.585,1.274V67.372a29.692,29.692,0,0,0-.744-7.122l8.715,4.572h11.156V53.662h-12.859a83.9,83.9,0,0,0-11.582.849l-2.125-4.995A74.7,74.7,0,0,0-892.937,50.793Zm33.579,28.161V67.795h-31.877V78.954Zm0,15.833V81.93h-31.877V94.786Zm0,15.305V97.656h-31.877v12.436Zm0,16.258V113.065h-31.877V126.35Z" transform="translate(1251.634 -36.234)" fill="#666464"/>
</svg>
