<?xml version="1.0" encoding="utf-8"?>
<!-- Generator: Adobe Illustrator 22.1.0, SVG Export Plug-In . SVG Version: 6.00 Build 0)  -->
<svg version="1.1" id="圖層_1" xmlns="http://www.w3.org/2000/svg" xmlns:xlink="http://www.w3.org/1999/xlink" x="0px" y="0px"
	 viewBox="0 0 800 311.6" style="enable-background:new 0 0 800 311.6;" xml:space="preserve">
<g id="section1_txt3" transform="translate(-2172.601 -1710.321)">
	<g id="Group_52" transform="translate(2173.25 1710.321)">
		<g id="Group_51">
			<path id="Path_366" d="M0,15.2c0-1,0.6-1.6,1.9-1.6h27c1.3,0,1.9,0.5,1.9,1.6c0,1-0.6,1.5-1.9,1.5h-27C0.6,16.7,0,16.2,0,15.2z"
				/>
			<path id="Path_367" d="M46,24.9c-1.1,0.3-2.1,0.4-3.2,0.4c-1.2,0.1-2.5-0.1-3.6-0.6c-0.5-0.3-0.8-1.1-0.8-2.4v-9.8l-1.7,0.3
				l-0.5,0c-0.3,0-0.7-0.1-1-0.3c-0.2-0.3-0.4-0.6-0.3-1c0-0.8,0.4-1.2,1.3-1.4l2.2-0.4V2.1c0-1,0.4-1.5,1.3-1.5s1.3,0.5,1.3,1.5
				v7.3l6.2-1l0.4,0c0.4-0.1,0.8,0,1.1,0.3c0.3,0.3,0.4,0.6,0.4,1c0,0.4-0.1,0.7-0.4,0.9c-0.3,0.3-0.7,0.4-1.1,0.4l-6.5,1.1V21
				c0,0.6,0.2,1,0.6,1.2c0.5,0.2,1.1,0.3,1.7,0.3c1.2,0,2-0.2,2.2-0.7c0.3-0.8,0.4-1.6,0.4-2.5c0-0.4,0.1-0.9,0.3-1.2
				c0.2-0.3,0.6-0.4,1-0.4c0.9,0,1.3,0.5,1.3,1.4c0,1.3-0.2,2.6-0.6,3.8C47.5,23.9,46.9,24.6,46,24.9z M64.4,5.9l-0.3,11.4
				c-0.1,2.8-0.3,5.3-0.5,7.5c-0.1,1.4-0.4,2.9-0.9,4.2c-0.6,1.2-2.5,1.8-5.6,1.8c-1.2,0-1.8-0.5-1.8-1.6c0-1,0.8-1.6,2.3-1.6
				c1.6,0,2.6-0.3,2.8-0.8c0.5-1.7,0.7-3.5,0.7-5.3c0.2-2.5,0.3-6.4,0.4-11.7l0.1-3.1c0.1-0.7-0.3-1.3-1-1.4c-0.1,0-0.3,0-0.4,0h-5
				C55.1,12,54.6,17,53.7,20.4c-0.9,3.2-2.6,6.1-5,8.4c-0.5,0.5-1.1,1-1.8,1.4c-0.4,0.3-0.9,0.4-1.3,0.5c-0.4,0-0.8-0.1-1.1-0.4
				c-0.3-0.3-0.4-0.7-0.4-1.1c0-0.6,0.5-1.2,1.6-1.8c2.5-1.5,4.3-3.9,5.2-6.7c1-2.9,1.5-7.4,1.5-13.3v-2h-4.2
				c-1.2,0-1.7-0.5-1.7-1.4c0-0.9,0.6-1.4,1.7-1.4h12.7C63.2,2.6,64.4,3.7,64.4,5.9L64.4,5.9z"/>
			<path id="Path_368" d="M69.7,13.4c0-0.8,0.6-1.3,1.9-1.5l1.6-0.2V1.5c0-1,0.5-1.4,1.4-1.4c0.7-0.1,1.3,0.4,1.4,1.1
				c0,0.1,0,0.2,0,0.4v2.1h7.2c1,0,1.5,0.4,1.5,1.3c0,0.8-0.5,1.3-1.5,1.3H76v5.1l1.9-0.3L84,9.6c0.3-0.1,0.6,0,0.8,0.2
				c0.2,0.3,0.3,0.6,0.3,0.9c0,0.4-0.1,0.7-0.3,1c-1.2,0.5-2.4,0.8-3.6,1l-9.7,2l-0.5,0.1C70.1,15,69.7,14.5,69.7,13.4z M73.6,29.2
				c-0.6-0.7-0.8-1.5-0.6-2.4v-7.4c-0.1-0.9,0.2-1.8,0.8-2.4c0.7-0.6,1.5-0.8,2.4-0.7h4.7l0.6-1.3c0.5-1.1,1.2-1.6,1.9-1.6
				c0.3,0,0.7,0,1,0.2c0.2,0.2,0.4,0.4,0.4,0.7c0.1,0.3,0,0.6-0.2,0.9c-0.2,0.4-0.6,0.8-0.9,1.2h10.8c0.9-0.1,1.8,0.2,2.5,0.7
				c0.6,0.7,0.8,1.5,0.7,2.4v7.4c0.1,0.9-0.2,1.8-0.7,2.5c-0.7,0.6-1.5,0.8-2.4,0.7H76.1C75.2,30,74.3,29.8,73.6,29.2L73.6,29.2z
				 M94.6,27.4c0.3-0.3,0.4-0.6,0.4-1v-2.2H75.7v2.2c0,0.9,0.5,1.3,1.4,1.4h16.4C93.9,27.7,94.3,27.6,94.6,27.4z M94.9,19.9
				c0-0.8-0.5-1.3-1.4-1.3H77.1c-0.4,0-0.7,0.1-1,0.3c-0.3,0.3-0.4,0.6-0.4,1v1.9h19.1L94.9,19.9z M87.6,13.5
				c-0.7-0.3-1.1-0.9-1.2-1.7V1.5c0-1,0.5-1.4,1.4-1.4c0.7-0.1,1.3,0.4,1.4,1.1c0,0.1,0,0.2,0,0.4v3.4c2.3-0.7,4.5-1.6,6.7-2.7
				c0.5-0.4,1.2-0.6,1.8-0.7c0.4,0,0.8,0.2,1,0.4C99,2.2,99.2,2.6,99.2,3c0,0.3-0.2,0.6-0.4,0.8c-0.4,0.3-0.8,0.5-1.2,0.7
				c-0.6,0.2-1.8,0.7-3.5,1.2c-1.5,0.5-3.1,0.9-4.9,1.4v2.8c-0.1,0.6,0.2,1.1,0.7,1.4c0.4,0.1,0.8,0.2,1.2,0.2c0.6,0,1.3,0,2.1,0
				c1.2,0,2.3,0,3.5-0.2c0.7-0.2,1.1-0.8,1.2-1.9c0.1-1,0.5-1.5,1.4-1.5c1,0,1.5,0.5,1.5,1.6c0,2.4-0.7,3.8-2.2,4.3
				c-1.7,0.3-3.5,0.5-5.3,0.4C90.2,14.1,88.3,13.9,87.6,13.5L87.6,13.5z"/>
			<path id="Path_369" d="M104.6,28.9c0-0.5,0.5-1,1.4-1.6c1.8-1,3.4-2.4,4.6-4.1l-3.1-2.3c-0.8-0.5-1.3-1.3-1.3-2.1
				c0.1-0.8,0.2-1.6,0.4-2.4c0.2-0.7,0.5-2.5,0.9-5.3l0.2-1.5l-1.8,0c-0.9,0-1.4-0.4-1.4-1.4c0-0.9,0.5-1.3,1.6-1.4h2l0.6-5.3
				c0-0.4,0.2-0.8,0.4-1c0.3-0.2,0.6-0.4,1-0.4c0.9,0,1.3,0.5,1.3,1.4l-0.6,5.3l3.1,0c1.3-0.2,2.5,0.7,2.7,1.9c0,0.2,0,0.5,0,0.7
				c-0.1,2.3-0.3,4.6-0.7,6.9c-0.3,2.2-1,4.4-2,6.4c2.2,2,3.2,3.3,3.2,4c0.1,0.7-0.4,1.4-1.1,1.5c-0.1,0-0.2,0-0.4,0
				c-0.5,0-1.2-0.7-2.3-2l-0.9-1.1c-1,1.4-2.3,2.7-3.6,3.8c-0.8,0.8-1.9,1.3-3,1.5C105,30.4,104.6,29.9,104.6,28.9z M113.7,13.4
				l0.3-3.1c0.1-0.6-0.3-0.9-1.1-0.9l-2.5,0.1c-0.3,2-0.7,4-1.1,6c-0.2,0.8-0.3,1.6-0.4,2.5c0,0.5,0.5,1.1,1.5,1.8l1.5,1.1
				C112.9,18.5,113.5,16,113.7,13.4L113.7,13.4z M119.7,29.4c0-1,0.6-1.4,1.8-1.4h1.9c0.9,0,1.4-0.5,1.5-1.5V17h-6.4
				c-1.1,0-1.6-0.4-1.6-1.3s0.5-1.3,1.6-1.3h6.4v-3.6c0-0.6,0.1-1.2,0.5-1.6c0.9-0.8,1.8-1.6,2.8-2.2c1.6-1.1,2.4-1.8,2.4-2.1
				c0-0.1,0-0.2-0.1-0.3c-0.1-0.1-0.2-0.1-0.3-0.1H119c-1.1,0-1.6-0.4-1.6-1.3c0-0.4,0.1-0.7,0.4-1c0.4-0.2,0.8-0.4,1.2-0.3h13.1
				c1.8,0,2.8,0.6,2.8,1.7c0,0.9-1.9,2.8-5.7,5.5c-0.8,0.5-1.4,1.2-1.5,2.2v3.2h6.3c1.1,0,1.7,0.4,1.7,1.3c0,0.9-0.6,1.3-1.7,1.3
				h-6.3v10.2c0.1,1-0.2,2-1,2.8c-0.8,0.6-1.8,1-2.8,0.9h-2.5C120.3,30.9,119.7,30.4,119.7,29.4L119.7,29.4z"/>
			<path id="Path_370" d="M141.2,29.7c-0.5-0.5-0.7-1.2-0.7-2V8.4c-0.1-0.7,0.2-1.4,0.6-2c0.5-0.5,1.2-0.7,1.9-0.7h1.7
				c0.2-1,0.4-2.5,0.6-4.3c0-0.4,0.2-0.7,0.4-0.9c0.3-0.2,0.6-0.3,1-0.3c1.1,0,1.6,0.6,1.5,1.7c-0.2,1.3-0.5,2.6-0.9,3.8h2.6
				c1.7,0,2.6,0.9,2.6,2.7l0,19.4c0.2,1.3-0.7,2.4-2,2.6c-0.2,0-0.4,0-0.7,0h-6.9C142.4,30.4,141.7,30.2,141.2,29.7z M149.9,9.4
				c0.1-0.5-0.3-1-0.8-1.1c-0.1,0-0.2,0-0.3,0h-4.3c-0.5-0.1-1,0.3-1.1,0.8c0,0.1,0,0.2,0,0.3v6.8h6.6L149.9,9.4z M149.9,26.7v-7.9
				h-6.6v7.9c-0.1,0.5,0.3,1.1,0.9,1.1c0.1,0,0.2,0,0.3,0h4.3c0.5,0.1,1.1-0.3,1.1-0.9C149.9,26.8,149.9,26.8,149.9,26.7L149.9,26.7
				z M160,30.6c-0.3-0.3-0.4-0.7-0.4-1.1c0-0.9,0.5-1.4,1.6-1.4c1.4,0,2.4,0,3-0.1c0.5,0,0.9-0.2,1.3-0.4c0.3-0.3,0.6-0.7,0.7-1.1
				c0.5-2.2,0.7-4.5,0.8-6.8c0.2-3.6,0.3-7,0.3-10.3c0-0.9-0.5-1.3-1.5-1.3h-7.6c-0.5,1.5-1.2,2.9-2.1,4.2c-0.2,0.5-0.7,0.8-1.2,0.8
				c-0.3,0-0.5-0.1-0.7-0.2c-0.4-0.2-0.7-0.6-0.7-1.1c0-0.3,0.1-0.6,0.3-0.9c0.8-1.5,1.5-3,2.1-4.5c0.6-1.7,1.2-3.3,1.6-5.1
				c0.1-0.3,0.3-0.7,0.5-0.9c0.2-0.2,0.5-0.3,0.9-0.3c0.2,0,0.3,0,0.5,0.1c0.6,0.1,1.1,0.6,1,1.2c0,0.3,0,0.5-0.1,0.7
				c-0.2,0.7-0.4,1.3-0.6,2c-0.2,0.5-0.4,1-0.6,1.5h8.2c2,0,3,0.8,3,2.5c0,4.3-0.1,8.4-0.3,12.4c-0.2,4-0.6,6.6-1.2,8
				c-0.3,0.9-1,1.6-1.9,2c-1.2,0.4-2.5,0.6-3.8,0.5c-0.7,0-1.2,0-1.6,0C160.9,31,160.4,30.8,160,30.6L160,30.6z M160.2,21.6
				c-0.3-0.3-0.6-0.7-0.8-1.2c-0.4-0.8-1.1-1.8-1.9-3.1l-0.5-0.7c-0.1-0.2-0.2-0.4-0.3-0.6c-0.1-0.2-0.1-0.4-0.1-0.6
				c0-0.3,0.1-0.7,0.3-0.9c0.2-0.2,0.6-0.3,0.9-0.3c0.5,0,0.9,0.3,1.2,0.6c0.6,0.6,1.1,1.3,1.6,2c1.3,2,2,3.3,2,3.9
				c0,0.3-0.1,0.7-0.4,0.9c-0.3,0.2-0.6,0.4-1,0.3C160.8,22,160.4,21.8,160.2,21.6L160.2,21.6z"/>
			<path id="Path_371" d="M185.8,22.1c0,0.7-0.7,1.2-2,1.6c-4.1,1.3-6.7,1.9-7.7,1.9c-0.4,0-0.8-0.1-1.1-0.3c-0.2-0.3-0.4-0.6-0.3-1
				c0-0.4,0.1-0.8,0.4-1.1c0.3-0.2,0.7-0.3,1-0.4c0.6-0.1,1.2-0.3,2-0.5l0.8-0.2V10.9h-2.7c-1.1,0-1.6-0.4-1.6-1.3
				c0-0.9,0.5-1.4,1.6-1.4h2.7V1.8c0-0.4,0.1-0.9,0.3-1.2c0.3-0.3,0.7-0.4,1.1-0.4c0.4,0,0.8,0.1,1.1,0.4c0.3,0.4,0.4,0.8,0.3,1.2
				v6.3h2.1c1.1,0,1.7,0.5,1.7,1.4c0,0.9-0.6,1.3-1.7,1.3h-2.1v10.7l2.1-0.5c0.3-0.1,0.6-0.1,0.9-0.2
				C185.4,20.9,185.8,21.3,185.8,22.1z M205.1,8.2c-0.1,3.2-0.2,6.4-0.4,9.6c-0.2,3-0.3,5.4-0.5,7c-0.1,1.2-0.3,2.4-0.7,3.5
				c-0.4,0.9-1.1,1.5-1.9,1.9c-1.2,0.5-2.6,0.7-3.9,0.6c-0.5,0-1,0-1.3,0c-0.4,0-0.9-0.1-1.3-0.4c-0.3-0.3-0.4-0.6-0.4-1
				c0-0.4,0.2-0.8,0.5-1.1c0.5-0.3,1-0.4,1.6-0.4c0.9,0,1.8,0,2.7-0.2c0.5-0.1,0.9-0.3,1.2-0.7c0.2-0.5,0.4-1,0.5-1.6
				c0.2-1.1,0.3-2.2,0.4-3.2c0.3-4.8,0.5-9,0.6-12.8c0.1-0.4-0.1-0.9-0.4-1.2c-0.3-0.3-0.8-0.4-1.2-0.4h-10
				c-0.7,1.6-1.6,3.2-2.6,4.7c-0.8,1.1-1.4,1.6-1.9,1.6c-0.6,0.1-1.2-0.3-1.3-0.9c0-0.1,0-0.2,0-0.3c0.1-0.4,0.3-0.8,0.5-1.2
				c2-2.7,3.4-5.8,4.2-9.1l0.4-1.5c0.1-0.6,0.7-1.1,1.4-1c0.9,0,1.4,0.4,1.4,1.2c-0.2,1.3-0.5,2.6-1,3.8h10
				C204,5,205.1,6.1,205.1,8.2L205.1,8.2z M198.2,22c-3,0.9-6.1,1.6-9.1,2.1c-0.4,0.1-0.8,0-1.1-0.3c-0.2-0.3-0.4-0.7-0.4-1
				c0-0.3,0.1-0.7,0.4-0.9c0.4-0.3,0.8-0.5,1.3-0.5l6.5-1.4l2.2-0.4c0.1,0,0.3,0,0.4,0c0.6,0,0.9,0.4,1.1,1.1
				C199.6,21.2,199.1,21.7,198.2,22L198.2,22z M190,15.6c-1.1,0-1.6-0.4-1.6-1.3c0-0.9,0.5-1.3,1.6-1.3h7.3c1.1,0,1.6,0.4,1.6,1.3
				c0,0.8-0.5,1.3-1.6,1.3H190z"/>
			<path id="Path_372" d="M209.4,12.3c0-0.3,0.3-0.8,1-1.5c0.7-0.8,1.2-1.7,1.4-2.8c0.1-1.2,0.2-2.5,0.2-3.7V3.6
				c0-0.7,0.3-1.4,0.9-1.8c0.7-0.5,1.5-0.7,2.4-0.7l2.6-0.3l4.5-0.7c0.3-0.1,0.7,0,1,0.2c0.2,0.3,0.4,0.6,0.3,1c0,0.5-0.4,0.8-1.1,1
				c-0.5,0.1-1.8,0.3-3.9,0.5l-3,0.3c-0.7,0.1-1,0.6-1,1.5l0,0.4h9.2c0.9,0,1.3,0.4,1.3,1.1s-0.4,1.1-1.3,1.1H221V11
				c0,1-0.4,1.4-1.3,1.4s-1.3-0.5-1.3-1.4V7.3h-4.1c-0.1,1.6-0.6,3.1-1.4,4.5c-0.8,1.2-1.5,1.8-2.3,1.8c-0.7,0.1-1.2-0.4-1.3-1
				C209.4,12.5,209.4,12.4,209.4,12.3z M209.4,29.8c0-0.6,0.7-1,2-1.1c1.5-0.1,2.9-0.3,4.2-0.5c1.4-0.2,2.6-0.5,3.6-0.7
				c0.4-0.1,0.7-0.2,1-0.3s0.5-0.1,0.6-0.2c0.9,0,1.3,0.5,1.3,1.4c0,0.4-0.4,0.7-1.1,1c-3.1,0.9-6.3,1.4-9.6,1.7l-1.1,0.1
				C209.7,31.2,209.4,30.8,209.4,29.8z M213.4,26.1c-0.5-0.6-0.7-1.4-0.6-2.2v-8.1c-0.1-0.8,0.2-1.6,0.7-2.2
				c0.6-0.5,1.4-0.7,2.2-0.6h18.7c0.8-0.1,1.6,0.2,2.2,0.7c0.5,0.6,0.8,1.4,0.7,2.2v8.1c0.1,0.8-0.2,1.6-0.7,2.2
				c-0.6,0.5-1.4,0.7-2.2,0.6h-18.7C214.8,26.8,214,26.6,213.4,26.1z M234.4,16.1c0.1-0.5-0.3-0.9-0.8-1c-0.1,0-0.1,0-0.2,0h-17.1
				c-0.6,0-0.9,0.3-1,1V17h19V16.1z M234.4,20.8v-1.9h-19v1.9H234.4z M234.4,23.7v-0.9h-19v0.9c-0.1,0.5,0.3,0.9,0.8,1
				c0.1,0,0.1,0,0.2,0h17.1C234.1,24.7,234.4,24.3,234.4,23.7L234.4,23.7z M223.5,11.2c0-0.3,0.3-0.7,0.8-1.2c1.1-1,1.7-2.4,1.7-3.8
				l0-2.8c0-0.7,0.3-1.3,0.9-1.7c0.8-0.5,1.7-0.7,2.6-0.7c2.3-0.2,4.7-0.5,7-1L237,0c0.3-0.1,0.7,0,1,0.3c0.2,0.3,0.4,0.6,0.3,1
				c0,0.5-0.4,0.8-1.3,1c-1,0.2-3.3,0.4-7.1,0.8c-0.5,0.1-0.9,0.2-1,0.3c-0.1,0.5-0.2,1.1-0.2,1.6v0.1h10.4c0.9,0,1.4,0.4,1.4,1.1
				c0,0.8-0.5,1.1-1.4,1.1h-3.4v3.5c0,1-0.4,1.6-1.3,1.6c-0.9,0-1.3-0.5-1.3-1.6V7.3h-4.6c-0.1,1.3-0.7,2.6-1.5,3.7
				c-0.8,1-1.6,1.6-2.3,1.6c-0.6,0.1-1.2-0.4-1.3-1C223.5,11.4,223.5,11.3,223.5,11.2z M229.6,29.6c-1.3-0.4-1.9-0.8-1.9-1.2
				c-0.1-0.7,0.4-1.3,1.1-1.4c0.1,0,0.2,0,0.4,0l0.9,0.2c2.6,0.8,5.3,1.2,8,1.3c1.7,0.1,2.5,0.6,2.5,1.3c0,0.9-0.4,1.3-1.3,1.3
				l-3.8-0.4C233.5,30.5,231.6,30.1,229.6,29.6L229.6,29.6z"/>
			<path id="Path_373" d="M246.5,29.4c-0.6-0.7-0.8-1.6-0.7-2.4v-7.5c-0.1-0.9,0.2-1.8,0.8-2.5c0.7-0.6,1.6-0.8,2.4-0.7h6.4
				c0.9-0.1,1.8,0.2,2.5,0.8c0.6,0.7,0.8,1.6,0.7,2.4V27c0.1,0.9-0.2,1.8-0.8,2.5c-0.7,0.6-1.5,0.8-2.4,0.7H249
				C248.1,30.3,247.2,30,246.5,29.4z M255.6,27.3c0.3-0.4,0.4-0.8,0.3-1.3v-5.6c0.1-0.4-0.1-0.9-0.3-1.2c-0.3-0.3-0.8-0.4-1.2-0.3
				H250c-0.4-0.1-0.9,0.1-1.3,0.3c-0.3,0.4-0.4,0.8-0.3,1.3v5.6c-0.1,0.4,0.1,0.9,0.3,1.3c0.4,0.3,0.8,0.4,1.3,0.3h4.4
				C254.8,27.7,255.2,27.6,255.6,27.3L255.6,27.3z M250.5,12.7c-0.6-0.7-0.9-1.7-0.7-2.6V4.9c-0.2-2.3,1-3.5,3.4-3.4h13.6
				c1-0.1,1.9,0.2,2.7,0.8c0.6,0.7,0.9,1.7,0.7,2.6v5.3c0.2,2.4-1,3.5-3.4,3.4h-13.6C252.3,13.6,251.3,13.3,250.5,12.7L250.5,12.7z
				 M267.2,10.7c0.3-0.4,0.4-0.9,0.3-1.3V5.7c0.1-0.5-0.1-0.9-0.3-1.3c-0.4-0.3-0.8-0.4-1.3-0.3h-11.6c-0.5-0.1-0.9,0.1-1.3,0.3
				c-0.3,0.4-0.4,0.8-0.3,1.3v3.7c-0.1,0.5,0.1,0.9,0.3,1.3c0.4,0.3,0.9,0.4,1.3,0.3h11.6C266.3,11.1,266.8,11,267.2,10.7
				L267.2,10.7z M262.2,29.4c-0.6-0.7-0.8-1.6-0.6-2.4v-7.5c-0.1-0.9,0.2-1.8,0.7-2.5c0.7-0.6,1.6-0.8,2.4-0.7h6.4
				c0.9-0.1,1.8,0.2,2.5,0.8c0.6,0.7,0.8,1.5,0.7,2.4V27c0.1,0.9-0.2,1.8-0.8,2.5c-0.7,0.6-1.6,0.8-2.4,0.7h-6.5
				C263.7,30.3,262.9,30,262.2,29.4L262.2,29.4z M271.4,27.3c0.3-0.4,0.4-0.8,0.3-1.3v-5.6c0.1-0.4-0.1-0.9-0.3-1.3
				c-0.4-0.3-0.8-0.4-1.3-0.3h-4.4c-0.4-0.1-0.9,0.1-1.3,0.3c-0.3,0.4-0.4,0.8-0.3,1.3v5.6c-0.1,0.4,0.1,0.9,0.3,1.3
				c0.4,0.3,0.8,0.4,1.3,0.3h4.4C270.5,27.7,271,27.6,271.4,27.3L271.4,27.3z"/>
			<path id="Path_374" d="M279.2,12.3c0-0.3,0.3-0.8,1-1.5c0.7-0.8,1.2-1.7,1.4-2.8c0.1-1.2,0.2-2.5,0.2-3.7V3.6
				c0-0.7,0.3-1.4,0.9-1.8c0.7-0.5,1.5-0.7,2.4-0.7l2.6-0.3l4.5-0.7c0.3-0.1,0.7,0,1,0.2c0.2,0.3,0.4,0.6,0.3,1c0,0.5-0.4,0.8-1.1,1
				c-0.5,0.1-1.8,0.3-3.9,0.5l-3,0.3c-0.7,0.1-1,0.6-1,1.5l0,0.4h9.2c0.9,0,1.3,0.4,1.3,1.1s-0.4,1.1-1.3,1.1h-2.7V11
				c0,1-0.4,1.4-1.3,1.4s-1.3-0.5-1.3-1.4V7.3h-4.1c-0.1,1.6-0.6,3.1-1.4,4.5c-0.8,1.2-1.5,1.8-2.3,1.8c-0.7,0.1-1.2-0.4-1.3-1
				C279.2,12.5,279.2,12.4,279.2,12.3z M279.2,29.8c0-0.6,0.7-1,2-1.1c1.5-0.1,2.9-0.3,4.2-0.5c1.4-0.2,2.6-0.5,3.6-0.7
				c0.4-0.1,0.7-0.2,1-0.3s0.5-0.1,0.6-0.2c0.9,0,1.3,0.5,1.3,1.4c0,0.4-0.4,0.7-1.1,1c-3.1,0.9-6.3,1.4-9.6,1.7l-1.1,0.1
				C279.6,31.2,279.2,30.8,279.2,29.8z M283.2,26.1c-0.5-0.6-0.7-1.4-0.6-2.2v-8.1c-0.1-0.8,0.2-1.6,0.7-2.2
				c0.6-0.5,1.4-0.7,2.2-0.6h18.7c0.8-0.1,1.6,0.2,2.2,0.7c0.5,0.6,0.8,1.4,0.7,2.2v8.1c0.1,0.8-0.2,1.6-0.7,2.2
				c-0.6,0.5-1.4,0.7-2.2,0.6h-18.7C284.7,26.8,283.9,26.6,283.2,26.1z M304.3,16.1c0.1-0.5-0.3-0.9-0.8-1c-0.1,0-0.1,0-0.2,0h-17.1
				c-0.6,0-0.9,0.3-1,1V17h19V16.1z M304.3,20.8v-1.9h-19v1.9H304.3z M304.3,23.7v-0.9h-19v0.9c-0.1,0.5,0.3,0.9,0.8,1
				c0.1,0,0.1,0,0.2,0h17.1C303.9,24.7,304.2,24.3,304.3,23.7L304.3,23.7z M293.4,11.2c0-0.3,0.3-0.7,0.8-1.2c1.1-1,1.7-2.4,1.7-3.8
				l0-2.8c0-0.7,0.3-1.3,0.9-1.7c0.8-0.5,1.7-0.7,2.6-0.7c2.3-0.2,4.7-0.5,7-1l0.6-0.1c0.3-0.1,0.7,0,1,0.3c0.2,0.3,0.4,0.6,0.3,1
				c0,0.5-0.4,0.8-1.3,1c-1,0.2-3.3,0.4-7.1,0.8c-0.5,0.1-0.9,0.2-1,0.3c-0.1,0.5-0.2,1.1-0.2,1.6v0.1h10.4c0.9,0,1.4,0.4,1.4,1.1
				c0,0.8-0.5,1.1-1.4,1.1h-3.4v3.5c0,1-0.4,1.6-1.3,1.6c-0.9,0-1.3-0.5-1.3-1.6V7.3h-4.6c-0.1,1.3-0.7,2.6-1.5,3.7
				c-0.8,1-1.6,1.6-2.3,1.6c-0.6,0.1-1.2-0.4-1.3-1C293.4,11.4,293.4,11.3,293.4,11.2z M299.5,29.6c-1.3-0.4-1.9-0.8-1.9-1.2
				c-0.1-0.7,0.4-1.3,1.1-1.4c0.1,0,0.2,0,0.4,0l0.9,0.2c2.6,0.8,5.3,1.2,8,1.3c1.7,0.1,2.5,0.6,2.5,1.3c0,0.9-0.4,1.3-1.3,1.3
				l-3.8-0.4C303.4,30.5,301.4,30.1,299.5,29.6L299.5,29.6z"/>
			<path id="Path_375" d="M25.3,82.4c-1.6-1-4-2.1-7.1-3.6c-3.8,2.9-8.8,4.3-15,4.3c-0.5,0-1.1-0.1-1.5-0.4
				c-0.3-0.3-0.5-0.7-0.5-1.2c0-0.4,0.2-0.9,0.6-1.1c1-0.2,2-0.3,3-0.3c2,0,4-0.3,5.9-0.8c1.6-0.4,3.1-1,4.5-1.9
				c-2.4-1-4.9-1.8-7.4-2.5c-0.5-0.1-1-0.4-1.4-0.7c-0.3-0.3-0.5-0.7-0.5-1.1c0-0.5,0.2-1,0.4-1.5l1.9-3.9H2c-1.1,0-1.6-0.4-1.6-1.3
				c0-0.9,0.5-1.3,1.6-1.3h7.5l2-4.8c0.3-0.7,0.7-1.1,1.3-1.1c0.4,0,0.8,0.1,1.2,0.4c0.3,0.3,0.4,0.6,0.4,1
				c-0.5,1.6-1.1,3.1-1.8,4.5h16.2c1.1,0,1.6,0.4,1.6,1.3c0,0.8-0.5,1.3-1.6,1.3h-4.4c-0.6,3.2-2,6.2-4,8.7c2.6,1,5.2,2.2,7.6,3.5
				c0.7,0.3,1.1,0.9,1.2,1.6c0,0.4-0.1,0.9-0.4,1.2c-0.3,0.3-0.8,0.5-1.2,0.5C26.8,83.3,26,82.9,25.3,82.4z M0.6,62.3v-3
				c-0.2-0.9,0.1-1.9,0.7-2.7C2,56.1,3,55.8,3.9,56h9.8v-2.1c-0.1-0.7,0.4-1.4,1.1-1.5c0.1,0,0.2,0,0.4,0c0.7-0.1,1.4,0.4,1.5,1.1
				c0,0.1,0,0.2,0,0.4V56h10.2c0.9-0.2,1.9,0.1,2.7,0.7c0.6,0.7,0.9,1.7,0.7,2.7v3c0,0.4-0.1,0.9-0.3,1.2c-0.3,0.3-0.6,0.4-1,0.4
				c-0.4,0-0.8-0.1-1-0.4c-0.3-0.3-0.4-0.8-0.3-1.2v-2.4c0-0.4-0.1-0.8-0.4-1.1c-0.3-0.3-0.7-0.4-1.1-0.3H4.7c-1,0-1.4,0.5-1.4,1.4
				v2.4c0,1-0.5,1.6-1.4,1.6C1,63.9,0.6,63.4,0.6,62.3L0.6,62.3z M9.3,72.3c0,0.4,0.2,0.6,0.7,0.8c1.5,0.4,3.8,1.2,6.9,2.2
				c0.3,0.1,0.5,0.2,0.9,0.3c2-2.1,3.4-4.8,3.8-7.7H11.4l-2,3.9C9.4,72,9.3,72.2,9.3,72.3L9.3,72.3z"/>
			<path id="Path_376" d="M35.6,77.3c-0.3-0.2-0.5-0.4-0.5-0.7c0-0.6,0.1-1.1,0.3-1.6c0.6-1.5,1-3,1.3-4.5c0.3-1.5,0.5-3.3,0.7-5.3
				c0-0.4,0.2-0.8,0.4-1c0.3-0.3,0.6-0.4,1-0.4c0.4,0,0.8,0.1,1.1,0.4c0.3,0.3,0.4,0.7,0.4,1.1c-0.1,1.9-0.3,3.7-0.6,5.6
				c-0.3,1.7-0.7,3.4-1.2,5.1c-0.1,0.5-0.4,0.9-0.7,1.2c-0.3,0.3-0.6,0.4-1,0.4C36.3,77.6,35.9,77.5,35.6,77.3z M46,82.4
				c-0.8-0.1-1.7-0.4-2.3-1c-0.5-0.6-0.8-1.5-0.7-2.3V61c0-0.5,0.1-1,0.4-1.4c0.3-0.3,0.7-0.5,1.2-0.4c1,0,1.5,0.6,1.5,1.8v16.8
				c-0.1,0.5,0.1,1,0.4,1.4c0.4,0.3,0.9,0.5,1.4,0.5c1.1,0.1,2.2,0.1,3.2,0.1c2.6,0,4.2-0.1,4.6-0.4c0.4-0.3,0.6-0.7,0.7-1.1
				c0.2-0.8,0.3-1.6,0.3-2.5c0-0.4,0.1-0.8,0.4-1.1c0.3-0.3,0.7-0.4,1.1-0.4c0.4,0,0.8,0.1,1.1,0.4c0.3,0.3,0.4,0.8,0.4,1.2
				c0.1,1.4-0.1,2.9-0.6,4.2c-0.3,0.9-1,1.6-1.9,1.9c-2.1,0.4-4.2,0.6-6.4,0.5C49.3,82.6,47.6,82.6,46,82.4L46,82.4z M52.5,58.6
				c-1.1-0.8-2.7-1.9-4.7-3.2c-0.3-0.2-0.5-0.4-0.6-0.6c-0.1-0.3-0.2-0.5-0.1-0.8c0.1-0.3,0.2-0.6,0.5-0.9c0.3-0.3,0.6-0.4,1-0.4
				c0.2,0,0.4,0,0.6,0.1c0.9,0.4,1.8,0.8,2.7,1.4c1,0.6,2,1.2,2.8,1.8c0.3,0.2,0.6,0.4,0.8,0.7c0.2,0.3,0.2,0.6,0.2,0.9
				c0,0.4-0.1,0.8-0.4,1.1c-0.2,0.3-0.5,0.4-0.9,0.5C53.8,59.3,53.1,59.1,52.5,58.6L52.5,58.6z M63,75.6c-0.6-1-1-2.1-1.3-3.2
				c-0.6-1.8-1.4-3.6-2.4-5.3c-0.6-0.9-1-1.9-1.3-3c0-0.9,0.5-1.3,1.5-1.3c0.7,0,1.9,1.6,3.6,4.9c1.7,3.2,2.6,5.5,2.6,6.8
				c0,0.4-0.2,0.8-0.5,1c-0.3,0.3-0.8,0.4-1.2,0.4C63.7,76,63.3,75.8,63,75.6L63,75.6z"/>
			<path id="Path_377" d="M95.2,82.4c-1.6-1-4-2.1-7.1-3.6c-3.8,2.9-8.8,4.3-15,4.3c-0.5,0-1.1-0.1-1.5-0.4
				c-0.3-0.3-0.5-0.7-0.5-1.2c0-0.4,0.2-0.9,0.6-1.1c1-0.2,2-0.3,3-0.3c2,0,4-0.3,5.9-0.8c1.6-0.4,3.1-1,4.5-1.9
				c-2.4-1-4.9-1.8-7.4-2.5c-0.5-0.1-1-0.4-1.4-0.7c-0.3-0.3-0.5-0.7-0.5-1.1c0-0.5,0.2-1,0.4-1.5l1.9-3.9h-6.3
				c-1.1,0-1.6-0.4-1.6-1.3c0-0.9,0.5-1.3,1.6-1.3h7.5l2-4.8c0.3-0.7,0.7-1.1,1.3-1.1c0.4,0,0.8,0.1,1.2,0.4c0.3,0.3,0.4,0.6,0.4,1
				c-0.5,1.6-1.1,3.1-1.8,4.5h16.2c1.1,0,1.6,0.4,1.6,1.3c0,0.8-0.5,1.3-1.6,1.3h-4.4c-0.6,3.2-2,6.2-4,8.7c2.6,1,5.2,2.2,7.6,3.5
				c0.7,0.3,1.1,0.9,1.2,1.6c0,0.4-0.1,0.9-0.4,1.2c-0.3,0.3-0.8,0.5-1.2,0.5C96.7,83.3,95.9,82.9,95.2,82.4z M70.4,62.3v-3
				c-0.2-0.9,0.1-1.9,0.7-2.7c0.7-0.6,1.7-0.9,2.7-0.7h9.8v-2.1c-0.1-0.7,0.4-1.4,1.1-1.5c0.1,0,0.2,0,0.4,0
				c0.7-0.1,1.4,0.4,1.5,1.1c0,0.1,0,0.2,0,0.4V56h10.2c0.9-0.2,1.9,0.1,2.7,0.7c0.6,0.7,0.9,1.7,0.7,2.7v3c0,0.4-0.1,0.9-0.3,1.2
				c-0.3,0.3-0.6,0.4-1,0.4c-0.4,0-0.8-0.1-1-0.4c-0.3-0.3-0.4-0.8-0.3-1.2v-2.4c0-0.4-0.1-0.8-0.4-1.1c-0.3-0.3-0.7-0.4-1.1-0.3
				H74.6c-1,0-1.4,0.5-1.4,1.4v2.4c0,1-0.5,1.6-1.4,1.6C70.9,63.9,70.4,63.4,70.4,62.3L70.4,62.3z M79.2,72.3c0,0.4,0.2,0.6,0.7,0.8
				c1.5,0.4,3.8,1.2,6.9,2.2c0.3,0.1,0.5,0.2,0.9,0.3c2-2.1,3.4-4.8,3.8-7.7H81.3l-2,3.9C79.2,72,79.2,72.2,79.2,72.3L79.2,72.3z"/>
			<path id="Path_378" d="M104.6,81c0.2-0.8,0.4-1.6,0.9-2.4c0.7-1.6,1.1-3.3,1.3-5.1c0.3-3.2,0.5-6.3,0.4-9.5v-6.9
				c-0.1-0.9,0.3-1.9,0.9-2.5c0.8-0.6,1.8-0.9,2.8-0.8h19.6c0.9-0.1,1.8,0.2,2.5,0.7c0.6,0.6,0.8,1.5,0.7,2.3v2.9
				c0.1,0.9-0.2,1.7-0.8,2.3c-0.7,0.5-1.6,0.8-2.5,0.7H124v3.5h9.8c1,0,1.5,0.4,1.5,1.3c0,0.8-0.5,1.3-1.5,1.3H124v3.5h5.6
				c1-0.1,2.1,0.2,2.9,0.8c0.6,0.7,0.9,1.6,0.8,2.5v3.6c0.2,2.4-1,3.5-3.7,3.3h-13.6c-2.7,0.2-3.9-0.9-3.7-3.3v-3.6
				c-0.2-2.3,1-3.4,3.7-3.3h5.2v-3.5h-8.7c-1,0-1.6-0.4-1.6-1.3c0-0.8,0.5-1.3,1.6-1.3h8.7v-3.5H110v6c0.1,3.5-0.4,6.9-1.4,10.2
				c-0.8,2.4-1.6,3.6-2.5,3.6c-0.7,0.1-1.4-0.4-1.5-1.1C104.5,81.3,104.5,81.1,104.6,81z M130.9,59.1v-1.7c0.1-0.6-0.3-1.1-0.9-1.1
				c-0.1,0-0.1,0-0.2,0h-18.3c-1,0-1.5,0.4-1.5,1.2v2.7h19.8C130.5,60.3,130.9,59.9,130.9,59.1L130.9,59.1z M130.3,78.6v-2.5
				c0-0.9-0.4-1.4-1.3-1.3h-12.6c-0.9,0-1.4,0.4-1.3,1.3v2.5c0,0.9,0.4,1.4,1.3,1.3H129C129.9,80,130.4,79.5,130.3,78.6L130.3,78.6z
				"/>
			<path id="Path_379" d="M141.2,82.1c-0.5-0.5-0.7-1.2-0.7-2V60.7c-0.1-0.7,0.2-1.4,0.6-2c0.5-0.5,1.2-0.7,1.9-0.7h1.7
				c0.2-1,0.4-2.5,0.6-4.3c0-0.4,0.2-0.7,0.4-0.9c0.3-0.2,0.6-0.3,1-0.3c1.1,0,1.6,0.6,1.5,1.7c-0.2,1.3-0.5,2.6-0.9,3.8h2.6
				c1.7,0,2.6,0.9,2.6,2.7l0,19.4c0.2,1.3-0.7,2.4-2,2.6c-0.2,0-0.4,0-0.7,0h-6.9C142.4,82.8,141.7,82.6,141.2,82.1z M149.9,61.8
				c0.1-0.5-0.3-1-0.8-1.1c-0.1,0-0.2,0-0.3,0h-4.3c-0.5-0.1-1,0.3-1.1,0.8c0,0.1,0,0.2,0,0.3v6.8h6.6L149.9,61.8z M149.9,79.1v-7.9
				h-6.6v7.9c-0.1,0.5,0.3,1.1,0.9,1.1c0.1,0,0.2,0,0.3,0h4.3c0.5,0.1,1.1-0.3,1.1-0.9C149.9,79.2,149.9,79.2,149.9,79.1L149.9,79.1
				z M160,83c-0.3-0.3-0.4-0.7-0.4-1.1c0-0.9,0.5-1.4,1.6-1.4c1.4,0,2.4,0,3-0.1c0.5,0,0.9-0.2,1.3-0.4c0.3-0.3,0.6-0.7,0.7-1.1
				c0.5-2.2,0.7-4.5,0.8-6.8c0.2-3.6,0.3-7,0.3-10.3c0-0.9-0.5-1.3-1.5-1.3h-7.6c-0.5,1.5-1.2,2.9-2.1,4.2c-0.2,0.5-0.7,0.8-1.2,0.8
				c-0.3,0-0.5-0.1-0.7-0.2c-0.4-0.2-0.7-0.6-0.7-1.1c0-0.3,0.1-0.6,0.3-0.9c0.8-1.5,1.5-3,2.1-4.5c0.6-1.7,1.2-3.3,1.6-5.1
				c0.1-0.3,0.3-0.7,0.5-0.9c0.2-0.2,0.5-0.3,0.9-0.3c0.2,0,0.3,0,0.5,0.1c0.6,0.1,1.1,0.6,1,1.2c0,0.3,0,0.5-0.1,0.7
				c-0.2,0.7-0.4,1.3-0.6,2c-0.2,0.5-0.4,1-0.6,1.5h8.2c2,0,3,0.8,3,2.5c0,4.3-0.1,8.4-0.3,12.4c-0.2,4-0.6,6.6-1.2,8
				c-0.3,0.9-1,1.6-1.9,2c-1.2,0.4-2.5,0.6-3.8,0.5c-0.7,0-1.2,0-1.6,0C160.9,83.3,160.4,83.2,160,83L160,83z M160.2,74
				c-0.3-0.3-0.6-0.7-0.8-1.2c-0.4-0.8-1.1-1.8-1.9-3.1l-0.5-0.7c-0.1-0.2-0.2-0.4-0.3-0.6c-0.1-0.2-0.1-0.4-0.1-0.6
				c0-0.3,0.1-0.7,0.3-0.9c0.2-0.2,0.6-0.3,0.9-0.3c0.5,0,0.9,0.3,1.2,0.6c0.6,0.6,1.1,1.3,1.6,2c1.3,2,2,3.3,2,3.9
				c0,0.3-0.1,0.7-0.4,0.9c-0.3,0.2-0.6,0.4-1,0.3C160.8,74.4,160.4,74.2,160.2,74L160.2,74z"/>
			<path id="Path_380" d="M185.8,74.5c0,0.7-0.7,1.2-2,1.6c-4.1,1.3-6.7,1.9-7.7,1.9c-0.4,0-0.8-0.1-1.1-0.3c-0.2-0.3-0.4-0.6-0.3-1
				c0-0.4,0.1-0.8,0.4-1.1c0.3-0.2,0.7-0.3,1-0.4c0.6-0.1,1.2-0.3,2-0.5l0.8-0.2V63.3h-2.7c-1.1,0-1.6-0.4-1.6-1.3
				c0-0.9,0.5-1.4,1.6-1.4h2.7v-6.3c0-0.4,0.1-0.9,0.3-1.2c0.3-0.3,0.7-0.4,1.1-0.4c0.4,0,0.8,0.1,1.1,0.4c0.3,0.4,0.4,0.8,0.3,1.2
				v6.3h2.1c1.1,0,1.7,0.5,1.7,1.4c0,0.9-0.6,1.3-1.7,1.3h-2.1V74l2.1-0.5c0.3-0.1,0.6-0.1,0.9-0.2
				C185.4,73.3,185.8,73.7,185.8,74.5z M205.1,60.6c-0.1,3.2-0.2,6.4-0.4,9.6c-0.2,3-0.3,5.4-0.5,7c-0.1,1.2-0.3,2.4-0.7,3.5
				c-0.4,0.9-1.1,1.5-1.9,1.9c-1.2,0.5-2.6,0.7-3.9,0.6c-0.5,0-1,0-1.3,0c-0.4,0-0.9-0.1-1.3-0.4c-0.3-0.3-0.4-0.6-0.4-1
				c0-0.4,0.2-0.8,0.5-1.1c0.5-0.3,1-0.4,1.6-0.4c0.9,0,1.8,0,2.7-0.2c0.5-0.1,0.9-0.3,1.2-0.7c0.2-0.5,0.4-1,0.5-1.6
				c0.2-1.1,0.3-2.2,0.4-3.2c0.3-4.8,0.5-9,0.6-12.8c0.1-0.4-0.1-0.9-0.4-1.2c-0.3-0.3-0.8-0.4-1.2-0.4h-10
				c-0.7,1.6-1.6,3.2-2.6,4.7c-0.8,1.1-1.4,1.6-1.9,1.6c-0.6,0.1-1.2-0.3-1.3-0.9c0-0.1,0-0.2,0-0.3c0.1-0.4,0.3-0.8,0.5-1.2
				c2-2.7,3.4-5.8,4.2-9.1l0.4-1.5c0.1-0.6,0.7-1.1,1.4-1c0.9,0,1.4,0.4,1.4,1.2c-0.2,1.3-0.5,2.6-1,3.8h10
				C204,57.4,205.1,58.5,205.1,60.6L205.1,60.6z M198.2,74.4c-3,0.9-6.1,1.6-9.1,2.1c-0.4,0.1-0.8,0-1.1-0.3c-0.2-0.3-0.4-0.7-0.4-1
				c0-0.3,0.1-0.7,0.4-0.9c0.4-0.3,0.8-0.5,1.3-0.5l6.5-1.4l2.2-0.4c0.1,0,0.3,0,0.4,0c0.6,0,0.9,0.4,1.1,1.1
				C199.6,73.6,199.1,74.1,198.2,74.4L198.2,74.4z M190,68c-1.1,0-1.6-0.4-1.6-1.3c0-0.9,0.5-1.3,1.6-1.3h7.3c1.1,0,1.6,0.4,1.6,1.3
				c0,0.8-0.5,1.3-1.6,1.3H190z"/>
			<path id="Path_381" d="M240.5,71.4c0,0.8-0.5,1.2-1.4,1.2h-28.2c-0.9,0-1.4-0.4-1.4-1.2c0-0.8,0.5-1.2,1.4-1.2h6.5l-0.6-1.9
				l-0.1-0.4c0-0.2,0.1-0.5,0.2-0.6h-5.5c-0.9,0-1.3-0.4-1.3-1.2c0-0.8,0.4-1.2,1.3-1.2h12.1v-2.3H214c-0.8,0-1.3-0.4-1.3-1.2
				c0-0.8,0.4-1.1,1.3-1.1h9.6v-2.1h-11.9c-0.9,0-1.3-0.4-1.3-1.2c0-0.8,0.4-1.1,1.3-1.1h5.9l-0.5-1.4c0-0.2-0.1-0.4-0.2-0.6
				c-0.1-0.2-0.1-0.4-0.1-0.5c0-0.7,0.5-1.1,1.4-1.1c0.8,0,1.7,1.2,2.5,3.6h8.5l0.6-1.6c0.1-0.6,0.4-1.1,0.7-1.6
				c0.3-0.3,0.8-0.5,1.2-0.4c1,0,1.5,0.4,1.5,1.2c0,0.3-0.1,0.6-0.3,0.9c-0.2,0.5-0.5,1.1-0.8,1.6h6.3c0.8,0,1.3,0.4,1.3,1.2
				c0,0.8-0.4,1.1-1.3,1.1h-12.1v2.1h9.8c0.8,0,1.2,0.4,1.2,1.1c0,0.8-0.4,1.2-1.2,1.2h-9.8V65h12.3c0.9,0,1.3,0.4,1.3,1.2
				s-0.4,1.2-1.3,1.2h-5.3c0.1,0.2,0.2,0.4,0.2,0.6c0,0.3-0.1,0.6-0.2,0.9c-0.1,0.4-0.3,0.9-0.6,1.5h6.4
				C240,70.2,240.5,70.6,240.5,71.4z M237.6,77.4v2.1c0,0.9-0.2,1.7-0.8,2.4c-0.7,0.5-1.6,0.8-2.5,0.8h-18.7
				c-2.3,0.2-3.3-0.9-3.2-3.1v-2.1c-0.1-0.9,0.2-1.8,0.8-2.5c0.7-0.6,1.6-0.8,2.4-0.6h18.7C236.7,74.1,237.7,75.2,237.6,77.4
				L237.6,77.4z M234.7,79v-1.1c0.1-0.6-0.3-1.2-0.9-1.3c-0.1,0-0.2,0-0.4,0h-16.8c-0.9,0-1.3,0.4-1.3,1.3V79
				c-0.1,0.6,0.3,1.2,0.9,1.3c0.1,0,0.2,0,0.4,0h16.8C234.3,80.3,234.8,79.9,234.7,79L234.7,79z M220.2,70.2h9.7l0.7-2.1
				c0.1-0.3,0.2-0.6,0.4-0.8h-11.9c0.3,0.3,0.5,0.7,0.6,1.1L220.2,70.2z"/>
			<path id="Path_382" d="M250.4,60.5v21.4c0,1.1-0.5,1.6-1.4,1.6s-1.4-0.5-1.4-1.6V66.7c-1.1,2.3-1.9,3.4-2.4,3.4
				c-0.3,0-0.7-0.1-0.9-0.3c-0.2-0.3-0.3-0.6-0.3-1c0.1-0.6,0.3-1.2,0.7-1.8c2.3-4.1,4-8.5,5.1-13c0.3-1.1,0.8-1.7,1.5-1.7
				c0.9,0,1.3,0.4,1.3,1.3c-0.1,0.6-0.2,1.2-0.5,1.8L250.4,60.5z M260.8,80.5c0,0.3-0.6,0.8-1.7,1.3c-1.2,0.5-2.4,1-3.7,1.3
				c-0.9,0.3-1.9,0.5-2.9,0.6c-0.6,0.1-1.2-0.3-1.3-1c0-0.1,0-0.2,0-0.3c0-0.6,0.5-1,1.4-1.2c1.9-0.4,3.3-0.7,4.2-1l1.9-0.6
				c0.6-0.2,0.9-0.3,1-0.3C260.4,79.3,260.8,79.7,260.8,80.5z M252.7,54.7c0-0.7,0.4-1.1,1.2-1.1h19.5c0.8,0,1.2,0.4,1.2,1.1
				c0,0.7-0.4,1.1-1.2,1.1h-6.2v1.8h3.9c1.6,0,2.4,0.8,2.4,2.3v2.5c0,1.5-0.8,2.3-2.4,2.3h-15.7c-1.7,0-2.5-0.8-2.5-2.3v-2.5
				c0-1.5,0.8-2.3,2.5-2.3h3.7v-1.8h-5.2C253.1,55.8,252.7,55.5,252.7,54.7L252.7,54.7z M270,66.3c1.9,0,2.8,0.9,2.6,2.6v7.5
				c0.1,0.7-0.2,1.4-0.6,1.9c-0.6,0.5-1.3,0.7-2,0.6h-13.1c-1.8,0-2.6-0.9-2.6-2.6v-7.5c-0.1-0.7,0.2-1.4,0.6-1.9
				c0.5-0.5,1.2-0.7,1.9-0.6H270z M259.1,59.7h-2.6c-0.3,0-0.5,0.1-0.7,0.2c-0.2,0.2-0.3,0.4-0.2,0.7v1.3c0,0.6,0.3,0.9,0.9,0.9h2.6
				V59.7z M269.9,69.1c0-0.5-0.3-0.8-0.8-0.8h-11.4c-0.5,0-0.8,0.3-0.8,0.8V70h12.9V69.1z M269.9,73.4v-1.6H257v1.6H269.9z
				 M269.9,75.2H257v1c0,0.5,0.3,0.8,0.8,0.8h11.4c0.5,0,0.8-0.3,0.8-0.8V75.2z M265,57.7v-1.8h-3.6v1.8H265z M265,62.7v-3.1h-3.6
				v3.1H265z M275.4,82.4c0,0.8-0.5,1.3-1.4,1.3c-1.8-0.2-3.6-0.7-5.3-1.3c-1.8-0.6-2.8-1.2-2.8-1.8c0-0.8,0.4-1.1,1.2-1.1
				c0.3,0,0.5,0.1,0.8,0.2c2,0.7,4.1,1.3,6.2,1.5C274.9,81.3,275.4,81.7,275.4,82.4L275.4,82.4z M267.2,59.7v3.1h2.7
				c0.6,0,1-0.3,1-0.9v-1.3c0-0.3-0.1-0.5-0.3-0.7c-0.2-0.2-0.4-0.3-0.7-0.2H267.2z"/>
			<path id="Path_383" d="M283.5,81.9V66c-1.4,2.8-2.4,4.2-3,4.2c-0.8,0-1.3-0.5-1.3-1.6c0.3-0.9,0.7-1.8,1.3-2.6
				c2.2-3.7,3.9-7.7,5.1-11.9c0.1-0.5,0.3-0.9,0.6-1.3c0.2-0.3,0.6-0.4,0.9-0.4c1,0,1.6,0.4,1.6,1.3c-0.2,1-0.5,2-1,3l-1.5,3.6v21.6
				c0,1.1-0.4,1.6-1.3,1.6C284,83.5,283.5,83,283.5,81.9z M294.2,75.4V64c-0.2-1.3,0.8-2.6,2.1-2.8c0.2,0,0.5,0,0.7,0h2.2v-2.6h-8.8
				c-1,0-1.6-0.4-1.6-1.3c0-0.8,0.5-1.3,1.6-1.3h8.8v-2.2c0-0.4,0.1-0.8,0.3-1.2c0.3-0.3,0.7-0.4,1-0.4c0.9,0,1.3,0.5,1.3,1.5v2.2h7
				c1.1,0,1.6,0.4,1.6,1.3c0,0.8-0.5,1.3-1.6,1.3h-7v2.6h3.4c1.9,0,2.8,0.9,2.8,2.8v11.4c0,1.8-0.9,2.7-2.8,2.7h-8.3
				C295.1,78.1,294.2,77.2,294.2,75.4L294.2,75.4z M289.3,79.9V62.8c0-1,0.4-1.5,1.3-1.5c0.9,0,1.3,0.5,1.3,1.5V79
				c0,1,0.5,1.4,1.4,1.4h15.5c1.1,0,1.6,0.4,1.6,1.3s-0.5,1.3-1.6,1.3h-16.5C290.1,83,289.1,82,289.3,79.9z M305.3,64.5
				c0.1-0.5-0.3-1-0.8-1.1c-0.1,0-0.1,0-0.2,0h-6.6c-0.3,0-0.6,0.1-0.8,0.3c-0.2,0.2-0.3,0.5-0.3,0.8v1.6h8.6L305.3,64.5z
				 M305.3,70.8v-2.6h-8.6v2.6H305.3z M305.1,75.6c0.2-0.2,0.3-0.5,0.3-0.8v-1.9h-8.6v1.9c0,0.5,0.4,1,0.9,1.1c0,0,0.1,0,0.1,0h6.6
				C304.6,75.9,304.9,75.8,305.1,75.6L305.1,75.6z"/>
		</g>
	</g>
	<g id="Group_84" transform="translate(2172.601 1867.449)">
		<g id="Group_83">
			<path id="Path_532" d="M10.5,22V12H1.4C0.5,12,0,11.6,0,10.9c0-0.3,0.1-0.6,0.3-0.8c0.3-0.2,0.7-0.3,1-0.3h9.1V3.9
				C6.8,4.2,4.3,4.3,2.8,4.3C1.9,4.3,1.5,4,1.5,3.2c0-0.3,0.2-0.6,0.4-0.8c0.3-0.2,0.7-0.3,1.2-0.3c2.6,0,5.4-0.2,8.4-0.5
				c2.3-0.2,4.5-0.5,6.7-1.1c0.4-0.1,0.8-0.2,1.3-0.2c0.3,0,0.6,0.1,0.9,0.3c0.2,0.2,0.3,0.5,0.3,0.7c0,0.3-0.1,0.5-0.3,0.7
				c-0.2,0.2-0.5,0.4-0.8,0.5c-0.8,0.2-1.6,0.4-2.4,0.5c-1.2,0.2-2.7,0.4-4.5,0.5v6.2h9.1c0.9,0,1.4,0.4,1.4,1.1
				c0,0.3-0.1,0.6-0.3,0.8c-0.3,0.2-0.7,0.3-1,0.3h-9.1v10c0,0.4-0.1,0.8-0.3,1.1c-0.2,0.3-0.5,0.4-0.9,0.4
				C10.9,23.4,10.5,22.9,10.5,22z"/>
			<path id="Path_533" d="M48.4,10.3c-0.7,0-2.1-0.6-4.1-1.8c0,0.1,0,0.2,0,0.3c0,0.6-0.4,1-1.2,1h-4.4v3h8.1c0.8,0,1.2,0.3,1.2,1
				c0,0.6-0.4,0.9-1.2,0.9h-8.1v5.9h9c0.3,0,0.6,0.1,0.9,0.2c0.2,0.2,0.3,0.5,0.3,0.7c0,0.3-0.1,0.5-0.3,0.7
				c-0.3,0.2-0.6,0.3-0.9,0.2H28.1c-0.8,0-1.2-0.3-1.2-0.9c0-0.3,0.1-0.6,0.3-0.7c0.3-0.2,0.6-0.3,0.9-0.2h8.6v-5.9H29
				c-0.8,0-1.2-0.3-1.2-0.9c0-0.6,0.4-1,1.2-1h7.7v-3h-4c-0.3,0-0.6-0.1-0.9-0.2c-0.2-0.2-0.3-0.5-0.3-0.7c0-0.1,0-0.2,0.1-0.3
				c-2.2,1.4-3.6,2.2-4.2,2.2c-0.7,0-1-0.4-1-1.1c0-0.3,0.1-0.6,0.3-0.7c0.3-0.2,0.6-0.3,0.8-0.5C27.7,8.2,28,8,28.3,7.9
				c3.1-1.5,5.8-3.7,8-6.4c0.3-0.4,0.6-0.8,0.9-1.1C37.4,0.1,37.6,0,37.9,0c0.3,0,0.6,0.1,0.8,0.3C38.9,0.4,39,0.7,39,0.9
				c0,0.2-0.1,0.5-0.2,0.7c1.1,1.2,2.2,2.3,3.6,3.2c1.8,1.3,3.8,2.3,5.8,3.1c0.9,0.3,1.4,0.7,1.4,1.3c0.1,0.6-0.3,1.1-0.9,1.1
				C48.5,10.4,48.4,10.4,48.4,10.3z M30.1,16.7l0-0.3c0-0.2,0-0.5,0.2-0.6c0.2-0.2,0.5-0.3,0.8-0.2c0.5,0,1,0.5,1.4,1.5
				c0.3,0.6,0.6,1.2,0.7,1.9c0.1,0.5-0.3,1-0.8,1c-0.1,0-0.2,0-0.3,0c-0.5,0-0.9-0.4-1.1-1.1L30.1,16.7z M43.2,7.8
				c-2-1.3-3.9-2.9-5.5-4.7h-0.1c-1.6,1.8-3.3,3.3-5.2,4.7H43.2L43.2,7.8z M43.6,15.7c0.2-0.2,0.4-0.3,0.7-0.3
				c0.7,0,1.1,0.3,1.1,0.9c-0.2,0.7-0.4,1.3-0.7,2c-0.2,0.4-0.4,0.9-0.7,1.2c-0.2,0.2-0.5,0.4-0.8,0.4c-0.7,0-1.1-0.3-1.1-1
				c0-0.3,0.1-0.6,0.3-0.8l0.7-1.6C43.2,16.2,43.3,15.9,43.6,15.7L43.6,15.7z"/>
			<path id="Path_534" d="M52.4,22.4c0-0.5,0.7-0.9,2-1.1c1.6-0.3,3.1-0.7,4.6-1.2c0.3-0.1,0.7-0.2,1.1-0.3c0.7,0,1.1,0.3,1.1,1
				c0,0.2-0.3,0.5-0.8,0.8c-0.8,0.4-1.6,0.7-2.5,0.9c-1.5,0.5-3,0.8-4.5,1c-0.5,0.1-1-0.3-1-0.8C52.4,22.6,52.4,22.5,52.4,22.4z
				 M53.8,6.4c-0.4-0.5-0.6-1.1-0.4-1.7V3.2c-0.1-1.6,0.6-2.3,2.2-2.2h17.1c0.6-0.1,1.3,0.1,1.8,0.5c0.4,0.5,0.6,1.1,0.4,1.7v1.6
				c0.1,1.6-0.6,2.3-2.2,2.2H55.5C54.9,7,54.2,6.8,53.8,6.4L53.8,6.4z M54.5,17v-6.3c-0.1-1.6,0.6-2.4,2.3-2.4h14.5
				c1.7,0,2.5,0.8,2.4,2.4V17c0.1,1.6-0.6,2.4-2.3,2.4H56.8C55.1,19.4,54.3,18.6,54.5,17L54.5,17z M59.7,2.6H56
				c-0.5,0-0.7,0.3-0.8,0.8v1.1c0,0.5,0.3,0.7,0.8,0.8h3.7V2.6z M71.5,10.8c0-0.6-0.3-0.9-1-0.9h-13c-0.3,0-0.5,0.1-0.8,0.2
				c-0.2,0.2-0.3,0.4-0.2,0.7v0.6h14.9L71.5,10.8z M71.5,14.6V13H56.6v1.6H71.5z M71.5,16.9v-0.7H56.6v0.7c0,0.6,0.3,0.9,1,0.9h13
				C71.2,17.8,71.6,17.5,71.5,16.9L71.5,16.9z M66.2,5.3V2.6h-4.6v2.7H66.2z M70,22.4c-2.1-0.7-3.2-1.2-3.2-1.6c0-0.6,0.4-1,1.3-1
				c0.3,0,0.6,0.1,0.9,0.2c1.8,0.6,3.6,1,5.4,1.3c0.3,0.1,0.7,0.2,1,0.4c0.2,0.1,0.3,0.4,0.3,0.6c0,0.8-0.4,1.2-1.1,1.2
				C73.1,23.3,71.5,23,70,22.4L70,22.4z M72.8,4.6V3.4c0.1-0.4-0.2-0.7-0.6-0.8c-0.1,0-0.1,0-0.2,0h-4v2.7h4
				c0.4,0.1,0.7-0.2,0.8-0.6C72.8,4.7,72.8,4.6,72.8,4.6L72.8,4.6z"/>
			<path id="Path_535" d="M82.6,7c0,5.9-0.3,9.9-0.8,12.2c-0.6,2.3-1.2,3.5-2,3.5c-0.8,0-1.1-0.4-1.1-1.1c0-0.3,0.2-0.7,0.3-1
				c0.7-1.8,1.2-3.6,1.4-5.6c0.2-1.7,0.2-4.4,0.2-8.2l0-3.5c0-1.5,0.8-2.3,2.6-2.3h15.3c0.6-0.1,1.2,0.1,1.7,0.5
				c0.4,0.4,0.6,1,0.5,1.6v1.7c0,1.4-0.8,2.1-2.3,2L82.6,7z M101.8,21.6c0,0.6-0.4,0.9-1.1,0.9H83.5c-0.7,0-1.1-0.3-1.1-0.9
				c0-0.6,0.4-0.9,1.1-0.9h7.6v-2.4h-5.7c-0.7,0-1-0.3-1-0.9c0-0.6,0.3-0.9,1-0.9h5.7v-2.2l-6.5,0.4c-0.7,0.1-1-0.2-1-0.9
				c-0.1-0.4,0.2-0.8,0.6-0.8c0.1,0,0.1,0,0.2,0l3.2-0.1l0.9-2.8h-4.2c-0.6,0-1-0.3-1-0.9s0.3-0.9,1-0.9h15.9c0.6,0,0.9,0.3,0.9,0.9
				c0,0.6-0.3,0.9-0.9,0.9h-9.5L89.5,13l7-0.3l-0.7-0.5c-0.5-0.4-0.8-0.7-0.8-0.8c0-0.5,0.3-0.7,1-0.7c0.5,0,1.4,0.6,2.9,1.7
				c1.5,1.1,2.2,1.9,2.2,2.3c0,0.6-0.3,0.9-1,0.9c-0.3,0-0.8-0.4-1.5-1.1L98.2,14l-5.1,0.3v2.3H99c0.7,0,1,0.3,1,0.9
				c0,0.6-0.3,0.8-1,0.8h-5.9v2.4h7.6C101.4,20.7,101.8,21,101.8,21.6L101.8,21.6z M82.6,5.3h15.1c0.4,0.1,0.8-0.2,0.8-0.6
				c0-0.1,0-0.1,0-0.2V3.6c0-0.5-0.3-0.8-0.8-0.8H83.4c-0.6,0-0.8,0.4-0.8,1.3L82.6,5.3z"/>
			<path id="Path_536" d="M114.8,16.3c-0.1-0.2-0.2-0.4-0.2-0.6c0-0.2,0.2-0.4,0.5-0.7c1.3-1,2-1.8,2-2.4c0-0.2,0-0.2-0.1-0.2
				c-0.1,0-0.1,0-0.2,0c-0.1,0-0.1,0-0.2,0c-1.5,0-2.3-0.7-2.3-2.1c0-0.6,0.2-1.2,0.7-1.6c0.5-0.4,1.1-0.6,1.8-0.6
				c1.6,0,2.5,1,2.5,2.9c0,1.4-0.5,2.8-1.5,3.8c-0.9,1.1-1.7,1.6-2.3,1.6C115.2,16.5,115,16.4,114.8,16.3z"/>
			<path id="Path_537" d="M137.6,4.3V3.8h-5.4c-0.7,0-1-0.3-1-0.9c0-0.6,0.3-0.9,1-0.9h5.4V1.2c-0.1-0.5,0.3-1,0.8-1
				c0.1,0,0.2,0,0.3,0c0.6,0,1,0.3,1,1V2h5.9V1.2c0-0.7,0.3-1,1-1s1,0.3,1,1V2h5.6c0.7,0,1.1,0.3,1.1,0.9c0,0.6-0.4,0.9-1.1,0.9
				h-5.6v0.5c0,0.7-0.3,1.1-1,1.1c-0.7,0-1-0.4-1-1.1V3.8h-5.9v0.5c0,0.7-0.3,1.1-1,1.1C138,5.4,137.6,5,137.6,4.3z M132.3,22.3
				v-5.1c-0.1-0.7,0.1-1.3,0.6-1.9c0.5-0.4,1.2-0.6,1.8-0.5h6.9v-1.2h-5.7c-0.6,0.1-1.2-0.1-1.7-0.5c-0.4-0.4-0.6-1-0.5-1.6V8
				c-0.1-0.6,0.1-1.2,0.5-1.7c0.5-0.4,1-0.5,1.6-0.4h13.5c0.6-0.1,1.2,0.1,1.7,0.5c0.4,0.4,0.5,1,0.4,1.6v3.5
				c0.1,0.6-0.1,1.2-0.5,1.7c-0.4,0.4-1,0.5-1.6,0.4h-6v1.2h7.2c0.7-0.1,1.3,0.1,1.9,0.6c0.4,0.5,0.6,1.1,0.5,1.8v3.6
				c0.1,0.7-0.2,1.4-0.6,2c-0.5,0.5-1.3,0.7-2,0.6h-1.6c-0.7,0-1-0.3-1-0.9c0-0.6,0.3-1,1-1h1.2c0.3,0,0.5-0.1,0.7-0.3
				c0.2-0.2,0.3-0.5,0.3-0.8v-3c0-0.3-0.1-0.5-0.2-0.7c-0.2-0.2-0.4-0.3-0.7-0.2h-6.7v2.2l3.4-0.3c-0.2-0.2-0.3-0.5-0.4-0.8
				c0-0.5,0.3-0.7,0.8-0.7c0.3,0,0.8,0.5,1.5,1.5c0.4,0.6,0.8,1.2,1,1.8c0,0.2-0.1,0.5-0.2,0.6c-0.2,0.1-0.5,0.2-0.7,0.2
				c-0.4,0-0.8-0.4-1.3-1.3L136.7,21c-0.3,0.1-0.7,0-1-0.2c-0.2-0.2-0.3-0.5-0.3-0.8c0-0.4,0.1-0.7,0.4-0.8c0.7-0.2,1.4-0.2,2.1-0.2
				l3.6-0.2v-2.3h-6.3c-0.5-0.1-0.9,0.3-0.9,0.7c0,0.1,0,0.2,0,0.2v4.8c0,0.8-0.3,1.2-1,1.2S132.3,23.1,132.3,22.3L132.3,22.3z
				 M141.6,7.5h-5c-0.2,0-0.5,0.1-0.6,0.2c-0.2,0.2-0.2,0.4-0.2,0.6v0.6h5.9V7.5z M141.6,10.5h-5.9v0.7c0,0.2,0.1,0.5,0.2,0.6
				c0.2,0.2,0.4,0.2,0.6,0.2h5L141.6,10.5z M149.5,8.3c0.1-0.4-0.2-0.8-0.7-0.8c-0.1,0-0.1,0-0.2,0h-5.2v1.4h6.1L149.5,8.3z
				 M149.5,11.1v-0.7h-6.1V12h5.2c0.4,0.1,0.8-0.2,0.9-0.6C149.5,11.3,149.5,11.2,149.5,11.1L149.5,11.1z"/>
			<path id="Path_538" d="M179.3,10.3c-0.7,0-2.1-0.6-4.1-1.8c0,0.1,0,0.2,0,0.3c0,0.6-0.4,1-1.2,1h-4.4v3h8.1c0.8,0,1.2,0.3,1.2,1
				c0,0.6-0.4,0.9-1.2,0.9h-8.1v5.9h9c0.3,0,0.6,0.1,0.9,0.2c0.2,0.2,0.3,0.5,0.3,0.7c0,0.3-0.1,0.5-0.3,0.7
				c-0.3,0.2-0.6,0.3-0.9,0.2h-19.6c-0.8,0-1.2-0.3-1.2-0.9c0-0.3,0.1-0.6,0.3-0.7c0.3-0.2,0.6-0.3,0.9-0.2h8.6v-5.9H160
				c-0.8,0-1.2-0.3-1.2-0.9c0-0.6,0.4-1,1.2-1h7.7v-3h-4c-0.3,0-0.6-0.1-0.9-0.2c-0.2-0.2-0.3-0.5-0.3-0.7c0-0.1,0-0.2,0.1-0.3
				c-2.2,1.4-3.6,2.2-4.2,2.2c-0.7,0-1-0.4-1-1.1c0-0.3,0.1-0.6,0.3-0.7c0.3-0.2,0.6-0.3,0.8-0.5c0.3-0.1,0.6-0.3,0.9-0.4
				c3.1-1.5,5.8-3.7,8-6.4c0.3-0.4,0.6-0.8,0.9-1.1c0.2-0.2,0.4-0.3,0.7-0.3c0.3,0,0.6,0.1,0.8,0.3c0.2,0.2,0.3,0.4,0.3,0.7
				c0,0.2-0.1,0.5-0.2,0.7c1.1,1.2,2.2,2.3,3.6,3.2c1.8,1.3,3.8,2.3,5.8,3.1c0.9,0.3,1.4,0.7,1.4,1.3c0.1,0.6-0.3,1.1-0.9,1.1
				C179.5,10.4,179.4,10.4,179.3,10.3z M161.1,16.7l0-0.3c0-0.2,0-0.5,0.2-0.6c0.2-0.2,0.5-0.3,0.8-0.2c0.5,0,1,0.5,1.4,1.5
				c0.3,0.6,0.6,1.2,0.7,1.9c0.1,0.5-0.3,1-0.8,1c-0.1,0-0.2,0-0.3,0c-0.5,0-0.9-0.4-1.1-1.1L161.1,16.7z M174.2,7.8
				c-2-1.3-3.9-2.9-5.5-4.7h-0.1c-1.6,1.8-3.3,3.3-5.2,4.7H174.2z M174.6,15.7c0.2-0.2,0.4-0.3,0.7-0.3c0.7,0,1.1,0.3,1.1,0.9
				c-0.2,0.7-0.4,1.3-0.7,2c-0.2,0.4-0.4,0.9-0.7,1.2c-0.2,0.2-0.5,0.4-0.8,0.4c-0.7,0-1.1-0.3-1.1-1c0-0.3,0.1-0.6,0.3-0.8l0.7-1.6
				C174.1,16.2,174.3,15.9,174.6,15.7L174.6,15.7z"/>
			<path id="Path_539" d="M183.4,22.4c0-0.5,0.7-0.9,2-1.1c1.6-0.3,3.1-0.7,4.6-1.2c0.3-0.1,0.7-0.2,1.1-0.3c0.7,0,1.1,0.3,1.1,1
				c0,0.2-0.3,0.5-0.8,0.8c-0.8,0.4-1.6,0.7-2.5,0.9c-1.5,0.5-3,0.8-4.5,1c-0.5,0.1-1-0.3-1-0.8C183.4,22.6,183.4,22.5,183.4,22.4z
				 M184.7,6.4c-0.4-0.5-0.6-1.1-0.4-1.7V3.2c-0.1-1.6,0.6-2.3,2.2-2.2h17.1c0.6-0.1,1.3,0.1,1.8,0.5c0.4,0.5,0.6,1.1,0.4,1.7v1.6
				c0.1,1.6-0.6,2.3-2.2,2.2h-17.1C185.9,7,185.2,6.8,184.7,6.4L184.7,6.4z M185.5,17v-6.3c-0.1-1.6,0.6-2.4,2.3-2.4h14.5
				c1.7,0,2.5,0.8,2.4,2.4V17c0.1,1.6-0.6,2.4-2.3,2.4h-14.5C186.1,19.4,185.3,18.6,185.5,17L185.5,17z M190.7,2.6H187
				c-0.5,0-0.7,0.3-0.8,0.8v1.1c0,0.5,0.3,0.7,0.8,0.8h3.7V2.6z M202.5,10.8c0-0.6-0.3-0.9-1-0.9h-13c-0.3,0-0.5,0.1-0.8,0.2
				c-0.2,0.2-0.3,0.4-0.2,0.7v0.6h14.9L202.5,10.8z M202.5,14.6V13h-14.9v1.6H202.5z M202.5,16.9v-0.7h-14.9v0.7
				c0,0.6,0.3,0.9,1,0.9h13C202.2,17.8,202.5,17.5,202.5,16.9L202.5,16.9z M197.2,5.3V2.6h-4.6v2.7H197.2z M201,22.4
				c-2.1-0.7-3.2-1.2-3.2-1.6c0-0.6,0.4-1,1.3-1c0.3,0,0.6,0.1,0.9,0.2c1.8,0.6,3.6,1,5.4,1.3c0.3,0.1,0.7,0.2,1,0.4
				c0.2,0.1,0.3,0.4,0.3,0.6c0,0.8-0.4,1.2-1.1,1.2C204.1,23.3,202.5,23,201,22.4L201,22.4z M203.8,4.6V3.4c0.1-0.4-0.2-0.7-0.6-0.8
				c-0.1,0-0.1,0-0.2,0h-4v2.7h4c0.4,0.1,0.7-0.2,0.8-0.6C203.8,4.7,203.8,4.6,203.8,4.6L203.8,4.6z"/>
			<path id="Path_540" d="M209.7,22c0-0.4,0.3-0.7,0.8-1c1-0.6,1.9-1.4,2.6-2.4l-1.1-0.8c-0.3-0.2-0.5-0.5-0.5-0.8
				c0-0.2,0.1-0.5,0.2-0.6c0.2-0.2,0.4-0.2,0.6-0.2c0.4,0.1,0.7,0.2,1,0.5l0.6,0.4c0.3-0.8,0.6-1.6,0.6-2.4c0-0.2-0.1-0.3-0.4-0.3
				h-1.6c-0.9,1.8-1.7,2.8-2.2,2.8c-0.5,0-0.8-0.3-0.8-0.9c0.2-0.5,0.4-1,0.8-1.5c0.7-1,1.2-2.1,1.6-3.2c0.3-0.8,0.6-1.2,1.1-1.2
				c0.6,0,0.9,0.3,0.9,0.8c-0.1,0.6-0.3,1.1-0.6,1.6h1.6c0.4,0,0.7,0.1,1.1,0.3c0.3,0.3,0.4,0.7,0.4,1.1c0,1.4-0.4,2.8-1,4.1
				c-0.6,1.3-1.4,2.5-2.4,3.5c-0.6,0.7-1.4,1.2-2.3,1.4C210,23,209.7,22.6,209.7,22z M215.8,11.2V7.3c-0.9,1-1.9,1.9-3,2.7
				c-0.7,0.6-1.5,1-2.3,1.2c-0.4,0.1-0.8-0.3-0.9-0.7c0-0.1,0-0.2,0-0.2c0-0.4,0.3-0.8,0.7-0.9c0.9-0.4,1.8-0.9,2.6-1.5
				c0.8-0.6,1.5-1.2,2.2-1.9h-4.5c-0.6,0-0.9-0.3-0.9-0.8s0.3-0.8,0.9-0.8h5.2V1c-0.1-0.4,0.2-0.8,0.7-0.9c0.1,0,0.2,0,0.2,0
				c0.4-0.1,0.9,0.2,0.9,0.7c0,0.1,0,0.2,0,0.2v3.2h5.1c0.7,0,1,0.3,1,0.8c0,0.6-0.3,0.8-1,0.8h-5.1v1.5c0.2-0.3,0.5-0.4,0.8-0.4
				c0.6,0.1,1.2,0.4,1.7,0.7l1,0.5c1.3,0.6,2,1.1,2,1.5c0,0.6-0.3,0.9-0.9,0.9c-0.4-0.1-0.7-0.2-1-0.4l-1.8-1l-0.7-0.4
				c-0.4-0.2-0.8-0.4-1.1-0.7v3.2c0.1,0.4-0.2,0.9-0.7,0.9c-0.1,0-0.2,0-0.2,0c-0.4,0.1-0.8-0.3-0.9-0.7
				C215.8,11.3,215.8,11.3,215.8,11.2L215.8,11.2z M211.5,2.5c-0.1-0.1-0.1-0.2-0.3-0.4c-0.1-0.1-0.2-0.3-0.2-0.4
				c0-0.6,0.3-0.8,1-0.8c0.4,0,0.8,0.3,1.2,0.8c0.2,0.3,0.4,0.5,0.5,0.8c0.1,0.2,0.2,0.3,0.2,0.5c0,0.6-0.3,0.9-1,0.9
				C212.6,3.8,212.1,3.4,211.5,2.5L211.5,2.5z M220.2,22.5v-3.1h-2.4c-0.4,1.2-0.8,1.8-1.2,1.8c-0.6,0-0.9-0.2-0.9-0.7
				c0-0.3,0.1-0.5,0.2-0.7c0.4-1.1,0.7-2.3,1-3.4c0.1-0.3,0.2-0.7,0.4-1c0.1-0.2,0.3-0.3,0.6-0.3c0.2,0,0.4,0.1,0.6,0.2
				c0.2,0.1,0.2,0.3,0.2,0.5c0,0.7-0.2,1.3-0.4,1.9h1.9v-3.1h-2.8c-0.6,0-1-0.3-1-0.8c0-0.2,0.1-0.4,0.2-0.6
				c0.2-0.2,0.5-0.2,0.7-0.2h2.8v-1.3c-0.1-0.5,0.2-0.9,0.7-0.9c0.1,0,0.2,0,0.2,0c0.5-0.1,0.9,0.3,0.9,0.7c0,0.1,0,0.2,0,0.2v1.3h1
				c0.6,0,0.9,0.3,0.9,0.8c0,0.5-0.3,0.8-0.9,0.8h-1v3.1h1.3c0.7,0,1,0.3,1,0.9s-0.3,0.9-1,0.9H222v3.1c0.1,0.4-0.2,0.9-0.7,0.9
				c-0.1,0-0.2,0-0.2,0c-0.4,0.1-0.9-0.2-0.9-0.7C220.2,22.7,220.2,22.6,220.2,22.5L220.2,22.5z M219.6,3.6
				c-0.2-0.2-0.3-0.4-0.2-0.6c0.2-0.5,0.5-1,0.8-1.4c0.4-0.6,0.8-0.9,1.1-0.9c0.6,0,0.9,0.3,0.9,0.9c-0.1,0.5-0.3,0.9-0.7,1.3
				c-0.5,0.6-0.9,1-1.3,1C220.1,3.9,219.8,3.8,219.6,3.6L219.6,3.6z M224.7,22.2V3.4c-0.1-0.6,0.1-1.2,0.5-1.7
				c0.4-0.4,1-0.5,1.6-0.4h3.9c1.5,0,2.2,0.5,2.2,1.4c0,1-1,3.3-3,6.8c-0.1,0.2-0.2,0.3-0.2,0.5c0,0.1,0.3,0.5,0.9,1
				c0.7,0.7,1.3,1.5,1.7,2.4c0.4,0.9,0.6,1.9,0.6,2.9c0,2.8-1.4,4.2-4.3,4.2c-0.8,0-1.3-0.4-1.3-1.2c0-0.3,0.1-0.6,0.3-0.7
				c0.3-0.2,0.7-0.3,1-0.3c0.5,0,1-0.1,1.4-0.3c0.7-0.5,1-1.3,0.9-2.2c0-1.5-0.8-3-2.5-4.5c-0.2-0.2-0.4-0.4-0.6-0.6
				c-0.1-0.2-0.2-0.4-0.2-0.6c0-0.4,0.2-0.7,0.4-1.1c0.6-1,1.1-2.1,1.5-3.2l0.6-1.6c0.1-0.2,0.1-0.4,0.2-0.6c0-0.3-0.2-0.4-0.6-0.4
				h-2.5c-0.4-0.1-0.7,0.2-0.7,0.6c0,0.1,0,0.1,0,0.2v18.3c0,0.8-0.3,1.2-1,1.2C225,23.4,224.7,23,224.7,22.2L224.7,22.2z"/>
			<path id="Path_541" d="M245.8,16.3c-0.1-0.2-0.2-0.4-0.2-0.6c0-0.2,0.2-0.4,0.5-0.7c1.3-1,2-1.8,2-2.4c0-0.2,0-0.2-0.1-0.2
				c-0.1,0-0.1,0-0.2,0c-0.1,0-0.1,0-0.2,0c-1.5,0-2.3-0.7-2.3-2.1c0-0.6,0.2-1.2,0.7-1.6c0.5-0.4,1.1-0.6,1.8-0.6
				c1.6,0,2.5,1,2.5,2.9c0,1.4-0.5,2.8-1.5,3.8c-0.9,1.1-1.7,1.6-2.3,1.6C246.2,16.5,246,16.4,245.8,16.3z"/>
			<path id="Path_542" d="M0.2,65.5c0-0.5,0.4-0.9,1.3-1.4C2.4,63.6,3.2,63,4,62.4c0.8-0.7,1.6-1.4,2.3-2.1c0.2-0.2,0.4-0.3,0.6-0.5
				c0.2-0.1,0.4-0.2,0.6-0.2c0.7,0,1.1,0.3,1.1,1c-0.1,0.5-0.4,1-0.8,1.4c-0.7,0.8-1.4,1.5-2.3,2.1c-0.8,0.7-1.7,1.3-2.6,1.9
				c-0.5,0.3-1.1,0.6-1.7,0.7C0.5,66.6,0.2,66.2,0.2,65.5z M2.5,55v-6.8c-0.1-0.9,0.2-1.7,0.8-2.4c0.2-0.2,0.6-0.4,0.9-0.5
				c0.4-0.1,0.8-0.1,1.2-0.1h12.4c0.9-0.1,1.7,0.2,2.4,0.8c0.5,0.6,0.7,1.3,0.6,2.1V55c0.1,0.9-0.2,1.7-0.7,2.4
				c-0.6,0.5-1.5,0.8-2.3,0.6H5.5C3.4,58.2,2.4,57.2,2.5,55z M18.7,54.4v-5.5c0.1-0.7-0.4-1.4-1.2-1.5c-0.1,0-0.3,0-0.4,0H6.2
				c-0.4,0-0.8,0.1-1.1,0.4c-0.3,0.3-0.4,0.7-0.4,1.2v5.5c-0.1,0.7,0.4,1.4,1.2,1.5c0.1,0,0.3,0,0.4,0h10.9
				C18.1,55.9,18.6,55.4,18.7,54.4L18.7,54.4z M17.9,63.9c-0.8-0.7-1.5-1.4-2.2-2.1c-0.4-0.3-0.6-0.8-0.7-1.3c0-0.6,0.4-0.9,1.1-0.9
				c0.5,0.1,1,0.4,1.3,0.8c1.2,1.2,2.5,2.3,4,3.1c0.5,0.3,1,0.6,1.4,1c0.3,0.3,0.5,0.5,0.5,0.7c0,0.4-0.2,0.7-0.4,0.9
				c-0.2,0.2-0.4,0.3-0.7,0.3C21.3,66.5,19.9,65.6,17.9,63.9L17.9,63.9z"/>
			<path id="Path_543" d="M49.5,47.5c0,0.6-0.4,1-1.2,1H34.7l-1.2,2.6h10.4c0.7-0.1,1.4,0.1,2,0.6c0.5,0.5,0.6,1.2,0.5,1.9v10.6
				c0.1,1.9-0.8,2.8-2.7,2.7h-2.2c-0.8,0-1.2-0.4-1.2-1.1c0-0.7,0.4-1.1,1.2-1.1h1.6c0.3,0,0.7-0.1,0.9-0.3c0.2-0.3,0.3-0.6,0.3-1
				v-1.8H33.5v4.1c0,0.8-0.4,1.3-1.1,1.3c-0.7,0-1-0.4-1-1.3V54.5l-0.1,0c-2,2.7-3.4,4.1-4.1,4.1c-0.7,0-1-0.4-1-1.1
				c0.1-0.5,0.3-0.9,0.7-1.2c2.4-2.1,4.4-4.8,5.7-7.8h-4.8c-0.8,0-1.2-0.3-1.2-1c0-0.6,0.4-1,1.2-1h5.6l0.4-1.5
				c0.2-0.8,0.6-1.2,1.1-1.2c0.8,0,1.2,0.3,1.2,1c0,0.2,0,0.5-0.1,0.7c-0.1,0.2-0.2,0.6-0.4,1h12.6C49.1,46.5,49.5,46.8,49.5,47.5z
				 M33.5,55.4h10.8v-1.3c0-0.3-0.1-0.6-0.3-0.8c-0.2-0.2-0.5-0.3-0.8-0.3h-9.1c-0.4,0-0.6,0.2-0.6,0.7V55.4z M33.5,57.3v2.5h10.8
				v-2.5H33.5z"/>
			<path id="Path_544" d="M60.9,60.4c0,0.5-0.5,0.9-1.5,1.2c-1.9,0.7-3.8,1.2-5.8,1.4c-0.3,0-0.6,0-0.8-0.2
				c-0.2-0.2-0.3-0.5-0.2-0.7c0-0.3,0.1-0.6,0.3-0.8c0.2-0.1,0.5-0.2,0.8-0.3c0.4-0.1,0.9-0.2,1.5-0.3l0.6-0.2v-8.5h-2
				c-0.8,0-1.2-0.3-1.2-1c0-0.7,0.4-1,1.2-1h2v-4.8c0-0.3,0.1-0.7,0.3-0.9c0.2-0.2,0.5-0.3,0.8-0.3c0.3,0,0.6,0.1,0.8,0.3
				c0.2,0.3,0.3,0.6,0.3,0.9v4.8h1.6c0.8,0,1.3,0.3,1.3,1c0,0.7-0.4,1-1.3,1h-1.6V60l1.6-0.4c0.2-0.1,0.5-0.1,0.7-0.1
				C60.6,59.5,60.9,59.8,60.9,60.4z M75.3,49.9c-0.1,2.4-0.1,4.8-0.3,7.2c-0.1,2.3-0.3,4-0.4,5.3c-0.1,0.9-0.3,1.8-0.5,2.6
				c-0.3,0.6-0.8,1.1-1.4,1.4c-0.9,0.3-1.9,0.5-2.9,0.4c-0.4,0-0.7,0-0.9,0c-0.3,0-0.7-0.1-0.9-0.3c-0.2-0.2-0.3-0.5-0.3-0.8
				c0-0.3,0.1-0.6,0.4-0.8c0.4-0.2,0.8-0.3,1.2-0.3c0.7,0,1.4,0,2-0.2c0.4-0.1,0.7-0.2,0.9-0.5c0.2-0.4,0.3-0.8,0.4-1.2
				c0.2-0.8,0.2-1.6,0.3-2.4c0.2-3.6,0.4-6.8,0.4-9.6c0-0.3,0-0.7-0.3-0.9c-0.3-0.2-0.6-0.3-0.9-0.3h-7.5c-0.5,1.2-1.2,2.4-1.9,3.5
				c-0.6,0.8-1.1,1.2-1.4,1.2c-0.5,0.1-0.9-0.2-1-0.7c0-0.1,0-0.2,0-0.2c0-0.3,0.2-0.6,0.4-0.9c1.5-2,2.5-4.4,3.1-6.8l0.3-1.1
				c0.1-0.5,0.5-0.8,1-0.7c0.7,0,1,0.3,1,0.9c-0.1,1-0.4,1.9-0.8,2.8h7.5C74.5,47.5,75.4,48.3,75.3,49.9L75.3,49.9z M70.2,60.2
				c-2.3,0.7-4.5,1.2-6.9,1.6c-0.3,0.1-0.6,0-0.8-0.2c-0.2-0.2-0.3-0.5-0.3-0.8c0-0.3,0.1-0.5,0.3-0.7c0.3-0.2,0.6-0.4,1-0.4l4.9-1
				l1.7-0.3c0.1,0,0.2,0,0.3,0c0.4,0,0.7,0.3,0.8,0.8C71.2,59.7,70.9,60,70.2,60.2L70.2,60.2z M64.1,55.5c-0.8,0-1.2-0.3-1.2-0.9
				c0-0.7,0.4-1,1.2-1h5.5c0.8,0,1.2,0.3,1.2,1c0,0.6-0.4,0.9-1.2,0.9H64.1z"/>
			<path id="Path_545" d="M78.6,53c0-0.2,0.2-0.6,0.7-1.1c0.5-0.6,0.9-1.3,1-2.1c0.1-0.9,0.2-1.8,0.2-2.8v-0.5c0-0.5,0.2-1,0.6-1.4
				c0.5-0.4,1.2-0.5,1.8-0.5l1.9-0.2l3.4-0.6c0.3-0.1,0.5,0,0.7,0.2c0.2,0.2,0.3,0.5,0.3,0.7c0,0.4-0.3,0.6-0.8,0.7
				c-0.4,0.1-1.4,0.2-2.9,0.4l-2.3,0.3c-0.5,0-0.8,0.4-0.8,1.1l0,0.3h6.9c0.7,0,1,0.3,1,0.8s-0.3,0.8-1,0.8h-2V52
				c0,0.7-0.3,1.1-0.9,1.1s-0.9-0.4-0.9-1.1v-2.7h-3.1c-0.1,1.2-0.5,2.3-1,3.4c-0.6,0.9-1.1,1.4-1.7,1.4c-0.5,0.1-0.9-0.3-1-0.8
				C78.6,53.1,78.6,53.1,78.6,53z M78.6,66.1c0-0.5,0.5-0.7,1.5-0.8c1.1-0.1,2.1-0.2,3.1-0.4c1-0.2,1.9-0.3,2.7-0.5
				c0.3-0.1,0.5-0.1,0.8-0.2s0.4-0.1,0.5-0.1c0.7,0,1,0.3,1,1c0,0.3-0.3,0.6-0.8,0.7c-2.3,0.7-4.8,1.1-7.2,1.3l-0.8,0.1
				C78.8,67.2,78.6,66.8,78.6,66.1L78.6,66.1z M81.6,63.3c-0.4-0.4-0.6-1-0.5-1.6v-6c-0.1-0.6,0.1-1.2,0.5-1.7
				c0.5-0.4,1.1-0.5,1.6-0.4h14c0.6-0.1,1.2,0.1,1.7,0.5c0.4,0.4,0.6,1,0.5,1.6v6c0.1,0.6-0.1,1.2-0.5,1.7c-0.5,0.4-1.1,0.5-1.6,0.4
				h-14C82.6,63.9,82,63.7,81.6,63.3L81.6,63.3z M97.4,55.9c0-0.4-0.2-0.7-0.6-0.7c0,0-0.1,0-0.1,0H83.8c-0.4,0-0.7,0.2-0.7,0.7v0.6
				h14.2L97.4,55.9z M97.4,59.4V58H83.1v1.4H97.4z M97.4,61.5v-0.7H83.1v0.7c0,0.4,0.2,0.7,0.6,0.7c0,0,0.1,0,0.1,0h12.8
				C97.1,62.3,97.3,62,97.4,61.5L97.4,61.5z M89.2,52.2c0-0.2,0.2-0.5,0.6-0.9c0.8-0.7,1.3-1.8,1.3-2.9l0-2.1c0-0.5,0.2-1,0.7-1.3
				c0.6-0.4,1.3-0.5,2-0.5c1.8-0.1,3.5-0.4,5.2-0.7l0.5,0c0.3,0,0.5,0,0.7,0.2c0.2,0.2,0.3,0.5,0.3,0.7c0,0.4-0.3,0.6-0.9,0.7
				c-0.7,0.1-2.5,0.3-5.3,0.6c-0.4,0.1-0.7,0.1-0.7,0.3c-0.1,0.4-0.2,0.8-0.2,1.2v0.1h7.8c0.7,0,1,0.3,1,0.8s-0.3,0.8-1,0.8h-2.6
				v2.6c0,0.8-0.3,1.2-1,1.2c-0.6,0-1-0.4-1-1.2v-2.6H93c-0.1,1-0.5,1.9-1.1,2.7c-0.6,0.8-1.2,1.2-1.7,1.2c-0.5,0.1-0.9-0.3-1-0.7
				C89.2,52.4,89.2,52.3,89.2,52.2L89.2,52.2z M93.8,66c-1-0.3-1.5-0.6-1.5-0.9c-0.1-0.5,0.3-1,0.8-1.1c0.1,0,0.2,0,0.3,0l0.7,0.2
				c1.9,0.6,4,0.9,6,1c1.3,0.1,1.9,0.4,1.9,0.9c0,0.7-0.3,1-0.9,1l-2.8-0.3C96.7,66.7,95.2,66.4,93.8,66L93.8,66z"/>
			<path id="Path_546" d="M106,66.1c-0.4-0.4-0.5-0.9-0.5-1.5V50c0-0.5,0.1-1.1,0.5-1.5c0.4-0.4,0.9-0.6,1.4-0.5h1.3
				c0.1-0.8,0.3-1.9,0.5-3.2c0-0.3,0.1-0.5,0.3-0.7c0.2-0.2,0.5-0.2,0.7-0.2c0.9,0,1.2,0.4,1.1,1.3c-0.1,1-0.4,1.9-0.7,2.9h1.9
				c1-0.1,1.8,0.5,2,1.5c0,0.2,0,0.3,0,0.5l0,14.6c0.1,1-0.5,1.8-1.5,2c-0.2,0-0.3,0-0.5,0h-5.2C106.9,66.6,106.4,66.4,106,66.1z
				 M112.5,50.8c0.1-0.4-0.2-0.8-0.6-0.8c-0.1,0-0.1,0-0.2,0h-3.2c-0.4-0.1-0.8,0.2-0.8,0.6c0,0.1,0,0.1,0,0.2v5.1h4.9L112.5,50.8z
				 M112.5,63.8v-5.9h-4.9v5.9c-0.1,0.4,0.2,0.8,0.6,0.8c0.1,0,0.1,0,0.2,0h3.2c0.4,0.1,0.8-0.2,0.8-0.6
				C112.6,63.9,112.6,63.8,112.5,63.8L112.5,63.8z M120.1,66.7c-0.2-0.2-0.3-0.5-0.3-0.8c0-0.7,0.4-1.1,1.2-1.1c1.1,0,1.8,0,2.2-0.1
				c0.3,0,0.7-0.1,1-0.3c0.3-0.2,0.4-0.5,0.5-0.8c0.4-1.7,0.5-3.4,0.6-5.1c0.1-2.7,0.2-5.3,0.2-7.7c0-0.6-0.4-1-1.1-1h-5.7
				c-0.4,1.1-0.9,2.2-1.6,3.1c-0.2,0.3-0.5,0.6-0.9,0.6c-0.2,0-0.4-0.1-0.5-0.2c-0.3-0.1-0.5-0.5-0.5-0.8c0-0.2,0.1-0.5,0.2-0.7
				c0.6-1.1,1.1-2.2,1.6-3.4c0.4-1.1,0.8-2.4,1.2-3.8c0.1-0.3,0.2-0.5,0.4-0.7c0.2-0.2,0.4-0.2,0.7-0.2c0.1,0,0.2,0,0.4,0
				c0.5,0.1,0.8,0.5,0.8,0.9c0,0.2,0,0.4-0.1,0.6c-0.1,0.5-0.3,1-0.4,1.5c-0.1,0.4-0.3,0.8-0.5,1.1h6.1c1.5,0,2.3,0.6,2.3,1.9
				c0,3.2-0.1,6.3-0.3,9.3c0,2-0.3,4-0.9,6c-0.3,0.7-0.8,1.2-1.4,1.5c-0.9,0.3-1.9,0.5-2.9,0.4c-0.5,0-0.9,0-1.2,0
				C120.8,67,120.4,66.9,120.1,66.7L120.1,66.7z M120.3,60c-0.2-0.3-0.5-0.6-0.6-0.9c-0.3-0.6-0.8-1.4-1.4-2.3l-0.4-0.6
				c-0.1-0.1-0.2-0.3-0.2-0.4c-0.1-0.1-0.1-0.3-0.1-0.4c0-0.3,0.1-0.5,0.3-0.7c0.2-0.2,0.4-0.3,0.7-0.2c0.3,0,0.7,0.2,0.9,0.5
				c0.4,0.5,0.8,1,1.2,1.5c0.7,0.9,1.2,1.9,1.5,2.9c0,0.3-0.1,0.5-0.3,0.7c-0.2,0.2-0.5,0.3-0.8,0.3C120.7,60.2,120.5,60.1,120.3,60
				L120.3,60z"/>
			<path id="Path_547" d="M133.5,54.8v2.9c0.1,1.8-0.1,3.6-0.4,5.3c-0.3,1.2-0.7,1.8-1.3,1.8c-0.2,0-0.5-0.1-0.7-0.2
				c-0.2-0.2-0.2-0.4-0.2-0.7c0-0.3,0.1-0.7,0.3-1c0.4-1,0.6-3.5,0.6-7.4v-1.2c0-0.8,0.3-1.1,0.8-1.1
				C133.2,53.2,133.5,53.8,133.5,54.8z M136.8,51.4v14.7c0,0.7-0.3,1-0.9,1s-0.9-0.3-0.9-1V51.4h-2.6c-0.8,0-1.2-0.3-1.2-1
				s0.4-0.9,1.2-0.9h7.2c0.8,0,1.2,0.3,1.2,0.9c0,0.6-0.4,1-1.2,1L136.8,51.4z M132,45.8c0-0.7,0.4-1,1.1-1h5.7c0.7,0,1.1,0.3,1.1,1
				c0,0.7-0.4,1-1.1,1h-5.7C132.4,46.8,132,46.5,132,45.8L132,45.8z M139,63.2c-0.6,0-0.9-0.3-0.9-1v-8c0-0.7,0.3-1,0.9-1
				c0.6,0,0.9,0.3,0.9,1v8C139.9,62.9,139.6,63.2,139,63.2L139,63.2z M154.4,64.9c0,0.7-0.4,1.1-1.3,1.1h-12.8
				c-0.9,0-1.4-0.4-1.4-1.1c0-0.7,0.5-1.1,1.4-1.1h5.8V53.2h-4.3c-0.9,0-1.3-0.4-1.3-1.1c0-0.7,0.4-1.1,1.3-1.1h4.3v-6
				c0-0.9,0.4-1.3,1.1-1.3s1.1,0.4,1.1,1.3v6h4.1c0.9,0,1.3,0.4,1.3,1.1c0,0.7-0.4,1.1-1.3,1.1h-4.1v10.6h4.9
				C153.9,63.8,154.4,64.2,154.4,64.9L154.4,64.9z"/>
			<path id="Path_548" d="M159,65.5c-0.4-0.5-0.6-1.2-0.5-1.9V47.2c-0.1-0.7,0.2-1.4,0.6-1.9c0.5-0.4,1.2-0.6,1.9-0.5h18
				c0.8,0,1.2,0.3,1.2,1c0,0.6-0.4,0.9-1.2,0.9h-17.2c-0.6,0-0.9,0.3-1,1v15.5c-0.1,0.5,0.3,0.9,0.8,1c0.1,0,0.1,0,0.2,0h17.7
				c0.8,0,1.2,0.3,1.2,1s-0.4,0.9-1.2,0.9h-18.4C160.2,66.2,159.5,66,159,65.5z M162,60.9v-2.9c-0.1-0.9,0.5-1.8,1.5-1.9
				c0.2,0,0.3,0,0.5,0h4c0.9-0.1,1.8,0.5,1.9,1.5c0,0.2,0,0.3,0,0.5v2.9c0.1,0.9-0.5,1.8-1.5,1.9c-0.2,0-0.3,0-0.5,0h-4
				c-0.9,0.1-1.8-0.5-2-1.5C161.9,61.2,161.9,61,162,60.9z M168,60.4v-1.9c0-0.4-0.2-0.7-0.7-0.7h-2.8c-0.4,0-0.7,0.2-0.7,0.6
				c0,0,0,0.1,0,0.1v1.9c0,0.4,0.2,0.7,0.6,0.7c0,0,0.1,0,0.1,0h2.8C167.8,61.1,168,60.9,168,60.4L168,60.4z M164.3,54.2
				c-0.4-0.4-0.5-1-0.4-1.5v-2.4c-0.1-0.6,0.1-1.1,0.5-1.6c0.4-0.4,1-0.5,1.5-0.4h9.1c0.6-0.1,1.1,0.1,1.6,0.5
				c0.4,0.4,0.5,1,0.4,1.6v2.4c0.1,0.6-0.1,1.1-0.5,1.6c-0.4,0.4-1,0.5-1.5,0.4h-9.1C165.3,54.7,164.7,54.5,164.3,54.2L164.3,54.2z
				 M174.9,52.1v-1.4c0-0.5-0.3-0.7-0.8-0.8h-7.6c-0.5,0-0.7,0.2-0.7,0.7v1.5c0,0.5,0.2,0.7,0.7,0.7h7.6
				C174.6,52.9,174.9,52.6,174.9,52.1z M171,60.9v-2.9c-0.1-0.9,0.5-1.8,1.5-1.9c0.2,0,0.3,0,0.5,0h4.2c0.9-0.1,1.8,0.5,1.9,1.5
				c0,0.2,0,0.3,0,0.5v2.9c0.1,0.9-0.5,1.8-1.4,2c-0.2,0-0.3,0-0.5,0H173c-0.9,0.1-1.8-0.5-1.9-1.5C171,61.2,171,61,171,60.9
				L171,60.9z M177.3,60.4v-1.9c0-0.2,0-0.4-0.2-0.5c-0.2-0.1-0.3-0.2-0.5-0.2h-3c-0.3,0-0.7,0.2-0.7,0.5c0,0.1,0,0.1,0,0.2v1.9
				c0,0.4,0.2,0.7,0.6,0.7c0,0,0.1,0,0.1,0h3C177,61.1,177.3,60.9,177.3,60.4L177.3,60.4z"/>
			<path id="Path_549" d="M190.2,46.8l-1.3,2.8v16.3c0,0.8-0.4,1.3-1.1,1.3c-0.7,0-1-0.4-1-1.3v-12l-0.3,0.4l-0.6,0.9
				c-0.5,0.8-0.9,1.3-1.1,1.5s-0.4,0.4-0.5,0.4c-0.6,0-0.9-0.4-0.9-1.2c0.2-0.7,0.5-1.3,0.9-1.8c1.8-2.8,3.2-5.9,4.2-9.1
				c0.1-0.4,0.3-0.7,0.5-1c0.2-0.2,0.4-0.3,0.7-0.3c0.8,0,1.2,0.3,1.2,1C190.7,45.5,190.5,46.1,190.2,46.8z M206.7,65.2
				c0,0.6-0.4,1-1.2,1h-14.4c-0.8,0-1.2-0.3-1.2-1c0-0.3,0.1-0.6,0.3-0.8c0.3-0.2,0.6-0.3,0.9-0.2h6.2v-5.9h-4.4
				c-0.7,0-1.1-0.3-1.1-1s0.4-1,1.1-1h4.4v-5.1h-5.5c-0.8,0-1.2-0.3-1.2-1s0.4-1,1.2-1h13.3c0.8,0,1.3,0.3,1.3,1s-0.4,1-1.3,1h-5.6
				v5.1h4.6c0.7,0,1.1,0.3,1.1,1s-0.4,1-1.1,1h-4.6v5.9h6C206.3,64.2,206.7,64.5,206.7,65.2z M195.7,45c0-0.7,0.4-1,1.1-1
				c0.4,0,1.1,0.5,2.2,1.4l1,0.9c0.5,0.4,0.8,0.8,0.8,1.2c0,0.7-0.4,1.1-1.1,1.1c-0.3,0-0.7-0.3-1.4-0.9c-0.8-0.7-1.5-1.3-2.1-1.8
				C195.9,45.7,195.7,45.3,195.7,45L195.7,45z"/>
			<path id="Path_550" d="M209.6,66.1c0-0.4,0.2-0.7,0.4-1c0.8-1.5,1.4-3,1.8-4.7c0.4-2.1,0.5-4.3,0.5-6.5l0-2.7l0-3.1
				c0-1.3,0.5-2.1,1.6-2.2l0.6-0.1c3.2-0.3,6.1-0.6,8.7-0.9c1.8-0.1,3.6-0.4,5.3-0.9c0.4-0.1,0.7-0.2,1.1-0.2c0.6-0.1,1.2,0.3,1.3,1
				c0,0.1,0,0.2,0,0.3c0,0.5-0.3,0.9-0.8,1.1c-0.5,0.2-1,0.3-1.6,0.3c-0.8,0.1-2,0.3-3.6,0.4c-3.4,0.4-6.6,0.6-9.4,0.8
				c-0.3,0-0.6,0.1-0.9,0.3c-0.2,0.2-0.3,0.6-0.3,0.9v1.3h14.4c0.7-0.1,1.3,0.1,1.9,0.6c0.4,0.5,0.6,1.1,0.5,1.8v5.1
				c0.1,0.7-0.1,1.3-0.5,1.8c-0.5,0.4-1.1,0.6-1.8,0.5H214c-0.1,0.9-0.2,1.7-0.5,2.6c-0.3,0.9-0.6,1.7-1,2.5
				c-0.7,1.5-1.3,2.2-1.9,2.3C210,67.3,209.6,66.9,209.6,66.1z M228.6,57.7c0.2-0.3,0.3-0.6,0.2-1v-3.2c0-0.3,0-0.7-0.2-1
				c-0.3-0.2-0.6-0.3-1-0.2h-13.3c0,2.5,0,4.4-0.1,5.6h13.4C228,57.9,228.3,57.8,228.6,57.7L228.6,57.7z"/>
			<path id="Path_551" d="M245.8,59.9c-0.1-0.2-0.2-0.4-0.2-0.6c0-0.2,0.2-0.4,0.5-0.7c1.3-1,2-1.8,2-2.4c0-0.2,0-0.2-0.1-0.2
				c-0.1,0-0.1,0-0.2,0c-0.1,0-0.1,0-0.2,0c-1.5,0-2.3-0.7-2.3-2.1c0-0.6,0.2-1.2,0.7-1.6c0.5-0.4,1.1-0.6,1.8-0.6
				c1.6,0,2.5,1,2.5,2.9c0,1.4-0.5,2.8-1.5,3.8c-0.9,1.1-1.7,1.6-2.3,1.6C246.2,60.1,246,60.1,245.8,59.9z"/>
			<path id="Path_552" d="M284.8,49.6c0,0.7-0.4,1-1.2,1H276l0,13.8c0,1.8-0.9,2.6-2.8,2.5h-2.5c-0.3,0-0.7-0.1-0.9-0.3
				c-0.2-0.2-0.3-0.5-0.3-0.9c0-0.8,0.3-1.2,1-1.2h2.1c0.6,0.1,1.1-0.3,1.2-0.9c0-0.1,0-0.2,0-0.3V53c-1.1,1.9-2.4,3.7-3.9,5.3
				c-1.7,1.7-3.5,3.2-5.5,4.5c-0.4,0.3-0.8,0.4-1.3,0.5c-0.4,0-0.8-0.2-1-0.6c-0.1-0.2-0.1-0.4-0.2-0.6c0-0.5,0.4-1,1.2-1.5
				c2.1-1.3,4-2.8,5.8-4.5c1.6-1.6,3-3.4,4-5.4h-9.2c-0.8,0-1.2-0.4-1.2-1.1c0-0.7,0.4-1,1.2-1h10.1v-3.6c-0.1-0.5,0.3-1,0.8-1.1
				c0.1,0,0.2,0,0.3,0c0.8,0,1.2,0.4,1.2,1.1v3.6h7.6C284.4,48.5,284.8,48.9,284.8,49.6z"/>
			<path id="Path_553" d="M311.5,47.5c0,0.6-0.4,1-1.2,1h-13.5l-1.2,2.6h10.4c0.7-0.1,1.4,0.1,2,0.6c0.5,0.5,0.6,1.2,0.5,1.9v10.6
				c0.1,1.9-0.8,2.8-2.7,2.7h-2.2c-0.8,0-1.2-0.4-1.2-1.1c0-0.7,0.4-1.1,1.2-1.1h1.6c0.3,0,0.7-0.1,0.9-0.3c0.2-0.3,0.3-0.6,0.3-1
				v-1.8h-10.8v4.1c0,0.8-0.4,1.3-1.1,1.3c-0.7,0-1-0.4-1-1.3V54.5l-0.1,0c-2,2.7-3.4,4.1-4.1,4.1c-0.7,0-1-0.4-1-1.1
				c0.1-0.5,0.3-0.9,0.7-1.2c2.4-2.1,4.4-4.8,5.7-7.8h-4.8c-0.8,0-1.2-0.3-1.2-1c0-0.6,0.4-1,1.2-1h5.6l0.4-1.5
				c0.2-0.8,0.6-1.2,1.2-1.2c0.8,0,1.2,0.3,1.2,1c0,0.2,0,0.5-0.1,0.7c-0.1,0.2-0.2,0.6-0.4,1h12.6
				C311.1,46.5,311.5,46.8,311.5,47.5z M295.5,55.4h10.8v-1.3c0-0.3-0.1-0.6-0.3-0.8c-0.2-0.2-0.5-0.3-0.8-0.3h-9.1
				c-0.4,0-0.6,0.2-0.6,0.7V55.4z M295.5,57.3v2.5h10.8v-2.5H295.5z"/>
			<path id="Path_554" d="M322.9,60.4c0,0.5-0.5,0.9-1.5,1.2c-1.9,0.7-3.8,1.2-5.8,1.4c-0.3,0-0.6,0-0.8-0.2
				c-0.2-0.2-0.3-0.5-0.2-0.7c0-0.3,0.1-0.6,0.3-0.8c0.2-0.1,0.5-0.2,0.8-0.3c0.4-0.1,0.9-0.2,1.5-0.3l0.6-0.2v-8.5h-2
				c-0.8,0-1.2-0.3-1.2-1c0-0.7,0.4-1,1.2-1h2v-4.8c0-0.3,0.1-0.7,0.3-0.9c0.2-0.2,0.5-0.3,0.8-0.3c0.3,0,0.6,0.1,0.8,0.3
				c0.2,0.3,0.3,0.6,0.3,0.9v4.8h1.6c0.8,0,1.3,0.3,1.3,1c0,0.7-0.4,1-1.3,1h-1.6V60l1.6-0.4c0.2-0.1,0.5-0.1,0.7-0.1
				C322.6,59.5,322.9,59.8,322.9,60.4z M337.3,49.9c-0.1,2.4-0.1,4.8-0.3,7.2c-0.1,2.3-0.3,4-0.4,5.3c-0.1,0.9-0.3,1.8-0.5,2.6
				c-0.3,0.6-0.8,1.1-1.4,1.4c-0.9,0.3-1.9,0.5-2.9,0.4c-0.4,0-0.7,0-0.9,0c-0.3,0-0.7-0.1-0.9-0.3c-0.2-0.2-0.3-0.5-0.3-0.8
				c0-0.3,0.1-0.6,0.4-0.8c0.4-0.2,0.8-0.3,1.2-0.3c0.7,0,1.4,0,2-0.2c0.4-0.1,0.7-0.2,0.9-0.5c0.2-0.4,0.3-0.8,0.4-1.2
				c0.2-0.8,0.2-1.6,0.3-2.4c0.2-3.6,0.4-6.8,0.4-9.6c0-0.3,0-0.7-0.3-0.9c-0.3-0.2-0.6-0.3-0.9-0.3h-7.5c-0.5,1.2-1.2,2.4-1.9,3.5
				c-0.6,0.8-1.1,1.2-1.4,1.2c-0.5,0.1-0.9-0.2-1-0.7c0-0.1,0-0.2,0-0.2c0-0.3,0.2-0.6,0.4-0.9c1.5-2,2.5-4.4,3.1-6.8l0.3-1.1
				c0.1-0.5,0.5-0.8,1-0.7c0.7,0,1,0.3,1,0.9c-0.1,1-0.4,1.9-0.8,2.8h7.5C336.5,47.5,337.4,48.3,337.3,49.9L337.3,49.9z M332.1,60.2
				c-2.3,0.7-4.5,1.2-6.9,1.6c-0.3,0.1-0.6,0-0.8-0.2c-0.2-0.2-0.3-0.5-0.3-0.8c0-0.3,0.1-0.5,0.3-0.7c0.3-0.2,0.6-0.4,1-0.4l4.9-1
				l1.7-0.3c0.1,0,0.2,0,0.3,0c0.4,0,0.7,0.3,0.8,0.8C333.2,59.7,332.9,60,332.1,60.2L332.1,60.2z M326,55.5c-0.8,0-1.2-0.3-1.2-0.9
				c0-0.7,0.4-1,1.2-1h5.5c0.8,0,1.2,0.3,1.2,1c0,0.6-0.4,0.9-1.2,0.9H326z"/>
			<path id="Path_555" d="M346.3,51.4c-0.2,0.7-0.6,1.4-1,2v12.5c0,0.8-0.3,1.2-1,1.2c-0.6,0-0.9-0.4-0.9-1.2l-0.1-9.7
				c-0.9,1.2-1.5,1.8-1.8,1.8c-0.2,0-0.5-0.1-0.6-0.3c-0.2-0.2-0.2-0.5-0.2-0.8c0-0.4,0.2-0.7,0.5-1c1.3-1.4,2.4-2.9,3.2-4.6
				c0.3-0.6,0.6-0.9,1-0.9C345.9,50.5,346.3,50.8,346.3,51.4z M340.6,48.6c0-0.4,0.4-0.8,1.3-1.5c1-0.7,1.9-1.5,2.7-2.4
				c0.6-0.6,1-0.9,1.3-0.9c0.7,0,1.1,0.3,1.1,1c0,0.5-0.8,1.4-2.3,2.8c-1.6,1.3-2.6,2-3.1,2C340.9,49.6,340.6,49.3,340.6,48.6
				L340.6,48.6z M349.4,44.5c0.2-0.4,0.5-0.7,1-0.7c0.6,0,0.9,0.2,0.9,0.7c-0.1,0.4-0.3,0.9-0.6,1.2h3.2c0.8,0,1.2,0.3,1.2,1
				c-0.1,0.4-0.3,0.9-0.7,1.2l-1.2,1.6h1.4c0.9-0.1,1.7,0.5,1.8,1.4c0,0.2,0,0.3,0,0.5v4.9c0,1.2-0.6,1.9-1.8,1.9h-5.5
				c-0.9,0.1-1.7-0.5-1.8-1.4c0-0.2,0-0.3,0-0.5v-4.9c-0.1-0.9,0.5-1.7,1.4-1.8c0.2,0,0.3,0,0.5,0h2.4l0.9-1.4
				c0.1-0.1,0.1-0.2,0.2-0.3c0.1-0.1,0.1-0.2,0.1-0.3c0-0.1-0.1-0.2-0.3-0.2h-2.9l-1.8,2.2c-0.4,0.5-0.8,0.8-1.2,0.8
				c-0.5,0-0.8-0.3-0.8-0.9c0-0.2,0.2-0.6,0.7-1C347.7,47.3,348.7,46,349.4,44.5L349.4,44.5z M352.5,61.7l-0.4,1.1
				c0.1-0.1,0.2-0.1,0.4-0.1c0.7,0.2,1.3,0.4,1.8,0.8c0.7,0.4,1.3,0.8,1.9,1.2c0.1,0.1,0.2,0.2,0.3,0.4c0.1,0.1,0.1,0.3,0.1,0.4
				c0,0.6-0.3,1-1,1c-0.2,0-0.4-0.1-0.6-0.3c-0.4-0.2-0.7-0.5-1-0.8l-1.8-1.3c-0.2-0.1-0.4-0.3-0.5-0.5c-0.5,0.8-1.3,1.5-2.1,2
				c-0.7,0.5-1.5,0.8-2.3,1c-0.6,0-0.8-0.3-0.8-0.9c0-0.4,0.3-0.7,0.9-0.9c1.5-0.4,2.8-1.5,3.4-2.9h-3.5c-0.6,0-1-0.3-1-0.8
				s0.3-0.8,1-0.8h3.8l0-0.4c0-0.8,0.4-1.3,0.9-1.3c0.4-0.1,0.8,0.2,0.9,0.6c0,0.1,0,0.1,0,0.2l-0.1,0.8h3.9c0.6,0,1,0.3,1,0.8
				s-0.3,0.8-1,0.8L352.5,61.7z M351.1,51.2h-1.3c-0.2,0-0.3,0-0.5,0.2c-0.1,0.1-0.2,0.3-0.2,0.5V53h2L351.1,51.2z M351.1,54.6h-2
				v1.3c0,0.2,0.1,0.3,0.2,0.4c0.1,0.1,0.3,0.2,0.5,0.2h1.3L351.1,54.6z M354.2,51.2h-1.5V53h2.1v-1.2c0-0.3-0.2-0.6-0.5-0.6
				C354.3,51.2,354.3,51.2,354.2,51.2L354.2,51.2z M354.8,54.6h-2.1v1.9h1.5c0.2,0,0.3-0.1,0.4-0.2c0.1-0.1,0.2-0.3,0.2-0.4
				L354.8,54.6z M357,46.3c0-0.3,0.1-0.6,0.3-0.8c0.2-0.2,0.5-0.3,0.8-0.2h4.2c0.7,0,1.1,0.3,1.1,1c0,0.7-0.4,1-1.1,1h-4.2
				C357.4,47.3,357,47,357,46.3L357,46.3z M363.9,53c0,0.6-0.4,1-1.1,1h-1.1v10.5c0.1,0.7-0.1,1.4-0.5,2c-0.5,0.4-1.2,0.6-1.8,0.5
				h-1.2c-0.3,0-0.6-0.1-0.8-0.3c-0.2-0.2-0.3-0.5-0.2-0.8c0-0.7,0.3-1,0.9-1h0.7c0.7,0,1-0.4,1-1.1V54h-1.7c-0.7,0-1.1-0.3-1.1-1
				s0.4-1,1.1-1h4.7C363.5,52.1,363.9,52.4,363.9,53L363.9,53z"/>
			<path id="Path_556" d="M368,66.1c-0.4-0.4-0.5-0.9-0.5-1.5V50c0-0.5,0.1-1.1,0.5-1.5c0.4-0.4,0.9-0.6,1.4-0.5h1.3
				c0.1-0.8,0.3-1.9,0.5-3.2c0-0.3,0.1-0.5,0.3-0.7c0.2-0.2,0.5-0.2,0.7-0.2c0.9,0,1.2,0.4,1.1,1.3c-0.1,1-0.4,1.9-0.7,2.9h1.9
				c1-0.1,1.8,0.5,2,1.5c0,0.2,0,0.3,0,0.5l0,14.6c0.1,1-0.5,1.8-1.5,2c-0.2,0-0.3,0-0.5,0h-5.2C368.9,66.6,368.4,66.4,368,66.1z
				 M374.5,50.8c0.1-0.4-0.2-0.8-0.6-0.8c-0.1,0-0.1,0-0.2,0h-3.2c-0.4-0.1-0.8,0.2-0.8,0.6c0,0.1,0,0.1,0,0.2v5.1h4.9L374.5,50.8z
				 M374.5,63.8v-5.9h-4.9v5.9c-0.1,0.4,0.2,0.8,0.6,0.8c0.1,0,0.1,0,0.2,0h3.2c0.4,0.1,0.8-0.2,0.8-0.6
				C374.5,63.9,374.5,63.8,374.5,63.8L374.5,63.8z M382.1,66.7c-0.2-0.2-0.3-0.5-0.3-0.8c0-0.7,0.4-1.1,1.2-1.1c1.1,0,1.8,0,2.2-0.1
				c0.3,0,0.7-0.1,1-0.3c0.3-0.2,0.4-0.5,0.5-0.8c0.4-1.7,0.5-3.4,0.6-5.1c0.1-2.7,0.2-5.3,0.2-7.7c0-0.6-0.4-1-1.1-1h-5.7
				c-0.4,1.1-0.9,2.2-1.6,3.1c-0.2,0.3-0.5,0.6-0.9,0.6c-0.2,0-0.4-0.1-0.5-0.2c-0.3-0.1-0.5-0.5-0.5-0.8c0-0.2,0.1-0.5,0.2-0.7
				c0.6-1.1,1.1-2.2,1.6-3.4c0.4-1.1,0.8-2.4,1.2-3.8c0.1-0.3,0.2-0.5,0.4-0.7c0.2-0.2,0.4-0.2,0.7-0.2c0.1,0,0.2,0,0.4,0
				c0.5,0.1,0.8,0.5,0.8,0.9c0,0.2,0,0.4-0.1,0.6c-0.1,0.5-0.3,1-0.4,1.5c-0.1,0.4-0.3,0.8-0.5,1.1h6.1c1.5,0,2.3,0.6,2.3,1.9
				c0,3.2-0.1,6.3-0.3,9.3c0,2-0.3,4-0.9,6c-0.3,0.7-0.8,1.2-1.4,1.5c-0.9,0.3-1.9,0.5-2.9,0.4c-0.5,0-0.9,0-1.2,0
				C382.8,67,382.4,66.9,382.1,66.7L382.1,66.7z M382.3,60c-0.2-0.3-0.5-0.6-0.6-0.9c-0.3-0.6-0.8-1.4-1.4-2.3l-0.4-0.6
				c-0.1-0.1-0.2-0.3-0.2-0.4c-0.1-0.1-0.1-0.3-0.1-0.4c0-0.3,0.1-0.5,0.3-0.7c0.2-0.2,0.4-0.3,0.7-0.2c0.3,0,0.7,0.2,0.9,0.5
				c0.4,0.5,0.8,1,1.2,1.5c0.7,0.9,1.2,1.9,1.5,2.9c0,0.3-0.1,0.5-0.3,0.7c-0.2,0.2-0.5,0.3-0.8,0.3C382.7,60.2,382.5,60.1,382.3,60
				L382.3,60z"/>
			<path id="Path_557" d="M395.5,54.8v2.9c0.1,1.8-0.1,3.6-0.4,5.3c-0.3,1.2-0.7,1.8-1.3,1.8c-0.2,0-0.5-0.1-0.7-0.2
				c-0.2-0.2-0.2-0.4-0.2-0.7c0-0.3,0.1-0.7,0.3-1c0.4-1,0.6-3.5,0.6-7.4v-1.2c0-0.8,0.3-1.1,0.8-1.1
				C395.2,53.2,395.5,53.8,395.5,54.8z M398.8,51.4v14.7c0,0.7-0.3,1-0.9,1s-0.9-0.3-0.9-1V51.4h-2.6c-0.8,0-1.2-0.3-1.2-1
				s0.4-0.9,1.2-0.9h7.2c0.8,0,1.2,0.3,1.2,0.9c0,0.6-0.4,1-1.2,1L398.8,51.4z M394,45.8c0-0.7,0.4-1,1.1-1h5.7c0.7,0,1.1,0.3,1.1,1
				c0,0.7-0.4,1-1.1,1h-5.7C394.4,46.8,394,46.5,394,45.8L394,45.8z M401,63.2c-0.6,0-0.9-0.3-0.9-1v-8c0-0.7,0.3-1,0.9-1
				c0.6,0,0.9,0.3,0.9,1v8C401.9,62.9,401.6,63.2,401,63.2L401,63.2z M416.3,64.9c0,0.7-0.4,1.1-1.3,1.1h-12.8
				c-0.9,0-1.4-0.4-1.4-1.1c0-0.7,0.5-1.1,1.4-1.1h5.8V53.2h-4.3c-0.9,0-1.3-0.4-1.3-1.1c0-0.7,0.4-1.1,1.3-1.1h4.3v-6
				c0-0.9,0.4-1.3,1.1-1.3s1.1,0.4,1.1,1.3v6h4.1c0.9,0,1.3,0.4,1.3,1.1c0,0.7-0.4,1.1-1.3,1.1h-4.1v10.6h4.9
				C415.9,63.8,416.3,64.2,416.3,64.9L416.3,64.9z"/>
			<path id="Path_558" d="M421,65.5c-0.4-0.5-0.6-1.2-0.5-1.9V47.2c-0.1-0.7,0.2-1.4,0.6-1.9c0.5-0.4,1.2-0.6,1.9-0.5h18
				c0.8,0,1.2,0.3,1.2,1c0,0.6-0.4,0.9-1.2,0.9h-17.2c-0.6,0-0.9,0.3-1,1v15.5c-0.1,0.5,0.3,0.9,0.8,1c0.1,0,0.1,0,0.2,0h17.7
				c0.8,0,1.2,0.3,1.2,1s-0.4,0.9-1.2,0.9h-18.4C422.2,66.2,421.5,66,421,65.5z M423.9,60.9v-2.9c-0.1-0.9,0.5-1.8,1.5-1.9
				c0.2,0,0.3,0,0.5,0h4c0.9-0.1,1.8,0.5,1.9,1.5c0,0.2,0,0.3,0,0.5v2.9c0.1,0.9-0.5,1.8-1.5,1.9c-0.2,0-0.3,0-0.5,0h-4
				c-0.9,0.1-1.8-0.5-2-1.5C423.9,61.2,423.9,61,423.9,60.9L423.9,60.9z M430,60.4v-1.9c0-0.4-0.2-0.7-0.7-0.7h-2.8
				c-0.4,0-0.7,0.2-0.7,0.6c0,0,0,0.1,0,0.1v1.9c0,0.4,0.2,0.7,0.6,0.7c0,0,0.1,0,0.1,0h2.8C429.8,61.1,430,60.9,430,60.4L430,60.4z
				 M426.2,54.2c-0.4-0.4-0.5-1-0.4-1.5v-2.4c-0.1-0.6,0.1-1.1,0.5-1.6c0.4-0.4,1-0.5,1.5-0.4h9.1c0.6-0.1,1.1,0.1,1.6,0.5
				c0.4,0.4,0.5,1,0.4,1.6v2.4c0.1,0.6-0.1,1.1-0.5,1.6c-0.4,0.4-1,0.5-1.5,0.4h-9.1C427.2,54.7,426.7,54.5,426.2,54.2L426.2,54.2z
				 M436.9,52.1v-1.4c0-0.5-0.3-0.7-0.8-0.8h-7.6c-0.5,0-0.7,0.2-0.7,0.7v1.5c0,0.5,0.2,0.7,0.7,0.7h7.6
				C436.6,52.9,436.9,52.6,436.9,52.1z M433,60.9v-2.9c-0.1-0.9,0.5-1.8,1.5-1.9c0.2,0,0.3,0,0.5,0h4.2c0.9-0.1,1.8,0.5,1.9,1.5
				c0,0.2,0,0.3,0,0.5v2.9c0.1,0.9-0.5,1.8-1.4,2c-0.2,0-0.3,0-0.5,0h-4.2c-0.9,0.1-1.8-0.5-1.9-1.5C433,61.2,433,61,433,60.9
				L433,60.9z M439.2,60.4v-1.9c0-0.2,0-0.4-0.2-0.5c-0.2-0.1-0.3-0.2-0.5-0.2h-3c-0.3,0-0.7,0.2-0.7,0.5c0,0.1,0,0.1,0,0.2v1.9
				c0,0.4,0.2,0.7,0.6,0.7c0,0,0.1,0,0.1,0h3C439,61.1,439.2,60.9,439.2,60.4L439.2,60.4z"/>
			<path id="Path_559" d="M447,65.9c-0.4-0.5-0.6-1.2-0.6-1.8v-5.6c-0.1-0.7,0.1-1.3,0.6-1.9c0.5-0.4,1.2-0.6,1.8-0.5h4.8
				c0.7-0.1,1.3,0.1,1.9,0.6c0.4,0.5,0.6,1.2,0.5,1.8V64c0.1,0.7-0.1,1.3-0.6,1.9c-0.5,0.4-1.2,0.6-1.8,0.5h-4.8
				C448.2,66.5,447.5,66.3,447,65.9z M453.8,64.3c0.2-0.3,0.3-0.6,0.2-0.9v-4.2c0-0.3,0-0.7-0.2-0.9c-0.3-0.2-0.6-0.3-0.9-0.2h-3.3
				c-0.3,0-0.7,0-0.9,0.2c-0.2,0.3-0.3,0.6-0.2,0.9v4.2c0,0.3,0,0.7,0.2,0.9c0.3,0.2,0.6,0.3,0.9,0.2h3.3
				C453.2,64.6,453.5,64.5,453.8,64.3L453.8,64.3z M450,53.3c-0.5-0.5-0.7-1.2-0.5-1.9v-3.9c-0.1-1.8,0.7-2.6,2.5-2.5h10.2
				c0.7-0.1,1.5,0.1,2,0.6c0.5,0.5,0.6,1.2,0.5,1.9v3.9c0.1,1.8-0.7,2.6-2.6,2.5H452C451.3,54,450.6,53.8,450,53.3L450,53.3z
				 M462.5,51.8c0.2-0.3,0.3-0.6,0.2-1V48c0-0.3,0-0.7-0.2-1c-0.3-0.2-0.6-0.3-1-0.2h-8.7c-0.4,0-0.7,0-1,0.2
				c-0.2,0.3-0.3,0.6-0.2,1v2.8c0,0.3,0,0.7,0.2,1c0.3,0.2,0.6,0.3,1,0.2h8.7C461.8,52.1,462.2,52,462.5,51.8L462.5,51.8z
				 M458.7,65.9c-0.4-0.5-0.6-1.2-0.5-1.8v-5.6c-0.1-0.7,0.1-1.3,0.6-1.9c0.5-0.4,1.2-0.6,1.8-0.5h4.8c0.7-0.1,1.3,0.1,1.9,0.6
				c0.4,0.5,0.6,1.2,0.6,1.8V64c0.1,0.7-0.1,1.3-0.6,1.9c-0.5,0.4-1.2,0.6-1.8,0.5h-4.9C459.9,66.5,459.3,66.3,458.7,65.9
				L458.7,65.9z M465.6,64.3c0.2-0.3,0.3-0.6,0.2-0.9v-4.2c0-0.3,0-0.7-0.2-0.9c-0.3-0.2-0.6-0.3-0.9-0.2h-3.3c-0.3,0-0.7,0-0.9,0.2
				c-0.2,0.3-0.3,0.6-0.2,0.9v4.2c0,0.3,0,0.7,0.2,0.9c0.3,0.2,0.6,0.3,0.9,0.2h3.3C465,64.6,465.4,64.5,465.6,64.3L465.6,64.3z"/>
			<path id="Path_560" d="M471.5,53c0-0.2,0.2-0.6,0.7-1.1c0.5-0.6,0.9-1.3,1-2.1c0.1-0.9,0.2-1.8,0.2-2.8v-0.5c0-0.5,0.2-1,0.6-1.4
				c0.5-0.4,1.2-0.5,1.8-0.5l1.9-0.2l3.4-0.6c0.3-0.1,0.5,0,0.7,0.2c0.2,0.2,0.3,0.5,0.3,0.7c0,0.4-0.3,0.6-0.8,0.7
				c-0.4,0.1-1.4,0.2-2.9,0.4l-2.3,0.3c-0.5,0-0.8,0.4-0.8,1.1l0,0.3h6.9c0.7,0,1,0.3,1,0.8s-0.3,0.8-1,0.8h-2V52
				c0,0.7-0.3,1.1-0.9,1.1s-0.9-0.4-0.9-1.1v-2.7h-3.1c-0.1,1.2-0.5,2.3-1,3.4c-0.6,0.9-1.1,1.4-1.7,1.4c-0.5,0.1-0.9-0.3-1-0.8
				C471.5,53.1,471.5,53.1,471.5,53z M471.5,66.1c0-0.5,0.5-0.7,1.5-0.8c1.1-0.1,2.1-0.2,3.1-0.4c1-0.2,1.9-0.3,2.7-0.5
				c0.3-0.1,0.5-0.1,0.8-0.2s0.4-0.1,0.5-0.1c0.7,0,1,0.3,1,1c0,0.3-0.3,0.6-0.8,0.7c-2.3,0.7-4.8,1.1-7.2,1.3l-0.8,0.1
				C471.8,67.2,471.5,66.8,471.5,66.1L471.5,66.1z M474.5,63.3c-0.4-0.4-0.6-1-0.5-1.6v-6c-0.1-0.6,0.1-1.2,0.5-1.7
				c0.5-0.4,1.1-0.5,1.6-0.4h14c0.6-0.1,1.2,0.1,1.7,0.5c0.4,0.4,0.6,1,0.5,1.6v6c0.1,0.6-0.1,1.2-0.5,1.7c-0.5,0.4-1.1,0.5-1.7,0.4
				h-14C475.6,63.9,475,63.7,474.5,63.3L474.5,63.3z M490.3,55.9c0-0.4-0.2-0.7-0.6-0.7c0,0-0.1,0-0.1,0h-12.8
				c-0.4,0-0.7,0.2-0.7,0.7v0.6h14.2L490.3,55.9z M490.3,59.4V58h-14.2v1.4H490.3z M490.3,61.5v-0.7h-14.2v0.7
				c0,0.4,0.2,0.7,0.6,0.7c0,0,0.1,0,0.1,0h12.8C490.1,62.3,490.3,62,490.3,61.5L490.3,61.5z M482.1,52.2c0-0.2,0.2-0.5,0.6-0.9
				c0.8-0.7,1.3-1.8,1.3-2.9l0-2.1c0-0.5,0.2-1,0.7-1.3c0.6-0.4,1.3-0.5,2-0.5c1.8-0.1,3.5-0.4,5.2-0.7l0.5,0c0.3,0,0.5,0,0.7,0.2
				c0.2,0.2,0.3,0.5,0.3,0.7c0,0.4-0.3,0.6-0.9,0.7c-0.7,0.1-2.5,0.3-5.3,0.6c-0.4,0.1-0.7,0.1-0.7,0.3c-0.1,0.4-0.2,0.8-0.2,1.2
				v0.1h7.8c0.7,0,1,0.3,1,0.8s-0.3,0.8-1,0.8h-2.6v2.6c0,0.8-0.3,1.2-1,1.2c-0.6,0-1-0.4-1-1.2v-2.6h-3.4c-0.1,1-0.5,1.9-1.1,2.7
				c-0.6,0.8-1.2,1.2-1.7,1.2c-0.5,0.1-0.9-0.3-1-0.7C482.1,52.4,482.1,52.3,482.1,52.2L482.1,52.2z M486.7,66
				c-1-0.3-1.5-0.6-1.5-0.9c-0.1-0.5,0.3-1,0.8-1.1c0.1,0,0.2,0,0.3,0l0.7,0.2c1.9,0.6,4,0.9,6,1c1.3,0.1,1.9,0.4,1.9,0.9
				c0,0.7-0.3,1-0.9,1l-2.8-0.3C489.7,66.7,488.2,66.4,486.7,66L486.7,66z"/>
			<path id="Path_561" d="M14.4,106.5V88.9c0-0.5,0.2-1.1,0.6-1.4c0.4-0.4,0.9-0.6,1.4-0.6h6c0.7,0,1.1,0.3,1.1,0.9
				s-0.4,0.9-1.1,0.9h-4.9c-0.6-0.1-1.1,0.3-1.2,0.9c0,0.1,0,0.2,0,0.3v16.5c0,0.7-0.3,1-0.9,1S14.4,107.2,14.4,106.5z"/>
			<path id="Path_562" d="M49.5,89.9c0,0.7-0.4,1-1.3,1h-9.8l-1.1,3.5h7.1c0.7-0.1,1.5,0.1,2.1,0.6c0.5,0.6,0.7,1.4,0.6,2.1v10.3
				c0.1,0.7-0.2,1.5-0.6,2.1c-0.6,0.5-1.3,0.7-2,0.6h-13c-1.9,0.1-2.8-0.8-2.7-2.6V97.1c-0.1-0.7,0.1-1.5,0.6-2.1
				c0.6-0.5,1.4-0.7,2.1-0.6h3.9l0.7-3.5h-8.5c-0.8,0-1.2-0.3-1.2-1s0.4-1,1.2-1h20.7C49.1,88.9,49.5,89.3,49.5,89.9z M32,96.4
				c-0.6-0.1-1.1,0.3-1.2,0.9c0,0.1,0,0.2,0,0.3v3.5h14.2v-3.5c0.1-0.6-0.3-1.1-0.9-1.2c-0.1,0-0.2,0-0.3,0H32z M44.9,103.1H30.8
				v3.7c-0.1,0.6,0.3,1.1,0.9,1.2c0.1,0,0.2,0,0.3,0h11.7c0.6,0.1,1.1-0.3,1.2-0.9c0-0.1,0-0.2,0-0.3L44.9,103.1z"/>
			<path id="Path_563" d="M52.4,109c0-0.4,0.2-0.8,0.5-1.1c1-1.4,1.7-3,2-4.7c0.1-0.8,0.2-1.7,0.2-2.5c0.1-1.2,0.1-2.9,0.2-5.2v-6
				c0-0.4,0.1-0.8,0.3-1.1c0.2-0.2,0.5-0.4,0.9-0.3c0.3,0,0.6,0.1,0.8,0.3c0.2,0.3,0.3,0.7,0.3,1.1l0,6.1c0,2.5-0.1,4.7-0.3,6.5
				c-0.1,1.4-0.3,2.7-0.7,4c-1,2.8-1.9,4.3-2.9,4.3C52.8,110.3,52.4,109.8,52.4,109z M63.4,106.5V90.2c0-0.9,0.4-1.4,1.1-1.4
				c0.7,0,1.1,0.5,1.1,1.4v16.3c0,0.9-0.4,1.4-1.1,1.4C63.8,107.9,63.5,107.4,63.4,106.5L63.4,106.5z M71.9,109.2V89.3
				c0-0.9,0.4-1.4,1.1-1.4c0.3,0,0.6,0.1,0.9,0.3c0.2,0.3,0.3,0.7,0.3,1.1v19.9c0,0.9-0.4,1.4-1.1,1.4S71.9,110.1,71.9,109.2
				L71.9,109.2z"/>
			<path id="Path_564" d="M102,105.1c0.1,1.4-0.1,2.8-0.5,4.2c-0.2,0.3-0.5,0.6-0.8,0.7c-0.4,0.2-0.9,0.3-1.3,0.2
				c-0.8,0.1-1.5-0.1-2.2-0.4c-0.4-0.4-0.6-0.9-0.5-1.4V91.2c0-0.4-0.2-0.6-0.7-0.7h-1.4c-0.2,0-0.4,0-0.6,0.2
				c-0.1,0.1-0.2,0.3-0.2,0.5v1.2c0,1.8-0.1,4.2,0,7.4c0.1,2.6-0.3,5.3-1.1,7.8c-0.8,2-1.6,3-2.6,3c-0.3,0-0.6-0.1-0.8-0.3
				c-0.2-0.2-0.3-0.5-0.3-0.8c0-0.4,0.2-0.7,0.5-1c0.2-0.3,0.5-0.5,0.7-0.8c-0.2,0.2-0.5,0.3-0.9,0.4l-3.1,0.6l-6.5,0.9
				c-0.3,0.1-0.6,0-0.7-0.2c-0.2-0.2-0.3-0.5-0.3-0.8c0-0.6,0.4-0.9,1.2-1l2.2-0.3l-0.6-3c-0.9-0.1-1.6-0.9-1.5-1.8c0,0,0-0.1,0-0.1
				v-2.1c0-0.5,0.1-1.1,0.5-1.5c0.4-0.4,0.9-0.5,1.4-0.5H88c0.9-0.1,1.8,0.5,1.9,1.5c0,0.2,0,0.3,0,0.5v2.1c0,0.5-0.1,1-0.4,1.4
				c-0.3,0.3-0.8,0.5-1.3,0.5l-0.6,2.3l1.3-0.2l0.5-0.1c0.2,0,0.5,0,0.6,0.2c0.2,0.2,0.2,0.4,0.2,0.7c0,0.1,0,0.2-0.1,0.3
				c0.8-1.4,1.2-2.9,1.3-4.5c0.1-1.2,0.2-3.5,0.2-6.8v-5.3c0-1.5,0.7-2.3,2.2-2.3h2.6c0.6-0.1,1.2,0.1,1.7,0.5
				c0.4,0.4,0.6,1,0.5,1.6v16.8c0,0.5,0.2,0.7,0.6,0.7c0.4,0,0.7-0.2,0.7-0.6c0,0,0-0.1,0-0.2l0.1-2.3c0-0.8,0.3-1.2,0.9-1.2
				C101.6,103.9,102,104.3,102,105.1z M78.5,96.2c0-0.6,0.3-0.9,1-0.9H90c0.6,0,1,0.3,1,0.9s-0.3,0.9-1,0.9H79.5
				C78.9,97.1,78.5,96.8,78.5,96.2L78.5,96.2z M79.5,92v-2.3c0-0.7,0.3-1,0.9-1c0.6,0,0.9,0.3,0.9,1v1.8c0,0.2,0,0.4,0.2,0.5
				c0.1,0.1,0.3,0.2,0.5,0.2h1.9v-3.8c0-0.7,0.3-1,0.9-1s0.9,0.3,0.9,1v3.8h2.1c0.2,0,0.3,0,0.5-0.1c0.1-0.1,0.2-0.3,0.2-0.5v-1.8
				c0-0.7,0.3-1.1,0.9-1.1c0.3,0,0.5,0.1,0.7,0.3c0.2,0.2,0.2,0.5,0.2,0.8V92c0.1,0.9-0.5,1.8-1.5,1.9c-0.2,0-0.3,0-0.5,0h-7
				c-0.9,0.1-1.8-0.5-1.9-1.5C79.5,92.4,79.5,92.2,79.5,92L79.5,92z M81.8,100.3c-0.1,0.2-0.2,0.4-0.2,0.7v0.6c0,0.2,0,0.5,0.2,0.7
				c0.2,0.1,0.4,0.2,0.7,0.2h4.7c0.2,0,0.5,0,0.7-0.2c0.1-0.2,0.2-0.4,0.2-0.7v-0.6c0-0.2,0-0.5-0.2-0.7c-0.2-0.1-0.4-0.2-0.7-0.2
				h-4.7C82.2,100,82,100.1,81.8,100.3L81.8,100.3z M83.6,107l2.3-0.3l0.4-2.5h-3.3L83.6,107z"/>
			<path id="Path_565" d="M113.4,107.9c-0.4,0.4-1,0.5-1.6,0.5h-2.5c-0.6,0-1.2-0.1-1.6-0.5c-0.4-0.4-0.5-1-0.5-1.6v-5.2
				c-0.6,1.2-1.2,1.9-1.6,1.9c-0.6,0-0.9-0.4-0.9-1.1c0-0.4,0.2-0.8,0.4-1.2c1.9-3,3.1-6.4,3.4-9.9h-2.5c-0.8,0-1.2-0.3-1.2-1
				c0-0.7,0.4-1,1.2-1h7.4c0.8,0,1.2,0.3,1.2,1c0,0.6-0.4,1-1.2,1h-2.7c-0.4,2-0.9,3.9-1.6,5.8h2.7c0.6-0.1,1.2,0.1,1.6,0.5
				c0.4,0.4,0.5,1,0.4,1.6v7.6C114,106.9,113.8,107.5,113.4,107.9z M112.1,99.3c0-0.2-0.1-0.4-0.2-0.5c-0.2-0.1-0.3-0.2-0.6-0.2
				h-1.7c-0.3,0-0.5,0.2-0.5,0.5v6.7c0,0.4,0.2,0.7,0.7,0.7h1.5c0.4,0,0.7-0.2,0.7-0.6c0,0,0-0.1,0-0.1L112.1,99.3z M128.2,106.4
				c0.1,0.9-0.1,1.9-0.5,2.7c-0.4,0.6-1.3,0.9-2.9,0.9c-0.8,0-1.6,0-2.3-0.2c-0.6-0.2-0.8-0.7-0.8-1.6v-5.5h-1.8
				c0,1.7-0.5,3.3-1.4,4.8c-1,1.3-2.4,2.3-3.9,2.8c-0.4,0.2-0.8,0.3-1.2,0.3c-0.5,0.1-0.9-0.3-1-0.7c0-0.1,0-0.2,0-0.3
				c0-0.5,0.3-0.8,1-1c1.3-0.4,2.5-1.1,3.4-2.1c0.8-1.1,1.2-2.4,1.2-3.7c-1.7,0-2.5-0.8-2.5-2.4v-9.5c-0.1-0.7,0.1-1.3,0.6-1.9
				c0.5-0.4,1.1-0.6,1.8-0.5h6.7c0.7-0.1,1.3,0.1,1.9,0.6c0.4,0.5,0.6,1.2,0.5,1.8v9.5c0.1,0.7-0.1,1.3-0.6,1.9
				c-0.5,0.4-1.1,0.6-1.8,0.5h-0.8v4.7c0,0.5,0.5,0.7,1.4,0.7c0.4,0,0.7,0,1-0.2c0.2-0.4,0.4-1,0.3-1.5c0-0.3,0.1-0.6,0.3-0.9
				c0.2-0.2,0.4-0.3,0.7-0.3C127.8,105.3,128.2,105.7,128.2,106.4L128.2,106.4z M117.2,92.6h7.4v-1.4c0-0.2-0.1-0.4-0.2-0.6
				c-0.2-0.1-0.4-0.2-0.6-0.2H118c-0.4-0.1-0.7,0.2-0.8,0.6c0,0.1,0,0.1,0,0.2L117.2,92.6z M117.2,94.4v2.3h7.4v-2.3H117.2z
				 M123.8,100.9c0.2,0,0.4-0.1,0.6-0.2c0.2-0.2,0.2-0.4,0.2-0.6v-1.6h-7.4v1.6c-0.1,0.4,0.2,0.7,0.6,0.8c0.1,0,0.1,0,0.2,0
				L123.8,100.9z"/>
			<path id="Path_566" d="M130.9,110.4c0-0.3,0.1-0.5,0.3-0.7c0.2-0.2,0.5-0.3,0.8-0.2h4.9c0.6,0.1,1.1-0.3,1.2-0.9
				c0-0.1,0-0.2,0-0.3V91.8c0-0.7,0.3-1.1,0.9-1.1c0.6,0,0.9,0.4,0.9,1.1v17.5c0,0.6-0.2,1.1-0.7,1.5c-0.4,0.4-0.9,0.5-1.4,0.5H132
				C131.3,111.3,130.9,111,130.9,110.4z"/>
			<path id="Path_567" d="M167.8,109.7v-2.9h-9.6c-0.7,0-1-0.3-1-0.9c0-0.6,0.3-0.9,1-0.9h9.6v-1.6h-6.2c-0.6,0.1-1.3-0.1-1.8-0.5
				c-0.4-0.4-0.6-1.1-0.5-1.6v-4.1c-0.1-0.6,0.1-1.2,0.5-1.7c0.5-0.4,1.1-0.6,1.7-0.5h14.5c0.6-0.1,1.3,0.1,1.8,0.5
				c0.4,0.5,0.6,1.1,0.5,1.6v4.1c0.1,0.6-0.1,1.2-0.5,1.7c-0.5,0.4-1.1,0.6-1.7,0.5h-6.3v1.6h9.7c0.7,0,1.1,0.3,1.1,0.9
				c0,0.6-0.4,0.9-1.1,0.9h-9.7v2.9c0,0.7-0.3,1.1-1,1.1c-0.5,0.1-1-0.3-1-0.8C167.8,109.9,167.8,109.8,167.8,109.7z M158.5,91.8
				v-1.6c-0.1-1,0.5-1.8,1.5-2c0.2,0,0.3,0,0.5,0h5.3c1-0.1,1.8,0.5,2,1.5c0,0.2,0,0.3,0,0.5v1.6c0,1.3-0.6,2-1.9,2h-5.4
				c-1,0.1-1.9-0.5-2-1.5C158.5,92.2,158.5,92,158.5,91.8z M165.8,91.4v-0.7c0-0.4-0.2-0.7-0.6-0.7c0,0-0.1,0-0.1,0h-3.9
				c-0.4,0-0.7,0.2-0.7,0.7v0.7c0,0.4,0.2,0.7,0.7,0.7h3.9C165.5,92.1,165.8,91.9,165.8,91.4z M167.8,96.6h-5.7
				c-0.4-0.1-0.7,0.2-0.8,0.6c0,0.1,0,0.1,0,0.2v1.1h6.4V96.6z M167.8,99.9h-6.4v1.2c0,0.5,0.3,0.7,0.8,0.8h5.7V99.9z M169.7,91.9
				v-1.7c-0.1-0.9,0.5-1.8,1.5-2c0.2,0,0.3,0,0.5,0h5.6c1-0.1,1.8,0.5,2,1.5c0,0.2,0,0.3,0,0.5v1.6c0.1,1-0.5,1.8-1.5,2
				c-0.2,0-0.3,0-0.5,0h-5.6c-0.9,0.1-1.8-0.5-1.9-1.5C169.7,92.2,169.7,92,169.7,91.9L169.7,91.9z M176.3,97.4
				c0-0.5-0.3-0.7-0.8-0.7h-5.7v1.8h6.5V97.4z M176.1,101.7c0.1-0.2,0.2-0.4,0.2-0.6v-1.2h-6.5v1.9h5.7
				C175.7,101.9,175.9,101.8,176.1,101.7L176.1,101.7z M177,91.9c0.1-0.1,0.2-0.3,0.2-0.5v-0.7c0-0.4-0.2-0.7-0.7-0.7h-4.1
				c-0.2,0-0.4,0.1-0.5,0.2c-0.1,0.1-0.2,0.3-0.2,0.5v0.7c0,0.4,0.2,0.7,0.7,0.7h4.1C176.7,92.1,176.9,92.1,177,91.9L177,91.9z"/>
			<path id="Path_568" d="M183.5,98.8c0-0.8,0.5-1.2,1.4-1.2h20.2c1,0,1.4,0.4,1.4,1.2c0,0.8-0.5,1.1-1.4,1.1h-20.2
				C184,100,183.5,99.6,183.5,98.8z"/>
			<path id="Path_569" d="M232.7,107.7c0.2,0.2,0.3,0.5,0.3,0.8c0,0.3-0.1,0.5-0.3,0.7c-0.2,0.2-0.5,0.3-0.8,0.2h-21.3
				c-0.3,0-0.6-0.1-0.8-0.2c-0.2-0.2-0.3-0.5-0.3-0.7c0-0.3,0.1-0.5,0.3-0.8c0.2-0.2,0.5-0.3,0.8-0.2h2.9V91.2
				c-0.1-0.7,0.1-1.4,0.5-1.9c0.5-0.5,1.2-0.6,1.9-0.5h10.6c0.7-0.1,1.4,0.1,1.9,0.5c0.4,0.5,0.6,1.3,0.5,1.9v16.2h2.9
				C232.2,107.5,232.5,107.6,232.7,107.7z M215.7,92v2.9h11.2V92c0.1-0.6-0.4-1.2-1-1.3c-0.1,0-0.2,0-0.3,0H217
				C216.1,90.7,215.6,91.2,215.7,92L215.7,92z M226.9,101.1v-4.2h-11.2v4.2H226.9z M215.7,103v4.5h11.2V103L215.7,103z"/>
			<path id="Path_570" d="M246.4,109.7v-2.9h-9.6c-0.7,0-1-0.3-1-0.9c0-0.6,0.3-0.9,1-0.9h9.6v-1.6h-6.2c-0.6,0.1-1.3-0.1-1.8-0.5
				c-0.4-0.4-0.6-1.1-0.5-1.6v-4.1c-0.1-0.6,0.1-1.2,0.5-1.7c0.5-0.4,1.1-0.6,1.7-0.5h14.5c0.6-0.1,1.3,0.1,1.8,0.5
				c0.4,0.5,0.6,1.1,0.5,1.6v4.1c0.1,0.6-0.1,1.2-0.5,1.7c-0.5,0.4-1.1,0.6-1.7,0.5h-6.3v1.6h9.7c0.7,0,1.1,0.3,1.1,0.9
				c0,0.6-0.4,0.9-1.1,0.9h-9.7v2.9c0,0.7-0.3,1.1-1,1.1c-0.5,0.1-1-0.3-1-0.8C246.4,109.9,246.4,109.8,246.4,109.7z M237.1,91.8
				v-1.6c-0.1-1,0.5-1.8,1.5-2c0.2,0,0.3,0,0.5,0h5.3c1-0.1,1.8,0.5,2,1.5c0,0.2,0,0.3,0,0.5v1.6c0,1.3-0.6,2-1.9,2h-5.4
				c-1,0.1-1.9-0.5-2-1.5C237.1,92.2,237.1,92,237.1,91.8z M244.4,91.4v-0.7c0-0.4-0.2-0.7-0.6-0.7c0,0-0.1,0-0.1,0h-3.9
				c-0.4,0-0.7,0.2-0.7,0.7v0.7c0,0.4,0.2,0.7,0.7,0.7h3.9C244.1,92.1,244.3,91.9,244.4,91.4z M246.4,96.6h-5.7
				c-0.4-0.1-0.7,0.2-0.8,0.6c0,0.1,0,0.1,0,0.2v1.1h6.4L246.4,96.6z M246.4,99.9H240v1.2c0,0.5,0.3,0.7,0.8,0.8h5.7L246.4,99.9z
				 M248.3,91.9v-1.7c-0.1-0.9,0.5-1.8,1.5-2c0.2,0,0.3,0,0.5,0h5.6c1-0.1,1.8,0.5,2,1.5c0,0.2,0,0.3,0,0.5v1.6c0.1,1-0.5,1.8-1.5,2
				c-0.2,0-0.3,0-0.5,0h-5.6c-0.9,0.1-1.8-0.5-1.9-1.5C248.2,92.2,248.2,92,248.3,91.9L248.3,91.9z M254.9,97.4
				c0-0.5-0.3-0.7-0.8-0.7h-5.7v1.8h6.5V97.4z M254.7,101.7c0.1-0.2,0.2-0.4,0.2-0.6v-1.2h-6.5v1.9h5.7
				C254.3,101.9,254.5,101.8,254.7,101.7L254.7,101.7z M255.6,91.9c0.1-0.1,0.2-0.3,0.2-0.5v-0.7c0-0.4-0.2-0.7-0.7-0.7H251
				c-0.2,0-0.4,0.1-0.5,0.2c-0.1,0.1-0.2,0.3-0.2,0.5v0.7c0,0.4,0.2,0.7,0.7,0.7h4.1C255.3,92.1,255.5,92.1,255.6,91.9L255.6,91.9z"
				/>
			<path id="Path_571" d="M264.7,102.2c0,1.3-0.2,2.6-0.5,3.9c-0.3,1.5-0.8,2.3-1.3,2.3c-0.6,0-0.9-0.3-0.9-0.8c0-0.4,0.1-0.7,0.3-1
				c0.2-0.5,0.3-1.1,0.5-1.6c0.1-0.7,0.2-1.5,0.3-2.2c0.1-0.9,0.3-1.3,0.9-1.3S264.7,101.6,264.7,102.2z M270.7,97.4
				c0.4,0.8,0.7,1.7,0.8,2.5c0,0.5-0.3,0.8-0.9,0.8c-0.4,0-0.8-0.4-1-1.2c-0.1,0-0.2,0-0.3,0l-0.3,0.1l-1.3,0.2v9.9
				c0,0.7-0.3,1.1-1,1.1c-0.6,0-1-0.4-1-1.1V100l-0.5,0.1c-0.7,0.1-1.5,0.2-2.4,0.2c-0.3,0-0.5,0-0.7-0.2c-0.2-0.2-0.2-0.5-0.2-0.7
				c0-0.3,0.1-0.6,0.4-0.7c0.3-0.2,0.7-0.3,1.1-0.2h0.6l1.7-2.6c-0.9-0.8-1.9-1.5-2.8-2.2c-0.5-0.4-0.8-0.8-0.8-1.1
				c0-0.6,0.3-0.9,1-0.9c0.3,0.1,0.7,0.2,0.9,0.5c0.6-1.1,1.2-2.4,1.7-3.7c0.1-0.5,0.6-0.9,1.1-0.9c0.7,0,1,0.3,1,0.9
				c0,0.7-0.8,2.2-2.5,4.6l1.4,1.2l1.5-2.7c0.1-0.2,0.3-0.4,0.5-0.6c0.2-0.1,0.4-0.2,0.6-0.2c0.7,0,1,0.3,1,0.9
				c-0.2,0.7-0.5,1.3-0.9,1.8c-0.6,1-1.5,2.2-2.7,3.8l-0.8,1l3.2-0.1c-0.2-0.5-0.4-0.9-0.5-1.4c0-0.5,0.3-0.7,0.8-0.7
				C270,96,270.3,96.5,270.7,97.4L270.7,97.4z M270.2,101.6c0.2,0.2,0.3,0.5,0.3,0.8c0.4,1.6,0.7,3.2,0.8,4.8
				c0.1,0.4-0.2,0.8-0.7,0.9c-0.1,0-0.1,0-0.2,0c-0.6,0-0.9-0.5-1-1.4L269,103l-0.1-0.3l-0.1-0.6c0-0.2,0-0.4,0.2-0.5
				c0.2-0.1,0.4-0.2,0.6-0.2C269.9,101.3,270.1,101.4,270.2,101.6z M285,105.7c0.2,0.2,0.3,0.5,0.3,0.8c0,1.7-0.3,2.7-1,3.1
				c-1.3,0.5-2.6,0.6-3.9,0.5c-0.8,0-1.6,0-2.4-0.3c-0.7-0.3-1.1-1-1-1.7v-4.4h-2.6c-0.6,0.1-1.2-0.1-1.7-0.5
				c-0.4-0.4-0.5-1-0.4-1.6v-5.5c0-0.8,0.3-1.2,1-1.2c0.6,0,0.9,0.4,0.9,1.2v4.8c0,0.2,0.1,0.5,0.2,0.7c0.2,0.2,0.4,0.2,0.7,0.2h1.9
				v-9c-1.5,0.3-3,0.4-4.5,0.5c-0.3,0-0.6-0.1-0.8-0.2c-0.2-0.2-0.3-0.4-0.3-0.7c0-0.6,0.6-0.9,1.8-1c1.3-0.1,2.5-0.2,3.7-0.4v-2.5
				c0-0.8,0.3-1.1,0.9-1.1c0.6,0,0.9,0.4,0.9,1.1v2.2c0.7-0.1,1.4-0.3,2-0.4c0.6-0.2,1-0.3,1.1-0.3c0.4-0.1,0.9-0.3,1.3-0.3
				c0.5-0.1,0.9,0.3,1,0.7c0,0.1,0,0.2,0,0.3c0,0.4-0.4,0.7-1.2,1c-1.4,0.4-2.8,0.7-4.2,0.9v9.3h2.4c0.4,0.1,0.8-0.2,0.9-0.7
				c0-0.1,0-0.2,0-0.2v-4.8c0-0.8,0.3-1.2,1-1.2s1,0.4,1,1.2v5.5c0.1,0.6-0.1,1.2-0.5,1.7c-0.4,0.4-1,0.6-1.6,0.5h-3.1v3.7
				c0,0.3,0.1,0.5,0.3,0.6c0.7,0.1,1.4,0.2,2.1,0.2c0.6,0.1,1.2,0,1.7-0.3c0.3-0.4,0.4-0.9,0.4-1.4c0-0.7,0.4-1.1,1-1.1
				C284.5,105.4,284.8,105.5,285,105.7L285,105.7z"/>
			<path id="Path_572" d="M289.4,109.7c-0.4-0.4-0.5-0.9-0.5-1.5V93.7c0-0.5,0.1-1.1,0.5-1.5c0.4-0.4,0.9-0.6,1.4-0.5h1.3
				c0.1-0.8,0.3-1.9,0.5-3.2c0-0.3,0.1-0.5,0.3-0.7c0.2-0.2,0.5-0.2,0.7-0.2c0.9,0,1.2,0.4,1.1,1.3c-0.1,1-0.4,1.9-0.7,2.9h1.9
				c1-0.1,1.8,0.5,2,1.5c0,0.2,0,0.3,0,0.5l0,14.6c0.1,1-0.5,1.8-1.5,2c-0.2,0-0.3,0-0.5,0h-5.2
				C290.3,110.3,289.8,110.1,289.4,109.7z M295.9,94.5c0.1-0.4-0.2-0.8-0.6-0.8c-0.1,0-0.1,0-0.2,0h-3.2c-0.4-0.1-0.8,0.2-0.8,0.6
				c0,0.1,0,0.1,0,0.2v5.1h4.9L295.9,94.5z M295.9,107.4v-5.9H291v5.9c-0.1,0.4,0.2,0.8,0.6,0.8c0.1,0,0.1,0,0.2,0h3.2
				c0.4,0.1,0.8-0.2,0.8-0.6C295.9,107.6,295.9,107.5,295.9,107.4L295.9,107.4z M303.5,110.4c-0.2-0.2-0.3-0.5-0.3-0.8
				c0-0.7,0.4-1.1,1.2-1.1c1.1,0,1.8,0,2.2-0.1c0.3,0,0.7-0.1,1-0.3c0.3-0.2,0.4-0.5,0.5-0.8c0.4-1.7,0.5-3.4,0.6-5.1
				c0.1-2.7,0.2-5.3,0.2-7.7c0-0.6-0.4-1-1.1-1h-5.7c-0.4,1.1-0.9,2.1-1.6,3.1c-0.2,0.3-0.5,0.6-0.9,0.6c-0.2,0-0.4-0.1-0.5-0.2
				c-0.3-0.1-0.5-0.5-0.5-0.8c0-0.2,0.1-0.5,0.2-0.7c0.6-1.1,1.1-2.2,1.6-3.4c0.4-1.1,0.8-2.4,1.2-3.8c0.1-0.3,0.2-0.5,0.4-0.7
				c0.2-0.2,0.4-0.2,0.7-0.2c0.1,0,0.2,0,0.4,0c0.5,0.1,0.8,0.5,0.8,0.9c0,0.2,0,0.4-0.1,0.6c-0.1,0.5-0.3,1-0.4,1.5
				c-0.1,0.4-0.3,0.8-0.5,1.1h6.1c1.5,0,2.3,0.6,2.3,1.9c0,3.2-0.1,6.3-0.3,9.3c0,2-0.3,4-0.9,6c-0.3,0.7-0.8,1.2-1.4,1.5
				c-0.9,0.3-1.9,0.5-2.9,0.4c-0.5,0-0.9,0-1.2,0C304.2,110.7,303.8,110.6,303.5,110.4L303.5,110.4z M303.7,103.6
				c-0.2-0.3-0.5-0.6-0.6-0.9c-0.3-0.6-0.8-1.4-1.4-2.3l-0.4-0.6c-0.1-0.1-0.2-0.3-0.2-0.4c-0.1-0.1-0.1-0.3-0.1-0.4
				c0-0.3,0.1-0.5,0.3-0.7c0.2-0.2,0.4-0.3,0.7-0.2c0.3,0,0.7,0.2,0.9,0.5c0.4,0.5,0.8,1,1.2,1.5c0.7,0.9,1.2,1.9,1.5,2.9
				c0,0.3-0.1,0.5-0.3,0.7c-0.2,0.2-0.5,0.3-0.8,0.3C304.1,103.9,303.9,103.8,303.7,103.6L303.7,103.6z"/>
			<path id="Path_573" d="M314.4,108.4c0-0.8,0.5-1.1,1.4-1.1h20.5c0.9,0,1.4,0.4,1.4,1.1c0,0.3-0.1,0.6-0.4,0.8
				c-0.3,0.2-0.7,0.3-1,0.3h-20.5C314.9,109.5,314.4,109.1,314.4,108.4z M316.2,90.6c0-0.8,0.4-1.1,1.3-1.1h17
				c0.4,0,0.7,0.1,1.1,0.3c0.3,0.2,0.4,0.5,0.4,0.8c0,0.3-0.1,0.6-0.4,0.8c-0.3,0.2-0.7,0.3-1.1,0.3h-17
				C316.6,91.7,316.2,91.3,316.2,90.6L316.2,90.6z M317.9,99c0-0.7,0.4-1.1,1.3-1.1h13.4c0.9,0,1.3,0.4,1.3,1.1s-0.4,1.1-1.3,1.1
				h-13.4C318.4,100.1,317.9,99.8,317.9,99L317.9,99z"/>
			<path id="Path_574" d="M353.1,102.4c-1.1-1.4-2.2-2.7-3.4-3.9c-0.1-0.1-0.3-0.3-0.4-0.5c-0.1-0.1-0.1-0.3-0.1-0.5
				c0-0.3,0.1-0.5,0.3-0.7c0.2-0.2,0.5-0.3,0.8-0.2c0.4,0.1,0.8,0.3,1.1,0.6c0.5,0.4,1.1,1,2,1.9c0.6,0.6,1.1,1.2,1.6,1.9
				c0.3,0.3,0.4,0.7,0.4,1.2c0,0.3-0.1,0.6-0.3,0.8c-0.2,0.2-0.4,0.3-0.7,0.3C354,103.2,353.4,102.9,353.1,102.4z"/>
			<path id="Path_575" d="M388.4,89.9c0.5,0.6,0.7,1.4,0.7,2.2v14.5c0.1,0.8-0.2,1.6-0.7,2.2c-0.6,0.5-1.4,0.7-2.2,0.7h-15.5
				c-0.8,0.1-1.6-0.2-2.2-0.7c-0.5-0.6-0.7-1.4-0.7-2.2V92.1c-0.1-0.8,0.2-1.6,0.7-2.2c0.6-0.5,1.4-0.7,2.2-0.6h15.5
				C387,89.2,387.8,89.4,388.4,89.9z M386.8,93c0.1-0.4-0.1-0.9-0.3-1.3c-0.4-0.3-0.9-0.4-1.3-0.3h-3.8v9c0,0.6,0.4,0.9,1.2,0.9
				c0.5,0.1,0.9,0,1.4-0.3c0.2-0.1,0.3-0.6,0.3-1.4c0-0.8,0.3-1.1,0.8-1.1c0.6,0,1,0.3,1,1c0.1,1-0.1,1.9-0.5,2.8
				c-0.3,0.6-1.2,1-2.5,1c-0.7,0-1.4,0-2.1-0.1c-0.4,0-0.8-0.1-1.1-0.3c-0.4-0.4-0.5-0.9-0.5-1.4V91.4h-2.9c0.1,2.6-0.1,5.2-0.4,7.8
				c-0.2,1.3-0.8,2.4-1.7,3.4c-0.9,0.9-1.6,1.4-2.1,1.4c-0.7,0-1-0.4-1-1.1c0-0.3,0.3-0.7,0.9-1.2c0.6-0.5,1.1-1.1,1.4-1.7
				c0.4-0.8,0.6-1.6,0.7-2.5c0.1-0.8,0.1-2.8,0.1-6h-2.6c-0.5-0.1-0.9,0.1-1.3,0.3c-0.3,0.4-0.4,0.8-0.3,1.3v12.7
				c-0.1,0.4,0.1,0.9,0.3,1.3c0.4,0.3,0.9,0.4,1.3,0.3h13.5c0.5,0.1,0.9-0.1,1.3-0.3c0.3-0.4,0.4-0.8,0.3-1.3L386.8,93z"/>
			<path id="Path_576" d="M396.6,109.6c0-0.4,0.3-0.8,0.7-0.9c1.6-0.6,3.1-1.6,4.3-2.9c0.9-1.2,1.4-2.7,1.4-4.2h-4.8
				c-0.6,0-0.9-0.3-0.9-0.8s0.3-0.8,0.9-0.8h6.8v-2.1h-8.3c0.1,3.1-0.2,6.2-0.8,9.3c-0.5,2-1.1,3-1.8,3c-0.3,0-0.6-0.1-0.8-0.3
				c-0.2-0.2-0.3-0.5-0.3-0.8c0.1-0.4,0.2-0.7,0.4-1.1c0.9-2.4,1.3-5,1.3-7.5l0.1-6c0-0.6,0.2-1.2,0.6-1.7c0.5-0.4,1-0.6,1.6-0.5
				h15.7c0.6,0,1.2,0.1,1.6,0.5c0.4,0.4,0.6,0.9,0.5,1.5v1.7c0,1.4-0.7,2.1-2.2,2H407v2.1h8.1c0.7,0,1,0.3,1,0.8
				c0,0.6-0.3,0.8-1,0.8h-10.3l-0.2,1.9h7.3c1.3,0,2,0.6,2,1.8c0,2.2-0.4,3.6-1.3,4.3c-0.9,0.7-2.5,1-5,1c-0.9,0-1.3-0.3-1.3-1
				s0.5-1,1.4-1l1.4,0c0.5,0,0.9,0,1.3-0.2c0.3-0.1,0.6-0.3,0.8-0.6c0.4-0.6,0.5-1.3,0.5-2c0-0.4-0.3-0.7-0.8-0.7h-6.9
				c-0.7,1.6-1.8,2.9-3.3,3.9c-1,0.8-2.1,1.3-3.3,1.6c-0.5,0.1-1-0.3-1-0.7C396.6,109.8,396.6,109.7,396.6,109.6z M393.3,89.3
				c0-0.6,0.4-0.9,1.2-0.9h20.4c0.8,0,1.2,0.3,1.2,0.9s-0.4,0.9-1.2,0.9h-20.4C393.7,90.3,393.3,90,393.3,89.3z M412.7,95.3v-0.7
				c0-0.5-0.3-0.8-0.9-0.8h-14.2c-0.6,0-0.9,0.3-0.9,1v1.4h15.1c0.4,0.1,0.8-0.2,0.9-0.7C412.7,95.4,412.7,95.3,412.7,95.3
				L412.7,95.3z"/>
			<path id="Path_577" d="M419.2,108.5c0-0.2,0.1-0.3,0.2-0.5c0.2-0.2,0.4-0.4,0.6-0.6c1.3-1.2,2.2-2.7,2.8-4.3
				c0.1-0.5,0.2-0.9,0.3-1.4c0.1-0.6,0.2-1.4,0.2-2.4h-2.8c-0.8,0-1.2-0.3-1.2-1c0-0.6,0.4-1,1.2-1h2.9l0-2.9l0-0.4h-2.4
				c-0.8,0-1.2-0.3-1.2-1s0.4-1,1.2-1h2.4l0-3.2c0-0.8,0.3-1.2,1-1.2c0.7,0,1,0.4,1,1.2l0,3.3h2.1c0.8,0,1.2,0.3,1.2,1
				c0,0.7-0.4,1-1.2,1h-2.1l0,3l0,0.3h2.6c0.8,0,1.2,0.3,1.2,1c0,0.7-0.4,1-1.2,1h-2.6c-0.1,1.1-0.2,2.1-0.3,2.9
				c0.2-0.2,0.4-0.3,0.6-0.3c0.5,0.1,0.9,0.3,1.2,0.7c1.5,1.5,2.3,2.5,2.3,2.9c0,0.6-0.3,0.9-1,0.9c-0.3,0-0.6-0.2-1-0.7l-1-1.2
				l-0.4-0.5c-0.2-0.3-0.4-0.5-0.6-0.7c-0.1-0.1-0.2-0.2-0.3-0.3c-0.4,1.7-1.1,3.3-2.1,4.7c-0.9,1.3-1.7,1.9-2.3,1.9
				c-0.5,0.1-1-0.3-1.1-0.8C419.1,108.7,419.1,108.6,419.2,108.5z M425.8,109.6c0-0.5,0.4-0.9,1.2-1.1c1.4-0.3,2.7-1.1,3.7-2.2
				c0.8-1,1.2-2.3,1.2-3.6c-1.6,0-2.4-0.8-2.3-2.4v-9.4c-0.1-0.7,0.1-1.3,0.6-1.9c0.5-0.4,1.1-0.6,1.8-0.5h6.7
				c0.7-0.1,1.3,0.1,1.9,0.6c0.4,0.5,0.6,1.2,0.5,1.8v9.4c0.1,0.7-0.1,1.4-0.6,1.9c-0.5,0.4-1.1,0.6-1.8,0.5h-0.9v4.6
				c0,0.6,0.4,0.9,1.3,0.9c0.8,0,1.3-0.1,1.4-0.4c0.1-0.4,0.2-0.9,0.2-1.3c0-0.3,0.1-0.6,0.3-0.9c0.2-0.2,0.4-0.3,0.7-0.3
				c0.6,0,0.9,0.4,0.9,1.1c0.1,0.9-0.1,1.9-0.5,2.8c-0.4,0.6-1.4,0.9-3,0.9c-0.9,0.1-1.9,0-2.7-0.4c-0.4-0.3-0.6-0.8-0.6-1.4v-5.7
				h-1.9c-0.1,1.6-0.5,3.2-1.4,4.6c-1,1.3-2.3,2.3-3.9,2.8c-0.6,0.3-1.2,0.4-1.8,0.5c-0.5,0.1-0.9-0.3-1-0.8
				C425.8,109.7,425.8,109.6,425.8,109.6L425.8,109.6z M438.9,91.1c0-0.2-0.1-0.4-0.2-0.6c-0.2-0.1-0.4-0.2-0.6-0.2h-5.8
				c-0.5,0-0.8,0.3-0.8,0.8v1.5h7.4L438.9,91.1z M438.9,96.6v-2.4h-7.4v2.4L438.9,96.6z M438.9,100.1v-1.8h-7.4v1.8
				c0,0.2,0.1,0.4,0.2,0.6c0.2,0.1,0.4,0.2,0.6,0.2h5.8C438.6,100.9,438.9,100.7,438.9,100.1L438.9,100.1z"/>
			<path id="Path_578" d="M445.5,99.6c-0.2-0.1-0.2-0.3-0.2-0.5c0-0.2,0.1-0.4,0.2-0.5c0.2-0.1,0.4-0.2,0.7-0.2h5.4v-0.9h-4.4
				c-0.2,0-0.4,0-0.6-0.2c-0.1-0.1-0.2-0.3-0.2-0.5c0-0.5,0.3-0.7,0.8-0.7h4.4v-0.8h-4.1c-0.6,0-0.8-0.2-0.8-0.7s0.3-0.7,0.8-0.7
				h4.1V93h-5.3c-0.6,0-0.8-0.2-0.8-0.7c0-0.5,0.3-0.7,0.8-0.7h5.3v-0.9h-4c-0.2,0-0.5-0.1-0.6-0.2c-0.2-0.1-0.2-0.3-0.2-0.6
				c0-0.2,0.1-0.4,0.2-0.5c0.2-0.1,0.4-0.2,0.7-0.2h4v-0.7c0-0.6,0.3-1,0.9-1c0.3,0,0.5,0.1,0.7,0.3c0.2,0.2,0.3,0.5,0.2,0.7v0.7
				h3.4c0.5,0,1,0.1,1.4,0.4c0.3,0.3,0.5,0.8,0.5,1.3v0.6h0.8c0.6,0,0.8,0.2,0.8,0.7c0,0.5-0.3,0.7-0.8,0.7h-0.8v0.6
				c0,1.1-0.6,1.7-1.8,1.7h-3.4v0.8h4.7c0.6,0,0.9,0.2,0.9,0.7c0,0.5-0.3,0.7-0.9,0.7h-4.7v0.9h6c0.2,0,0.5,0.1,0.7,0.2
				c0.2,0.1,0.3,0.3,0.2,0.5c0,0.5-0.3,0.7-0.9,0.7h-13.2C445.9,99.9,445.7,99.8,445.5,99.6z M445.3,109c0-0.6,0.5-0.8,1.4-0.8
				l0.8,0.1l11.5-0.4c0.6,0,0.8,0.2,0.8,0.7c0,0.6-0.5,0.9-1.4,0.9l-12.2,0.5C445.7,110,445.3,109.7,445.3,109L445.3,109z
				 M446.4,105.1v-2.6c0-0.5,0.1-1,0.5-1.4c0.4-0.3,0.8-0.5,1.3-0.5h8.7c0.5,0,1,0.1,1.4,0.5c0.3,0.4,0.5,0.9,0.5,1.4v2.6
				c0,0.5-0.1,1-0.5,1.4c-0.4,0.3-0.9,0.5-1.4,0.5h-8.7c-0.9,0.1-1.7-0.5-1.8-1.4C446.4,105.4,446.4,105.3,446.4,105.1L446.4,105.1z
				 M451.5,102.2h-2.8c-0.1,0-0.3,0-0.4,0.1c-0.1,0.1-0.1,0.3-0.1,0.4v0.5h3.3L451.5,102.2z M451.5,104.5h-3.3v0.5
				c0,0.2,0.1,0.5,0.4,0.5c0,0,0.1,0,0.1,0h2.8L451.5,104.5z M456.7,91.2c0-0.1,0-0.2-0.1-0.3c-0.1-0.1-0.2-0.1-0.4-0.1h-2.8v0.9
				h3.3L456.7,91.2z M456.5,93.7c0.1-0.1,0.1-0.2,0.2-0.4V93h-3.3v0.8h2.8C456.3,93.8,456.4,93.8,456.5,93.7L456.5,93.7z
				 M456.8,102.7c0-0.1,0-0.3-0.1-0.4c-0.1-0.1-0.3-0.1-0.4-0.1h-2.9v1h3.5L456.8,102.7z M456.8,105l0-0.5h-3.5v1h2.9
				C456.6,105.5,456.8,105.3,456.8,105L456.8,105z M461,104.4V90.8c0-0.8,0.3-1.1,0.9-1.1s0.9,0.4,0.9,1.1v13.6
				c0,0.8-0.3,1.2-0.9,1.2C461.3,105.6,461,105.2,461,104.4L461,104.4z M462.2,109.5c0-0.7,0.4-1,1.2-1h1.1c0.7,0,1.1-0.4,1.1-1.2
				V89c0-0.8,0.3-1.3,1-1.3c0.7,0,1,0.4,1,1.3v18.8c0.1,1.9-0.8,2.8-2.7,2.7h-1.5C462.6,110.6,462.2,110.2,462.2,109.5L462.2,109.5z
				"/>
			<path id="Path_579" d="M481.6,103.6c-0.1-0.2-0.2-0.4-0.2-0.6c0-0.2,0.2-0.4,0.5-0.7c1.3-1,2-1.8,2-2.4c0-0.2,0-0.2-0.1-0.2
				c-0.1,0-0.1,0-0.2,0c-0.1,0-0.1,0-0.2,0c-1.5,0-2.3-0.7-2.3-2.1c0-0.6,0.2-1.2,0.7-1.6c0.5-0.4,1.1-0.6,1.8-0.6
				c1.6,0,2.5,1,2.5,2.9c0,1.4-0.5,2.8-1.5,3.8c-0.9,1.1-1.7,1.6-2.3,1.6C482,103.8,481.8,103.7,481.6,103.6z"/>
			<path id="Path_580" d="M5.6,151.7c0.1,0.7-0.1,1.4-0.5,2c-0.6,0.5-1.3,0.7-2,0.6H1.8c-0.3,0-0.6-0.1-0.8-0.3
				c-0.2-0.2-0.3-0.5-0.3-0.8c0-0.3,0.1-0.6,0.3-0.8c0.2-0.2,0.5-0.3,0.8-0.3h0.8c0.6,0,1-0.3,1-1v-5.4c-0.8,0.3-1.7,0.5-2.6,0.7
				c-0.7,0-1-0.3-1-1c0-0.6,0.4-0.9,1.1-1.1l2.5-0.6V138H1.3c-0.3,0-0.6-0.1-0.9-0.2c-0.2-0.2-0.3-0.5-0.3-0.7c0-0.6,0.4-1,1.2-1
				h2.3v-3.7c0-0.8,0.3-1.3,1-1.3c0.7,0,1,0.4,1,1.3v3.7h1.5c0.8,0,1.2,0.3,1.2,1c0,0.3-0.1,0.6-0.3,0.7c-0.3,0.2-0.6,0.3-0.9,0.2
				H5.6v5l1.3-0.4l0.7-0.2c0.6,0,0.9,0.3,0.9,1c0,0.5-0.4,1-0.9,1.1l-1.9,0.6L5.6,151.7z M23.3,149.1c0,1.3-0.2,2.5-0.6,3.7
				c-0.4,1-1,1.4-1.7,1.4c-1.1-0.1-2.1-0.6-2.9-1.4c-1.2-1.1-2.2-2.5-3-3.9c-1.3,1-2.6,2-4.1,2.7c-0.9,0.6-1.8,1-2.9,1.3
				c-0.5,0.1-1-0.3-1.1-0.8c0-0.1,0-0.2,0-0.3c0-0.3,0.2-0.7,0.5-0.8c0.5-0.4,1.1-0.7,1.6-0.9c1.8-0.8,3.4-1.9,5-3.1l-0.2-0.5
				c-0.4-1-0.7-2-0.9-3.1c-0.2-1.1-0.4-2.4-0.5-4l-1.5,0.2l-1.8,0.2c-0.3,0.1-0.6,0-0.8-0.2c-0.2-0.2-0.3-0.5-0.3-0.8
				c0-0.6,0.4-0.9,1.1-1l0.9-0.1c0.2,0,0.5-0.1,0.9-0.1l1.4-0.2c-0.1-1.6-0.2-3.2-0.2-4.7c0-0.9,0.4-1.4,1.1-1.4
				c0.7,0,1.1,0.4,1.1,1.2v0.9c0,0.9,0,2.1,0.1,3.7l3.6-0.4l4-0.5c0.2-0.1,0.5,0,0.7,0.2c0.2,0.2,0.3,0.5,0.2,0.8c0,0.6-0.4,1-1.1,1
				l-3.8,0.4l-3.4,0.4c0.1,1.4,0.3,2.7,0.5,3.7c0.2,0.9,0.4,1.9,0.8,2.8c1.2-1.2,2.2-2.5,3.1-3.9c0.2-0.3,0.4-0.5,0.6-0.8
				c0.2-0.2,0.4-0.2,0.7-0.2c0.3,0,0.5,0.1,0.7,0.3c0.2,0.2,0.3,0.4,0.3,0.7c0,0.3-0.1,0.6-0.3,0.9c-0.3,0.5-0.7,1.1-1.1,1.6
				c-1,1.3-2,2.4-3.1,3.5c0.6,1,1.2,2,2,2.9c0.7,0.8,1.4,1.3,1.8,1.3c0.4,0,0.6-0.9,0.8-2.6c0.1-0.7,0.4-1,1.1-1
				C23,148,23.3,148.3,23.3,149.1L23.3,149.1z M17.7,134.3c-0.7-0.8-1-1.2-1-1.5c0-0.3,0.1-0.5,0.2-0.7c0.2-0.2,0.5-0.3,0.8-0.2
				c0.3,0,0.8,0.3,1.6,1s1.1,1.3,1.1,1.7c0.1,0.5-0.3,1-0.8,1c-0.1,0-0.2,0-0.3,0c-0.3,0-0.8-0.3-1.3-0.9L17.7,134.3z"/>
			<path id="Path_581" d="M36.9,141c-0.4,0-0.7,0.1-1.2,0.2s-0.9,0.1-1.3,0.2v3.6h3.7c0.8,0,1.2,0.3,1.2,0.9s-0.4,0.9-1.2,0.9h-3.7
				v4.1l4.9-0.5c0.7-0.1,1,0.2,1,0.9c0,0.2-0.1,0.4-0.2,0.6c-0.2,0.2-0.4,0.3-0.6,0.3c-3.2,0.5-7.2,1-11.9,1.5l-0.3,0
				c-0.7,0-1-0.3-1-1c0-0.3,0.1-0.5,0.2-0.7c0.2-0.2,0.5-0.3,0.8-0.3l5-0.6v-4.3h-4c-0.8,0-1.2-0.3-1.2-1c0-0.6,0.4-0.9,1.2-0.9h4
				v-3.4c-1.9,0.2-3.4,0.4-4.6,0.5c-0.4,0.1-0.7,0-1-0.2c-0.2-0.2-0.3-0.6-0.3-0.9c0-0.3,0.1-0.5,0.3-0.7c0.3-0.2,0.6-0.3,0.9-0.3
				c0.3,0,0.9-0.1,1.8-0.1c0.8-2.2,1.4-4,1.7-5.3h-3.2c-0.3,0-0.6-0.1-0.9-0.2c-0.2-0.2-0.3-0.5-0.3-0.7c0-0.3,0.1-0.5,0.3-0.7
				c0.3-0.2,0.6-0.3,0.9-0.2h11.1c0.8,0,1.2,0.3,1.2,1s-0.4,1-1.2,1h-5.6c-0.6,1.9-1.3,3.7-2,5.2c2.2-0.2,4-0.4,5.5-0.5l-0.5-0.8
				c-0.1-0.2-0.3-0.5-0.3-0.6c-0.1-0.1-0.1-0.3-0.1-0.5c0-0.5,0.3-0.8,0.9-0.8c0.4,0,1.2,0.8,2.2,2.3c0.7,0.9,1.2,1.9,1.5,2.9
				c0,0.6-0.4,0.9-1.1,0.9c-0.2,0-0.4-0.1-0.6-0.2c-0.2-0.2-0.4-0.5-0.6-0.7l-0.5-0.8L36.9,141z M42.5,149.4c-0.7,0-1-0.4-1-1.1
				v-13.6c0-0.8,0.3-1.2,1-1.2c0.7,0,1,0.4,1,1.2v13.6C43.6,149,43.2,149.4,42.5,149.4L42.5,149.4z M48.4,132.5v19.2
				c0,0.7-0.2,1.4-0.6,1.9c-0.5,0.5-1.2,0.7-1.9,0.7h-2.4c-0.8,0-1.3-0.3-1.3-1c0-0.7,0.4-1,1.3-1.1h1.6c0.3,0,0.6-0.1,0.8-0.3
				c0.2-0.2,0.3-0.5,0.3-0.8v-18.6c0-0.8,0.4-1.2,1.1-1.2C48,131.4,48.4,131.7,48.4,132.5L48.4,132.5z"/>
			<path id="Path_582" d="M60.9,147.7c0,0.5-0.5,0.9-1.5,1.2c-1.9,0.7-3.8,1.2-5.8,1.4c-0.3,0-0.6,0-0.8-0.2
				c-0.2-0.2-0.3-0.5-0.2-0.7c0-0.3,0.1-0.6,0.3-0.8c0.2-0.1,0.5-0.2,0.8-0.3c0.4-0.1,0.9-0.2,1.5-0.3l0.6-0.2v-8.5h-2
				c-0.8,0-1.2-0.3-1.2-1c0-0.7,0.4-1,1.2-1h2v-4.8c0-0.3,0.1-0.7,0.3-0.9c0.2-0.2,0.5-0.3,0.8-0.3c0.3,0,0.6,0.1,0.8,0.3
				c0.2,0.3,0.3,0.6,0.3,0.9v4.8h1.6c0.8,0,1.3,0.3,1.3,1c0,0.7-0.4,1-1.3,1h-1.6v8.1l1.6-0.4c0.2-0.1,0.5-0.1,0.7-0.1
				C60.6,146.8,60.9,147.1,60.9,147.7z M75.3,137.2c-0.1,2.4-0.1,4.8-0.3,7.2c-0.1,2.3-0.3,4-0.4,5.3c-0.1,0.9-0.3,1.8-0.5,2.6
				c-0.3,0.6-0.8,1.1-1.4,1.4c-0.9,0.3-1.9,0.5-2.9,0.4c-0.4,0-0.7,0-0.9,0c-0.3,0-0.7-0.1-0.9-0.3c-0.2-0.2-0.3-0.5-0.3-0.8
				c0-0.3,0.1-0.6,0.4-0.8c0.4-0.2,0.8-0.3,1.2-0.3c0.7,0,1.4,0,2-0.2c0.4-0.1,0.7-0.2,0.9-0.5c0.2-0.4,0.3-0.8,0.4-1.2
				c0.2-0.8,0.2-1.6,0.3-2.4c0.2-3.6,0.4-6.8,0.4-9.6c0-0.3,0-0.7-0.3-0.9c-0.3-0.2-0.6-0.3-0.9-0.3h-7.5c-0.5,1.2-1.2,2.4-1.9,3.5
				c-0.6,0.8-1.1,1.2-1.4,1.2c-0.5,0.1-0.9-0.2-1-0.7c0-0.1,0-0.2,0-0.2c0-0.3,0.2-0.6,0.4-0.9c1.5-2,2.5-4.4,3.1-6.8l0.3-1.1
				c0.1-0.5,0.5-0.8,1-0.7c0.7,0,1,0.3,1,0.9c-0.1,1-0.4,1.9-0.8,2.8h7.5C74.5,134.9,75.4,135.6,75.3,137.2L75.3,137.2z M70.2,147.6
				c-2.3,0.7-4.5,1.2-6.9,1.6c-0.3,0.1-0.6,0-0.8-0.2c-0.2-0.2-0.3-0.5-0.3-0.8c0-0.3,0.1-0.5,0.3-0.7c0.3-0.2,0.6-0.4,1-0.4l4.9-1
				l1.7-0.3c0.1,0,0.2,0,0.3,0c0.4,0,0.7,0.3,0.8,0.8C71.2,147,70.9,147.4,70.2,147.6L70.2,147.6z M64.1,142.8
				c-0.8,0-1.2-0.3-1.2-0.9c0-0.7,0.4-1,1.2-1h5.5c0.8,0,1.2,0.3,1.2,1c0,0.6-0.4,0.9-1.2,0.9H64.1z"/>
			<path id="Path_583" d="M101.9,145.3c0,0.6-0.3,0.9-1,0.9H79.7c-0.7,0-1-0.3-1-0.9c0-0.6,0.3-0.9,1-0.9h4.9l-0.5-1.4l-0.1-0.3
				c0-0.2,0.1-0.3,0.2-0.5h-4.1c-0.6,0-1-0.3-1-0.9c0-0.6,0.3-0.9,1-0.9h9.1v-1.7H82c-0.6,0-0.9-0.3-0.9-0.9c0-0.6,0.3-0.8,0.9-0.8
				h7.2v-1.6h-8.9c-0.6,0-1-0.3-1-0.9c0-0.6,0.3-0.8,1-0.8h4.5l-0.4-1.1c0-0.1-0.1-0.3-0.2-0.4c-0.1-0.1-0.1-0.3-0.1-0.4
				c0-0.5,0.4-0.8,1.1-0.8c0.6,0,1.3,0.9,1.9,2.7h6.3l0.4-1.2c0.1-0.4,0.3-0.8,0.5-1.2c0.2-0.2,0.6-0.4,0.9-0.3
				c0.7,0,1.1,0.3,1.1,0.9c0,0.2-0.1,0.5-0.2,0.7c-0.2,0.4-0.4,0.8-0.6,1.2h4.7c0.6,0,0.9,0.3,0.9,0.9c0,0.6-0.3,0.8-0.9,0.8h-9.1
				v1.6h7.3c0.6,0,0.9,0.3,0.9,0.8c0,0.6-0.3,0.9-0.9,0.9h-7.3v1.7h9.2c0.6,0,1,0.3,1,0.9c0,0.6-0.3,0.9-1,0.9h-3.9
				c0.1,0.1,0.1,0.3,0.1,0.4c0,0.2-0.1,0.4-0.2,0.6c-0.1,0.3-0.3,0.7-0.4,1.1h4.8C101.5,144.5,101.9,144.8,101.9,145.3z M99.7,149.9
				v1.6c0,0.6-0.2,1.3-0.6,1.8c-0.5,0.4-1.2,0.6-1.8,0.6h-14c-1.7,0.1-2.5-0.6-2.4-2.4v-1.6c-0.1-0.7,0.1-1.3,0.6-1.9
				c0.5-0.4,1.2-0.6,1.8-0.5h14C99,147.4,99.8,148.2,99.7,149.9L99.7,149.9z M97.6,151.1v-0.8c0.1-0.5-0.2-0.9-0.7-0.9
				c-0.1,0-0.2,0-0.3,0H84c-0.7,0-1,0.3-1,0.9v0.8c-0.1,0.5,0.2,0.9,0.7,0.9c0.1,0,0.2,0,0.3,0h12.6C97.3,152,97.6,151.7,97.6,151.1
				L97.6,151.1z M86.7,144.5h7.3l0.5-1.6c0.1-0.2,0.2-0.4,0.3-0.6h-9c0.2,0.2,0.4,0.5,0.4,0.8L86.7,144.5z"/>
			<path id="Path_584" d="M106,153.4c-0.4-0.4-0.5-0.9-0.5-1.5v-14.6c0-0.5,0.1-1.1,0.5-1.5c0.4-0.4,0.9-0.6,1.4-0.5h1.3
				c0.1-0.8,0.3-1.9,0.5-3.2c0-0.3,0.1-0.5,0.3-0.7c0.2-0.2,0.5-0.2,0.7-0.2c0.9,0,1.2,0.4,1.1,1.3c-0.1,1-0.4,1.9-0.7,2.9h1.9
				c1-0.1,1.8,0.5,2,1.5c0,0.2,0,0.3,0,0.5l0,14.6c0.1,1-0.5,1.8-1.5,2c-0.2,0-0.3,0-0.5,0h-5.2C106.9,153.9,106.4,153.7,106,153.4z
				 M112.5,138.2c0.1-0.4-0.2-0.8-0.6-0.8c-0.1,0-0.1,0-0.2,0h-3.2c-0.4-0.1-0.8,0.2-0.8,0.6c0,0.1,0,0.1,0,0.2v5.1h4.9L112.5,138.2
				z M112.5,151.1v-5.9h-4.9v5.9c-0.1,0.4,0.2,0.8,0.6,0.8c0.1,0,0.1,0,0.2,0h3.2c0.4,0.1,0.8-0.2,0.8-0.6
				C112.6,151.2,112.6,151.2,112.5,151.1L112.5,151.1z M120.1,154c-0.2-0.2-0.3-0.5-0.3-0.8c0-0.7,0.4-1.1,1.2-1.1
				c1.1,0,1.8,0,2.2-0.1c0.3,0,0.7-0.1,1-0.3c0.3-0.2,0.4-0.5,0.5-0.8c0.4-1.7,0.5-3.4,0.6-5.1c0.1-2.7,0.2-5.3,0.2-7.7
				c0-0.6-0.4-1-1.1-1h-5.7c-0.4,1.1-0.9,2.2-1.6,3.1c-0.2,0.3-0.5,0.6-0.9,0.6c-0.2,0-0.4-0.1-0.5-0.2c-0.3-0.1-0.5-0.5-0.5-0.8
				c0-0.2,0.1-0.5,0.2-0.7c0.6-1.1,1.1-2.2,1.6-3.4c0.4-1.1,0.8-2.4,1.2-3.8c0.1-0.3,0.2-0.5,0.4-0.7c0.2-0.2,0.4-0.2,0.7-0.2
				c0.1,0,0.2,0,0.4,0c0.5,0.1,0.8,0.5,0.8,0.9c0,0.2,0,0.4-0.1,0.6c-0.1,0.5-0.3,1-0.4,1.5c-0.1,0.4-0.3,0.8-0.5,1.1h6.1
				c1.5,0,2.3,0.6,2.3,1.9c0,3.2-0.1,6.3-0.3,9.3c0,2-0.3,4-0.9,6c-0.3,0.7-0.8,1.2-1.4,1.5c-0.9,0.3-1.9,0.5-2.9,0.4
				c-0.5,0-0.9,0-1.2,0C120.8,154.3,120.4,154.2,120.1,154L120.1,154z M120.3,147.3c-0.2-0.3-0.5-0.6-0.6-0.9
				c-0.3-0.6-0.8-1.4-1.4-2.3l-0.4-0.6c-0.1-0.1-0.2-0.3-0.2-0.4c-0.1-0.1-0.1-0.3-0.1-0.4c0-0.3,0.1-0.5,0.3-0.7
				c0.2-0.2,0.4-0.3,0.7-0.2c0.3,0,0.7,0.2,0.9,0.5c0.4,0.5,0.8,1,1.2,1.5c0.7,0.9,1.2,1.9,1.5,2.9c0,0.3-0.1,0.5-0.3,0.7
				c-0.2,0.2-0.5,0.3-0.8,0.3C120.7,147.6,120.5,147.5,120.3,147.3L120.3,147.3z"/>
			<path id="Path_585" d="M131.1,153c0-0.4,0.3-0.7,0.8-1c1-0.6,1.9-1.4,2.6-2.4l-1.1-0.8c-0.3-0.2-0.5-0.5-0.5-0.8
				c0-0.2,0.1-0.5,0.2-0.6c0.2-0.2,0.4-0.2,0.6-0.2c0.4,0.1,0.7,0.2,1,0.5l0.6,0.4c0.3-0.8,0.6-1.6,0.6-2.4c0-0.2-0.1-0.3-0.4-0.3
				h-1.6c-0.9,1.8-1.7,2.8-2.2,2.8c-0.5,0-0.8-0.3-0.8-0.9c0.2-0.5,0.4-1,0.8-1.5c0.7-1,1.2-2.1,1.6-3.2c0.3-0.8,0.6-1.2,1.1-1.2
				c0.6,0,0.9,0.3,0.9,0.8c-0.1,0.6-0.3,1.1-0.6,1.6h1.6c0.4,0,0.7,0.1,1.1,0.3c0.3,0.3,0.4,0.7,0.4,1.1c0,1.4-0.4,2.8-1,4.1
				c-0.6,1.3-1.4,2.5-2.4,3.5c-0.6,0.7-1.4,1.2-2.3,1.4C131.4,154,131.1,153.6,131.1,153z M137.2,142.2v-3.9c-0.9,1-1.9,1.9-3,2.7
				c-0.7,0.6-1.5,1-2.3,1.2c-0.4,0.1-0.8-0.3-0.9-0.7c0-0.1,0-0.2,0-0.2c0-0.4,0.3-0.8,0.7-0.9c0.9-0.4,1.8-0.9,2.6-1.5
				c0.8-0.6,1.5-1.2,2.2-1.9H132c-0.6,0-0.9-0.3-0.9-0.8s0.3-0.8,0.9-0.8h5.2V132c-0.1-0.4,0.2-0.8,0.7-0.9c0.1,0,0.2,0,0.2,0
				c0.4-0.1,0.8,0.2,0.9,0.7c0,0.1,0,0.2,0,0.2v3.2h5.1c0.7,0,1,0.3,1,0.8c0,0.6-0.3,0.8-1,0.8H139v1.5c0.2-0.3,0.5-0.4,0.8-0.4
				c0.6,0.1,1.2,0.4,1.7,0.7l1,0.5c1.3,0.6,2,1.1,2,1.5c0,0.6-0.3,0.9-0.9,0.9c-0.4-0.1-0.7-0.2-1-0.4l-1.8-1l-0.7-0.4
				c-0.4-0.2-0.8-0.4-1.1-0.7v3.2c0.1,0.4-0.2,0.9-0.7,0.9c-0.1,0-0.2,0-0.2,0c-0.4,0.1-0.8-0.3-0.9-0.7
				C137.2,142.3,137.2,142.3,137.2,142.2L137.2,142.2z M132.9,133.4c-0.1-0.1-0.1-0.2-0.3-0.4c-0.1-0.1-0.2-0.3-0.2-0.4
				c0-0.6,0.3-0.8,1-0.8c0.4,0,0.8,0.3,1.2,0.8c0.2,0.3,0.4,0.5,0.5,0.8c0.1,0.2,0.2,0.3,0.2,0.5c0,0.6-0.3,0.9-1,0.9
				C134,134.8,133.5,134.4,132.9,133.4L132.9,133.4z M141.6,153.5v-3.1h-2.4c-0.4,1.2-0.8,1.8-1.2,1.8c-0.6,0-0.9-0.2-0.9-0.7
				c0-0.3,0.1-0.5,0.2-0.7c0.4-1.1,0.7-2.3,1-3.4c0.1-0.3,0.2-0.7,0.4-1c0.1-0.2,0.3-0.3,0.6-0.3c0.2,0,0.4,0.1,0.6,0.2
				c0.2,0.1,0.2,0.3,0.2,0.5c0,0.7-0.2,1.3-0.4,1.9h1.9v-3.1h-2.8c-0.6,0-1-0.3-1-0.8c0-0.2,0.1-0.4,0.2-0.6
				c0.2-0.2,0.5-0.2,0.7-0.2h2.8v-1.3c-0.1-0.5,0.2-0.9,0.7-0.9c0.1,0,0.2,0,0.2,0c0.5-0.1,0.9,0.3,0.9,0.7c0,0.1,0,0.2,0,0.2v1.3h1
				c0.6,0,0.9,0.3,0.9,0.8c0,0.5-0.3,0.8-0.9,0.8h-1v3.1h1.3c0.7,0,1,0.3,1,0.9c0,0.6-0.3,0.9-1,0.9h-1.3v3.1
				c0.1,0.4-0.2,0.9-0.7,0.9c-0.1,0-0.2,0-0.2,0c-0.4,0.1-0.9-0.2-0.9-0.7C141.6,153.7,141.6,153.6,141.6,153.5L141.6,153.5z
				 M141,134.6c-0.2-0.2-0.3-0.4-0.2-0.6c0.2-0.5,0.5-1,0.8-1.4c0.4-0.6,0.8-0.9,1.1-0.9c0.6,0,0.9,0.3,0.9,0.9
				c-0.1,0.5-0.3,0.9-0.7,1.3c-0.5,0.6-0.9,1-1.3,1C141.5,134.8,141.2,134.8,141,134.6L141,134.6z M146.1,153.2v-18.8
				c-0.1-0.6,0.1-1.2,0.5-1.7c0.4-0.4,1-0.5,1.6-0.4h3.9c1.5,0,2.2,0.5,2.2,1.4c0,1-1,3.3-3,6.8c-0.1,0.2-0.2,0.3-0.2,0.5
				c0,0.1,0.3,0.5,0.9,1c0.7,0.7,1.3,1.5,1.7,2.4c0.4,0.9,0.6,1.9,0.6,2.9c0,2.8-1.4,4.2-4.3,4.2c-0.8,0-1.3-0.4-1.3-1.2
				c0-0.3,0.1-0.6,0.3-0.7c0.3-0.2,0.7-0.3,1-0.3c0.5,0,1-0.1,1.4-0.3c0.7-0.5,1-1.3,0.9-2.2c0-1.5-0.8-3-2.5-4.5
				c-0.2-0.2-0.4-0.4-0.6-0.6c-0.1-0.2-0.2-0.4-0.2-0.6c0-0.4,0.2-0.7,0.4-1.1c0.6-1,1.1-2.1,1.5-3.2l0.6-1.6
				c0.1-0.2,0.1-0.4,0.2-0.6c0-0.3-0.2-0.4-0.6-0.4h-2.5c-0.4-0.1-0.7,0.2-0.7,0.6c0,0.1,0,0.1,0,0.2v18.3c0,0.8-0.3,1.2-1,1.2
				C146.4,154.4,146.1,154,146.1,153.2L146.1,153.2z"/>
			<path id="Path_586" d="M180.4,152.3c0,0.6-0.4,0.9-1.2,0.9h-20.9c-0.8,0-1.2-0.3-1.2-0.9c0-0.6,0.4-0.9,1.2-0.9h9.2v-3.2h-7.8
				c-0.8,0-1.1-0.3-1.1-0.9c0-0.3,0.1-0.5,0.3-0.7c0.3-0.2,0.6-0.3,0.9-0.2h7.8v-2.5h-6.2c-1.7,0-2.5-0.8-2.4-2.5v-6.4
				c-0.1-0.7,0.1-1.4,0.6-1.9c0.5-0.5,1.2-0.7,1.9-0.6h14.7c0.7-0.1,1.4,0.2,1.9,0.6c0.4,0.5,0.6,1.2,0.5,1.9v6.4
				c0.1,0.7-0.1,1.4-0.6,1.9c-0.5,0.5-1.2,0.7-1.8,0.6h-6.7v2.5h8.2c0.8,0,1.1,0.3,1.1,0.9c0,0.3-0.1,0.5-0.3,0.7
				c-0.3,0.2-0.6,0.3-0.9,0.2h-8.2v3.2h9.6C180.1,151.3,180.4,151.6,180.4,152.3z M161,137h6.6v-2.9h-5.5c-0.5-0.1-1.1,0.3-1.1,0.9
				c0,0.1,0,0.2,0,0.3L161,137z M167.6,141.9v-3H161v1.8c-0.1,0.5,0.3,1.1,0.8,1.1c0.1,0,0.2,0,0.3,0L167.6,141.9z M169.6,137h7.1
				v-1.8c0.1-0.5-0.3-1.1-0.9-1.1c-0.1,0-0.2,0-0.3,0h-6L169.6,137z M169.6,141.9h6c0.6,0.1,1.1-0.3,1.1-0.9c0-0.1,0-0.2,0-0.3v-1.8
				h-7.1L169.6,141.9z"/>
			<path id="Path_587" d="M191,150.8c0,0.5-1,1.1-2.9,1.9c-1.2,0.6-2.5,1-3.8,1.2c-0.6,0-0.9-0.4-0.9-1.1c0-0.5,0.5-0.9,1.5-1.1
				c1.1-0.3,2.2-0.7,3.2-1.2c0.6-0.3,1.3-0.6,1.9-0.8C190.6,149.8,191,150.1,191,150.8z M203.5,148.3l-7.5,0.4v4.6
				c0,0.8-0.4,1.1-1.1,1.1c-0.7,0-1.1-0.4-1.1-1.1v-4.5l-8.8,0.5c-0.3,0-0.6-0.1-0.8-0.3c-0.2-0.2-0.3-0.5-0.3-0.8
				c0-0.7,0.4-1,1.2-1h7.2l0.4-0.4l-4.5-2.5c-0.6-0.3-0.8-0.6-0.8-0.9c0-0.6,0.3-0.9,0.9-0.9c0.3,0,0.5,0.1,0.8,0.3
				c0.5,0.2,0.9,0.5,1.4,0.7c0.6-0.6,1.2-1.3,1.7-2h-7.6c-0.7,0-1-0.3-1-0.9c0-0.6,0.3-0.9,1-0.9h9.4v-1.8h-7.4c-0.6,0-1-0.3-1-0.8
				s0.3-0.8,1-0.8h7.4v-1.6h-8.6c-0.6,0-1-0.3-1-0.9s0.3-0.9,1-0.9h8.6V132c0-0.6,0.3-0.9,1-0.9c0.7,0,1,0.3,1,0.9v0.9h8.9
				c0.7,0,1,0.3,1,0.9c0,0.6-0.3,0.9-1,0.9h-8.9v1.6h7.6c0.6,0,1,0.3,1,0.8c0,0.2-0.1,0.5-0.2,0.6c-0.2,0.2-0.5,0.2-0.7,0.2h-7.6
				v1.8h9.6c0.7,0,1,0.3,1,0.9c0,0.6-0.3,0.9-1,0.9h-10.9l-2.8,2.9l2.2,1.3c1.1-1,2.1-2,3.1-3c0.3-0.3,0.7-0.5,1.1-0.6
				c0.7,0,1,0.3,1,0.9c0,0.3-0.6,0.9-1.7,1.8l-3,2.4l0.2,0h0.3l7-0.3l-1.2-1.2c-0.2-0.2-0.4-0.5-0.4-0.7c0-0.2,0.1-0.5,0.2-0.6
				c0.2-0.1,0.4-0.2,0.7-0.2c0.3,0,1.2,0.7,2.7,2c0.6,0.5,1.1,1.1,1.6,1.6c0.3,0.3,0.4,0.6,0.5,1c0.1,0.5-0.3,0.9-0.8,1
				c-0.1,0-0.2,0-0.3,0c-0.4-0.1-0.8-0.3-1-0.6L203.5,148.3z M206.4,152.1c0.2,0.1,0.3,0.4,0.3,0.6c0,0.8-0.3,1.2-0.9,1.2
				c-1.4-0.2-2.7-0.7-3.9-1.3c-1.9-0.9-2.8-1.5-2.8-1.9c0-0.6,0.3-1,1-1c0.4,0.1,0.8,0.2,1.2,0.4c1.3,0.7,2.7,1.2,4.2,1.6
				C205.8,151.8,206.1,151.9,206.4,152.1L206.4,152.1z"/>
			<path id="Path_588" d="M209.6,140.3c0-0.2,0.2-0.6,0.7-1.1c0.5-0.6,0.9-1.3,1-2.1c0.1-0.9,0.2-1.8,0.2-2.8v-0.5
				c0-0.5,0.2-1,0.6-1.4c0.5-0.4,1.2-0.5,1.8-0.5l1.9-0.2l3.4-0.6c0.3-0.1,0.5,0,0.7,0.2c0.2,0.2,0.3,0.5,0.3,0.7
				c0,0.4-0.3,0.6-0.8,0.7c-0.4,0.1-1.4,0.2-2.9,0.4l-2.3,0.3c-0.5,0-0.8,0.4-0.8,1.1l0,0.3h6.9c0.7,0,1,0.3,1,0.8s-0.3,0.8-1,0.8
				h-2v2.7c0,0.7-0.3,1.1-0.9,1.1c-0.6,0-0.9-0.4-0.9-1.1v-2.7h-3.1c-0.1,1.2-0.5,2.3-1,3.4c-0.6,0.9-1.1,1.4-1.7,1.4
				c-0.5,0.1-0.9-0.3-1-0.8C209.5,140.5,209.5,140.4,209.6,140.3z M209.6,153.5c0-0.5,0.5-0.7,1.5-0.8c1.1-0.1,2.1-0.2,3.1-0.4
				c1-0.2,1.9-0.3,2.7-0.5c0.3-0.1,0.5-0.1,0.8-0.2s0.4-0.1,0.5-0.1c0.7,0,1,0.3,1,1c0,0.3-0.3,0.6-0.8,0.7
				c-2.3,0.7-4.8,1.1-7.2,1.3l-0.8,0.1C209.8,154.5,209.6,154.2,209.6,153.5L209.6,153.5z M212.5,150.7c-0.4-0.4-0.6-1-0.5-1.6v-6
				c-0.1-0.6,0.1-1.2,0.5-1.7c0.5-0.4,1.1-0.5,1.6-0.4h14c0.6-0.1,1.2,0.1,1.7,0.5c0.4,0.4,0.6,1,0.5,1.6v6c0.1,0.6-0.1,1.2-0.5,1.7
				c-0.5,0.4-1.1,0.5-1.6,0.4h-14C213.6,151.2,213,151,212.5,150.7L212.5,150.7z M228.3,143.2c0-0.4-0.2-0.7-0.6-0.7
				c0,0-0.1,0-0.1,0h-12.8c-0.4,0-0.7,0.2-0.7,0.7v0.6h14.2L228.3,143.2z M228.3,146.7v-1.4h-14.2v1.4H228.3z M228.3,148.8v-0.7
				h-14.2v0.7c0,0.4,0.2,0.7,0.6,0.7c0,0,0.1,0,0.1,0h12.8C228.1,149.6,228.3,149.3,228.3,148.8L228.3,148.8z M220.2,139.5
				c0-0.2,0.2-0.5,0.6-0.9c0.8-0.7,1.3-1.8,1.3-2.9l0-2.1c0-0.5,0.2-1,0.7-1.3c0.6-0.4,1.3-0.5,2-0.5c1.8-0.1,3.5-0.4,5.2-0.7l0.5,0
				c0.3,0,0.5,0,0.7,0.2c0.2,0.2,0.3,0.5,0.3,0.7c0,0.4-0.3,0.6-0.9,0.7c-0.7,0.1-2.5,0.3-5.3,0.6c-0.4,0.1-0.7,0.1-0.7,0.3
				c-0.1,0.4-0.2,0.8-0.2,1.2v0.1h7.8c0.7,0,1,0.3,1,0.8s-0.3,0.8-1,0.8h-2.6v2.6c0,0.8-0.3,1.2-1,1.2c-0.6,0-1-0.4-1-1.2v-2.6h-3.4
				c-0.1,1-0.5,1.9-1.1,2.7c-0.6,0.8-1.2,1.2-1.7,1.2c-0.5,0.1-0.9-0.3-1-0.7C220.1,139.7,220.1,139.6,220.2,139.5L220.2,139.5z
				 M224.8,153.3c-1-0.3-1.5-0.6-1.5-0.9c-0.1-0.5,0.3-1,0.8-1.1c0.1,0,0.2,0,0.3,0l0.7,0.2c1.9,0.6,4,0.9,6,1
				c1.3,0.1,1.9,0.4,1.9,0.9c0,0.7-0.3,1-0.9,1l-2.8-0.3C227.7,154,226.2,153.7,224.8,153.3L224.8,153.3z"/>
		</g>
	</g>
</g>
</svg>
