<svg xmlns="http://www.w3.org/2000/svg" width="423.394" height="100" viewBox="0 0 423.394 100">
  <g id="section7_title1" transform="translate(0 0.001)">
    <g id="Group_799" data-name="Group 799" transform="translate(0 0)">
      <path id="Path_3243" data-name="Path 3243" d="M-1014.826,2200.287h66.091l7.1-8.507,9.686,7c1.077.97,1.722,1.833,1.722,2.692,0,1.184-.753,1.725-2.151,1.725h-82.452a85.982,85.982,0,0,0-11.732.86L-1028.6,2199A74.1,74.1,0,0,0-1014.826,2200.287Z" transform="translate(1028.605 -2154.43)" fill="#666464"/>
      <path id="Path_3244" data-name="Path 3244" d="M-969.016,2194.673h7.966v-9.257c0-.967-.214-3.013-.429-6.241l10.01,1.291c1.937.321,3.013.97,3.013,2.043,0,1.294-1.4,2.479-4.2,3.341v8.823h20.237v-8.823c0-1.079-.214-3.126-.431-6.354l10.01,1.4c1.937.322,3.013.97,3.013,2.046,0,1.291-1.4,2.472-4.2,3.334v8.395h12.595l5.92-6.672,7.859,5.7a3.821,3.821,0,0,1,1.4,2.264,1.5,1.5,0,0,1-1.722,1.612h-26.049v16.04h19.377l6.244-7.211,8.287,6.134a3.74,3.74,0,0,1,1.4,2.371,1.5,1.5,0,0,1-1.722,1.612h-29.815a56.571,56.571,0,0,0,8.073,8.612,46.534,46.534,0,0,0,9.579,7.211,58.283,58.283,0,0,0,13.454,5.6l-.859,3.014a17.1,17.1,0,0,0-3.659.321c-1.08.428-2.585,2.368-4.307,5.92a48.674,48.674,0,0,1-10.117-8.074,52.333,52.333,0,0,1-9.8-12.38,53.754,53.754,0,0,1-5.81-10.225h-28.527a80.717,80.717,0,0,1-5.92,9.8,26.225,26.225,0,0,1-2.475,3.121l2.261,1.4H-929.3l4.411-3.337,6.137,3.983a2.4,2.4,0,0,1,.967,1.829,1.491,1.491,0,0,1-1.181,1.505l-2.154,1.08v11.3c.214,3.23.431,5.274.431,5.922a2.07,2.07,0,0,1-1.294,1.937,6.3,6.3,0,0,1-3.766.97c-2.26,0-3.337-.542-3.337-1.619V2251.4h-28.631v10.979c0,2.26,1.615,3.662,4.95,4.091,3.231.648,9.689.969,19.27.969,9.15,0,15.07-.322,17.759-1.077,2.156-.428,3.662-1.29,4.307-2.584l4.626-12.7h2.156v11.3a3.731,3.731,0,0,0,1.612,3.013,5.541,5.541,0,0,1,1.723,3.769q0,2.1-2.582,3.23-2.262,1.29-8.073,2.258c-4.846.431-11.842.756-21.1.756-10.545,0-17.869-.431-21.959-1.184-3.656-.431-6.348-1.615-8.07-3.338a10.024,10.024,0,0,1-2.582-7.213V2234.5l-.11.106a51.216,51.216,0,0,1-9.793,6.244,94.325,94.325,0,0,1-14.856,5.92l-1.725-2.046a90.69,90.69,0,0,0,11.414-6.134,37.525,37.525,0,0,0,7-5.06,57.1,57.1,0,0,0,6.348-7.963,43.878,43.878,0,0,0,4.415-9.043h-14.856a86.337,86.337,0,0,0-11.839.863l-2.044-5.06a73.844,73.844,0,0,0,13.883,1.291h16.792v-16.04h-7.966a84.709,84.709,0,0,0-11.729.863l-2.156-5.06A73.94,73.94,0,0,0-969.016,2194.673Zm11.3,53.821h28.631v-14.748h-28.631Zm25.3-34.875v-16.04h-20.237v16.04Z" transform="translate(1097.659 -2178.313)" fill="#666464"/>
      <path id="Path_3245" data-name="Path 3245" d="M-940.785,2185.553h19.7l5.922-6.245,7.532,5.382a3.136,3.136,0,0,1,1.294,2.153,1.537,1.537,0,0,1-1.722,1.723H-922.7v15.069h4.632l3.766-4.2,6.351,4.519a2.4,2.4,0,0,1,1.184,1.832c0,.428-.429.967-1.184,1.4l-2.582,1.508v63.938a3.187,3.187,0,0,1-1.722,2.689,6.368,6.368,0,0,1-2.906.648c-1.939,0-2.906-.648-2.906-1.725v-4.2h-24.866v5.922a2.353,2.353,0,0,1-1.725,2.044,11.409,11.409,0,0,1-3.335.541q-2.9,0-2.906-2.585l.431-15.932v-53.821a24.263,24.263,0,0,0-.86-6.78l8.395,4.2h4.629v-15.069h-2.478a107.487,107.487,0,0,0-11.839.752l-2.047-4.95A74.154,74.154,0,0,0-940.785,2185.553Zm22.715,65.66v-17.437a29.529,29.529,0,0,1-3.124.107q-7.425,0-7.428-8.395v-18.838h-3.766v.755a82.9,82.9,0,0,1-1.4,16.9,31.118,31.118,0,0,1-3.983,9.8,25.382,25.382,0,0,1-5.164,5.923v11.194Zm-24.327-16.468a50.1,50.1,0,0,0,2.261-6.03,60.064,60.064,0,0,0,1.184-6.782,124.488,124.488,0,0,0,.646-14.529v-.755h-4.629v29.063C-942.722,2235.387-942.615,2235.066-942.4,2234.745Zm24.327,32.4v-13.022h-24.866v13.022Zm-10.551-78.576h-3.766v15.069h3.766Zm5.919,36.491c0,2.043.434,3.013,1.508,3.013a10.981,10.981,0,0,0,3.124-.535v-20.885H-922.7Zm45.319-44.889c1.939.325,3.014.97,3.014,2.047,0,1.293-1.4,2.475-4.2,3.338v5.919h10.123l5.809-6.351,7.642,5.491a3.341,3.341,0,0,1,1.184,2.151,1.425,1.425,0,0,1-1.612,1.615H-895.79a86.841,86.841,0,0,0-11.842.86l-2.044-5.06a73.9,73.9,0,0,0,13.886,1.294h8.826v-6.351c0-.97-.214-3.014-.429-6.244Zm-12.595,49.517h20.668l4.2-4.2,6.782,6.565c1.077.86,1.612,1.615,1.612,2.258,0,.862-.75,1.294-2.044,1.294h-3.445a107.744,107.744,0,0,1-13.886,8.18,2.019,2.019,0,0,1,.863,1.505,3.981,3.981,0,0,1-1.615,2.478v1.291h10.01l5.92-6.241,7.538,5.381a3.147,3.147,0,0,1,1.291,2.151,1.509,1.509,0,0,1-1.725,1.615h-23.033V2268q0,5.167-5.167,8.395c-3.013,1.615-5.6,2.478-7.966,2.478a8.764,8.764,0,0,0-1.077-4.74c-.646-1.29-3.766-2.472-9.364-3.656l.431-3.341,13.023,1.291c.755,0,1.184-.642,1.184-2.151v-14.317h-8.826a85.979,85.979,0,0,0-11.732.863l-2.044-5.06a73.57,73.57,0,0,0,13.776,1.291h8.826c0-2.693-.107-5.6-.321-8.826l5.92,1.937a70.111,70.111,0,0,0,9.257-9.472h-19.053a85.91,85.91,0,0,0-11.732.863l-2.047-5.06A73.829,73.829,0,0,0-889.978,2229.685Zm-3.335-27.233h22.173l4.736-4.628,6.244,4.736c1.074.753,1.722,1.4,1.722,1.939a1.759,1.759,0,0,1-1.08,1.612l-2.689,1.294v3.874l.431,9.15a2.327,2.327,0,0,1-1.4,2.046,5.26,5.26,0,0,1-3.23.969c-2.585,0-3.769-.648-3.769-2.156V2220.1h-23.14v.755a2.393,2.393,0,0,1-1.832,2.365,7.74,7.74,0,0,1-4.09,1.077c-1.615,0-2.475-.857-2.475-2.582l.431-10.117v-6.675c0-3.442-.324-5.706-.862-6.782Zm23.14,14.638v-11.735h-23.14v11.735Z" transform="translate(1168.687 -2178.877)" fill="#666464"/>
      <path id="Path_3246" data-name="Path 3246" d="M-904.323,2209.212v-21.853c0-1.077-.214-3.12-.428-6.35l9.689,1.4c1.937.22,2.906.863,2.906,1.939,0,1.184-1.4,2.151-4.2,3.013v20.883l4.2-4.519,6.886,4.84a2.758,2.758,0,0,1,1.187,1.94q0,1.614-1.294,1.615h-10.98v31.647c4.522-1.829,9.043-3.876,13.457-6.027l.429,2.151a218.4,218.4,0,0,1-26.478,18.083l-.97,3.659c-.214.97-.645,1.4-1.508,1.4s-1.505-.541-1.72-1.83l-3.769-10.013c4.3-1.291,8.5-2.692,12.592-4.3v-34.768a77.106,77.106,0,0,0-11.3.863l-2.153-5.06A71.084,71.084,0,0,0-904.323,2209.212Zm34.016,11.3h35.089l4.953-3.766,6.137,4.09a2.117,2.117,0,0,1,.967,1.833,1.471,1.471,0,0,1-1.291,1.4l-2.044,1.073v16.468c.214,3.234.431,5.17.431,5.815a2.175,2.175,0,0,1-1.4,1.936,5.489,5.489,0,0,1-3.659,1.077c-2.368,0-3.445-.538-3.445-1.722v-3.338H-842.1v19.267c0,1.722,1.508,2.585,4.736,2.585h8.4c2.689,0,4.3-.755,4.843-2.475l3.445-10.552,2.154.431v10.441a2.658,2.658,0,0,0,1.615,2.692,3.076,3.076,0,0,1,1.291,2.8,3.2,3.2,0,0,1-2.154,3.016c-2.8.752-7.752,1.184-14.855,1.184-7.964,0-12.916-.646-15.07-1.937-1.615-1.077-2.365-3.013-2.365-5.6v-21.852h-6.461a29.627,29.627,0,0,1-2.047,8.074,31.693,31.693,0,0,1-7.532,10.979,51.911,51.911,0,0,1-14.424,9.04c-4.739,1.511-9.691,3.017-14.963,4.31l-.863-2.156a69.861,69.861,0,0,0,13.023-4.95,48.755,48.755,0,0,0,9.906-6.779,31.165,31.165,0,0,0,5.92-8.721,27.564,27.564,0,0,0,2.585-9.8h-5.384v.432a3.349,3.349,0,0,1-1.612,3.016,4.829,4.829,0,0,1-3.013.75c-2.371,0-3.662-.644-3.769-2.151,0-.97.107-3.337.428-7.106v-16.792a25.863,25.863,0,0,0-.857-6.348Zm38.43-22.067c1.077.431,1.612.862,1.612,1.508,0,1.077-1.505,1.829-4.3,2.046-2.582,2.8-5.92,5.813-9.8,9.254h14.1l5.813-6.675,7.966,5.815a3.126,3.126,0,0,1,1.291,2.151c0,1.187-.535,1.723-1.612,1.723h-52.637a85.983,85.983,0,0,0-11.732.862l-2.157-5.06a75.5,75.5,0,0,0,13.889,1.185h21.528q2.419-4.681,3.876-7.425c1.4-3.013,2.582-6.026,3.659-8.936Zm-17.441-17.759c1.939.322,3.013.97,3.013,2.047,0,1.291-1.4,2.472-4.2,3.334v5.06h15.177l5.815-6.782,7.963,5.813a3.119,3.119,0,0,1,1.291,2.26,1.427,1.427,0,0,1-1.612,1.616h-47.146a84.861,84.861,0,0,0-11.735.859l-2.151-5.057a75.856,75.856,0,0,0,13.886,1.291H-858.9v-5.489c0-1.079-.214-3.126-.431-6.354Zm-13.669,20.237c1.832,1.722,2.8,3.228,2.8,4.519,0,3.447-1.4,5.06-4.2,5.06-1.505,0-2.582-.97-3.013-2.907a46.669,46.669,0,0,0-5.381-10.976l2.154-1.294A61.02,61.02,0,0,1-862.986,2200.924Zm28.417,30.568v-7.966h-35.738v7.966Zm0,10.872V2234.4h-35.738v7.966Z" transform="translate(1238.589 -2178.103)" fill="#666464"/>
    </g>
  </g>
</svg>
