<svg id="section1_title2" xmlns="http://www.w3.org/2000/svg" width="425.977" height="100" viewBox="0 0 425.977 100">
  <g id="Group_40" data-name="Group 40">
    <path id="Path_284" data-name="Path 284" d="M-662.734,87.234h1.185l3.874-4.628L-651,87.451a2.6,2.6,0,0,1,1.291,1.936A1.711,1.711,0,0,1-650.894,91l-2.584,1.722v18.515a13.694,13.694,0,0,0,7.212,8.074c4.308,1.936,10.227,2.8,17.761,2.8l54.037-.431-.86,3.015a8.189,8.189,0,0,0-3.983,1.291c-1.185.648-2.047,2.584-2.692,5.813-29.709,0-47.47-.537-53.283-1.4-7.426-1.291-12.7-3.66-15.714-7-2.37-1.936-4.308-5.059-5.813-9.256l-10.98,12.594-.323,3.015c-.217,1.291-.754,2.044-1.83,2.044q-1.131,0-1.939-1.936l-3.874-8.5a56.513,56.513,0,0,0,14.315-8.074V90.141h-1.291a86.147,86.147,0,0,0-11.84.862l-2.047-5.059A74.2,74.2,0,0,0-662.734,87.234Zm4.091-21.2c2.8,1.938,4.305,4.091,4.305,6.458q0,4.2-4.2,4.2c-.537,0-1.182-.539-1.936-1.722a91.761,91.761,0,0,0-11.52-12.488l1.293-1.722A47.419,47.419,0,0,1-658.643,66.03Zm5.6-19.805c2.8,2.153,4.2,4.414,4.2,6.995,0,2.8-1.616,4.2-4.631,4.2-.537,0-1.182-.539-1.83-1.83a97.251,97.251,0,0,0-10.763-12.916l1.185-2.047A41.962,41.962,0,0,1-653.047,46.224ZM-629.9,85.944V80.993a20.775,20.775,0,0,0-.86-5.49l8.934,1.4c1.507.323,2.37.971,2.37,1.938a2.021,2.021,0,0,1-1.079,1.613l-1.4.862v4.628h14.64V80.993a25.786,25.786,0,0,0-.754-5.49l8.934,1.4c1.507.323,2.369.971,2.369,1.938a2.023,2.023,0,0,1-1.076,1.613l-1.4.862v4.628h5.059l4.951-5.382,6.889,4.842a2.794,2.794,0,0,1,1.185,1.83c0,1.185-.431,1.722-1.293,1.722h-16.791v11.3h8.825l5.813-6.244,7.643,5.384a3.358,3.358,0,0,1,1.185,2.153c0,1.182-.54,1.722-1.616,1.722h-58.448a107.513,107.513,0,0,0-11.843.754l-2.044-4.951a74.169,74.169,0,0,0,13.887,1.182h5.919v-11.3a86.56,86.56,0,0,0-11.84.862l-2.044-5.059A73.926,73.926,0,0,0-629.9,85.944Zm-9.256-20.99c0,1.507,1.4,2.153,4.305,2.153h7.966c2.692,0,4.305-.431,4.845-1.507l3.443-6.135h1.722v5.921c0,1.076.325,1.722,1.076,2.044a2.433,2.433,0,0,1,.971,2.153,2.5,2.5,0,0,1-1.939,2.478c-2.689.645-7.212.86-13.67.86-7.106,0-11.517-.431-13.347-1.507-1.507-.86-2.153-2.259-2.153-4.305V45.579a23.314,23.314,0,0,0-.862-7.537l6.889,3.769h13.67l3.877-2.906,5.487,3.443a2.292,2.292,0,0,1,.754,1.616,1.483,1.483,0,0,1-1.076,1.4l-1.83,1.076V51.5c.217,2.8.431,4.414.431,5.059a1.711,1.711,0,0,1-1.185,1.616,5.458,5.458,0,0,1-3.443.86c-1.939,0-2.906-.323-2.906-1.182V56.557H-639.16Zm20.128,44.778a2.6,2.6,0,0,1,1.293,1.938c0,.968-1.722,1.507-5.059,1.613a59.525,59.525,0,0,1-10.013,4.522c-2.153.754-5.382,1.613-9.8,2.69l-1.182-1.722a68.75,68.75,0,0,0,9.256-6.135,76.949,76.949,0,0,0,7.966-7.751ZM-639.16,53.65h13.025V44.825H-639.16Zm31.862,46.608v-11.3h-14.64v11.3Zm3.443-35.305c0,1.507,1.616,2.153,4.845,2.153h8.719c3.015,0,4.736-.537,5.382-1.613l3.769-6.461h1.613v6.352c0,1.076.323,1.722,1.185,2.044a2.437,2.437,0,0,1,.968,2.153,2.593,2.593,0,0,1-2.153,2.478c-2.8.645-7.749.86-14.638.86-7.534,0-12.271-.431-14.209-1.507a4.522,4.522,0,0,1-2.261-4.305V45.579a23.317,23.317,0,0,0-.86-7.537l6.889,3.769h14.529L-586.2,38.9l5.49,3.443a2.3,2.3,0,0,1,.754,1.616,1.486,1.486,0,0,1-1.076,1.4l-1.83,1.076V51.5c.214,2.8.429,4.414.429,5.059a1.709,1.709,0,0,1-1.182,1.616,5.672,5.672,0,0,1-3.446.86c-1.936,0-2.906-.323-2.906-1.182V56.557h-13.887Zm14.641,45.746c4.2,1.724,6.352,3.769,6.352,6.03,0,2.8-1.616,4.2-4.631,4.2-.86,0-1.83-.537-3.012-1.722a119.623,119.623,0,0,0-17.978-11.3l1.185-2.153A104.685,104.685,0,0,1-589.214,110.7ZM-603.855,53.65h13.887V44.825h-13.887Z" transform="translate(676.621 -35.567)" fill="#666464"/>
    <path id="Path_285" data-name="Path 285" d="M-622.322,68.161V46.308c0-1.076-.214-3.121-.428-6.35l9.8,1.4c1.83.217,2.8.862,2.8,1.938,0,1.185-1.4,2.153-4.2,3.012V68.161h2.155l5.059-5.49,6.781,4.845a2.787,2.787,0,0,1,1.185,1.83c0,1.185-.431,1.722-1.293,1.722h-13.887v32.507q1.618-.647,3.232-1.291A60.181,60.181,0,0,0-600.9,97.116l.431,2.584a72.983,72.983,0,0,1-7.426,6.458,87.788,87.788,0,0,1-11.411,7.426c-2.8,1.507-5.382,2.8-7.643,3.769l-1.185,2.906c-.537,1.507-1.291,2.153-2.153,2.153-.645-.108-1.182-.754-1.5-2.044l-2.69-11.089a61.731,61.731,0,0,0,11.515-2.584,1.5,1.5,0,0,0,.645-.214V71.067c-3.658.108-7.1.431-10.547.862l-2.044-5.059A62.612,62.612,0,0,0-622.322,68.161Zm71.475-5.059,5.49-5.921,8.4,5.384c1.076.754,1.722,1.5,1.722,2.153,0,.86-1.83,2.044-5.49,3.443-1.722,19.374-2.8,30.246-3.335,32.616a8.062,8.062,0,0,1-3.877,4.628c-1.83,1.291-4.306,1.83-7.535,1.83-.323-3.874-.968-6.027-2.044-6.675l-5.059-2.584.428-2.475,7.537,1.616a3.382,3.382,0,0,0,2.258-.754c.648-.431,1.076-1.4,1.4-2.906.429-1.722,1.077-10.764,2.153-27.231L-565.162,71.5v36.167a3.214,3.214,0,0,1-2.047,2.906,8.308,8.308,0,0,1-3.766.86c-1.938,0-2.906-.968-3.015-2.906l.431-11.409V74.19l-12.593,4.089v40.69c0,2.259,1.507,3.658,4.628,4.089,3.015.645,9.15.971,18.192.971,8.611,0,14.1-.325,16.685-1.076,2.044-.431,3.443-1.293,4.089-2.584l4.308-13.133h2.153v11.734a3.8,3.8,0,0,0,1.936,3.229,4.854,4.854,0,0,1,1.4,3.552,3.631,3.631,0,0,1-2.367,3.229q-2.261,1.452-7.751,2.261c-4.628.431-11.3.754-20.019.754-10.335,0-17.439-.431-21.315-1.185-3.443-.431-6.135-1.507-7.857-3.337a9.977,9.977,0,0,1-2.476-7.212V81.079l-3.123.968-6.135,2.906-2.153-5.921,6.783-.323,4.628-1.507V57.611a54.781,54.781,0,0,0-.431-8.4l10.764,1.293q2.261.321,2.261,1.613c0,.754-.537,1.4-1.613,1.83l-2.584,1.507v19.16l12.593-3.983V50.077c0-7.212-.323-11.409-.862-12.7l9.69,1.507q2.583.484,2.581,1.938a2.034,2.034,0,0,1-1.291,1.83l-1.721,1.076V67.946l14.638-4.628Z" transform="translate(742.569 -36.621)" fill="#666464"/>
    <path id="Path_286" data-name="Path 286" d="M-579.489,53.014h7.1V50.97a58.566,58.566,0,0,0-1.182-13.456l10.333,1.4c1.721.217,2.692.862,2.692,1.938a1.985,1.985,0,0,1-1.722,2.044l-2.047.862v9.256h3.337l5.921-6.244,7.535,5.384a3.123,3.123,0,0,1,1.291,2.153,1.5,1.5,0,0,1-1.722,1.613h-16.362V65.5c5.059-.862,10.118-1.722,15.071-2.8l.429,2.044c-4.951,1.938-10.118,3.874-15.5,5.6V87.46c0,3.443-1.613,6.135-4.843,8.18a15.18,15.18,0,0,1-7.428,2.37c0-2.692-.323-4.522-.862-5.49-.645-.862-3.552-2.047-8.825-3.337V87.137l11.409.754c1.616,0,2.475-.648,2.475-2.044V72.928c-3.983,1.293-8.071,2.475-12.162,3.66l-.968,3.66c-.217.968-.648,1.4-1.508,1.4s-1.5-.537-1.722-1.83l-3.766-10.01c6.778-.862,13.453-1.83,20.125-2.906V55.92h-7.1a84.581,84.581,0,0,0-11.731.862l-2.153-5.059A74.174,74.174,0,0,0-579.489,53.014Zm11.734,50.914h50.483l5.062-5.059,6.241,5.059c1.076.862,1.724,1.507,1.724,2.047a1.534,1.534,0,0,1-1.185,1.613l-2.584,1.4v14.64l.431,9.256a2.933,2.933,0,0,1-1.4,2.261,4.768,4.768,0,0,1-3.229,1.185c-2.8,0-4.2-.754-4.2-2.153V131.27h-51.345v1.613a2.781,2.781,0,0,1-1.83,2.692,8.843,8.843,0,0,1-3.983,1.076c-1.938,0-2.906-.968-3.015-2.906l.431-10.549V106.4c0-3.658-.323-6.027-.862-7.1Zm51.345,24.328V106.834h-51.345v21.421Zm-2.475-79.978c-3.768.431-8.933.862-15.608,1.185V60.548c0,1.185-.108,2.37-.108,3.446h29.5l5.921-6.781,7.965,5.813a3.132,3.132,0,0,1,1.291,2.153,1.536,1.536,0,0,1-1.722,1.722h-18.084v27.34a3.211,3.211,0,0,1-2.047,2.906,8.32,8.32,0,0,1-3.766.862c-1.939,0-2.906-.971-3.015-2.906l.431-11.409V66.9h-16.685c-.645,6.781-2.261,12.488-4.951,17.116a42.754,42.754,0,0,1-12.81,13.993l-1.722-2.047a37.44,37.44,0,0,0,7.534-11.623c2.261-5.382,3.443-13.241,3.443-23.791V50.108a38.716,38.716,0,0,0-.86-8.825l9.256,5.488a111.185,111.185,0,0,0,13.133-2.8,63.541,63.541,0,0,0,15.931-6.889l7.857,5.7c.648.325.97,1.076.97,2.261,0,.862-.323,1.293-.862,1.293l-3.769-.431C-506.723,46.879-512.427,47.632-518.885,48.278Z" transform="translate(808.251 -37.083)" fill="#666464"/>
    <path id="Path_287" data-name="Path 287" d="M-532.076,49.031l.539,7.751h6.35l4.631-4.628,5.813,4.305a2.641,2.641,0,0,1,.968,1.613c0,1.185-.431,1.724-1.293,1.724h-16.254l.645,9.579h6.783l4.628-4.628,5.813,4.305a2.975,2.975,0,0,1,.862,1.616c0,1.182-.431,1.722-1.185,1.722h-16.685l.537,9.687h59.1l.862-9.687h-1.4a85.049,85.049,0,0,0-11.734.86l-2.153-5.059a75.533,75.533,0,0,0,13.887,1.185h1.722l.862-9.579H-470.5a106.1,106.1,0,0,0-11.734.751l-2.153-4.951A73.955,73.955,0,0,0-470.5,56.783h2.044l.862-9.259H-470.5a84.591,84.591,0,0,0-11.734.862l-2.153-5.059A73.966,73.966,0,0,0-470.5,44.617h1.936l-.214-.428,4.628-4.2,5.7,4.953c1.185.968,1.83,1.722,1.83,2.153a1.4,1.4,0,0,1-1.076,1.4l-2.69,1.613-2.906,31.97h1.613l5.059-4.628,7.106,5.168a2.471,2.471,0,0,1,1.291,2.367c0,.645-.645,1.185-1.939,1.4l-2.69.754a92.845,92.845,0,0,1-11.3,9.579l-2.153-.754a82.514,82.514,0,0,0,5.167-10.978h-79.227a36.1,36.1,0,0,1-.968,5.813,13.053,13.053,0,0,1-2.907,5.488,4.088,4.088,0,0,1-3.226,1.724q-4.2,0-4.2-4.2a5.168,5.168,0,0,1,1.83-3.552,19.122,19.122,0,0,0,3.66-5.059,73.048,73.048,0,0,0,3.335-9.47l2.584.86v5.49h3.229l-2.044-32.4a40.806,40.806,0,0,0-1.185-8.825l7.643,4.842a77.012,77.012,0,0,0,11.625-8.611l7.32,7.106a4.007,4.007,0,0,1,1.076,2.153,1.032,1.032,0,0,1-1.185,1.182l-4.628-.754A133.38,133.38,0,0,1-532.076,49.031Zm14.855,44.778h34.554l4.628-4.628,6.783,6.889a3.57,3.57,0,0,1,1.613,2.367c0,1.185-.754,1.724-2.044,1.724h-3.446a151.593,151.593,0,0,1-17.438,6.781,2.732,2.732,0,0,1,.217.754c0,.645-.645,1.507-1.722,2.475v1.722h26.48l6.35-7.1,8.288,6.027a3.729,3.729,0,0,1,1.4,2.37,1.5,1.5,0,0,1-1.722,1.613h-40.8v11.411c0,3.443-1.938,6.244-5.6,8.4a20.014,20.014,0,0,1-8.719,2.475,7.827,7.827,0,0,0-1.185-4.736c-.754-1.293-4.305-2.475-10.549-3.66l.431-3.337,14.318,1.293c1.613,0,2.475-.754,2.475-2.153V114.8h-30.249a84.584,84.584,0,0,0-11.732.862l-2.15-5.059a73.886,73.886,0,0,0,13.881,1.291H-502.9v-.428c0-2.8-.217-5.707-.431-8.828l7.534,2.475a90.358,90.358,0,0,0,11.3-8.4h-32.724a85.828,85.828,0,0,0-11.731.862l-2.153-5.059A75.891,75.891,0,0,0-517.222,93.81ZM-487.4,63.455a1.719,1.719,0,0,1,1.293,1.724c0,.86-1.4,1.613-4.2,2.153-.968.968-1.83,1.722-2.584,2.367a8.672,8.672,0,0,0,1.938,1.076c3.443,1.938,5.273,3.877,5.273,5.813a2.765,2.765,0,0,1-.86,2.261,3.324,3.324,0,0,1-2.906,1.076c-1.293,0-2.475-.754-3.769-2.475-1.507-1.4-2.906-2.692-4.414-3.983a29.021,29.021,0,0,1-5.382,2.906,50.116,50.116,0,0,1-10.764,3.552l-.862-1.722a44.047,44.047,0,0,0,4.953-2.37,37.312,37.312,0,0,0,5.487-3.66,14.281,14.281,0,0,0,2.261-2.153,96.974,96.974,0,0,0-8.5-5.6l1.291-1.293c3.874,1.4,7.1,2.692,9.9,3.769a66.017,66.017,0,0,0,4.305-6.675Zm.431-21.419a1.712,1.712,0,0,1,1.291,1.722c0,.86-1.4,1.613-4.2,2.153-1.076,1.291-1.938,2.261-2.692,3.121a.977.977,0,0,0,.539.323c3.443,2.153,5.168,4.2,5.168,6.244a1.952,1.952,0,0,1-.97,1.938,3.63,3.63,0,0,1-2.907.968c-1.076,0-2.259-.862-3.335-2.584-1.076-1.076-1.938-2.044-2.8-2.906a26.732,26.732,0,0,1-4.305,2.8,48.072,48.072,0,0,1-9.687,3.983l-.862-1.724a40.689,40.689,0,0,0,4.305-2.584,27.944,27.944,0,0,0,4.845-3.983c.645-.645,1.185-1.4,1.83-2.044a95.368,95.368,0,0,0-9.687-7.32l1.291-.86c4.305,1.722,7.965,3.335,10.872,4.628a48.465,48.465,0,0,0,3.768-7.212Z" transform="translate(874.199 -37.083)" fill="#666464"/>
  </g>
</svg>
