<svg id="section3_title1" xmlns="http://www.w3.org/2000/svg" width="418.768" height="100" viewBox="0 0 418.768 100">
  <g id="Group_158" data-name="Group 158" transform="translate(0 0)">
    <path id="Path_621" data-name="Path 621" d="M89.714,723.461h11.958l5.4-5.822,7.089,5.082a2.889,2.889,0,0,1,1.164,2.012,1.481,1.481,0,0,1-1.693,1.585H98.5c-2.114,4.231-4.021,7.723-5.714,10.688a70.376,70.376,0,0,1-3.916,6.241c3.176,0,6.352-.105,9.419-.316a60.157,60.157,0,0,0,6.454-.316c-.848-2.331-1.9-4.764-3.068-7.2l2.114-1.266a67.293,67.293,0,0,1,6.667,7.407c1.588,2.328,2.436,4.231,2.436,5.819,0,3.071-1.272,4.55-3.81,4.55-1.377,0-2.222-1.059-2.541-3.281-.211-.845-.526-1.8-.74-2.752-1.48.532-2.857,1.059-4.337,1.483-2.752.845-6.243,1.8-10.478,2.749a54.511,54.511,0,0,1-7.089,1.377l-1.164,2.965c-.532,1.375-1.269,2.009-2.117,2.009-.635-.105-1.164-.743-1.483-1.9l-2.644-10.9c2.328,0,4.974-.108,8.147-.214.953-3.07,1.8-6.033,2.433-8.887q1.272-4.606,1.9-8.255c-3.7.105-7.3.424-10.9.845l-2.009-4.972A72.894,72.894,0,0,0,89.714,723.461Zm.421,46.242v-9.522c0-1.693-.211-3.6-.421-5.714l9.419,1.375q2.536.474,2.538,1.9c0,.848-.529,1.374-1.374,1.8L98.39,760.6v9.1h1.269l4.869-5.29,6.773,4.761a2.742,2.742,0,0,1,1.164,1.8c0,1.164-.424,1.69-1.269,1.69H98.39V791.4q7.935-2.219,15.239-4.763l.424,2.12a309.039,309.039,0,0,1-30.159,14.92l-.953,3.489c-.211.848-.637,1.377-1.48,1.377s-1.483-.635-1.693-1.8l-3.705-9.735c4.866-1.059,9.525-2.117,14.072-3.386V772.666a96.493,96.493,0,0,0-11.215.743l-2.012-4.869A69.739,69.739,0,0,0,90.135,769.7Zm54.074,1.059v8.887h12.911l5.714-6.241,7.513,5.4a3.3,3.3,0,0,1,1.164,2.117,1.4,1.4,0,0,1-1.588,1.585H144.741a4.086,4.086,0,0,1-.532.638v4.126a103.746,103.746,0,0,1,19.578,6.349c5.077,2.538,7.723,5.29,7.723,8.361,0,2.752-1.588,4.126-4.55,4.126-1.059,0-2.328-.743-3.808-2.117a139.033,139.033,0,0,0-18.944-12.908v17.882a3.154,3.154,0,0,1-2.009,2.857,8.369,8.369,0,0,1-3.7.953c-1.907,0-2.857-1.059-2.962-2.965l.421-11.109v-6.878a4.055,4.055,0,0,0-.635.527,67.1,67.1,0,0,1-13.969,9.633c-4.55,2.22-9.311,4.337-14.282,6.24l-1.272-1.69a89.778,89.778,0,0,0,11.744-7.621,84.192,84.192,0,0,0,9.738-8.361c2.328-2.749,4.445-5.4,6.349-8.042h-5.08a83.363,83.363,0,0,0-11.534.848L114.9,778.38a74.355,74.355,0,0,0,13.651,1.269h7.407v-8.042q-5.08.316-12.382.638l-.845-2.965a75.667,75.667,0,0,0,14.285-2.644,30.049,30.049,0,0,0,7.513-2.965,21.57,21.57,0,0,0,5.08-3.489l7.726,5.5a4.209,4.209,0,0,1,.953,2.436c0,.845-.532,1.161-1.591,1.161l-3.384-.424A52.83,52.83,0,0,1,144.209,770.762Zm-13.967-43.175h4.34c.74-3.6,1.48-7.407,2.222-11.639l10.262,2.749c1.377.638,2.117,1.378,2.117,2.226,0,1.059-1.585,1.9-4.55,2.538-.424,1.483-.845,2.857-1.161,4.126h12.8l5.711-6.244,7.515,5.4a3.3,3.3,0,0,1,1.164,2.117,1.4,1.4,0,0,1-1.588,1.585H142.624c-1.059,3.176-2.012,6.138-2.857,8.676h14.815l5.4-5.714,7.091,4.974a3.111,3.111,0,0,1,1.164,2.009,1.51,1.51,0,0,1-1.693,1.693H149.607a54.908,54.908,0,0,0,6.983,8.255,18.067,18.067,0,0,0,2.541,2.433h4.547l5.4-5.819,7.091,5.079a3.112,3.112,0,0,1,1.164,2.009,1.483,1.483,0,0,1-1.7,1.588H162.623a26.05,26.05,0,0,0,2.433,1.7,49.345,49.345,0,0,0,11.852,5.4l-.845,2.857a14.792,14.792,0,0,0-3.389.316c-1.059.424-2.433,2.225-4.021,5.5a52.978,52.978,0,0,1-14.815-15.768H131.83a59.011,59.011,0,0,1-3.916,5.612,70.6,70.6,0,0,1-8.782,9.627c-2.541,2.328-4.974,4.445-7.515,6.349l-1.693-1.693a58.283,58.283,0,0,0,7.407-8.358,90.707,90.707,0,0,0,7.621-11.536c-3.6.105-7.089.424-10.478.848l-2.009-4.974a72.634,72.634,0,0,0,13.651,1.269h.421a72.275,72.275,0,0,0,4.234-10.688c-3.492.105-6.983.319-10.478.742l-2.114-4.869a73.83,73.83,0,0,0,13.545,1.164c.737-2.752,1.48-5.609,2.222-8.676h-3.705a85.337,85.337,0,0,0-11.642.845l-2.009-4.971A72.894,72.894,0,0,0,130.242,727.588Zm21.377,24.126a53.187,53.187,0,0,1-4.974-9.63H138.6c-.637,1.482-1.167,2.86-1.693,4.021a48.638,48.638,0,0,1-3.389,6.667h18.733A8.715,8.715,0,0,1,151.619,751.714Z" transform="translate(-76.063 -714.782)" fill="#666464"/>
    <path id="Path_622" data-name="Path 622" d="M126.9,789.931h71.535l6.135-7.089,8.15,6.03A3.682,3.682,0,0,1,214.1,791.2a1.481,1.481,0,0,1-1.693,1.588H159.918a100.98,100.98,0,0,1-9.1,10.265c2.962,0,6.03,0,9.308-.105,9.738,0,17.99-.105,24.868-.105-2.749-2.223-5.711-4.445-8.89-6.773l1.167-2.012q11.111,2.86,17.777,6.667c4.126,2.541,6.243,5.185,6.243,8.253,0,2.752-1.588,4.129-4.553,4.129-.845,0-1.8-.74-2.962-2.117a72.362,72.362,0,0,0-5.819-5.606c-6.983,1.056-15.236,2.114-24.76,3.278-10.264,1.269-19.473,2.117-27.62,2.752l-.74,2.538c-.424,1.061-.953,1.588-1.8,1.588-.74,0-1.272-.634-1.588-1.693l-2.541-10.688c4.658,0,10.267,0,16.829-.105l4.442-10.265H126.9a84.4,84.4,0,0,0-11.639.848l-2.009-4.974A72.63,72.63,0,0,0,126.9,789.931Zm.424-65.713h16.827l.105-.424v-1.269a31.537,31.537,0,0,0-.848-6.986l9.524,1.482c1.269.211,2.012.743,2.012,1.8,0,.95-1.164,1.8-3.281,2.43v2.965h21.058v-1.269a39.044,39.044,0,0,0-.743-6.983l9.524,1.48c1.269.214,2.012.74,2.012,1.8,0,.954-1.164,1.8-3.281,2.436v2.538h17.777l6.138-7.091,8.147,6.033a3.662,3.662,0,0,1,1.377,2.331,1.4,1.4,0,0,1-1.588,1.585H180.236v3.278a2.7,2.7,0,0,1-.74,1.907l8.676,1.059c1.48.213,2.328.74,2.328,1.588,0,1.056-1.374,2.009-4.126,2.962-.105,1.693-.211,3.173-.319,4.55h10.054l3.492-4.126,7.2,5.4a1.914,1.914,0,0,1,.737,1.588q0,1.11-4.126,2.857c0,4.445.105,7.937.319,10.264a21.881,21.881,0,0,0,1.377,6.349c0,.319.105.424.316.424a1.554,1.554,0,0,0,1.377-.848l4.442-7.089,1.588.421-3.281,13.229a5.52,5.52,0,0,0,.74,3.068,7.942,7.942,0,0,1,.532,2.752c0,1.907-1.059,2.857-2.962,2.857a5.4,5.4,0,0,1-3.389-1.377,16.451,16.451,0,0,1-4.126-5.287,33.677,33.677,0,0,1-2.962-9.209c-.743-3.7-1.059-9.84-1.059-18.412H185.736c-.421,3.916-.845,7.407-1.48,10.475a4.84,4.84,0,0,0-.213.848q1.43.636,2.857,1.266c4.34,2.12,6.562,4.553,6.562,7.3s-1.374,4.126-4.126,4.126c-.848,0-1.9-.638-3.173-2.012-1.483-1.269-3.073-2.647-4.658-3.913-.635,1.056-1.164,2.009-1.693,2.857a26.782,26.782,0,0,1-8.147,8.042,48.935,48.935,0,0,1-10.051,4.445l-1.272-2.012a37.308,37.308,0,0,0,8.677-5.925,26.923,26.923,0,0,0,5.609-7.3,34.787,34.787,0,0,0,1.693-4.021c-2.962-1.907-6.033-3.916-9.314-5.928l1.164-1.588c3.389.848,6.562,1.588,9.419,2.436.105-.638.211-1.164.319-1.8.424-2.328.635-4.764.845-7.3h-.211a82.924,82.924,0,0,0-11.536.848l-2.114-4.977a74.359,74.359,0,0,0,13.651,1.272h.316c0-1.059.105-2.222.105-3.386a44.8,44.8,0,0,0-.632-6.033,5.422,5.422,0,0,1-1.8.319c-2.965,0-4.553-.634-4.553-2.117l.532-4.126H151.665v2.114c-.213,1.906-1.377,2.857-3.705,2.857-2.962,0-4.55-.632-4.55-2.115l.424-2.857H127.326a84.808,84.808,0,0,0-11.639.845l-2.012-4.972A72.894,72.894,0,0,0,127.326,724.218Zm5.4,13.227h1.588v-2.114a44.734,44.734,0,0,0-.424-4.977l8.466,1.272c1.483.211,2.328.848,2.328,1.693,0,.635-.421,1.164-1.269,1.48l-1.693.953v1.693h8.361l4.55-4.971,6.349,4.442a2.959,2.959,0,0,1,1.059,1.8c0,1.059-.421,1.591-1.269,1.591H141.717v6.24H152.51l4.55-4.55,5.714,4.129a2.6,2.6,0,0,1,.953,1.585c0,1.164-.424,1.693-1.269,1.693h-13.23v3.281c0,1.164.743,1.693,2.436,1.693h4.55c1.483,0,2.328-.211,2.644-.743l1.907-3.384h1.269v2.433c0,.95.316,1.588,1.164,1.8a2.32,2.32,0,0,1,.845,1.9,2.2,2.2,0,0,1-1.164,2.117c-1.693.634-4.656.848-8.676.848-4.974,0-8.042-.424-9.311-1.269-1.059-.638-1.483-1.907-1.483-3.705V749.4h-8.676a17.183,17.183,0,0,1-5.29,8.463,19.327,19.327,0,0,1-5.29,3.073,40.435,40.435,0,0,1-9.63,2.962l-.848-2.12a36.456,36.456,0,0,0,5.925-2.535,14.314,14.314,0,0,0,3.81-2.965,17.3,17.3,0,0,0,2.538-3.6,19.8,19.8,0,0,0,1.059-3.281,77.6,77.6,0,0,0-11.32.848l-2.012-4.974a72.659,72.659,0,0,0,13.651,1.269h6.983V740.3h-1.588a85.292,85.292,0,0,0-11.639.842l-2.012-4.974A72.7,72.7,0,0,0,132.721,737.445Zm.743,27.725V760.2a44.582,44.582,0,0,0-.424-4.972l8.571,1.161c1.483.213,2.222.848,2.222,1.7,0,.632-.424,1.164-1.272,1.585l-1.585.953v4.55h6.138l4.55-4.974,6.349,4.442c.74.638,1.164,1.167,1.164,1.7,0,1.164-.424,1.693-1.269,1.693H140.977v5.185c7.618-.316,13.543-.638,17.777-1.059l.424,1.693c-3.916,1.059-10.054,2.538-18.414,4.231-7.618,1.7-13.121,2.752-16.718,3.176l-1.164,2.962c-.316.848-.74,1.164-1.374,1.164-.848,0-1.377-.634-1.483-2.012l-2.644-9.2c5.4,0,10.794-.214,16.084-.532v-5.606a84.157,84.157,0,0,0-11.536.848l-2.114-4.974A74.578,74.578,0,0,0,133.464,765.17Zm16.189,15.66h28.041l5.822-6.664,7.828,5.714a3.057,3.057,0,0,1,1.269,2.22,1.481,1.481,0,0,1-1.693,1.591H149.653a84.912,84.912,0,0,0-11.639.845l-2.009-4.974A72.864,72.864,0,0,0,149.653,780.83Z" transform="translate(-7.42 -715.539)" fill="#666464"/>
    <path id="Path_623" data-name="Path 623" d="M166.643,782.249h25.924a55.649,55.649,0,0,0,2.225-13.651l9.522,1.269c2.114.316,3.281.95,3.281,2.009s-1.588,2.012-4.55,2.857c-.637,2.752-1.374,5.29-2.117,7.515H229.5l6.138-7.094,8.147,6.033a3.744,3.744,0,0,1,1.377,2.225,1.511,1.511,0,0,1-1.693,1.69H203.15a50.6,50.6,0,0,0,9.63,7.513,76.727,76.727,0,0,0,16.4,7.3,133.68,133.68,0,0,0,19.684,4.656l-.848,2.857a12.465,12.465,0,0,0-3.81.427c-1.269.211-2.962,1.69-4.866,4.547a84.8,84.8,0,0,1-16.616-6.562,56.92,56.92,0,0,1-14.391-9.732,43.243,43.243,0,0,1-8.252-11.007h-.319a43.545,43.545,0,0,1-2.328,4.971,34.223,34.223,0,0,1-10.159,10.478,82.949,82.949,0,0,1-15.025,7.516,183.933,183.933,0,0,1-19.681,5.185l-1.272-2.541c10.159-2.854,17.777-5.714,23.07-8.571a40.154,40.154,0,0,0,11.849-8.571,31.921,31.921,0,0,0,5.29-8.466H166.643a83.765,83.765,0,0,0-11.536.845l-2.114-4.972A72.9,72.9,0,0,0,166.643,782.249Zm20-60.846c2.328,1.585,3.6,3.068,3.6,4.547,0,2.117-.529,3.495-1.483,4.126H208.97a49.635,49.635,0,0,0,2.328-5.5,83.58,83.58,0,0,0,2.436-8.887l9.63,2.647c1.269.316,2.009.95,2.009,1.9,0,1.061-1.377,1.8-4.126,2.436a60.241,60.241,0,0,1-6.138,5.714c-.848.632-1.585,1.164-2.328,1.69h16.294l6.141-6.983,8.147,6.033a3.254,3.254,0,0,1,1.374,2.222c0,1.164-.529,1.693-1.588,1.693h-40.1v14.075h19.786l5.822-6.246,7.407,5.4a2.725,2.725,0,0,1,1.269,2.012,1.512,1.512,0,0,1-1.693,1.693H203.045v14.5H229.5l6.138-7.091,8.147,6.033a3.738,3.738,0,0,1,1.377,2.222,1.512,1.512,0,0,1-1.693,1.693h-76.4a85.227,85.227,0,0,0-11.636.845l-2.012-4.971a72.886,72.886,0,0,0,13.648,1.269h27.728v-14.5H174.9a83.289,83.289,0,0,0-11.531.845l-2.117-4.971a74.823,74.823,0,0,0,13.648,1.269h19.9V733.042h-27.3a85.338,85.338,0,0,0-11.642.845l-2.012-4.974a72.715,72.715,0,0,0,13.654,1.164H184.42a2.736,2.736,0,0,1-.743-1.059,65.556,65.556,0,0,0-9.2-11.32l2.114-1.588A83.585,83.585,0,0,1,186.642,721.4Z" transform="translate(62.799 -715.262)" fill="#666464"/>
    <path id="Path_624" data-name="Path 624" d="M206.746,727.433l.529,7.621h6.243l4.55-4.553,5.714,4.234a2.6,2.6,0,0,1,.953,1.588c0,1.164-.424,1.693-1.272,1.693H207.485l.637,9.416h6.667l4.547-4.55,5.714,4.234a2.891,2.891,0,0,1,.848,1.585c0,1.167-.421,1.693-1.164,1.693h-16.4l.529,9.525h58.095l.848-9.525h-1.377a82.952,82.952,0,0,0-11.536.848l-2.114-4.974a74.2,74.2,0,0,0,13.651,1.164h1.693l.848-9.416h-1.7a103.62,103.62,0,0,0-11.534.74l-2.117-4.869a72.689,72.689,0,0,0,13.651,1.167h2.012l.848-9.1h-2.86a83.317,83.317,0,0,0-11.534.848l-2.117-4.974a72.7,72.7,0,0,0,13.651,1.269h1.907l-.211-.421,4.547-4.126,5.609,4.866c1.164.953,1.8,1.69,1.8,2.117a1.37,1.37,0,0,1-1.056,1.375l-2.646,1.588-2.857,31.428h1.588l4.971-4.55,6.986,5.079a2.436,2.436,0,0,1,1.269,2.328c0,.634-.635,1.164-1.907,1.374l-2.644.742a91.224,91.224,0,0,1-11.112,9.416l-2.117-.74a80.779,80.779,0,0,0,5.08-10.794H198.6a35.464,35.464,0,0,1-.953,5.717,12.866,12.866,0,0,1-2.857,5.4,4.033,4.033,0,0,1-3.173,1.693q-4.128,0-4.129-4.126a5.071,5.071,0,0,1,1.8-3.495,18.785,18.785,0,0,0,3.594-4.974,71.261,71.261,0,0,0,3.284-9.311l2.538.845v5.4h3.176l-2.012-31.852a40.167,40.167,0,0,0-1.164-8.677l7.513,4.761a75.98,75.98,0,0,0,11.431-8.463l7.194,6.983a3.923,3.923,0,0,1,1.059,2.114,1.013,1.013,0,0,1-1.164,1.164l-4.55-.737A131.675,131.675,0,0,1,206.746,727.433Zm14.6,44.023h33.972l4.547-4.553,6.667,6.773A3.521,3.521,0,0,1,268.121,776c0,1.164-.743,1.693-2.009,1.693h-3.389a148.979,148.979,0,0,1-17.142,6.667,2.715,2.715,0,0,1,.213.74c0,.635-.635,1.483-1.7,2.436v1.693h26.035l6.241-6.984,8.15,5.925A3.663,3.663,0,0,1,285.9,790.5a1.481,1.481,0,0,1-1.693,1.588H244.1V803.3c0,3.386-1.9,6.138-5.5,8.252a19.607,19.607,0,0,1-8.571,2.436,7.682,7.682,0,0,0-1.164-4.655c-.743-1.269-4.232-2.433-10.373-3.6l.427-3.278,14.072,1.269c1.588,0,2.436-.74,2.436-2.117V792.09H205.687a83.353,83.353,0,0,0-11.534.845l-2.114-4.974a72.63,72.63,0,0,0,13.648,1.272h29.737v-.424c0-2.752-.213-5.612-.424-8.679l7.407,2.436a89.009,89.009,0,0,0,11.11-8.255h-32.17a84.986,84.986,0,0,0-11.531.845l-2.12-4.971A74.652,74.652,0,0,0,221.347,771.456Zm29.313-29.843a1.684,1.684,0,0,1,1.269,1.693c0,.848-1.374,1.588-4.126,2.117-.953.95-1.8,1.693-2.538,2.325a8.476,8.476,0,0,0,1.907,1.061c3.384,1.9,5.182,3.808,5.182,5.711a2.719,2.719,0,0,1-.845,2.225,3.282,3.282,0,0,1-2.857,1.059c-1.269,0-2.433-.743-3.705-2.436-1.48-1.374-2.857-2.644-4.337-3.916a28.742,28.742,0,0,1-5.29,2.857,49.358,49.358,0,0,1-10.583,3.495l-.848-1.7a43.722,43.722,0,0,0,4.869-2.325,36.84,36.84,0,0,0,5.4-3.6,14.111,14.111,0,0,0,2.225-2.117,95.808,95.808,0,0,0-8.363-5.5l1.269-1.269c3.81,1.374,6.986,2.646,9.738,3.7a64.478,64.478,0,0,0,4.234-6.562Zm.424-21.058a1.687,1.687,0,0,1,1.269,1.693c0,.845-1.377,1.588-4.126,2.117-1.056,1.269-1.9,2.222-2.646,3.068a.974.974,0,0,0,.529.316c3.386,2.117,5.082,4.129,5.082,6.138a1.921,1.921,0,0,1-.953,1.9,3.564,3.564,0,0,1-2.857.953c-1.059,0-2.222-.848-3.284-2.538-1.056-1.059-1.9-2.009-2.749-2.857a26.23,26.23,0,0,1-4.234,2.752,47.368,47.368,0,0,1-9.522,3.916l-.848-1.693a40.327,40.327,0,0,0,4.234-2.541,27.556,27.556,0,0,0,4.761-3.916c.637-.632,1.164-1.375,1.8-2.009a93.324,93.324,0,0,0-9.524-7.2l1.269-.845c4.234,1.693,7.831,3.278,10.688,4.55a47.466,47.466,0,0,0,3.705-7.092Z" transform="translate(129.589 -715.262)" fill="#666464"/>
  </g>
</svg>
